<?xml version="1.0" encoding="iso-8859-1"?>
<!-- Generator: Adobe Illustrator 30.2.1, SVG Export Plug-In . SVG Version: 9.03 Build 0)  -->
<svg version="1.1" id="Layer_1" xmlns="http://www.w3.org/2000/svg" xmlns:xlink="http://www.w3.org/1999/xlink" x="0px" y="0px"
	 width="3715.511px" height="1255.28px" viewBox="0 0 3715.511 1255.28" enable-background="new 0 0 3715.511 1255.28"
	 xml:space="preserve">
<g>
	<g>
		<g>
			<path fill="#881D1A" d="M844.508,1014.248c5.548-40.799,23.88-78.054,47.766-111.018
				c-61.441-18.498-125.082-39.275-184.543-63.372c-26.521-10.928-56.283-22.791-81.396-36.532
				c-18.763-9.952-14.168-5.322-32.289-12.31c-26.855-11.636-51.943-17.972-80.946-19.053c-26.563-4.774-85.919,3.889-78.361,40.29
				c10.311,20.009,28.572,35.832,46.571,48.835c24.556,18.471,56.219,31.044,83.797,44.373
				c55.843,24.088,117.222,41.609,173.802,63.888C774.376,983.591,811.221,993.483,844.508,1014.248z"/>
			<path fill="#881D1A" d="M2901.341,997.218c44.895-17.801,91.958-35.744,137.711-51.281
				c67.224-24.459,140.019-46.667,198.259-89.056c18.058-15.393,62.113-47.676,30.943-70.126
				c-33.552-26.446-78.181-14.619-116.986-7.574c-19.2,6.794-40.551,14.33-59.537,21.32c-15.265,8.787-35.056,17.818-51.374,24.618
				c-70.526,31.042-146.018,55.638-219.615,78.265c15.433,21.728,31.169,48.526,39.378,74.208c2.286,6.079,3.667,12.474,5,18.983
				c2.799,13.669-1.183,10.451,4.343,17.581C2877.655,1007.424,2892.633,1000.741,2901.341,997.218z"/>
			<path fill="#881D1A" d="M646.91,1092.942c18.795,9.102,40.762,17.163,59.053,26.919c18.727,9.13,44.257,25.117,15.637-6.29
				c-16.047-16.345-34.563-34.705-50.881-50.856c-32.139-34.579-70.661-46.891-115.6-57.045
				c-35.683-9.673-78.365-14.656-115.374-7.252c-2.133,1.358-3.876,3.157-0.412,2.573
				c106.182,50.278,161.327,105.809,232.846,195.232c-7.199-16.334-19.489-49.515-28.913-64.179
				c-3.848-7.426-12.542-23.636-16.591-31.104C623.183,1088.055,638.666,1088.364,646.91,1092.942z"/>
			<path fill="#881D1A" d="M3076.398,1119.068c-11.503,20.031-24.289,48.512-32.91,70.287c-0.428,1.01,0.045,4.372,0.592,3.907
				c17.89-21.761,36.055-46.038,55.375-66.517c30.222-33.647,66.582-62.799,104.292-87.555
				c19.61-12.565,52.986-29.432,72.474-39.573c-0.465-0.13-2.362-0.973-2.912-1.04c-42.471-8.721-85.313-1.176-126.498,9.917
				c-25.135,7.265-53.534,12.574-74.218,28.692c-17.863,12.847-34.838,29.499-50.262,45.099
				c-11.221,12.132-37.646,35.019-44.881,49.894c14.663-2.42,25.236-10.918,39.515-17.576c0,0,20.038-8.462,20.038-8.462
				C3060.203,1095.271,3106.341,1070.662,3076.398,1119.068z"/>
		</g>
		<path fill="#F8D6BF" d="M313.55,549.844c13.849-1.119,11.656,13.432,7.052,21.736c-12.542,22.696-26.56,47.901-43.95,67.188
			c-43.066,57.839-111.362,91.237-178.269,113.884c-8.947,2.705-61.149,20.294-44.228,32.766
			c37.889,13.94,73.111-18.637,56.486,24.171c-1.49,22.191,30.389,0.792,37.722-7.435c5.191-5.181,12.575-10.128,19.114-8.502
			c11.244,2.795,2.327,19.951,8.916,30.23c14.784,10.678,37.328-17.599,48.196-24.87c11.893-10.079,10.479-15.197,21.829-25.658
			c32.67-11.737,2.684,27.326,23.541,36.058c9.437,4.557,32.642-18.109,38.289-25.244c15.319-16.185,29.553-43.395,41.213-62.265
			c13.188-20.001,1.954-27.74,32.161-26.315c37.263-4.659,67.573-22.55,92.075-50.491c20.237-17.184,25.959-50.651,34.409-74.323
			c5.95-18.76,13-41.391,19.12-60.12c13.756-45.296,35.767-85.516,89.516-61.897c7.776,4.337-5.065-21.319-4.171-29.009
			c0,0-0.194-26.068-0.195-26.067c2.454-32.51-27.749-55.898-58.818-56.401c-26.446,0.262-49.088,20.191-69.982,34.07
			c-11.552,8.447-23.589,22.518-31.58,33.689c-6.121,7.801-20.366,36.481-30.578,24.835c-1.42-3.308-1.068-10.893,0.83-13.703
			c6.159-9.523,17.801-26.494,25.043-34.888c0.701-1.938-22.243-17.481-23.413-18.884c-40.261-30.554-69.257-77.475-90.727-122.347
			c-17.924-34.098-33.11-71.131-40.217-109.098c-3.155-16.792-7.733-40.645-7.853-57.505c-0.445-10.895,2.364-21.972-2.65-28.24
			c-14.964-1.025-18.879,28.366-21.413,39.815c-3.913,13.053,1.3,36.149-14.953,34.469c-5.086-2.19-7.286-8.705-11.52-7.775
			c-15.549,11.105-15.745,28.497-16.308,46.262c-2.01,13.086,9.289,57.123-16.916,36.523c-15.069-7.032-10.871,32.124-8.617,41.982
			c2.577,15.092,16.163,27.584,27.136,36.877c7.506,6.27,29.082,25.345,37.231,30.102c14.899,8.722,41.391,22.089,56.306,30.221
			c44.373,22.898,81.386,65.551,92.847,114.517c1.187,14.432,12.284,34.887,6.276,48.988c-1.539,2.401-8.72,5.194-11.101,3.659
			c-7.519-6.313-5.314-35.167-12.257-48.271c-7.99-36.173-33.427-70.197-64.335-90.173c-28.832-19.755-63.151-31.951-90.818-53.352
			c-67.907-50.066-109.687-119.385-131.06-199.51c-5.182-23.944-8.466-44.939-16.279-64.259
			c-8.684-25.885-16.275-43.572-23.67-1.948c-2.072,20.378-1.62,47.508,0.611,67.86c-4.893,20.183-19.889,0.843-29.818,4.554
			c-10.22,5.189-10.529,21.77-7.595,29.079c3.715,9.148,11.118,28.116,15.42,36.959c2.441,6.924,11.647,18.655,4.262,25.468
			c-7.421,9.138-22.674-4.226-26.904,9.614c-6.633,22.78,16.324,59.299,30.394,76.558c5.919,7.954,17.408,18.534,19.219,28.803
			c-3.276,21.145-29.043-1.988-32.747,28.094c-0.459,31.024,27.225,54.762,46.521,75.702c11.138,20.565-33.521,15.468,10.683,56.534
			c8.48,7.068,26.459,11.811,36.325,16.127c3.447,1.296,5.668,7.622,5.389,10.74c-4.866,16.109,8.249,26.71,21.379,34.545
			c46.022,26.883,99.66,19.769,149.162,9.879C307.342,553.513,311.246,550.871,313.55,549.844z"/>
		<g>
			<path fill="#F9B693" d="M2894.056,862.21c42.181-15.363,87.579-30.772,128.678-48.902
				c34.912-18.626,74.214-33.326,111.609-46.164c27.069-13.736,66.295-9.869,93.042-14.395
				c-50.495-55.804-94.423-119.603-127.418-187.299c-6.437-13.179-12.065-28.94-17.213-42.749
				c-5.246-13.981-8.729-31.233-11.055-46.456c-0.245-1.605-2.036-5.243-3.281-4.625c-98.161,46.567-203.741,81.424-308.798,108.829
				c-284.761,75.088-580.732,106.218-874.559,112.326c-233.84,0.131-469.441-19.804-699.774-61.083
				c-147.11-26.382-294.361-62.736-434.545-114.956c-34.67-13.421-71.992-28.515-105.527-44.643
				c-1.23-0.579-2.515-1.268-2.691-0.581c-5.288,28.552-6.804,36.546-17.056,63.753c-14.123,39.497-36.446,77.052-59.364,112.04
				c-23.517,36.254-50.472,73.039-79.836,105.065c21.308,5.596,46.319,0.865,68.565,6.856c18.732,5.069,42.137,14.953,60.873,20.965
				c22.047,8.934,53.88,21.669,74.924,33.273c27.65,12.083,59.772,24.353,88.243,34.353
				c115.636,41.351,236.728,70.718,357.133,94.662c222.074,41.78,449.012,64.471,674.644,68.28c37.636,1.57,78.28,0.378,115.95-0.46
				c15.712-1.068,37.112,1.484,52.423-2.341c31.003,0.857,65.642-2.707,96.713-4.124c13.564,1.31,30.699-2.499,44.238-2.827
				c34.386-2.427,72.052-5.229,106.331-8.806C2452.128,970.545,2677.547,930.756,2894.056,862.21z"/>
			<path fill="#F9B693" d="M748.439,1048.937c22.436,4.472,75.293,16.028,92.668,0.918c8.748-22.837-30.248-32.259-45.114-39.775
				c-41.385-16.506-85.59-33.389-127.801-47.544c-54.591-19.948-113.394-39.774-165.047-66.982
				c-4.831-2.226-8.966,10.01-11.236,12.186c-7.09,9.461-15.583,18.855-20.822,29.734c-9.571,12.428-23.068,29.518-32.28,42.201
				c-0.152-0.082,1.983,1.058,2.733,1.459c47.43-10.321,85.962,0.64,131.933,11.398
				C632.497,1008.022,688.935,1035.374,748.439,1048.937z"/>
			<path fill="#F9B693" d="M3009.527,1036.302c46.593-14.955,93.812-35.93,141.918-46.486c39.151-10.312,80.307-17.863,120.683-8.54
				c0.676-0.432,2.805-1.768,2.157-1.361c-17.972-23.584-35.769-47.718-52.934-71.769c-2.196-2.229-7.045-14.909-11.716-12.504
				c-56.192,29.308-120.398,50.584-179.75,72.189c-37.93,12.276-78.36,28.774-115.531,43.289
				c-57.532,20.512-62.963,51.772,6.375,45.304C2948.816,1054.165,2982.732,1044.444,3009.527,1036.302z"/>
		</g>
		<path fill="#F8D6BF" d="M3410.231,553.853c49.503,9.89,103.14,17.005,149.162-9.879c13.13-7.836,26.245-18.437,21.379-34.545
			c-0.28-3.118,1.941-9.444,5.389-10.74c9.866-4.316,27.845-9.059,36.325-16.127c44.204-41.066-0.454-35.969,10.683-56.534
			c19.296-20.939,46.98-44.678,46.521-75.702c-3.704-30.082-29.472-6.949-32.747-28.094c1.811-10.269,13.3-20.849,19.219-28.803
			c14.069-17.259,37.027-53.778,30.394-76.558c-4.23-13.84-19.483-0.476-26.904-9.614c-7.386-6.814,1.821-18.544,4.261-25.468
			c4.302-8.843,11.705-27.811,15.42-36.959c2.933-7.309,2.624-23.891-7.595-29.079c-9.929-3.71-24.925,15.629-29.818-4.554
			c2.231-20.352,2.682-47.482,0.611-67.86c-7.395-41.624-14.986-23.937-23.67,1.948c-7.813,19.32-11.097,40.315-16.279,64.259
			c-21.373,80.124-63.153,149.444-131.06,199.51c-27.667,21.401-61.986,33.597-90.818,53.352
			c-30.908,19.976-56.344,53.999-64.335,90.173c-6.942,13.104-4.738,41.958-12.257,48.271c-2.381,1.535-9.562-1.257-11.101-3.659
			c-6.009-14.101,5.089-34.556,6.276-48.988c11.461-48.966,48.474-91.62,92.847-114.517c14.914-8.132,41.407-21.499,56.305-30.221
			c8.149-4.758,29.726-23.832,37.231-30.102c10.973-9.293,24.559-21.785,27.136-36.877c2.255-9.858,6.452-49.014-8.617-41.982
			c-26.205,20.6-14.906-23.437-16.916-36.523c-0.563-17.765-0.759-35.157-16.308-46.262c-4.235-0.929-6.434,5.586-11.52,7.775
			c-16.253,1.68-11.041-21.416-14.953-34.469c-2.534-11.449-6.449-40.84-21.413-39.815c-5.014,6.268-2.205,17.346-2.65,28.24
			c-0.119,16.86-4.697,40.714-7.853,57.505c-7.106,37.967-22.293,75-40.217,109.098c-21.47,44.871-50.466,91.793-90.727,122.347
			c-1.17,1.403-24.114,16.947-23.413,18.884c7.242,8.394,18.883,25.365,25.043,34.888c1.897,2.81,2.25,10.395,0.83,13.703
			c-10.212,11.646-24.458-17.034-30.578-24.835c-7.991-11.17-20.028-25.242-31.58-33.689c-20.895-13.879-43.536-33.808-69.982-34.07
			c-31.069,0.502-61.272,23.891-58.818,56.401c-0.001-0.001-0.195,26.067-0.195,26.067c0.894,7.69-11.947,33.346-4.171,29.009
			c53.749-23.619,75.76,16.601,89.516,61.897c6.12,18.728,13.17,41.36,19.12,60.12c8.45,23.672,14.171,57.139,34.408,74.323
			c24.502,27.941,54.812,45.832,92.075,50.491c30.207-1.425,18.973,6.313,32.161,26.315c11.66,18.87,25.894,46.079,41.213,62.265
			c5.647,7.135,28.852,29.801,38.29,25.244c20.857-8.732-9.128-47.795,23.541-36.058c11.35,10.46,9.936,15.579,21.829,25.658
			c10.868,7.271,33.412,35.547,48.196,24.87c6.589-10.278-2.328-27.435,8.916-30.23c6.538-1.625,13.923,3.322,19.114,8.502
			c7.333,8.227,39.213,29.625,37.722,7.435c-16.625-42.808,18.596-10.231,56.486-24.171c16.921-12.473-35.281-30.061-44.228-32.766
			c-66.907-22.647-135.202-56.045-178.269-113.884c-17.389-19.286-31.407-44.491-43.95-67.188
			c-4.604-8.304-6.796-22.855,7.052-21.736C3404.266,550.871,3408.169,553.513,3410.231,553.853z"/>
		<g>
			<path fill="#F05827" d="M3679.895,768.006c18.689,36.627-31.63,41.224-56.778,37.86c2.988,26.309-19.136,40.946-49.88,22.511
				c-2.582-1.334-12.117-8.724-14.413-8.199c-8.526,50.057-66.02,8.571-85.179-12.659c-0.001,0.001-1.943-1.94-1.943-1.94
				c-8.191,8.336-10.587,31.263-39.901,19.119c-40.653-17.431-63.148-61.382-83.899-98.129c-4.486-8.348-4.096-12.008-9.004-12.71
				c-21.28-3.044-43.652-8.041-61.744-18.496c-12.078-6.806-25.626-14.443-35.04-24.885c-6.621-6.286-13.612-9.152-21.324-22.857
				c-6.792-12.068-4.772-3.456-11.131-17.097c-15.673-33.958-24.161-77.345-37.464-112.215
				c-10.06-21.208-14.766-54.878-41.401-59.372c-0.002,0.003-16.715,2.532-16.715,2.532c-13.215,0.701-27.771,15.971-43.424,5.798
				c-2.839-4.518-1.227-13.068,2.324-17.649c21.82-28.145,8.185-41.135,14.205-74.038c10.024-41.073,54.844-66.458,94.902-52.095
				c24.172,8.469,50.177,25.759,69.474,42.368c5.903,5.705,18.277-9.044,22.76-11.379c35.615-26.138,61.489-62.089,81.896-100.913
				c8.559-16.93,17.756-36.459,26.373-53.287c7.23-17.651,15.386-45.266,21.413-63.126c2.929-18.326,5.921-41.064,7.41-59.585
				c2.042-21.5-5.049-46.787,21.676-51.273c31.387,3.053,37.593,40.216,41.446,65.813c0.824,5.12,6.447,0.161,12.156,2.547
				c28.921,14.514,30.758,50.755,28.861,79.116c20.559,0.728,29.206,21.899,28.524,40.757c0.399,0.502,1.593,2.178,1.483,2.024
				c25.522-35.799,42.451-78.587,52.68-121.18c4.352-22.739,4.516-34.74,13.192-54.925c29.74-86.863,67.479-14.756,60.784,39.009
				c0.003-0.001-0.383,15.89-0.383,15.89c0.922,6.293,3.803-0.861,13.939,2.36c39.772,20.441,17.755,62.328,4.616,92.173
				c54.105,28.202,8.04,92.865-19.271,124.666c55.587,30.908,11.358,85.12-20.375,118.746c25.012,20.441-6.438,57.801-28.865,70.656
				c-8.559,5.11-22.486,7.285-22.761,11.532c3.355,32.939-46.434,54.231-73.411,59.682c-34.504,12.764-72.614,2.018-107.061-0.084
				c4.959,15.286,25.099,38.645,33.422,52.578c29.326,36.035,73.993,69.811,116.936,87.814
				c17.534,8.169,46.213,18.571,64.595,25.252C3651.279,747.706,3668.093,750.829,3679.895,768.006z M3410.231,553.853
				c49.503,9.89,103.14,17.005,149.162-9.879c13.13-7.836,26.245-18.437,21.379-34.545c-0.28-3.118,1.941-9.444,5.389-10.74
				c9.866-4.316,27.845-9.059,36.325-16.127c44.204-41.066-0.454-35.969,10.683-56.534c19.296-20.939,46.98-44.678,46.521-75.702
				c-3.704-30.082-29.472-6.949-32.747-28.094c1.811-10.269,13.3-20.849,19.219-28.803c14.069-17.259,37.027-53.778,30.394-76.558
				c-4.23-13.84-19.483-0.476-26.904-9.614c-7.386-6.814,1.821-18.544,4.261-25.468c4.302-8.843,11.705-27.811,15.42-36.959
				c2.933-7.309,2.624-23.891-7.595-29.079c-9.929-3.71-24.925,15.629-29.818-4.554c2.231-20.352,2.682-47.482,0.611-67.86
				c-7.395-41.624-14.986-23.937-23.67,1.948c-7.813,19.32-11.097,40.315-16.279,64.259
				c-21.373,80.124-63.153,149.444-131.06,199.51c-27.667,21.401-61.986,33.597-90.818,53.352
				c-30.908,19.976-56.344,53.999-64.335,90.173c-6.942,13.104-4.738,41.958-12.257,48.271c-2.381,1.535-9.562-1.257-11.101-3.659
				c-6.009-14.101,5.089-34.556,6.276-48.988c11.461-48.966,48.474-91.62,92.847-114.517c14.914-8.132,41.407-21.499,56.305-30.221
				c8.149-4.758,29.726-23.832,37.231-30.102c10.973-9.293,24.559-21.785,27.136-36.877c2.255-9.858,6.452-49.014-8.617-41.982
				c-26.205,20.6-14.906-23.437-16.916-36.523c-0.563-17.765-0.759-35.157-16.308-46.262c-4.235-0.929-6.434,5.586-11.52,7.775
				c-16.253,1.68-11.041-21.416-14.953-34.469c-2.534-11.449-6.449-40.84-21.413-39.815c-5.014,6.268-2.205,17.346-2.65,28.24
				c-0.119,16.86-4.697,40.714-7.853,57.505c-7.106,37.967-22.293,75-40.217,109.098c-21.47,44.871-50.466,91.793-90.727,122.347
				c-1.17,1.403-24.114,16.947-23.413,18.884c7.242,8.394,18.883,25.365,25.043,34.888c1.897,2.81,2.25,10.395,0.83,13.703
				c-10.212,11.646-24.458-17.034-30.578-24.835c-7.991-11.17-20.028-25.242-31.58-33.689
				c-20.895-13.879-43.536-33.808-69.982-34.07c-31.069,0.502-61.272,23.891-58.818,56.401c-0.001-0.001-0.195,26.067-0.195,26.067
				c0.894,7.69-11.947,33.346-4.171,29.009c53.749-23.619,75.76,16.601,89.516,61.897c6.12,18.728,13.17,41.36,19.12,60.12
				c8.45,23.672,14.171,57.139,34.408,74.323c24.502,27.941,54.812,45.832,92.075,50.491c30.207-1.425,18.973,6.313,32.161,26.315
				c11.66,18.87,25.894,46.079,41.213,62.265c5.647,7.135,28.852,29.801,38.29,25.244c20.857-8.732-9.128-47.795,23.541-36.058
				c11.35,10.46,9.936,15.579,21.829,25.658c10.868,7.271,33.412,35.547,48.196,24.87c6.589-10.278-2.328-27.435,8.916-30.23
				c6.538-1.625,13.923,3.322,19.114,8.502c7.333,8.227,39.213,29.625,37.722,7.435c-16.625-42.808,18.596-10.231,56.486-24.171
				c16.921-12.473-35.281-30.061-44.228-32.766c-66.907-22.647-135.202-56.045-178.269-113.884
				c-17.389-19.286-31.407-44.491-43.95-67.188c-4.604-8.304-6.796-22.855,7.052-21.736
				C3404.266,550.871,3408.169,553.513,3410.231,553.853z"/>
			<path fill="#F05827" d="M3152.396,408.392c-8.871-6.04-24.014-17.297-25.31-26.905c1.716-14.489,15.858-6.972,20.05-5.53
				C3170.598,343.893,3175.347,392.427,3152.396,408.392z"/>
		</g>
		<g>
			<path fill="#F05827" d="M81.915,740.716c18.382-6.681,47.061-17.083,64.595-25.252c42.943-18.003,87.61-51.78,116.936-87.814
				c8.323-13.933,28.463-37.292,33.422-52.578c-34.448,2.102-72.557,12.848-107.061,0.084
				c-26.977-5.451-76.766-26.743-73.411-59.682c-0.275-4.247-14.203-6.421-22.761-11.532
				c-22.426-12.855-53.876-50.216-28.865-70.656c-31.734-33.625-75.963-87.837-20.375-118.746
				c-27.311-31.801-73.376-96.464-19.272-124.666c-13.138-29.845-35.156-71.733,4.616-92.173c10.136-3.221,13.017,3.934,13.939-2.36
				c0,0-0.385-15.89-0.383-15.89C36.601,25.687,74.341-46.42,104.081,40.443c8.677,20.186,8.84,32.186,13.192,54.925
				c10.229,42.593,27.159,85.381,52.68,121.18c-0.111,0.154,1.083-1.521,1.483-2.024c-0.682-18.858,7.965-40.029,28.524-40.757
				c-1.897-28.361-0.06-64.602,28.861-79.116c5.71-2.385,11.332,2.574,12.156-2.547c3.853-25.598,10.059-62.761,41.446-65.813
				c26.725,4.486,19.634,29.773,21.676,51.273c1.489,18.521,4.481,41.258,7.41,59.585c6.027,17.86,14.183,45.474,21.413,63.126
				c8.617,16.828,17.814,36.357,26.373,53.287c20.407,38.825,46.28,74.775,81.895,100.913c4.483,2.335,16.858,17.085,22.76,11.379
				c19.297-16.609,45.302-33.899,69.474-42.368c40.058-14.363,84.878,11.021,94.902,52.095c6.02,32.903-7.616,45.893,14.205,74.038
				c3.551,4.581,5.163,13.131,2.324,17.649c-15.652,10.173-30.209-5.097-43.424-5.798c0,0-16.713-2.529-16.715-2.532
				c-26.635,4.495-31.341,38.164-41.401,59.372c-13.303,34.87-21.791,78.258-37.464,112.215c-6.359,13.64-4.339,5.028-11.131,17.097
				c-7.713,13.704-14.703,16.571-21.324,22.857c-9.413,10.442-22.962,18.079-35.04,24.885
				c-18.092,10.455-40.463,15.452-61.743,18.496c-4.908,0.702-4.518,4.362-9.004,12.71c-20.751,36.748-43.245,80.698-83.899,98.129
				c-29.314,12.145-31.71-10.783-39.901-19.119c0,0-1.942,1.942-1.943,1.94c-19.159,21.231-76.652,62.717-85.179,12.659
				c-2.296-0.525-11.831,6.865-14.413,8.199c-30.745,18.435-52.869,3.798-49.88-22.511c-25.148,3.364-75.468-1.234-56.778-37.86
				C47.418,750.829,64.232,747.706,81.915,740.716z M313.55,549.844c13.849-1.119,11.656,13.432,7.052,21.736
				c-12.542,22.696-26.56,47.901-43.95,67.188c-43.066,57.839-111.362,91.237-178.269,113.884
				c-8.947,2.705-61.149,20.294-44.228,32.766c37.889,13.94,73.111-18.637,56.486,24.171c-1.49,22.191,30.389,0.792,37.722-7.435
				c5.191-5.181,12.575-10.128,19.114-8.502c11.244,2.795,2.327,19.951,8.916,30.23c14.784,10.678,37.328-17.599,48.196-24.87
				c11.893-10.079,10.479-15.197,21.829-25.658c32.67-11.737,2.684,27.326,23.541,36.058c9.437,4.557,32.642-18.109,38.289-25.244
				c15.319-16.185,29.553-43.395,41.213-62.265c13.188-20.001,1.954-27.74,32.161-26.315c37.263-4.659,67.573-22.55,92.075-50.491
				c20.237-17.184,25.959-50.651,34.409-74.323c5.95-18.76,13-41.391,19.12-60.12c13.756-45.296,35.767-85.516,89.516-61.897
				c7.776,4.337-5.065-21.319-4.171-29.009c0,0-0.194-26.068-0.195-26.067c2.454-32.51-27.749-55.898-58.818-56.401
				c-26.446,0.262-49.088,20.191-69.982,34.07c-11.552,8.447-23.589,22.518-31.58,33.689c-6.121,7.801-20.366,36.481-30.578,24.835
				c-1.42-3.308-1.068-10.893,0.83-13.703c6.159-9.523,17.801-26.494,25.043-34.888c0.701-1.938-22.243-17.481-23.413-18.884
				c-40.261-30.554-69.257-77.475-90.727-122.347c-17.924-34.098-33.11-71.131-40.217-109.098
				c-3.155-16.792-7.733-40.645-7.853-57.505c-0.445-10.895,2.364-21.972-2.65-28.24c-14.964-1.025-18.879,28.366-21.413,39.815
				c-3.913,13.053,1.3,36.149-14.953,34.469c-5.086-2.19-7.286-8.705-11.52-7.775c-15.549,11.105-15.745,28.497-16.308,46.262
				c-2.01,13.086,9.289,57.123-16.916,36.523c-15.069-7.032-10.871,32.124-8.617,41.982c2.577,15.092,16.163,27.584,27.136,36.877
				c7.506,6.27,29.082,25.345,37.231,30.102c14.899,8.722,41.391,22.089,56.306,30.221c44.373,22.898,81.386,65.551,92.847,114.517
				c1.187,14.432,12.284,34.887,6.276,48.988c-1.539,2.401-8.72,5.194-11.101,3.659c-7.519-6.313-5.314-35.167-12.257-48.271
				c-7.99-36.173-33.427-70.197-64.335-90.173c-28.832-19.755-63.151-31.951-90.818-53.352
				c-67.907-50.066-109.687-119.385-131.06-199.51c-5.182-23.944-8.466-44.939-16.279-64.259
				c-8.684-25.885-16.275-43.572-23.67-1.948c-2.072,20.378-1.62,47.508,0.611,67.86c-4.893,20.183-19.889,0.843-29.818,4.554
				c-10.22,5.189-10.529,21.77-7.595,29.079c3.715,9.148,11.118,28.116,15.42,36.959c2.441,6.924,11.647,18.655,4.262,25.468
				c-7.421,9.138-22.674-4.226-26.904,9.614c-6.633,22.78,16.324,59.299,30.394,76.558c5.919,7.954,17.408,18.534,19.219,28.803
				c-3.276,21.145-29.043-1.988-32.747,28.094c-0.459,31.024,27.225,54.762,46.521,75.702
				c11.138,20.565-33.521,15.468,10.683,56.534c8.48,7.068,26.459,11.811,36.325,16.127c3.447,1.296,5.668,7.622,5.389,10.74
				c-4.866,16.109,8.249,26.71,21.379,34.545c46.022,26.883,99.66,19.769,149.162,9.879
				C307.342,553.513,311.246,550.871,313.55,549.844z"/>
			<path fill="#F05827" d="M563.115,408.392c8.871-6.04,24.014-17.297,25.31-26.905c-1.715-14.489-15.858-6.972-20.05-5.53
				C544.913,343.893,540.164,392.427,563.115,408.392z"/>
		</g>
		<g>
			<path fill="#F05827" d="M2829.169,951.373c-6.187-8.298-19.627-45.534-31.164-42.202c-29.7,8.063-63.865,16.734-93.741,24.33
				c-89.974,21.1-182.301,38.39-273.661,52.286c-176.828,26.017-356.764,40.026-535.312,43.251
				c-285.573,1.044-572.976-25.841-852.055-87.785c-24.119-5.165-55.867-12.91-79.717-19.225c0.001,0-19.909-5.294-19.909-5.294
				l-9.845-2.554c0,0-19.452-5.127-19.452-5.127c-2.469-0.651-6.783,1.306-8.16,3.471c-19.249,29.666-34.079,58.894-41.496,93.16
				c-8.128,18.843,7.341,48.933-16.347,61.795c-54.731,18.911-114.986-4.031-167.615-20.934l-0.12,2.025
				c37.139,32.889,70.18,72.923,101.057,111.421c4.661,13.615-14.987,16.631-23.437,7.256
				c-32.694-18.26-64.958-36.851-100.248-48.951c-1.904-0.532,7.601,19.847,8.998,22.489c6.167,9.071,62.557,141.341,18.12,109.005
				c-40.432-66.337-92.333-128.228-154.629-175.026c-161.904-117.901-161.505-14.951-46.244-186.379
				c0.303-0.424,0.395-3.575-0.046-3.852l-9.089-5.701c-26.494-20.099-67.926-47.096-58.117-84.893
				c1.875-10.603,11.964-17.479,19.687-23.498c13.188-9.858,27.805-22.109,38.635-34.195c24.436-23.862,50.15-58.956,68.917-87.506
				c20.266-29.368,41.05-64.184,56.637-96.521c44.65-94.428-1.808-124.87,86.549-80.406
				c119.816,52.196,246.888,87.886,374.071,116.981c253.705,54.842,513.821,81.95,772.829,86.019
				c41.917,1.246,85.809-1.562,127.775-1.286c3.996-3.168,23.731-1.025,28.479-1.418c15.609-1.621,37.662-2.599,53.474-3.042
				c6.402,0.169,24.815-2.392,30.939-1.061c137.736-10.905,276.382-23.946,412.255-47.545
				c196.062-33.807,392.881-80.487,573.833-164.9c0-0.001,10.534-4.995,10.534-4.995c4.605-2.183,15.153,6,15.894,16.935
				c2.383,29.461,15.279,63.591,27.23,90.423c8.121,17.485,22.673,40.817,32.136,57.546c23.865,36.048,50.207,78.305,80.309,109.668
				c18.886,21.546,34.772,34.505,58.15,52.097c37.561,37.778-17.707,81.621-48.91,102.42c-2.881,2.098-9.649,3.917-7.944,8.348
				c0.002,0,9.623,13.409,9.623,13.409c2.41,3.359,4.259,6.709,6.315,10.234c10.824,14.845,16.292,20.555,26.866,35.766
				c2.237,3.078,4.751,6.124,7.197,9.094c0,0,12.211,14.831,12.211,14.831c2.623,5.347,27.62,24.027,18.13,31.785
				c-42.779,21.426-88.742,42.554-126.749,72.033c-51.105,38.2-95.005,87.519-131.581,139.567
				c-3.979,8.738-17.779,25.318-21.704,33.694c-32.893,28.443-9.987-39.881-6.239-52.025c6.087-18.149,13.421-36.163,22.242-53.078
				c8.497-18.792,19.548-32.646-9.967-17.239c-8.406,5.632-22.494,8.383-30.294,13.564c-7.387,5.764-26.881,15.09-34.96,19.274
				c-10.087,3.081-26.146,21.098-35.71,11.369c-3.487-3.229-5.098-8.411-1.008-12.488c10.59-10.644,21.504-26.745,31.073-38.592
				c10.719-11.103,20.211-23.463,31.188-34.354c12.102-11.397,24.06-24.656,36.61-35.556c0.327-0.302,0.557-2.716,0.147-2.53
				c-35.638,11.978-68.093,22.531-106.441,26.706c-37.292,2.308-82.056,4.258-74.198-45.013c-2.303-17.402,0.881-10.052-2.07-20.21
				C2842.926,989.339,2839.987,968.993,2829.169,951.373z M2894.056,862.21c42.181-15.363,87.579-30.772,128.678-48.902
				c34.912-18.626,74.214-33.326,111.609-46.164c27.069-13.736,66.295-9.869,93.042-14.395
				c-50.495-55.804-94.423-119.603-127.418-187.299c-6.437-13.179-12.065-28.94-17.213-42.749
				c-5.246-13.981-8.729-31.233-11.055-46.456c-0.245-1.605-2.036-5.243-3.281-4.625c-98.161,46.567-203.741,81.424-308.798,108.829
				c-284.761,75.088-580.732,106.218-874.559,112.326c-233.84,0.131-469.441-19.804-699.774-61.083
				c-147.11-26.382-294.361-62.736-434.545-114.956c-34.67-13.421-71.992-28.515-105.527-44.643
				c-1.23-0.579-2.515-1.268-2.691-0.581c-5.288,28.552-6.804,36.546-17.056,63.753c-14.123,39.497-36.446,77.052-59.364,112.04
				c-23.517,36.254-50.472,73.039-79.836,105.065c21.308,5.596,46.319,0.865,68.565,6.856c18.732,5.069,42.137,14.953,60.873,20.965
				c22.047,8.934,53.88,21.669,74.924,33.273c27.65,12.083,59.772,24.353,88.243,34.353
				c115.636,41.351,236.728,70.718,357.133,94.662c222.074,41.78,449.012,64.471,674.644,68.28c37.636,1.57,78.28,0.378,115.95-0.46
				c15.712-1.068,37.112,1.484,52.423-2.341c31.003,0.857,65.642-2.707,96.713-4.124c13.564,1.31,30.699-2.499,44.238-2.827
				c34.386-2.427,72.052-5.229,106.331-8.806C2452.128,970.545,2677.547,930.756,2894.056,862.21z M844.508,1014.248
				c5.548-40.799,23.88-78.054,47.766-111.018c-61.441-18.498-125.082-39.275-184.543-63.372
				c-26.521-10.928-56.283-22.791-81.396-36.532c-18.763-9.952-14.168-5.322-32.289-12.31
				c-26.855-11.636-51.943-17.972-80.946-19.053c-26.563-4.774-85.919,3.889-78.361,40.29
				c10.311,20.009,28.572,35.832,46.571,48.835c24.556,18.471,56.219,31.044,83.797,44.373
				c55.843,24.088,117.222,41.609,173.802,63.888C774.376,983.591,811.221,993.483,844.508,1014.248z M2901.341,997.218
				c44.895-17.801,91.958-35.744,137.711-51.281c67.224-24.459,140.019-46.667,198.259-89.056
				c18.058-15.393,62.113-47.676,30.943-70.126c-33.552-26.446-78.181-14.619-116.986-7.574c-19.2,6.794-40.551,14.33-59.537,21.32
				c-15.265,8.787-35.056,17.818-51.374,24.618c-70.526,31.042-146.018,55.638-219.615,78.265
				c15.433,21.728,31.169,48.526,39.378,74.208c2.286,6.079,3.667,12.474,5,18.983c2.799,13.669-1.183,10.451,4.343,17.581
				C2877.655,1007.424,2892.633,1000.741,2901.341,997.218z M748.439,1048.937c22.436,4.472,75.293,16.028,92.668,0.918
				c8.748-22.837-30.248-32.259-45.114-39.775c-41.385-16.506-85.59-33.389-127.801-47.544
				c-54.591-19.948-113.394-39.774-165.047-66.982c-4.831-2.226-8.966,10.01-11.236,12.186c-7.09,9.461-15.583,18.855-20.822,29.734
				c-9.571,12.428-23.068,29.518-32.28,42.201c-0.152-0.082,1.983,1.058,2.733,1.459c47.43-10.321,85.962,0.64,131.933,11.398
				C632.497,1008.022,688.935,1035.374,748.439,1048.937z M3009.527,1036.302c46.593-14.955,93.812-35.93,141.918-46.486
				c39.151-10.312,80.307-17.863,120.683-8.54c0.676-0.432,2.805-1.768,2.157-1.361c-17.972-23.584-35.769-47.718-52.934-71.769
				c-2.196-2.229-7.045-14.909-11.716-12.504c-56.192,29.308-120.398,50.584-179.75,72.189
				c-37.93,12.276-78.36,28.774-115.531,43.289c-57.532,20.512-62.963,51.772,6.375,45.304
				C2948.816,1054.165,2982.732,1044.444,3009.527,1036.302z M646.91,1092.942c18.795,9.102,40.762,17.163,59.053,26.919
				c18.727,9.13,44.257,25.117,15.637-6.29c-16.047-16.345-34.563-34.705-50.881-50.856c-32.139-34.579-70.661-46.891-115.6-57.045
				c-35.683-9.673-78.365-14.656-115.374-7.252c-2.133,1.358-3.876,3.157-0.412,2.573
				c106.182,50.278,161.327,105.809,232.846,195.232c-7.199-16.334-19.489-49.515-28.913-64.179
				c-3.848-7.426-12.542-23.636-16.591-31.104C623.183,1088.055,638.666,1088.364,646.91,1092.942z M3076.398,1119.068
				c-11.503,20.031-24.289,48.512-32.91,70.287c-0.428,1.01,0.045,4.372,0.592,3.907c17.89-21.761,36.055-46.038,55.375-66.517
				c30.222-33.647,66.582-62.799,104.292-87.555c19.61-12.565,52.986-29.432,72.474-39.573c-0.465-0.13-2.362-0.973-2.912-1.04
				c-42.471-8.721-85.313-1.176-126.498,9.917c-25.135,7.265-53.534,12.574-74.218,28.692
				c-17.863,12.847-34.838,29.499-50.262,45.099c-11.221,12.132-37.646,35.019-44.881,49.894
				c14.663-2.42,25.236-10.918,39.515-17.576c0,0,20.038-8.462,20.038-8.462C3060.203,1095.271,3106.341,1070.662,3076.398,1119.068
				z"/>
		</g>
	</g>
	<g>
		<path fill="#F05827" d="M692.888,758.249c-23.698-7.906-47.341-16.063-70.915-24.469c17.522-60.086,35.219-120.113,53.097-180.081
			c19.526,7.03,39.102,13.879,58.721,20.546c-3.355,12.651-6.696,25.305-10.03,37.962c-4.162,15.131-8.61,30.166-13.056,45.204
			c0.194,0.065,0.388,0.131,0.582,0.197c9.935-13.179,16.564-21.368,25.645-33.317c10.975-14.079,21.873-28.2,32.693-42.363
			c0.567,0.186,1.133,0.372,1.702,0.557c0.242,17.789,0.567,35.589,0.975,53.402c0.449,15.385,1.303,25.708,1.217,42.122
			c0.198,0.062,0.388,0.124,0.585,0.185c5.335-14.751,10.64-29.499,16.236-44.162c4.804-12.174,9.598-24.352,14.383-36.533
			c19.725,6.231,39.492,12.281,59.301,18.148c-21.078,58.918-42.34,117.778-63.78,176.577
			c-23.878-7.152-47.701-14.555-71.462-22.208c0.932-23.071,1.968-46.122,3.122-69.153c-0.194-0.064-0.391-0.128-0.585-0.192
			C718.613,719.914,705.804,739.107,692.888,758.249z"/>
		<path fill="#F05827" d="M878.013,619.76c38.886,11.343,77.922,21.988,117.093,31.934c-4.785,18.842-9.568,37.683-14.351,56.525
			c-18.939-4.809-37.847-9.779-56.728-14.91c-1.446,5.321-2.893,10.642-4.338,15.963c17.99,4.889,36.008,9.633,54.053,14.232
			c-2.938,11.528-5.875,23.056-8.813,34.584c-18.227-4.645-36.427-9.437-54.6-14.376c-1.573,5.786-3.146,11.572-4.718,17.359
			c19.554,5.314,39.141,10.459,58.76,15.435c-4.826,19.031-9.654,38.061-14.48,57.092c-41.602-10.552-83.065-21.852-124.361-33.898
			C843.025,739.72,860.521,679.74,878.013,619.76z"/>
		<path fill="#F05827" d="M1010.943,655.676c39.204,9.758,78.543,18.818,117.986,27.18c-4.032,19.017-8.062,38.034-12.094,57.051
			c-19.073-4.043-38.12-8.247-57.14-12.611c-1.232,5.374-2.466,10.748-3.698,16.123c18.122,4.159,36.27,8.172,54.447,12.041
			c-2.475,11.636-4.955,23.271-7.43,34.907c-18.357-3.908-36.692-7.962-54.998-12.163c-1.344,5.844-2.682,11.688-4.023,17.532
			c19.699,4.52,39.428,8.872,59.187,13.055c-4.067,19.208-8.135,38.415-12.2,57.623c-41.894-8.869-83.667-18.486-125.304-28.849
			C980.764,776.935,995.855,716.305,1010.943,655.676z"/>
		<path fill="#F05827" d="M1189.141,800.509c-5.154,27.471-10.31,54.943-15.464,82.414c-22.3-4.184-44.571-8.578-66.803-13.182
			c12.668-61.181,25.336-122.363,38.004-183.544c21.09,4.367,42.217,8.535,63.366,12.504c-5.26,28.042-10.524,56.084-15.785,84.125
			c12.62-26.661,25.06-53.379,37.333-80.153c21.172,3.833,42.366,7.467,63.59,10.902c-15.233,28.69-30.738,57.289-46.51,85.792
			c5.23,33.08,10.744,66.16,16.56,99.237c-22.37-3.621-44.72-7.452-67.038-11.493
			C1193.799,858.236,1191.38,829.368,1189.141,800.509z"/>
		<path fill="#F05827" d="M1306.51,715.674c39.732,6.274,79.552,11.849,119.434,16.727c-2.362,19.296-4.718,38.591-7.08,57.887
			c-19.285-2.358-38.552-4.877-57.807-7.557c-0.757,5.461-1.517,10.922-2.28,16.384c18.344,2.553,36.708,4.961,55.082,7.225
			c-1.454,11.807-2.908,23.614-4.362,35.421c-18.56-2.286-37.107-4.719-55.64-7.298c-0.828,5.939-1.655,11.878-2.481,17.816
			c19.943,2.775,39.9,5.382,59.875,7.819c-2.379,19.489-4.757,38.977-7.135,58.466c-42.355-5.169-84.65-11.085-126.844-17.748
			C1287.018,839.102,1296.763,777.388,1306.51,715.674z"/>
		<path fill="#F05827" d="M1442.068,734.334c19.557,2.299,39.13,4.43,58.719,6.393c3.614,13.29,7.283,26.574,11.003,39.854
			c3.786,13.675,7.633,27.344,11.54,41.008c0.302,0.028,0.596,0.055,0.9,0.082c3.009-39.643,4.045-57.32,5.035-77.917
			c19.794,1.818,39.601,3.466,59.42,4.942c-4.641,62.306-9.279,124.612-13.924,186.919c-19.652-1.464-39.296-3.087-58.924-4.87
			c-4.222-12.038-8.386-24.082-12.504-36.134c-4.854-14.063-9.641-28.135-14.355-42.215c-0.304-0.03-0.606-0.061-0.908-0.091
			c-1.803,24.994-3.585,49.99-5.357,74.987c-20.857-2.087-41.7-4.354-62.527-6.802
			C1427.48,858.437,1434.772,796.385,1442.068,734.334z"/>
		<path fill="#F05827" d="M1668.219,753.116c64.056,3.155,89.272,33.496,87.794,98.299c-1.473,64.566-29.538,92.809-97.435,89.472
			c-25.166-1.267-53.395-3.386-65.81-4.267c4.338-62.328,8.666-124.657,13-186.985
			C1619.01,750.57,1644.935,751.941,1668.219,753.116z M1666.616,879.702c15.287,0.755,20.525-7.172,21.561-30.644
			c1.092-24.644-3.329-33.527-18.316-34.267c-0.802-0.04-1.599-0.08-2.399-0.121c-1.096,21.636-2.192,43.272-3.29,64.908
			C1664.985,879.62,1665.801,879.661,1666.616,879.702z"/>
		<path fill="#F05827" d="M1830.834,851.929c0.708-61.877,25.623-97.42,80.23-98.375c56.368-1.165,82.931,33.061,85.679,93.725
			c2.973,65.708-22.363,99.987-81.967,101.222C1856.727,949.511,1830.705,917.131,1830.834,851.929z M1914.514,886.403
			c12.247-0.243,14.517-7.571,13.844-35.992c-0.679-28.431-3.232-35.32-15.216-35.081c-11.986,0.224-14.282,7.207-13.857,35.642
			C1899.708,879.397,1902.266,886.632,1914.514,886.403z"/>
		<path fill="#F05827" d="M1997.799,754.588c21.904-0.967,43.803-2.143,65.694-3.527c4.951,31.57,9.984,63.13,15.101,94.681
			c2.541,15.535,4.848,31.669,6.286,44.075c0.919-0.061,1.84-0.123,2.76-0.185c-0.226-12.487-0.11-28.783,0.336-44.519
			c0.85-31.952,1.622-63.902,2.309-95.851c21.878-1.555,43.747-3.318,65.599-5.289c-2.429,62.854-5.296,125.72-8.597,188.592
			c-38.554,3.206-77.147,5.797-115.759,7.773C2019.853,878.472,2008.609,816.554,1997.799,754.588z"/>
		<path fill="#F05827" d="M2163.52,743.275c39.978-3.696,79.909-8.091,119.77-13.184c2.466,19.283,4.927,38.565,7.393,57.848
			c-19.276,2.463-38.565,4.765-57.869,6.906c0.608,5.48,1.215,10.96,1.825,16.441c18.396-2.041,36.779-4.226,55.147-6.557
			c1.495,11.802,2.997,23.603,4.492,35.405c-18.555,2.355-37.121,4.562-55.705,6.624c0.662,5.959,1.322,11.919,1.983,17.878
			c19.996-2.218,39.974-4.605,59.94-7.161c2.494,19.474,4.988,38.949,7.48,58.423c-42.336,5.42-84.739,10.093-127.196,14.018
			C2175.026,867.702,2169.274,805.489,2163.52,743.275z"/>
		<path fill="#F05827" d="M2299.397,727.995c22.463-2.977,44.903-6.177,67.316-9.597c53.364-8.212,84.926,8.575,92.536,50.905
			c3.898,21.994-1.091,37.338-13.326,49.146c12.396,23.589,24.963,47.12,37.7,70.592c-23.349,4.156-46.735,8.082-70.142,11.778
			c-7.532-17.709-15-35.438-22.385-53.186c-2.996,0.754-6.019,1.218-9.365,1.723c3.182,18.299,6.369,36.598,9.566,54.895
			c-22.4,3.395-44.824,6.58-67.269,9.555C2315.819,851.869,2307.606,789.932,2299.397,727.995z M2384.563,805.192
			c8.996-1.385,14.588-8.744,13.221-17.336c-1.418-8.885-8.987-14.434-17.902-13.062c-8.916,1.372-14.459,8.942-13.142,17.842
			C2368.023,801.241,2375.546,806.578,2384.563,805.192z"/>
		<path fill="#F05827" d="M2454.557,703.829c21.658-3.88,43.292-7.968,64.891-12.265c9.117,30.63,18.311,61.24,27.582,91.829
			c4.595,15.059,9.016,30.743,12.098,42.847c0.906-0.184,1.815-0.368,2.723-0.553c-1.881-12.347-3.916-28.516-5.568-44.173
			c-3.381-31.785-6.852-63.557-10.403-95.316c21.578-4.467,43.115-9.143,64.626-14.027c5.909,62.629,11.378,125.327,16.422,188.09
			c-37.967,8.342-76.042,16.069-114.195,23.181C2492.917,823.679,2473.52,763.807,2454.557,703.829z"/>
		<path fill="#F05827" d="M2618.016,670.457c21.017-4.823,42.002-9.845,62.949-15.066c15.11,60.624,30.22,121.248,45.331,181.873
			c-22.078,5.505-44.204,10.799-66.363,15.883C2645.962,792.25,2631.989,731.353,2618.016,670.457z"/>
		<path fill="#F05827" d="M2695.944,651.621c39.167-9.95,78.208-20.598,117.091-31.944c5.443,18.661,10.89,37.323,16.333,55.984
			c-18.804,5.486-37.639,10.812-56.508,15.977c1.458,5.318,2.912,10.637,4.367,15.955c17.98-4.922,35.935-9.989,53.856-15.201
			c3.324,11.423,6.645,22.846,9.967,34.269c-18.104,5.265-36.237,10.383-54.402,15.355c1.583,5.783,3.167,11.567,4.75,17.35
			c19.548-5.35,39.053-10.869,58.531-16.557c5.505,18.846,11.011,37.692,16.513,56.538c-41.298,12.061-82.754,23.375-124.354,33.942
			C2726.707,772.734,2711.324,712.178,2695.944,651.621z"/>
		<path fill="#F05827" d="M2961.983,770.016c-23.763,7.653-47.585,15.056-71.461,22.208c-21.44-58.8-42.698-117.659-63.78-176.577
			c19.807-5.868,39.573-11.917,59.301-18.148c4.783,12.181,9.581,24.359,14.383,36.533c5.596,14.665,10.916,29.411,16.236,44.162
			c0.198-0.062,0.388-0.123,0.585-0.185c0.203-16.506,0.666-27.014,0.93-42.029c0.505-17.843,0.93-35.675,1.262-53.495
			c0.569-0.186,1.135-0.371,1.702-0.557c10.728,14.194,21.528,28.346,32.406,42.459c9.471,12.129,16.271,19.943,25.932,33.22
			c0.194-0.066,0.388-0.131,0.582-0.197c-4.457-15.039-8.886-30.073-13.056-45.204c-3.335-12.657-6.679-25.311-10.03-37.962
			c19.621-6.667,39.197-13.516,58.721-20.546c17.88,59.968,35.577,119.995,53.097,180.081
			c-23.571,8.407-47.214,16.563-70.915,24.469c-12.914-19.142-25.724-38.334-38.431-57.577c-0.194,0.064-0.391,0.128-0.585,0.192
			C2960.013,723.894,2961.053,746.945,2961.983,770.016z"/>
	</g>
</g>
<g>
</g>
<g>
</g>
<g>
</g>
<g>
</g>
<g>
</g>
<g>
</g>
<g>
</g>
<g>
</g>
<g>
</g>
<g>
</g>
<g>
</g>
<g>
</g>
<g>
</g>
<g>
</g>
<g>
</g>
</svg>
