<?xml version="1.0" encoding="iso-8859-1"?>
<!-- Generator: Adobe Illustrator 29.5.0, SVG Export Plug-In . SVG Version: 9.03 Build 0)  -->
<svg version="1.1" id="Layer_1" xmlns="http://www.w3.org/2000/svg" xmlns:xlink="http://www.w3.org/1999/xlink" x="0px" y="0px"
	 width="139.453px" height="63.261px" viewBox="0 0 139.453 63.261" enable-background="new 0 0 139.453 63.261"
	 xml:space="preserve">
<g>
	<path fill="#F8ECE6" d="M65.536,8.021h0.962c0.092,0,0.172-0.046,0.207-0.138l0.401-1.031c0.034-0.092,0.115-0.137,0.207-0.137
		h3.77c0.091,0,0.172,0.045,0.206,0.137l0.401,1.031c0.035,0.092,0.115,0.138,0.207,0.138h0.962c0.126,0,0.184-0.069,0.138-0.195
		l-3.083-7.689C69.878,0.046,69.798,0,69.707,0h-1.02c-0.092,0-0.172,0.046-0.207,0.138l-3.083,7.689
		C65.352,7.953,65.41,8.021,65.536,8.021z M68.08,4.412l0.367-0.917c0.287-0.71,1.226-0.71,1.513,0l0.367,0.917
		c0.252,0.619-0.069,1.135-0.699,1.135h-0.848C68.125,5.546,67.828,5.031,68.08,4.412z"/>
	<path fill="#F8ECE6" d="M112.445,23.957c0,0.47-0.081,0.917-0.275,1.295h1.833c-0.195-0.378-0.275-0.825-0.275-1.295
		c0-0.825,0.252-1.123,1.077-1.123c0.504,0,0.894,0.115,1.146,0.275v-1.673c-0.252,0.16-0.642,0.275-1.146,0.275
		c-0.825,0-1.077-0.298-1.077-1.123c0-0.47,0.081-0.917,0.275-1.295h-1.833c0.194,0.378,0.275,0.825,0.275,1.295
		c0,0.825-0.252,1.123-1.077,1.123c-0.504,0-0.894-0.115-1.146-0.275v1.673c0.252-0.16,0.642-0.275,1.146-0.275
		C112.193,22.834,112.445,23.132,112.445,23.957z"/>
	<path fill="#F8ECE6" d="M89.871,62.635v-5.741c0-0.63,0.309-0.939,0.917-0.939h1.948c0.103,0,0.172-0.069,0.172-0.172v-0.825
		c0-0.103-0.069-0.172-0.172-0.172h-6.944c-0.103,0-0.172,0.069-0.172,0.172v0.825c0,0.103,0.069,0.172,0.172,0.172h1.948
		c0.607,0,0.917,0.309,0.917,0.939v5.741c0,0.052,0.017,0.094,0.047,0.125h-6.334c0.03-0.03,0.047-0.073,0.047-0.125v-7.678
		c0-0.103-0.069-0.172-0.172-0.172h-0.871c-0.103,0-0.172,0.069-0.172,0.172v1.444c0,1.249-1.513,2.017-2.59,0.871l-2.257-2.384
		c-0.058-0.069-0.126-0.103-0.207-0.103h-0.573c-0.103,0-0.172,0.069-0.172,0.172v7.678c0,0.052,0.017,0.094,0.047,0.125h-3.642
		c0.03-0.03,0.047-0.073,0.047-0.125V61.81c0-0.103-0.069-0.172-0.172-0.172H69.77c-0.103,0-0.172-0.069-0.172-0.172v-5.34
		c0-0.104,0.069-0.172,0.172-0.172h1.914c0.103,0,0.172-0.069,0.172-0.172v-0.825c0-0.103-0.069-0.172-0.172-0.172h-5.386
		c-0.103,0-0.172,0.069-0.172,0.172v0.825c0,0.103,0.069,0.172,0.172,0.172h1.914c0.103,0,0.172,0.068,0.172,0.172v5.34
		c0,0.103-0.069,0.172-0.172,0.172h-1.914c-0.103,0-0.172,0.069-0.172,0.172v0.825c0,0.052,0.017,0.094,0.047,0.125h-4.496
		c0.022-0.013,0.043-0.023,0.065-0.044l1.032-1.031c0.057-0.057,0.091-0.138,0.091-0.218v-5.34c0-0.081-0.034-0.161-0.091-0.218
		l-1.032-1.031c-0.057-0.058-0.137-0.092-0.218-0.092h-4.595c-0.081,0-0.161,0.034-0.218,0.092l-1.031,1.031
		c-0.058,0.057-0.092,0.137-0.092,0.218v5.34c0,0.08,0.034,0.161,0.092,0.218l1.031,1.031c0.021,0.021,0.043,0.031,0.065,0.044
		H50.91c0.022-0.013,0.044-0.023,0.065-0.044l1.031-1.031c0.057-0.057,0.092-0.138,0.092-0.218v-6.509
		c0-0.103-0.069-0.172-0.172-0.172h-0.871c-0.103,0-0.172,0.069-0.172,0.172v5.523c0,0.676-0.481,1.157-1.157,1.157h-1.639
		c-0.676,0-1.158-0.481-1.158-1.157v-0.676c0-0.103-0.069-0.172-0.172-0.172h-0.871c-0.104,0-0.172,0.069-0.172,0.172v1.662
		c0,0.08,0.023,0.149,0.091,0.218l1.032,1.031c0.028,0.028,0.07,0.029,0.105,0.044h-8.912v0.502h58.733v-0.502h-6.942
		C89.854,62.729,89.871,62.686,89.871,62.635z M56.803,57.111c0-0.676,0.481-1.157,1.157-1.157h2.532
		c0.676,0,1.158,0.481,1.158,1.157v3.369c0,0.676-0.481,1.157-1.158,1.157H57.96c-0.676,0-1.157-0.481-1.157-1.157V57.111z
		 M76.618,62.635v-1.364c0-1.455,1.639-1.937,2.476-1.054l2.372,2.498c0.018,0.021,0.039,0.031,0.058,0.044h-4.953
		C76.601,62.729,76.618,62.686,76.618,62.635z"/>
	<path fill="#F8ECE6" d="M121.258,26.197H99.125c0.004-0.003,0.009-0.002,0.013-0.005l1.031-1.031
		c0.057-0.057,0.092-0.138,0.092-0.218v-5.34c0-0.081-0.035-0.161-0.092-0.218l-1.031-1.031c-0.058-0.058-0.138-0.092-0.218-0.092
		h-5.512c-0.103,0-0.172,0.069-0.172,0.172v7.678c0,0.035,0.018,0.06,0.032,0.085h-3.841c0.015-0.026,0.032-0.05,0.032-0.085v-7.678
		c0-0.103-0.069-0.172-0.172-0.172h-0.871c-0.103,0-0.172,0.069-0.172,0.172v1.444c0,1.249-1.513,2.017-2.59,0.871l-2.257-2.384
		c-0.058-0.069-0.126-0.103-0.207-0.103h-0.573c-0.103,0-0.172,0.069-0.172,0.172v7.678c0,0.035,0.018,0.06,0.032,0.085h-3.193
		c0.01-0.031,0.021-0.061,0.003-0.108l-3.083-7.689c-0.035-0.092-0.115-0.138-0.207-0.138h-1.02c-0.092,0-0.172,0.046-0.207,0.138
		l-3.083,7.689c-0.017,0.047-0.007,0.078,0.003,0.108h-2.587c0.015-0.026,0.032-0.05,0.032-0.085v-0.825
		c0-0.103-0.069-0.172-0.172-0.172h-3.793c-0.607,0-0.917-0.309-0.917-0.939v-5.741c0-0.103-0.068-0.172-0.172-0.172h-0.871
		c-0.104,0-0.172,0.069-0.172,0.172v7.678c0,0.035,0.018,0.06,0.032,0.085h-6.305c0.015-0.026,0.032-0.05,0.032-0.085V20.37
		c0-0.63,0.31-0.939,0.917-0.939h1.948c0.103,0,0.172-0.069,0.172-0.172v-0.825c0-0.103-0.069-0.172-0.172-0.172h-6.944
		c-0.104,0-0.172,0.069-0.172,0.172v0.825c0,0.103,0.068,0.172,0.172,0.172h1.948c0.607,0,0.917,0.309,0.917,0.939v5.741
		c0,0.035,0.018,0.06,0.032,0.085h-5.947c0.011-0.033,0.018-0.069-0.005-0.12l-1.18-2.613c-0.172-0.378-0.115-0.733,0.149-0.997
		l0.688-0.688c0.069-0.069,0.092-0.138,0.092-0.218v-1.959c0-0.081-0.035-0.161-0.092-0.218l-1.031-1.031
		c-0.058-0.058-0.138-0.092-0.218-0.092h-5.134c-0.103,0-0.172,0.069-0.172,0.172v7.678c0,0.035,0.018,0.06,0.032,0.085h-4.653
		c0.003-0.002,0.005-0.003,0.008-0.005l1.031-1.031c0.057-0.057,0.091-0.138,0.091-0.218v-5.34c0-0.081-0.034-0.161-0.091-0.218
		l-1.031-1.031c-0.058-0.058-0.138-0.092-0.218-0.092h-4.595c-0.08,0-0.161,0.034-0.218,0.092l-1.031,1.031
		c-0.058,0.057-0.092,0.137-0.092,0.218v5.34c0,0.08,0.034,0.161,0.092,0.218l1.031,1.031c0.003,0.003,0.005,0.003,0.008,0.005
		h-9.398c0.015-0.026,0.032-0.05,0.032-0.085v-3.117c0-0.103,0.069-0.172,0.172-0.172h3.575c0.08,0,0.161-0.034,0.218-0.091
		l1.031-1.032c0.069-0.068,0.092-0.137,0.092-0.217v-1.879c0-0.081-0.034-0.161-0.092-0.218l-1.031-1.031
		c-0.057-0.058-0.138-0.092-0.218-0.092h-4.79c-0.103,0-0.172,0.069-0.172,0.172v7.678c0,0.035,0.018,0.06,0.032,0.085h-9.245v0.502
		h107.915V26.197z M94.451,19.603c0-0.104,0.069-0.172,0.172-0.172h3.506c0.596,0,0.917,0.321,0.917,0.917v3.828
		c0,0.619-0.321,0.939-0.917,0.939h-3.506c-0.103,0-0.172-0.069-0.172-0.172V19.603z M33.22,20.588c0-0.676,0.481-1.157,1.157-1.157
		h2.532c0.676,0,1.158,0.481,1.158,1.157v3.369c0,0.676-0.481,1.157-1.158,1.157h-2.532c-0.676,0-1.157-0.481-1.157-1.157V20.588z
		 M23.771,19.603c0-0.104,0.069-0.172,0.172-0.172h2.785c0.596,0,0.917,0.321,0.917,0.917v0.367c0,0.619-0.321,0.94-0.917,0.94
		h-2.785c-0.103,0-0.172-0.069-0.172-0.172V19.603z M83.662,26.111v-1.364c0-1.455,1.639-1.937,2.476-1.054l2.372,2.498
		c0.002,0.003,0.005,0.003,0.007,0.005h-4.887C83.644,26.171,83.662,26.147,83.662,26.111z M74.374,22.673l0.367-0.917
		c0.287-0.71,1.226-0.71,1.513,0l0.367,0.917c0.252,0.619-0.069,1.135-0.699,1.135h-0.848
		C74.419,23.808,74.121,23.292,74.374,22.673z M72.999,26.146l0.401-1.031c0.034-0.092,0.115-0.137,0.206-0.137h3.77
		c0.092,0,0.172,0.045,0.207,0.137l0.401,1.031c0.009,0.023,0.027,0.034,0.041,0.051h-5.066
		C72.972,26.18,72.99,26.168,72.999,26.146z M43.987,19.603c0-0.104,0.068-0.172,0.172-0.172h3.128c0.596,0,0.917,0.321,0.917,0.917
		v0.367c0,0.619-0.321,0.94-0.917,0.94h-3.128c-0.104,0-0.172-0.069-0.172-0.172V19.603z M43.987,26.111v-1.364
		c0-1.065,0.768-1.765,1.707-1.765c0.814,0,1.387,0.39,1.742,1.18l0.905,1.994c0.007,0.017,0.022,0.026,0.032,0.04h-4.419
		C43.969,26.171,43.987,26.147,43.987,26.111z"/>
	<path fill="#F8ECE6" d="M131.344,44.527c0.04-0.014,0.078-0.036,0.116-0.074l1.031-1.031c0.058-0.057,0.092-0.138,0.092-0.218
		v-5.34c0-0.081-0.034-0.161-0.092-0.218l-1.031-1.031c-0.057-0.058-0.137-0.092-0.218-0.092h-4.595c-0.08,0-0.16,0.034-0.218,0.092
		l-1.031,1.031c-0.057,0.057-0.092,0.137-0.092,0.218v5.34c0,0.08,0.035,0.161,0.092,0.218l1.031,1.031
		c0.038,0.038,0.076,0.06,0.116,0.074h-5.74c0.064-0.01,0.129-0.027,0.175-0.074l1.031-1.031c0.069-0.069,0.092-0.138,0.092-0.218
		v-1.203c0-0.103-0.068-0.172-0.172-0.172h-0.871c-0.104,0-0.172,0.069-0.172,0.172v0.218c0,0.676-0.481,1.157-1.158,1.157h-2.532
		c-0.676,0-1.158-0.481-1.158-1.157V38.85c0-0.676,0.481-1.157,1.158-1.157h2.532c0.676,0,1.158,0.481,1.158,1.157v0.218
		c0,0.103,0.068,0.172,0.172,0.172h0.871c0.104,0,0.172-0.069,0.172-0.172v-1.203c0-0.081-0.034-0.161-0.092-0.218l-1.031-1.031
		c-0.057-0.058-0.137-0.092-0.218-0.092h-4.595c-0.081,0-0.161,0.034-0.218,0.092l-1.032,1.031
		c-0.057,0.057-0.091,0.137-0.091,0.218v5.34c0,0.08,0.034,0.161,0.091,0.218l1.032,1.031c0.038,0.038,0.076,0.06,0.116,0.074
		h-6.198c0.064-0.01,0.129-0.027,0.175-0.074l1.031-1.031c0.057-0.057,0.091-0.138,0.091-0.218v-1.948
		c0-0.08-0.034-0.16-0.091-0.217l-1.077-1.078c-0.081-0.08-0.161-0.114-0.264-0.114h-3.243c-0.665,0-1.157-0.47-1.157-1.066V38.77
		c0-0.596,0.481-1.077,1.157-1.077h2.303c0.676,0,1.158,0.481,1.158,1.157v0.218c0,0.103,0.069,0.172,0.172,0.172h0.871
		c0.104,0,0.172-0.069,0.172-0.172v-1.203c0-0.081-0.034-0.161-0.091-0.218l-1.031-1.031c-0.058-0.058-0.138-0.092-0.218-0.092
		h-4.366c-0.08,0-0.161,0.034-0.218,0.092l-1.031,1.031c-0.057,0.057-0.092,0.137-0.092,0.218v1.742c0,0.08,0.035,0.161,0.092,0.218
		l1.031,1.031c0.057,0.057,0.138,0.161,0.218,0.161h3.22c0.813,0,1.272,0.424,1.272,1.18v0.011c0,0.745-0.458,1.169-1.272,1.169
		h-2.189c-0.676,0-1.157-0.481-1.157-1.157v-0.218c0-0.103-0.069-0.172-0.172-0.172h-0.871c-0.103,0-0.172,0.069-0.172,0.172v1.203
		c0,0.08,0.035,0.161,0.092,0.218l1.031,1.031c0.046,0.046,0.111,0.063,0.175,0.074h-4.855c0.072-0.02,0.124-0.07,0.124-0.154
		v-0.825c0-0.103-0.069-0.172-0.172-0.172h-1.914c-0.103,0-0.172-0.069-0.172-0.172v-5.34c0-0.104,0.069-0.172,0.172-0.172h1.914
		c0.103,0,0.172-0.069,0.172-0.172v-0.825c0-0.103-0.069-0.172-0.172-0.172h-5.386c-0.104,0-0.172,0.069-0.172,0.172v0.825
		c0,0.103,0.068,0.172,0.172,0.172h1.914c0.103,0,0.172,0.068,0.172,0.172v5.34c0,0.103-0.069,0.172-0.172,0.172h-1.914
		c-0.104,0-0.172,0.069-0.172,0.172v0.825c0,0.083,0.052,0.134,0.124,0.154h-4.683c0.064-0.01,0.129-0.027,0.175-0.074l1.031-1.031
		c0.069-0.069,0.092-0.138,0.092-0.218v-1.203c0-0.103-0.069-0.172-0.172-0.172h-0.871c-0.103,0-0.172,0.069-0.172,0.172v0.218
		c0,0.676-0.481,1.157-1.157,1.157h-2.533c-0.676,0-1.157-0.481-1.157-1.157V38.85c0-0.676,0.481-1.157,1.157-1.157h2.533
		c0.676,0,1.157,0.481,1.157,1.157v0.218c0,0.103,0.069,0.172,0.172,0.172h0.871c0.103,0,0.172-0.069,0.172-0.172v-1.203
		c0-0.081-0.034-0.161-0.092-0.218l-1.031-1.031c-0.057-0.058-0.138-0.092-0.218-0.092h-4.595c-0.08,0-0.16,0.034-0.218,0.092
		l-1.031,1.031c-0.057,0.057-0.092,0.137-0.092,0.218v5.34c0,0.08,0.035,0.161,0.092,0.218l1.031,1.031
		c0.038,0.038,0.076,0.06,0.116,0.074h-5.082c0.072-0.02,0.124-0.07,0.124-0.154v-7.678c0-0.103-0.069-0.172-0.172-0.172h-0.871
		c-0.104,0-0.172,0.069-0.172,0.172v1.444c0,1.249-1.512,2.017-2.589,0.871l-2.258-2.384c-0.057-0.069-0.126-0.103-0.206-0.103
		h-0.573c-0.103,0-0.172,0.069-0.172,0.172v7.678c0,0.083,0.052,0.134,0.124,0.154h-3.371c0.082-0.02,0.127-0.073,0.089-0.177
		l-3.083-7.689c-0.034-0.092-0.115-0.138-0.206-0.138h-1.02c-0.092,0-0.172,0.046-0.207,0.138L62.93,44.35
		c-0.037,0.103,0.008,0.157,0.09,0.177h-3.01c0.086-0.021,0.131-0.082,0.083-0.188l-1.181-2.613
		c-0.172-0.378-0.114-0.733,0.149-0.997l0.688-0.688c0.068-0.069,0.091-0.138,0.091-0.218v-1.959c0-0.081-0.034-0.161-0.091-0.218
		l-1.032-1.031c-0.057-0.058-0.137-0.092-0.217-0.092h-5.134c-0.104,0-0.172,0.069-0.172,0.172v7.678
		c0,0.083,0.052,0.134,0.124,0.154h-8.254c0.072-0.02,0.124-0.07,0.124-0.154v-2.418c0-0.607,0.31-0.917,0.917-0.917h2.991
		c0.103,0,0.172-0.069,0.172-0.172v-0.825c0-0.103-0.069-0.161-0.172-0.172h-2.991c-0.607,0-0.917-0.31-0.917-0.94v-0.321
		c0-0.607,0.31-0.917,0.917-0.917h3.793c0.103,0,0.172-0.069,0.172-0.172v-0.825c0-0.103-0.069-0.172-0.172-0.172h-5.752
		c-0.104,0-0.172,0.069-0.172,0.172v7.678c0,0.083,0.052,0.134,0.124,0.154H33.775c0.072-0.02,0.124-0.07,0.124-0.154v-7.678
		c0-0.103-0.069-0.172-0.172-0.172h-0.871c-0.103,0-0.172,0.069-0.172,0.172v1.444c0,1.249-1.513,2.017-2.59,0.871l-2.257-2.384
		c-0.058-0.069-0.126-0.103-0.207-0.103h-0.573c-0.103,0-0.172,0.069-0.172,0.172v7.678c0,0.083,0.052,0.134,0.124,0.154h-3.372
		c0.082-0.02,0.127-0.073,0.09-0.177l-3.083-7.689c-0.035-0.092-0.115-0.138-0.207-0.138h-1.02c-0.092,0-0.172,0.046-0.207,0.138
		L16.13,44.35c-0.038,0.103,0.008,0.157,0.09,0.177h-4.488c0.064-0.01,0.129-0.027,0.175-0.074l1.031-1.031
		c0.057-0.057,0.092-0.138,0.092-0.218v-1.948c0-0.08-0.035-0.16-0.092-0.217l-1.077-1.078c-0.08-0.08-0.161-0.114-0.264-0.114
		H8.355c-0.665,0-1.158-0.47-1.158-1.066V38.77c0-0.596,0.481-1.077,1.158-1.077h2.303c0.676,0,1.157,0.481,1.157,1.157v0.218
		c0,0.103,0.069,0.172,0.172,0.172h0.871c0.103,0,0.172-0.069,0.172-0.172v-1.203c0-0.081-0.035-0.161-0.092-0.218l-1.031-1.031
		c-0.057-0.058-0.138-0.092-0.218-0.092H7.323c-0.08,0-0.16,0.034-0.217,0.092l-1.032,1.031c-0.057,0.057-0.091,0.137-0.091,0.218
		v1.742c0,0.08,0.034,0.161,0.091,0.218l1.032,1.031c0.057,0.057,0.137,0.161,0.217,0.161h3.22c0.813,0,1.272,0.424,1.272,1.18
		v0.011c0,0.745-0.458,1.169-1.272,1.169H8.355c-0.676,0-1.158-0.481-1.158-1.157v-0.218c0-0.103-0.069-0.172-0.172-0.172H6.155
		c-0.104,0-0.172,0.069-0.172,0.172v1.203c0,0.08,0.034,0.161,0.091,0.218l1.032,1.031c0.046,0.046,0.111,0.063,0.174,0.074H0v0.502
		h139.453v-0.502H131.344z M126.521,38.85c0-0.676,0.481-1.157,1.157-1.157h2.533c0.676,0,1.157,0.481,1.157,1.157v3.369
		c0,0.676-0.481,1.157-1.157,1.157h-2.533c-0.676,0-1.157-0.481-1.157-1.157V38.85z M74.9,44.373v-1.364
		c0-1.455,1.639-1.937,2.475-1.054l2.372,2.498c0.031,0.038,0.067,0.06,0.106,0.074h-5.077C74.847,44.507,74.9,44.456,74.9,44.373z
		 M65.611,40.935l0.367-0.917c0.287-0.71,1.226-0.71,1.513,0l0.367,0.917c0.252,0.619-0.069,1.135-0.699,1.135h-0.848
		C65.657,42.07,65.359,41.554,65.611,40.935z M64.236,44.407l0.401-1.031c0.035-0.092,0.115-0.137,0.207-0.137h3.77
		c0.092,0,0.172,0.045,0.206,0.137l0.401,1.031c0.025,0.068,0.079,0.102,0.141,0.12h-5.267
		C64.157,44.509,64.211,44.475,64.236,44.407z M54.409,37.864c0-0.104,0.069-0.172,0.172-0.172h3.128
		c0.596,0,0.917,0.321,0.917,0.917v0.367c0,0.619-0.321,0.94-0.917,0.94h-3.128c-0.103,0-0.172-0.069-0.172-0.172V37.864z
		 M54.409,44.373v-1.364c0-1.065,0.768-1.765,1.708-1.765c0.813,0,1.387,0.39,1.742,1.18l0.905,1.994
		c0.025,0.058,0.073,0.09,0.13,0.108h-4.608C54.357,44.507,54.409,44.456,54.409,44.373z M28.1,44.373v-1.364
		c0-1.455,1.639-1.937,2.476-1.054l2.372,2.498c0.031,0.038,0.067,0.06,0.106,0.074h-5.077C28.048,44.507,28.1,44.456,28.1,44.373z
		 M18.812,40.935l0.367-0.917c0.287-0.71,1.226-0.71,1.513,0l0.367,0.917c0.252,0.619-0.069,1.135-0.699,1.135h-0.848
		C18.858,42.07,18.56,41.554,18.812,40.935z M17.437,44.407l0.401-1.031c0.034-0.092,0.115-0.137,0.206-0.137h3.77
		c0.092,0,0.172,0.045,0.207,0.137l0.401,1.031c0.026,0.068,0.08,0.102,0.141,0.12h-5.267
		C17.357,44.509,17.411,44.475,17.437,44.407z"/>
	<path fill="#F8ECE6" d="M14.639,59.261c-0.313,0-0.473-0.159-0.473-0.484v-2.958c0-0.053-0.035-0.089-0.088-0.089h-0.449
		c-0.053,0-0.089,0.036-0.089,0.089v3.957c0,0.053,0.036,0.088,0.089,0.088h2.964c0.053,0,0.088-0.036,0.088-0.088V59.35
		c0-0.053-0.035-0.089-0.088-0.089H14.639z"/>
	<path fill="#F8ECE6" d="M18.41,55.729c-0.053,0-0.089,0.036-0.089,0.089v3.957c0,0.053,0.036,0.088,0.089,0.088h2.964
		c0.053,0,0.088-0.036,0.088-0.088V59.35c0-0.053-0.035-0.089-0.088-0.089H19.42c-0.313,0-0.473-0.159-0.473-0.484v-0.248
		c0-0.313,0.16-0.473,0.473-0.473h1.541c0.053,0,0.089-0.035,0.089-0.088v-0.425c0-0.053-0.036-0.083-0.089-0.088H19.42
		c-0.313,0-0.473-0.16-0.473-0.484v-0.166c0-0.313,0.16-0.472,0.473-0.472h1.955c0.053,0,0.088-0.036,0.088-0.088v-0.425
		c0-0.053-0.035-0.089-0.088-0.089H18.41z"/>
	<path fill="#F8ECE6" d="M23.268,55.729c-0.053,0-0.089,0.036-0.089,0.089v3.957c0,0.053,0.036,0.088,0.089,0.088h0.449
		c0.053,0,0.088-0.036,0.088-0.088v-1.246c0-0.313,0.16-0.473,0.473-0.473h1.541c0.053,0,0.089-0.035,0.089-0.088v-0.425
		c0-0.053-0.036-0.083-0.089-0.088h-1.541c-0.313,0-0.473-0.16-0.473-0.484v-0.166c0-0.313,0.16-0.472,0.473-0.472h1.955
		c0.053,0,0.088-0.036,0.088-0.088v-0.425c0-0.053-0.035-0.089-0.088-0.089H23.268z"/>
	<path fill="#F8ECE6" d="M27.729,55.729c-0.053,0-0.088,0.036-0.088,0.089v0.425c0,0.053,0.036,0.088,0.088,0.088h1.004
		c0.313,0,0.473,0.159,0.473,0.484v2.958c0,0.053,0.035,0.088,0.088,0.088h0.449c0.053,0,0.089-0.036,0.089-0.088v-2.958
		c0-0.325,0.159-0.484,0.472-0.484h1.004c0.053,0,0.088-0.036,0.088-0.088v-0.425c0-0.053-0.035-0.089-0.088-0.089H27.729z"/>
	<path fill="#F8ECE6" d="M110.713,55.777c-0.029-0.029-0.07-0.047-0.112-0.047h-2.25c-0.042,0-0.083,0.018-0.112,0.047l-0.531,0.532
		c-0.03,0.029-0.047,0.071-0.047,0.112v0.898c0,0.041,0.018,0.083,0.047,0.112l0.531,0.532c0.03,0.029,0.071,0.083,0.112,0.083h1.66
		c0.419,0,0.655,0.219,0.655,0.608v0.006c0,0.384-0.236,0.602-0.655,0.602h-1.128c-0.349,0-0.597-0.248-0.597-0.596v-0.112
		c0-0.053-0.035-0.088-0.088-0.088h-0.449c-0.053,0-0.089,0.035-0.089,0.088v0.62c0,0.042,0.018,0.083,0.047,0.112l0.531,0.531
		c0.03,0.03,0.071,0.047,0.112,0.047h2.25c0.042,0,0.083-0.018,0.112-0.047l0.532-0.531c0.03-0.03,0.047-0.071,0.047-0.112v-1.004
		c0-0.042-0.018-0.083-0.047-0.112l-0.555-0.555c-0.041-0.041-0.083-0.059-0.136-0.059h-1.671c-0.343,0-0.597-0.242-0.597-0.549
		v-0.006c0-0.307,0.248-0.555,0.597-0.555h1.187c0.349,0,0.597,0.248,0.597,0.596v0.112c0,0.053,0.035,0.089,0.088,0.089h0.449
		c0.053,0,0.089-0.036,0.089-0.089v-0.62c0-0.041-0.018-0.083-0.047-0.112L110.713,55.777z"/>
	<path fill="#F8ECE6" d="M113.186,55.729c-0.053,0-0.089,0.036-0.089,0.089v0.425c0,0.053,0.036,0.088,0.089,0.088h0.986
		c0.053,0,0.089,0.035,0.089,0.088v2.752c0,0.053-0.036,0.088-0.089,0.088h-0.986c-0.053,0-0.089,0.036-0.089,0.089v0.425
		c0,0.053,0.036,0.088,0.089,0.088h2.775c0.053,0,0.088-0.036,0.088-0.088V59.35c0-0.053-0.036-0.089-0.088-0.089h-0.986
		c-0.053,0-0.089-0.035-0.089-0.088V56.42c0-0.053,0.036-0.088,0.089-0.088h0.986c0.053,0,0.088-0.036,0.088-0.088v-0.425
		c0-0.053-0.036-0.089-0.088-0.089H113.186z"/>
	<path fill="#F8ECE6" d="M120.925,55.777c-0.03-0.029-0.071-0.047-0.112-0.047h-2.841c-0.053,0-0.088,0.036-0.088,0.089v3.957
		c0,0.053,0.036,0.088,0.088,0.088h2.841c0.041,0,0.083-0.018,0.112-0.047l0.531-0.531c0.029-0.03,0.047-0.071,0.047-0.112V56.42
		c0-0.041-0.018-0.083-0.047-0.112L120.925,55.777z M120.877,58.777c0,0.319-0.165,0.484-0.472,0.484h-1.807
		c-0.053,0-0.088-0.035-0.088-0.088V56.42c0-0.053,0.036-0.088,0.088-0.088h1.807c0.307,0,0.472,0.166,0.472,0.472V58.777z"/>
	<path fill="#F8ECE6" d="M123.545,55.729c-0.053,0-0.089,0.036-0.089,0.089v3.957c0,0.053,0.036,0.088,0.089,0.088h2.964
		c0.053,0,0.088-0.036,0.088-0.088V59.35c0-0.053-0.035-0.089-0.088-0.089h-1.955c-0.313,0-0.473-0.159-0.473-0.484v-0.248
		c0-0.313,0.16-0.473,0.473-0.473h1.541c0.053,0,0.089-0.035,0.089-0.088v-0.425c0-0.053-0.036-0.083-0.089-0.088h-1.541
		c-0.313,0-0.473-0.16-0.473-0.484v-0.166c0-0.313,0.16-0.472,0.473-0.472h1.955c0.053,0,0.088-0.036,0.088-0.088v-0.425
		c0-0.053-0.035-0.089-0.088-0.089H123.545z"/>
</g>
<g>
</g>
<g>
</g>
<g>
</g>
<g>
</g>
<g>
</g>
<g>
</g>
<g>
</g>
<g>
</g>
<g>
</g>
<g>
</g>
<g>
</g>
<g>
</g>
<g>
</g>
<g>
</g>
<g>
</g>
</svg>
