<?xml version="1.0" encoding="iso-8859-1"?>
<!-- Generator: Adobe Illustrator 29.5.0, SVG Export Plug-In . SVG Version: 9.03 Build 0)  -->
<svg version="1.1" id="Layer_1" xmlns="http://www.w3.org/2000/svg" xmlns:xlink="http://www.w3.org/1999/xlink" x="0px" y="0px"
	 width="942.892px" height="420.18px" viewBox="0 0 942.892 420.18" enable-background="new 0 0 942.892 420.18"
	 xml:space="preserve">
<g>
	<g>
		<path fill="#F3F4DD" d="M910.123,262.311c-5.472-15.639-9.918-31.548-13.68-45.569c11.286-7.28,20.178-20.493,20.862-41.525
			c1.368-40.176-18.981-51.771-41.894-51.771h-41.895v6.202c11.115,1.078,12.996,8.09,12.996,36.132v102.733
			c0,28.312-2.394,35.323-12.996,36.131l-0.033,0.042c0.909-4.008,1.447-9.62,1.748-17.837c0.171-3.775,0.855-26.155,1.026-30.2
			h-4.275c-4.446,29.66-11.628,42.603-27.531,42.603c-12.654,0-14.877-4.314-14.877-28.852v-51.501h5.985
			c18.468,0,20.862,4.045,22.23,25.077h4.104v-57.433h-3.762c-2.052,18.066-4.617,22.11-22.914,22.11h-5.643V158.5
			c0-6.202,0.171-22.11,0.342-25.885c27.36,0,32.319,9.168,35.055,39.098h4.275c0,0,0.342-19.684,0.513-22.38
			c0.171-10.785,0-20.492-2.565-25.885c-12.636,0.633-94.882,0.997-107.212,0v6.202c7.695,1.348,11.115,7.28,6.669,16.987
			c-9.747,21.571-26.675,54.467-35.568,71.724v-52.58c0-28.042,2.052-34.784,12.312-36.132v-6.202
			c-6.669,0.539-16.074,0.809-23.256,0.809c-6.669,0-16.074-0.27-22.914-0.809v6.202c11.115,1.078,12.996,8.09,12.996,36.132
			v102.733c0,26.007-2.026,34.035-10.572,35.797c-7.079-2.351-9.204-10.333-14.562-38.494
			c-8.721-46.378-22.23-119.99-26.675-145.067l-8.379,2.696c0,0-23.256,101.655-34.542,149.111
			c-4.967,20.558-8.525,28.675-14.765,31.411c-7.593-2.38-8.619-10.953-9.513-33.029c-0.855-20.762-1.881-64.983-2.394-109.204
			c-0.171-19.414,0.513-31.278,12.654-32.087v-6.202c-4.788,0.27-10.773,0.539-16.416,0.539c-4.617,0-10.944,0-15.732-0.539
			c-5.472,26.964-23.598,110.553-28.386,132.393c-9.405-41.524-18.981-86.554-28.044-132.393c-5.472,0.27-12.312,0.539-17.27,0.539
			c-5.676,0-29.559,0-36.418,0c-5.814,0-12.996,0-19.665-0.539v6.202c7.695,1.348,11.115,7.28,6.669,16.987
			c-9.747,21.571-26.675,54.467-35.568,71.724v-52.58c0-28.042,2.052-34.784,12.312-36.132v-6.202
			c-6.669,0.539-16.074,0.809-23.256,0.809c-6.521,0-31.997,0-37.444,0c-7.866,0-14.022-0.539-18.126-0.809v6.202
			c11.799,0.809,14.364,7.82,14.535,30.469c0.171,28.851,0,53.119,0,86.824c-16.758-39.637-33.174-79.274-50.958-123.495
			c-4.275,0.539-9.405,0.539-13.509,0.539c-4.768,0-47.571,0.27-83.953,0.27c-6.84,0-14.364-0.27-21.375-0.809v6.202
			c9.234,0.809,11.457,8.09,11.457,34.244v43.952h-35.397V165.78c0-28.042,1.71-34.784,11.457-36.132v-6.202L4.725,123.431
			c0,0,0,12.149,0,21.856v30.739l3.933,1.078c4.788-36.941,9.063-41.794,29.925-41.794c0,0,0.171,29.121,0.171,41.255v91.947
			c0,28.312-3.762,35.323-14.706,36.131v6.472c7.353-0.539,18.297-0.809,24.966-0.809c7.182,0,18.639,0.269,25.308,0.809v-6.472
			c-10.773-0.809-14.706-7.011-14.706-35.862v-92.216c0-12.134,0.171-41.255,0.171-41.255c21.033,0.27,25.307,4.854,29.925,41.794
			l3.933-1.078v-30.739c0-5.387-0.28-10.859-0.933-15.419c13.421,0,11.359,9.312,11.359,35.912v102.733
			c0,28.312-2.394,35.323-12.996,36.131v6.472c7.353-0.539,16.245-0.809,22.914-0.809c7.182,0,15.731,0.269,22.401,0.809v-6.472
			c-9.063-0.809-11.457-7.819-11.457-35.862v-49.883h35.397v49.344c0,28.582-2.223,35.592-11.628,36.401v6.472
			c14.051-1.545,115.652-0.935,127.215,0v-6.472c-12.654-1.078-14.022-8.628-14.535-35.323c-0.513-36.671-0.513-68.488-0.513-104.62
			c21.033,49.613,40.527,97.61,61.047,147.763l5.13,1.348c-0.171-8.359-0.513-19.953-0.513-52.849
			c0-19.145,0.513-81.162,1.026-103.003c0.322-17.783,1.71-26.468,10.88-28.09c9.649,1.644,11.346,9.322,11.346,35.91v102.733
			c0,28.312-2.394,35.323-12.996,36.131v6.472c7.353-0.539,16.245-0.809,22.914-0.809c7.182,0,16.587,0.269,23.256,0.809v-6.472
			c-9.576-0.809-12.312-7.011-12.312-35.862v-39.097l7.182-12.673c3.762,12.673,8.037,26.964,13.338,42.064
			c4.165,12.711,10.969,26.87,14.93,34.719c15.631,29.413,32.909,35.923,51.342,35.923l0.362-7.061
			c-6.837-1.708-12.749-6.07-17.931-11.997c3.821-0.232,7.796-0.351,12.51-0.351c7.182,0,12.141,0.269,18.468,0.809v-6.472
			c-11.799-1.348-13.167-8.628-12.996-35.592c0.171-34.514,1.197-79.543,2.223-109.204c11.457,52.041,21.888,101.924,31.977,151.538
			l5.301-2.696c5.643-27.503,26.505-123.765,32.148-149.65c0.513,33.166,1.368,82.509,1.368,111.091
			c0,24.537-1.368,33.435-12.654,34.514v6.472c7.182-0.539,15.561-0.809,23.427-0.809c5.431,0,29.558,0,34.88,0
			c7.866,0,12.312,0.269,17.954,0.809v-6.472c-7.729-0.358-11.223-3.704-11.293-13.822c0.086,0.002,0.196-0.418,0.336-1.366
			c5.171-34.966,26.314-39.947,37.789-39.985c1.274,7.583,2.696,15.929,4.118,25.513c3.078,20.223,2.736,28.312-8.208,29.66v6.472
			c6.84-0.539,12.312-0.809,21.204-0.809c8.248,0,36.045,0,41.72,0c7.182,0,16.587,0.269,23.256,0.809v-6.472
			c-9.576-0.809-12.312-7.011-12.312-35.862v-39.097l7.182-12.673c3.762,12.673,8.037,26.964,13.338,42.064
			c5.301,16.178,10.773,28.312,15.561,36.671c6.498,11.055,15.048,17.526,27.018,17.526c3.762,0,7.866-0.809,12.141-2.157l0.01-0.38
			c9.914-0.286,21.102-0.429,30.937-0.429c13.337,0,52.977,0,60.016,0c8.379,0,17.1,0.269,24.111,0.809v-6.472
			c-12.654-0.809-14.193-8.628-14.193-37.479v-42.603c3.249,0.809,7.353,1.078,10.944,1.078c2.736,11.595,5.985,23.998,9.918,36.941
			c4.104,13.482,8.037,24.806,12.141,32.626c5.643,10.786,12.654,17.796,24.794,17.796c3.933,0,9.405-0.539,12.825-1.888
			l0.342-6.472C927.394,302.488,919.528,288.197,910.123,262.311z M206.663,268.513c0,27.993-2.513,35.157-12.817,36.097
			c-9.977-0.94-12.657-8.107-12.657-36.367V163.893c0-25.833,2.674-33.249,12.626-34.207c10.83,1.185,12.847,8.328,12.847,36.094
			V268.513z M252.318,269.861c-0.338,24.765-2.016,32.695-12.599,34.706c-9.767-1.075-12.365-7.69-12.365-35.785V165.78
			c0-26.844,1.886-33.917,11.797-35.893v0.031c10.602,1.618,13.68,12.403,13.851,36.941
			C253.172,209.462,252.831,232.651,252.318,269.861z M452.035,159.578c-1.197,42.064-2.052,72.803-3.762,107.856
			c-1.488,28.408-2.338,35.151-13.202,37.031c-11.446-16.563-18.909-40.387-24.925-56.445
			c-7.065-18.855-14.022-39.368-18.981-54.737c2.223-4.314,14.022-25.077,22.059-39.098c5.204-8.792,11.353-18.011,17.913-22.916
			c4.704-3.518,11.335-3.576,15.759,0.288C452.042,136.052,452.401,144.381,452.035,159.578z M589.175,252.003
			c0.953-4.67,1.735-8.407,2.049-9.645l2.052-10.246l13.851-63.096c2.223,11.864,9.234,51.231,11.286,63.096l0.193,1.159
			C610.544,235.52,597.758,240.696,589.175,252.003z M768.883,268.513c0,22.418-1.506,31.474-7.394,34.678
			c-9.184-3.97-15.873-15.819-30.905-55.17c-7.011-18.875-14.022-39.368-18.981-54.737c2.223-4.314,14.022-25.077,22.059-39.098
			c5.929-10.017,12.303-20.203,19.618-24.189c2.752-1.499,6.095-1.749,8.857-0.268c6.27,3.363,6.746,13.129,6.746,36.052V268.513z
			 M867.203,217.821v-55.007c0-12.943,0-22.38,0.171-31.008c19.494-0.27,28.214,15.639,28.214,43.142
			C895.588,205.687,884.987,217.821,867.203,217.821z"/>
	</g>
	<g>
		<path fill="#F3F4DD" d="M199.771,64.439l-3.708-11.96c-0.053-0.196,0.036-0.303,0.232-0.303h1.479
			c0.143,0,0.249,0.072,0.304,0.214l0.998,2.977c0.713,2.103,2.941,2.282,3.815,0.428l0.481-1.034c0.16-0.338,0.552-0.338,0.713,0
			l0.481,1.034c0.873,1.854,3.101,1.675,3.815-0.428l0.998-2.977c0.053-0.143,0.16-0.214,0.304-0.214h1.479
			c0.196,0,0.285,0.107,0.232,0.303l-3.708,11.96c-0.036,0.143-0.16,0.214-0.304,0.214h-1.016c-0.142,0-0.267-0.071-0.321-0.214
			l-0.926-2.246c-0.536-1.283-2.247-1.283-2.781,0l-0.926,2.246c-0.054,0.143-0.179,0.214-0.321,0.214h-1.016
			C199.932,64.653,199.807,64.582,199.771,64.439z"/>
		<path fill="#F3F4DD" d="M216.396,64.386V52.443c0-0.16,0.107-0.268,0.268-0.268h1.354c0.16,0,0.268,0.107,0.268,0.268v3.493
			c0,0.945,0.48,1.426,1.426,1.426h4.295c0.98,0,1.462-0.481,1.462-1.426v-3.493c0-0.16,0.107-0.268,0.267-0.268h1.355
			c0.16,0,0.267,0.107,0.267,0.268v11.943c0,0.16-0.106,0.267-0.267,0.267h-1.355c-0.16,0-0.267-0.107-0.267-0.267v-3.779
			c0-0.945-0.481-1.426-1.462-1.426h-4.295c-0.946,0-1.426,0.481-1.426,1.426v3.779c0,0.16-0.107,0.267-0.268,0.267h-1.354
			C216.503,64.653,216.396,64.546,216.396,64.386z"/>
		<path fill="#F3F4DD" d="M232.273,64.35l4.795-11.96c0.053-0.143,0.178-0.214,0.321-0.214h1.586c0.142,0,0.267,0.072,0.32,0.214
			l4.795,11.96c0.072,0.196-0.017,0.303-0.214,0.303h-1.498c-0.142,0-0.267-0.071-0.321-0.214l-0.624-1.604
			c-0.053-0.143-0.178-0.214-0.321-0.214h-5.864c-0.142,0-0.267,0.072-0.321,0.214l-0.624,1.604
			c-0.053,0.143-0.178,0.214-0.321,0.214h-1.498C232.292,64.653,232.202,64.546,232.273,64.35z M238.851,60.803
			c0.98,0,1.479-0.802,1.087-1.765l-0.57-1.426c-0.446-1.105-1.907-1.105-2.353,0l-0.57,1.426c-0.392,0.963,0.072,1.765,1.088,1.765
			H238.851z"/>
		<path fill="#F3F4DD" d="M252.838,64.386v-8.93c0-0.981-0.481-1.462-1.426-1.462h-3.031c-0.16,0-0.267-0.107-0.267-0.267v-1.283
			c0-0.16,0.106-0.268,0.267-0.268h10.803c0.16,0,0.267,0.107,0.267,0.268v1.283c0,0.16-0.107,0.267-0.267,0.267h-3.031
			c-0.945,0-1.426,0.481-1.426,1.462v8.93c0,0.16-0.106,0.267-0.267,0.267h-1.355C252.945,64.653,252.838,64.546,252.838,64.386z"/>
		<path fill="#F3F4DD" d="M273.881,64.386v-1.283c0-0.16,0.107-0.267,0.268-0.267h2.977c0.16,0,0.268-0.107,0.268-0.267v-8.307
			c0-0.16-0.107-0.267-0.268-0.267h-2.977c-0.16,0-0.268-0.107-0.268-0.267v-1.283c0-0.16,0.107-0.268,0.268-0.268h8.378
			c0.16,0,0.267,0.107,0.267,0.268v1.283c0,0.16-0.106,0.267-0.267,0.267h-2.977c-0.16,0-0.268,0.107-0.268,0.267v8.307
			c0,0.16,0.107,0.267,0.268,0.267h2.977c0.16,0,0.267,0.107,0.267,0.267v1.283c0,0.16-0.106,0.267-0.267,0.267h-8.378
			C273.989,64.653,273.881,64.546,273.881,64.386z"/>
		<path fill="#F3F4DD" d="M299.418,64.511l-1.605-1.604c-0.089-0.089-0.142-0.214-0.142-0.338v-8.307
			c0-0.125,0.053-0.249,0.142-0.339l1.605-1.604c0.089-0.089,0.214-0.143,0.338-0.143h7.147c0.125,0,0.25,0.054,0.339,0.143
			l1.604,1.604c0.089,0.089,0.143,0.214,0.143,0.339v8.307c0,0.125-0.054,0.249-0.143,0.338l-1.604,1.604
			c-0.107,0.107-0.215,0.143-0.339,0.143h-7.147C299.631,64.653,299.524,64.617,299.418,64.511z M305.3,62.835
			c1.052,0,1.8-0.749,1.8-1.801v-5.24c0-1.052-0.748-1.8-1.8-1.8h-3.94c-1.051,0-1.8,0.748-1.8,1.8v5.24
			c0,1.052,0.749,1.801,1.8,1.801H305.3z"/>
		<path fill="#F3F4DD" d="M314.421,64.386V52.443c0-0.16,0.107-0.268,0.268-0.268h8.948c0.16,0,0.268,0.107,0.268,0.268v1.283
			c0,0.16-0.107,0.267-0.268,0.267h-5.899c-0.945,0-1.426,0.481-1.426,1.426v0.499c0,0.98,0.48,1.462,1.426,1.462h4.652
			c0.16,0.018,0.267,0.107,0.267,0.267v1.283c0,0.16-0.106,0.267-0.267,0.267h-4.652c-0.945,0-1.426,0.481-1.426,1.426v3.761
			c0,0.16-0.107,0.267-0.268,0.267h-1.354C314.528,64.653,314.421,64.546,314.421,64.386z"/>
		<path fill="#F3F4DD" d="M328.766,64.386V52.443c0-0.16,0.106-0.268,0.267-0.268h8.948c0.16,0,0.267,0.107,0.267,0.268v1.283
			c0,0.16-0.106,0.267-0.267,0.267h-5.9c-0.945,0-1.426,0.481-1.426,1.426v0.499c0,0.98,0.481,1.462,1.426,1.462h4.652
			c0.16,0.018,0.268,0.107,0.268,0.267v1.283c0,0.16-0.107,0.267-0.268,0.267h-4.652c-0.945,0-1.426,0.481-1.426,1.426v3.761
			c0,0.16-0.107,0.267-0.267,0.267h-1.355C328.872,64.653,328.766,64.546,328.766,64.386z"/>
		<path fill="#F3F4DD" d="M343.11,64.386V52.443c0-0.16,0.107-0.268,0.268-0.268h8.948c0.16,0,0.268,0.107,0.268,0.268v1.283
			c0,0.16-0.107,0.267-0.268,0.267h-5.899c-0.946,0-1.426,0.481-1.426,1.426v0.499c0,0.98,0.48,1.462,1.426,1.462h4.652
			c0.16,0.018,0.267,0.107,0.267,0.267v1.283c0,0.16-0.106,0.267-0.267,0.267h-4.652c-0.946,0-1.426,0.481-1.426,1.426v0.749
			c0,0.98,0.48,1.462,1.426,1.462h5.899c0.16,0,0.268,0.107,0.268,0.267v1.283c0,0.16-0.107,0.267-0.268,0.267h-8.948
			C343.217,64.653,343.11,64.546,343.11,64.386z"/>
		<path fill="#F3F4DD" d="M357.758,64.386V52.443c0-0.16,0.107-0.268,0.268-0.268h7.986c0.125,0,0.249,0.054,0.338,0.143
			l1.604,1.604c0.09,0.089,0.143,0.214,0.143,0.339v3.048c0,0.125-0.036,0.232-0.143,0.339l-1.069,1.07
			c-0.41,0.41-0.499,0.962-0.231,1.551l1.836,4.064c0.089,0.196,0,0.321-0.196,0.321h-1.569c-0.142,0-0.249-0.071-0.303-0.196
			l-1.409-3.101c-0.552-1.23-1.443-1.836-2.709-1.836c-1.462,0-2.656,1.087-2.656,2.745v2.121c0,0.16-0.107,0.267-0.268,0.267
			h-1.354C357.865,64.653,357.758,64.546,357.758,64.386z M364.781,57.452c0.926,0,1.426-0.499,1.426-1.462v-0.57
			c0-0.927-0.5-1.426-1.426-1.426h-4.867c-0.16,0-0.267,0.107-0.267,0.267v2.923c0,0.16,0.106,0.268,0.267,0.268H364.781z"/>
	</g>
	<g>
		<path fill="#F3F4DD" d="M578.869,64.386V52.443c0-0.16,0.107-0.268,0.268-0.268h1.354c0.16,0,0.269,0.107,0.269,0.268v3.493
			c0,0.945,0.48,1.426,1.425,1.426h4.296c0.98,0,1.462-0.481,1.462-1.426v-3.493c0-0.16,0.106-0.268,0.267-0.268h1.355
			c0.16,0,0.267,0.107,0.267,0.268v11.943c0,0.16-0.106,0.267-0.267,0.267h-1.355c-0.161,0-0.267-0.107-0.267-0.267v-3.779
			c0-0.945-0.481-1.426-1.462-1.426h-4.296c-0.945,0-1.425,0.481-1.425,1.426v3.779c0,0.16-0.108,0.267-0.269,0.267h-1.354
			C578.976,64.653,578.869,64.546,578.869,64.386z"/>
		<path fill="#F3F4DD" d="M597.01,64.511l-1.604-1.604c-0.089-0.089-0.143-0.214-0.143-0.338v-8.307
			c0-0.125,0.054-0.249,0.143-0.339l1.604-1.604c0.089-0.089,0.214-0.143,0.338-0.143h7.147c0.126,0,0.249,0.054,0.339,0.143
			l1.604,1.604c0.089,0.089,0.143,0.214,0.143,0.339v8.307c0,0.125-0.054,0.249-0.143,0.338l-1.604,1.604
			c-0.107,0.107-0.214,0.143-0.339,0.143h-7.147C597.223,64.653,597.117,64.617,597.01,64.511z M602.893,62.835
			c1.051,0,1.8-0.749,1.8-1.801v-5.24c0-1.052-0.749-1.8-1.8-1.8h-3.941c-1.052,0-1.8,0.748-1.8,1.8v5.24
			c0,1.052,0.748,1.801,1.8,1.801H602.893z"/>
		<path fill="#F3F4DD" d="M614.848,64.439l-3.708-11.96c-0.053-0.196,0.036-0.303,0.231-0.303h1.48c0.142,0,0.249,0.072,0.303,0.214
			l0.999,2.977c0.713,2.103,2.941,2.282,3.814,0.428l0.481-1.034c0.161-0.338,0.553-0.338,0.714,0l0.481,1.034
			c0.873,1.854,3.101,1.675,3.815-0.428l0.998-2.977c0.053-0.143,0.16-0.214,0.304-0.214h1.479c0.195,0,0.284,0.107,0.232,0.303
			l-3.709,11.96c-0.035,0.143-0.16,0.214-0.303,0.214h-1.016c-0.143,0-0.267-0.071-0.321-0.214l-0.926-2.246
			c-0.536-1.283-2.247-1.283-2.781,0l-0.927,2.246c-0.053,0.143-0.178,0.214-0.321,0.214h-1.015
			C615.008,64.653,614.883,64.582,614.848,64.439z"/>
		<path fill="#F3F4DD" d="M640.916,64.386v-1.283c0-0.16,0.108-0.267,0.269-0.267h2.976c0.16,0,0.268-0.107,0.268-0.267v-8.307
			c0-0.16-0.107-0.267-0.268-0.267h-2.976c-0.16,0-0.269-0.107-0.269-0.267v-1.283c0-0.16,0.108-0.268,0.269-0.268h8.377
			c0.16,0,0.268,0.107,0.268,0.268v1.283c0,0.16-0.107,0.267-0.268,0.267h-2.977c-0.161,0-0.267,0.107-0.267,0.267v8.307
			c0,0.16,0.106,0.267,0.267,0.267h2.977c0.16,0,0.268,0.107,0.268,0.267v1.283c0,0.16-0.107,0.267-0.268,0.267h-8.377
			C641.024,64.653,640.916,64.546,640.916,64.386z"/>
		<path fill="#F3F4DD" d="M659.182,64.386v-8.93c0-0.981-0.481-1.462-1.425-1.462h-3.031c-0.16,0-0.268-0.107-0.268-0.267v-1.283
			c0-0.16,0.107-0.268,0.268-0.268h10.802c0.16,0,0.268,0.107,0.268,0.268v1.283c0,0.16-0.107,0.267-0.268,0.267h-3.03
			c-0.946,0-1.426,0.481-1.426,1.462v8.93c0,0.16-0.107,0.267-0.268,0.267h-1.354C659.289,64.653,659.182,64.546,659.182,64.386z"/>
		<path fill="#F3F4DD" d="M672.083,52.443l-0.303,4.278h-0.962l-0.286-4.278H672.083z"/>
		<path fill="#F3F4DD" d="M679.264,64.511l-1.604-1.604c-0.089-0.089-0.142-0.214-0.142-0.338v-1.872
			c0-0.16,0.106-0.267,0.267-0.267h1.355c0.161,0,0.267,0.107,0.267,0.267v0.338c0,1.052,0.748,1.801,1.8,1.801h3.405
			c1.265,0,1.978-0.66,1.978-1.819v-0.017c0-1.177-0.714-1.836-1.978-1.836h-5.01c-0.124,0-0.249-0.16-0.338-0.25l-1.604-1.604
			c-0.089-0.089-0.142-0.214-0.142-0.338v-2.709c0-0.125,0.053-0.249,0.142-0.339l1.604-1.604c0.089-0.089,0.215-0.143,0.338-0.143
			h6.793c0.124,0,0.249,0.054,0.338,0.143l1.604,1.604c0.09,0.089,0.142,0.214,0.142,0.339v1.872c0,0.16-0.106,0.267-0.267,0.267
			h-1.354c-0.16,0-0.268-0.107-0.268-0.267v-0.339c0-1.052-0.748-1.8-1.8-1.8h-3.583c-1.052,0-1.8,0.748-1.8,1.675v0.018
			c0,0.927,0.766,1.658,1.8,1.658h5.045c0.16,0,0.285,0.054,0.41,0.178l1.675,1.675c0.09,0.089,0.142,0.214,0.142,0.339v3.03
			c0,0.125-0.052,0.249-0.142,0.338l-1.604,1.604c-0.089,0.089-0.215,0.143-0.338,0.143h-6.793
			C679.479,64.653,679.353,64.6,679.264,64.511z"/>
		<path fill="#F3F4DD" d="M704.069,64.386V52.443c0-0.16,0.107-0.268,0.268-0.268h1.764c0.142,0,0.285,0.072,0.338,0.16l1.925,3.12
			c1.034,1.693,3.388,1.729,4.439,0l1.906-3.12c0.054-0.089,0.196-0.16,0.338-0.16h1.765c0.161,0,0.267,0.107,0.267,0.268v11.943
			c0,0.16-0.106,0.267-0.267,0.267h-1.355c-0.16,0-0.267-0.107-0.267-0.267v-2.567c0-1.836-2.21-2.46-3.209-1.123l-1.088,1.461
			c-0.178,0.25-0.463,0.25-0.642,0l-1.087-1.461c-1.034-1.391-3.208-0.713-3.208,1.123v2.567c0,0.16-0.108,0.267-0.269,0.267h-1.353
			C704.176,64.653,704.069,64.546,704.069,64.386z"/>
		<path fill="#F3F4DD" d="M721.995,64.35l4.794-11.96c0.054-0.143,0.179-0.214,0.321-0.214h1.587c0.142,0,0.267,0.072,0.32,0.214
			l4.795,11.96c0.071,0.196-0.018,0.303-0.214,0.303h-1.497c-0.142,0-0.268-0.071-0.321-0.214l-0.624-1.604
			c-0.054-0.143-0.178-0.214-0.321-0.214h-5.865c-0.143,0-0.267,0.072-0.321,0.214l-0.625,1.604
			c-0.052,0.143-0.178,0.214-0.32,0.214h-1.498C722.013,64.653,721.923,64.546,721.995,64.35z M728.571,60.803
			c0.98,0,1.479-0.802,1.088-1.765l-0.57-1.426c-0.446-1.105-1.907-1.105-2.353,0l-0.57,1.426c-0.392,0.963,0.072,1.765,1.088,1.765
			H728.571z"/>
		<path fill="#F3F4DD" d="M738.727,64.386V52.443c0-0.16,0.107-0.268,0.268-0.268h8.573c0.125,0,0.249,0.054,0.338,0.143
			l1.605,1.604c0.089,0.089,0.142,0.214,0.142,0.339v8.307c0,0.125-0.053,0.249-0.142,0.338l-1.605,1.604
			c-0.089,0.089-0.214,0.143-0.338,0.143h-8.573C738.835,64.653,738.727,64.546,738.727,64.386z M746.339,62.835
			c0.926,0,1.425-0.499,1.425-1.462V55.42c0-0.927-0.499-1.426-1.425-1.426h-5.455c-0.16,0-0.267,0.107-0.267,0.267v8.307
			c0,0.16,0.106,0.267,0.267,0.267H746.339z"/>
		<path fill="#F3F4DD" d="M755.531,64.386V52.443c0-0.16,0.107-0.268,0.268-0.268h8.948c0.161,0,0.268,0.107,0.268,0.268v1.283
			c0,0.16-0.107,0.267-0.268,0.267h-5.899c-0.945,0-1.426,0.481-1.426,1.426v0.499c0,0.98,0.481,1.462,1.426,1.462h4.652
			c0.161,0.018,0.267,0.107,0.267,0.267v1.283c0,0.16-0.106,0.267-0.267,0.267h-4.652c-0.945,0-1.426,0.481-1.426,1.426v0.749
			c0,0.98,0.481,1.462,1.426,1.462h5.899c0.161,0,0.268,0.107,0.268,0.267v1.283c0,0.16-0.107,0.267-0.268,0.267h-8.948
			C755.638,64.653,755.531,64.546,755.531,64.386z"/>
	</g>
	<g>
		<g>
			<g>
				<path fill="#F3F4DD" d="M42.888,385.884l-1.021-1.021c-0.057-0.057-0.091-0.136-0.091-0.216v-5.286
					c0-0.08,0.034-0.16,0.091-0.216l1.021-1.021c0.057-0.057,0.136-0.091,0.216-0.091h4.549c0.079,0,0.159,0.034,0.216,0.091
					l1.021,1.021c0.057,0.056,0.091,0.135,0.091,0.216v5.286c0,0.079-0.034,0.159-0.091,0.216l-1.021,1.021
					c-0.068,0.068-0.136,0.091-0.216,0.091h-4.549C43.024,385.975,42.956,385.952,42.888,385.884z M46.632,384.818
					c0.669,0,1.146-0.477,1.146-1.146v-3.335c0-0.67-0.477-1.146-1.146-1.146h-2.507c-0.669,0-1.146,0.476-1.146,1.146v3.335
					c0,0.669,0.477,1.146,1.146,1.146H46.632z"/>
			</g>
			<g>
				<path fill="#F3F4DD" d="M52.435,385.805v-7.601c0-0.102,0.068-0.17,0.17-0.17h0.567c0.08,0,0.147,0.034,0.204,0.102l2.235,2.36
					c1.066,1.134,2.564,0.374,2.564-0.862v-1.429c0-0.102,0.068-0.17,0.17-0.17h0.862c0.102,0,0.17,0.068,0.17,0.17v7.601
					c0,0.102-0.068,0.17-0.17,0.17H58.64c-0.079,0-0.147-0.023-0.204-0.091l-2.348-2.473c-0.829-0.874-2.451-0.397-2.451,1.043
					v1.351c0,0.102-0.068,0.17-0.17,0.17h-0.862C52.503,385.975,52.435,385.906,52.435,385.805z"/>
			</g>
			<g>
				<path fill="#F3F4DD" d="M63.116,385.805v-7.601c0-0.102,0.068-0.17,0.17-0.17h5.695c0.102,0,0.17,0.068,0.17,0.17v0.817
					c0,0.102-0.068,0.17-0.17,0.17h-3.755c-0.601,0-0.907,0.306-0.907,0.907v0.318c0,0.624,0.306,0.93,0.907,0.93h2.961
					c0.102,0.012,0.17,0.069,0.17,0.17v0.817c0,0.102-0.068,0.17-0.17,0.17h-2.961c-0.601,0-0.907,0.306-0.907,0.908v0.477
					c0,0.624,0.306,0.93,0.907,0.93h3.755c0.102,0,0.17,0.068,0.17,0.17v0.817c0,0.102-0.068,0.17-0.17,0.17h-5.695
					C63.184,385.975,63.116,385.906,63.116,385.805z"/>
			</g>
			<g>
				<path fill="#F3F4DD" d="M78.673,385.805v-7.601c0-0.102,0.068-0.17,0.17-0.17H84.3c0.079,0,0.159,0.034,0.216,0.091l1.021,1.021
					c0.057,0.056,0.09,0.135,0.09,0.216v5.286c0,0.079-0.034,0.159-0.09,0.216l-1.021,1.021c-0.057,0.057-0.136,0.091-0.216,0.091
					h-5.457C78.741,385.975,78.673,385.906,78.673,385.805z M83.517,384.818c0.59,0,0.908-0.318,0.908-0.93v-3.79
					c0-0.59-0.318-0.907-0.908-0.907h-3.471c-0.102,0-0.17,0.068-0.17,0.17v5.286c0,0.102,0.068,0.17,0.17,0.17H83.517z"/>
			</g>
			<g>
				<path fill="#F3F4DD" d="M89.365,385.805v-7.601c0-0.102,0.068-0.17,0.17-0.17h5.695c0.102,0,0.17,0.068,0.17,0.17v0.817
					c0,0.102-0.068,0.17-0.17,0.17h-3.755c-0.601,0-0.907,0.306-0.907,0.907v0.318c0,0.624,0.306,0.93,0.907,0.93h2.961
					c0.102,0.012,0.17,0.069,0.17,0.17v0.817c0,0.102-0.068,0.17-0.17,0.17h-2.961c-0.601,0-0.907,0.306-0.907,0.908v0.477
					c0,0.624,0.306,0.93,0.907,0.93h3.755c0.102,0,0.17,0.068,0.17,0.17v0.817c0,0.102-0.068,0.17-0.17,0.17h-5.695
					C89.433,385.975,89.365,385.906,89.365,385.805z"/>
			</g>
			<g>
				<path fill="#F3F4DD" d="M99.684,385.884l-1.021-1.021c-0.057-0.057-0.091-0.136-0.091-0.216v-1.191
					c0-0.102,0.068-0.17,0.17-0.17h0.862c0.102,0,0.17,0.068,0.17,0.17v0.216c0,0.669,0.477,1.146,1.146,1.146h2.167
					c0.805,0,1.259-0.42,1.259-1.157v-0.012c0-0.748-0.454-1.168-1.259-1.168H99.9c-0.079,0-0.159-0.102-0.216-0.16l-1.021-1.021
					c-0.057-0.056-0.091-0.136-0.091-0.216v-1.724c0-0.08,0.034-0.16,0.091-0.216l1.021-1.021c0.057-0.057,0.136-0.091,0.216-0.091
					h4.322c0.079,0,0.159,0.034,0.216,0.091l1.021,1.021c0.057,0.056,0.09,0.135,0.09,0.216v1.191c0,0.102-0.068,0.17-0.17,0.17
					h-0.862c-0.102,0-0.17-0.069-0.17-0.17v-0.216c0-0.67-0.477-1.146-1.146-1.146h-2.28c-0.669,0-1.146,0.476-1.146,1.066v0.011
					c0,0.591,0.488,1.056,1.146,1.056h3.211c0.102,0,0.181,0.034,0.261,0.113l1.066,1.066c0.057,0.057,0.09,0.136,0.09,0.216v1.929
					c0,0.079-0.034,0.159-0.09,0.216l-1.021,1.021c-0.057,0.057-0.136,0.091-0.216,0.091H99.9
					C99.82,385.975,99.741,385.941,99.684,385.884z"/>
			</g>
			<g>
				<path fill="#F3F4DD" d="M109.004,385.805v-0.817c0-0.102,0.068-0.17,0.17-0.17h1.894c0.102,0,0.17-0.069,0.17-0.17v-5.286
					c0-0.102-0.068-0.17-0.17-0.17h-1.894c-0.102,0-0.17-0.069-0.17-0.17v-0.817c0-0.102,0.068-0.17,0.17-0.17h5.332
					c0.102,0,0.17,0.068,0.17,0.17v0.817c0,0.102-0.068,0.17-0.17,0.17h-1.894c-0.102,0-0.17,0.068-0.17,0.17v5.286
					c0,0.102,0.068,0.17,0.17,0.17h1.894c0.102,0,0.17,0.068,0.17,0.17v0.817c0,0.102-0.068,0.17-0.17,0.17h-5.332
					C109.072,385.975,109.004,385.906,109.004,385.805z"/>
			</g>
			<g>
				<path fill="#F3F4DD" d="M119.244,385.884l-1.021-1.021c-0.057-0.057-0.091-0.136-0.091-0.216v-5.286
					c0-0.08,0.034-0.16,0.091-0.216l1.021-1.021c0.057-0.057,0.136-0.091,0.216-0.091h4.549c0.079,0,0.159,0.034,0.216,0.091
					l1.021,1.021c0.057,0.056,0.091,0.135,0.091,0.216v1.191c0,0.102-0.068,0.17-0.17,0.17h-0.862c-0.102,0-0.17-0.069-0.17-0.17
					v-0.216c0-0.67-0.477-1.146-1.146-1.146h-2.507c-0.669,0-1.146,0.476-1.146,1.146v3.335c0,0.669,0.477,1.146,1.146,1.146h2.507
					c0.669,0,1.146-0.477,1.146-1.146v-0.591c0-0.102-0.068-0.17-0.17-0.17h-1.033c-0.102,0-0.17-0.068-0.17-0.17v-0.816
					c0-0.102,0.068-0.17,0.17-0.17h2.235c0.102,0,0.17,0.068,0.17,0.17v2.722c0,0.079-0.023,0.147-0.091,0.216l-1.021,1.021
					c-0.057,0.057-0.136,0.091-0.216,0.091h-4.549C119.38,385.975,119.312,385.952,119.244,385.884z"/>
			</g>
			<g>
				<path fill="#F3F4DD" d="M128.961,385.805v-7.601c0-0.102,0.068-0.17,0.17-0.17h0.568c0.079,0,0.147,0.034,0.204,0.102
					l2.235,2.36c1.066,1.134,2.564,0.374,2.564-0.862v-1.429c0-0.102,0.068-0.17,0.17-0.17h0.862c0.102,0,0.17,0.068,0.17,0.17
					v7.601c0,0.102-0.068,0.17-0.17,0.17h-0.567c-0.079,0-0.147-0.023-0.204-0.091l-2.349-2.473c-0.828-0.874-2.45-0.397-2.45,1.043
					v1.351c0,0.102-0.068,0.17-0.17,0.17h-0.862C129.029,385.975,128.961,385.906,128.961,385.805z"/>
			</g>
			<g>
				<path fill="#F3F4DD" d="M139.642,385.805v-7.601c0-0.102,0.068-0.17,0.17-0.17h5.695c0.102,0,0.17,0.068,0.17,0.17v0.817
					c0,0.102-0.068,0.17-0.17,0.17h-3.755c-0.601,0-0.907,0.306-0.907,0.907v0.318c0,0.624,0.306,0.93,0.907,0.93h2.961
					c0.102,0.012,0.17,0.069,0.17,0.17v0.817c0,0.102-0.068,0.17-0.17,0.17h-2.961c-0.601,0-0.907,0.306-0.907,0.908v0.477
					c0,0.624,0.306,0.93,0.907,0.93h3.755c0.102,0,0.17,0.068,0.17,0.17v0.817c0,0.102-0.068,0.17-0.17,0.17h-5.695
					C139.71,385.975,139.642,385.906,139.642,385.805z"/>
			</g>
			<g>
				<path fill="#F3F4DD" d="M148.963,385.805v-7.601c0-0.102,0.068-0.17,0.17-0.17h5.082c0.079,0,0.159,0.034,0.216,0.091
					l1.021,1.021c0.057,0.056,0.091,0.135,0.091,0.216v1.939c0,0.079-0.023,0.148-0.091,0.216l-0.681,0.681
					c-0.261,0.261-0.318,0.613-0.147,0.987l1.168,2.587c0.057,0.125,0,0.204-0.125,0.204h-0.998c-0.091,0-0.159-0.045-0.193-0.125
					l-0.896-1.974c-0.351-0.783-0.918-1.169-1.724-1.169c-0.93,0-1.69,0.692-1.69,1.747v1.351c0,0.102-0.068,0.17-0.17,0.17h-0.862
					C149.031,385.975,148.963,385.906,148.963,385.805z M153.432,381.391c0.59,0,0.908-0.317,0.908-0.93v-0.364
					c0-0.59-0.318-0.907-0.908-0.907h-3.097c-0.102,0-0.17,0.068-0.17,0.17v1.86c0,0.102,0.068,0.17,0.17,0.17H153.432z"/>
			</g>
			<g>
				<path fill="#F3F4DD" d="M159.667,387.12l0.351-0.93c0.057-0.136,0-0.216-0.113-0.216h-0.522c-0.102,0-0.17-0.069-0.17-0.17
					v-1.191c0-0.102,0.068-0.17,0.17-0.17h1.531c0.102,0,0.17,0.068,0.17,0.17v1.213c0,0.148-0.011,0.159-0.068,0.284l-0.579,1.27
					C160.177,387.96,159.462,387.676,159.667,387.12z"/>
			</g>
			<g>
				<path fill="#F3F4DD" d="M22.086,403.883v-7.601c0-0.102,0.068-0.17,0.17-0.17h1.123c0.09,0,0.181,0.045,0.216,0.102l1.225,1.986
					c0.658,1.078,2.155,1.1,2.825,0l1.214-1.986c0.034-0.056,0.125-0.102,0.216-0.102h1.123c0.102,0,0.17,0.068,0.17,0.17v7.601
					c0,0.102-0.068,0.17-0.17,0.17h-0.862c-0.102,0-0.17-0.069-0.17-0.17v-1.634c0-1.169-1.407-1.565-2.042-0.714l-0.692,0.93
					c-0.114,0.159-0.295,0.159-0.408,0l-0.692-0.93c-0.658-0.886-2.042-0.454-2.042,0.714v1.634c0,0.102-0.068,0.17-0.17,0.17
					h-0.862C22.155,404.053,22.086,403.985,22.086,403.883z"/>
			</g>
			<g>
				<path fill="#F3F4DD" d="M33.493,403.86l3.052-7.611c0.034-0.091,0.114-0.136,0.204-0.136h1.009c0.091,0,0.171,0.045,0.204,0.136
					l3.052,7.611c0.045,0.125-0.011,0.193-0.136,0.193h-0.953c-0.091,0-0.17-0.045-0.204-0.136l-0.397-1.021
					c-0.034-0.091-0.114-0.136-0.204-0.136h-3.733c-0.09,0-0.17,0.045-0.204,0.136l-0.397,1.021
					c-0.034,0.091-0.114,0.136-0.204,0.136h-0.953C33.504,404.053,33.447,403.985,33.493,403.86z M37.679,401.603
					c0.624,0,0.942-0.51,0.692-1.123l-0.363-0.907c-0.284-0.704-1.214-0.704-1.498,0l-0.363,0.907
					c-0.25,0.613,0.045,1.123,0.692,1.123H37.679z"/>
			</g>
			<g>
				<path fill="#F3F4DD" d="M44.14,403.883v-7.601c0-0.102,0.068-0.17,0.17-0.17h0.567c0.079,0,0.147,0.034,0.204,0.102l2.235,2.36
					c1.066,1.134,2.564,0.374,2.564-0.862v-1.429c0-0.102,0.068-0.17,0.17-0.17h0.862c0.102,0,0.17,0.068,0.17,0.17v7.601
					c0,0.102-0.068,0.17-0.17,0.17h-0.567c-0.08,0-0.148-0.023-0.204-0.091l-2.348-2.473c-0.828-0.874-2.45-0.397-2.45,1.043v1.351
					c0,0.102-0.068,0.17-0.17,0.17h-0.862C44.209,404.053,44.14,403.985,44.14,403.883z"/>
			</g>
			<g>
				<path fill="#F3F4DD" d="M57.397,403.883v-2.859c0-0.364-0.079-0.579-0.261-0.829l-2.904-3.88
					c-0.079-0.113-0.023-0.204,0.114-0.204h1.112c0.09,0,0.159,0.034,0.204,0.102l0.976,1.351c0.771,1.066,1.928,1.066,2.7,0
					l0.975-1.351c0.045-0.068,0.114-0.102,0.204-0.102h1.1c0.136,0,0.193,0.091,0.114,0.204l-2.881,3.88
					c-0.182,0.238-0.249,0.465-0.249,0.829v2.859c0,0.102-0.068,0.17-0.17,0.17h-0.862
					C57.465,404.053,57.397,403.985,57.397,403.883z"/>
			</g>
			<g>
				<path fill="#F3F4DD" d="M71.115,403.883v-7.601c0-0.102,0.068-0.17,0.17-0.17h5.457c0.079,0,0.159,0.034,0.216,0.091
					l1.021,1.021c0.057,0.056,0.09,0.135,0.09,0.216v5.286c0,0.079-0.034,0.159-0.09,0.216l-1.021,1.021
					c-0.057,0.057-0.136,0.091-0.216,0.091h-5.457C71.184,404.053,71.115,403.985,71.115,403.883z M75.959,402.896
					c0.59,0,0.908-0.318,0.908-0.93v-3.79c0-0.59-0.318-0.907-0.908-0.907h-3.471c-0.102,0-0.17,0.068-0.17,0.17v5.286
					c0,0.102,0.068,0.17,0.17,0.17H75.959z"/>
			</g>
			<g>
				<path fill="#F3F4DD" d="M81.581,403.883v-0.817c0-0.102,0.068-0.17,0.17-0.17h1.894c0.102,0,0.17-0.069,0.17-0.17v-5.286
					c0-0.102-0.068-0.17-0.17-0.17h-1.894c-0.102,0-0.17-0.069-0.17-0.17v-0.817c0-0.102,0.068-0.17,0.17-0.17h5.332
					c0.102,0,0.17,0.068,0.17,0.17v0.817c0,0.102-0.068,0.17-0.17,0.17h-1.894c-0.102,0-0.17,0.068-0.17,0.17v5.286
					c0,0.102,0.068,0.17,0.17,0.17h1.894c0.102,0,0.17,0.068,0.17,0.17v0.817c0,0.102-0.068,0.17-0.17,0.17h-5.332
					C81.649,404.053,81.581,403.985,81.581,403.883z"/>
			</g>
			<g>
				<path fill="#F3F4DD" d="M91.764,403.963l-1.021-1.021c-0.057-0.057-0.09-0.136-0.09-0.216v-1.191c0-0.102,0.068-0.17,0.17-0.17
					h0.862c0.102,0,0.17,0.068,0.17,0.17v0.216c0,0.669,0.477,1.146,1.146,1.146h2.167c0.806,0,1.259-0.42,1.259-1.157v-0.012
					c0-0.748-0.453-1.168-1.259-1.168h-3.188c-0.079,0-0.159-0.102-0.215-0.16l-1.021-1.021c-0.057-0.056-0.09-0.136-0.09-0.216
					v-1.724c0-0.08,0.034-0.16,0.09-0.216l1.021-1.021c0.057-0.057,0.136-0.091,0.215-0.091h4.322c0.079,0,0.159,0.034,0.216,0.091
					l1.021,1.021c0.057,0.056,0.091,0.135,0.091,0.216v1.191c0,0.102-0.068,0.17-0.17,0.17h-0.862c-0.102,0-0.17-0.069-0.17-0.17
					v-0.216c0-0.67-0.477-1.146-1.146-1.146h-2.28c-0.669,0-1.146,0.476-1.146,1.066v0.011c0,0.591,0.488,1.056,1.146,1.056h3.21
					c0.102,0,0.182,0.034,0.261,0.113l1.066,1.066c0.057,0.057,0.091,0.136,0.091,0.216v1.929c0,0.079-0.034,0.159-0.091,0.216
					l-1.021,1.021c-0.057,0.057-0.136,0.091-0.216,0.091h-4.322C91.9,404.053,91.821,404.02,91.764,403.963z"/>
			</g>
			<g>
				<path fill="#F3F4DD" d="M102.366,403.963l-1.021-1.021c-0.057-0.057-0.091-0.136-0.091-0.216v-5.286
					c0-0.08,0.034-0.16,0.091-0.216l1.021-1.021c0.057-0.057,0.136-0.091,0.216-0.091h4.549c0.079,0,0.159,0.034,0.216,0.091
					l1.021,1.021c0.057,0.056,0.091,0.135,0.091,0.216v1.191c0,0.102-0.068,0.17-0.17,0.17h-0.862c-0.102,0-0.17-0.069-0.17-0.17
					v-0.216c0-0.67-0.477-1.146-1.146-1.146h-2.507c-0.669,0-1.146,0.476-1.146,1.146v3.335c0,0.669,0.476,1.146,1.146,1.146h2.507
					c0.669,0,1.146-0.477,1.146-1.146v-0.216c0-0.102,0.068-0.17,0.17-0.17h0.862c0.102,0,0.17,0.068,0.17,0.17v1.191
					c0,0.079-0.023,0.147-0.091,0.216l-1.021,1.021c-0.057,0.057-0.136,0.091-0.216,0.091h-4.549
					C102.502,404.053,102.434,404.03,102.366,403.963z"/>
			</g>
			<g>
				<path fill="#F3F4DD" d="M111.686,403.883v-0.817c0-0.102,0.068-0.17,0.17-0.17h1.894c0.102,0,0.17-0.069,0.17-0.17v-5.286
					c0-0.102-0.068-0.17-0.17-0.17h-1.894c-0.102,0-0.17-0.069-0.17-0.17v-0.817c0-0.102,0.068-0.17,0.17-0.17h5.332
					c0.102,0,0.17,0.068,0.17,0.17v0.817c0,0.102-0.068,0.17-0.17,0.17h-1.895c-0.102,0-0.17,0.068-0.17,0.17v5.286
					c0,0.102,0.068,0.17,0.17,0.17h1.895c0.102,0,0.17,0.068,0.17,0.17v0.817c0,0.102-0.068,0.17-0.17,0.17h-5.332
					C111.754,404.053,111.686,403.985,111.686,403.883z"/>
			</g>
			<g>
				<path fill="#F3F4DD" d="M120.871,403.883v-7.601c0-0.102,0.068-0.17,0.17-0.17h4.742c0.079,0,0.159,0.034,0.216,0.091
					l1.021,1.021c0.057,0.056,0.091,0.135,0.091,0.216v1.86c0,0.079-0.023,0.148-0.091,0.216l-1.021,1.021
					c-0.057,0.057-0.136,0.091-0.216,0.091h-3.539c-0.102,0-0.171,0.068-0.171,0.17v3.086c0,0.102-0.068,0.17-0.17,0.17h-0.862
					C120.938,404.053,120.871,403.985,120.871,403.883z M125,399.47c0.59,0,0.908-0.317,0.908-0.93v-0.363
					c0-0.59-0.318-0.907-0.908-0.907h-2.756c-0.102,0-0.171,0.068-0.171,0.17v1.86c0,0.102,0.068,0.17,0.171,0.17H125z"/>
			</g>
			<g>
				<path fill="#F3F4DD" d="M130.508,403.883v-7.601c0-0.102,0.068-0.17,0.17-0.17h0.862c0.102,0,0.17,0.068,0.17,0.17v5.684
					c0,0.624,0.306,0.93,0.907,0.93h3.755c0.102,0,0.17,0.068,0.17,0.17v0.817c0,0.102-0.068,0.17-0.17,0.17h-5.695
					C130.577,404.053,130.508,403.985,130.508,403.883z"/>
			</g>
			<g>
				<path fill="#F3F4DD" d="M139.455,403.883v-0.817c0-0.102,0.068-0.17,0.17-0.17h1.894c0.102,0,0.17-0.069,0.17-0.17v-5.286
					c0-0.102-0.068-0.17-0.17-0.17h-1.894c-0.102,0-0.17-0.069-0.17-0.17v-0.817c0-0.102,0.068-0.17,0.17-0.17h5.332
					c0.102,0,0.17,0.068,0.17,0.17v0.817c0,0.102-0.068,0.17-0.17,0.17h-1.895c-0.102,0-0.17,0.068-0.17,0.17v5.286
					c0,0.102,0.068,0.17,0.17,0.17h1.895c0.102,0,0.17,0.068,0.17,0.17v0.817c0,0.102-0.068,0.17-0.17,0.17h-5.332
					C139.523,404.053,139.455,403.985,139.455,403.883z"/>
			</g>
			<g>
				<path fill="#F3F4DD" d="M148.639,403.883v-7.601c0-0.102,0.068-0.17,0.17-0.17h0.568c0.079,0,0.147,0.034,0.204,0.102
					l2.235,2.36c1.066,1.134,2.564,0.374,2.564-0.862v-1.429c0-0.102,0.068-0.17,0.17-0.17h0.862c0.102,0,0.17,0.068,0.17,0.17
					v7.601c0,0.102-0.068,0.17-0.17,0.17h-0.568c-0.079,0-0.147-0.023-0.204-0.091l-2.348-2.473c-0.828-0.874-2.45-0.397-2.45,1.043
					v1.351c0,0.102-0.068,0.17-0.17,0.17h-0.862C148.707,404.053,148.639,403.985,148.639,403.883z"/>
			</g>
			<g>
				<path fill="#F3F4DD" d="M159.32,403.883v-7.601c0-0.102,0.068-0.17,0.17-0.17h5.695c0.102,0,0.17,0.068,0.17,0.17v0.817
					c0,0.102-0.068,0.17-0.17,0.17h-3.755c-0.601,0-0.908,0.306-0.908,0.907v0.318c0,0.624,0.306,0.93,0.908,0.93h2.961
					c0.102,0.012,0.17,0.069,0.17,0.17v0.817c0,0.102-0.068,0.17-0.17,0.17h-2.961c-0.601,0-0.908,0.306-0.908,0.908v0.477
					c0,0.624,0.306,0.93,0.908,0.93h3.755c0.102,0,0.17,0.068,0.17,0.17v0.817c0,0.102-0.068,0.17-0.17,0.17h-5.695
					C159.388,404.053,159.32,403.985,159.32,403.883z"/>
			</g>
			<g>
				<path fill="#F3F4DD" d="M169.639,403.963l-1.021-1.021c-0.057-0.057-0.09-0.136-0.09-0.216v-1.191c0-0.102,0.068-0.17,0.17-0.17
					h0.862c0.102,0,0.17,0.068,0.17,0.17v0.216c0,0.669,0.477,1.146,1.146,1.146h2.167c0.805,0,1.259-0.42,1.259-1.157v-0.012
					c0-0.748-0.454-1.168-1.259-1.168h-3.188c-0.079,0-0.159-0.102-0.216-0.16l-1.021-1.021c-0.057-0.056-0.09-0.136-0.09-0.216
					v-1.724c0-0.08,0.034-0.16,0.09-0.216l1.021-1.021c0.057-0.057,0.136-0.091,0.216-0.091h4.322c0.079,0,0.159,0.034,0.216,0.091
					l1.021,1.021c0.057,0.056,0.091,0.135,0.091,0.216v1.191c0,0.102-0.068,0.17-0.17,0.17h-0.862c-0.102,0-0.17-0.069-0.17-0.17
					v-0.216c0-0.67-0.477-1.146-1.146-1.146h-2.28c-0.669,0-1.146,0.476-1.146,1.066v0.011c0,0.591,0.488,1.056,1.146,1.056h3.21
					c0.102,0,0.181,0.034,0.261,0.113l1.066,1.066c0.057,0.057,0.091,0.136,0.091,0.216v1.929c0,0.079-0.034,0.159-0.091,0.216
					l-1.021,1.021c-0.057,0.057-0.136,0.091-0.216,0.091h-4.322C169.775,404.053,169.696,404.02,169.639,403.963z"/>
			</g>
			<g>
				<path fill="#F3F4DD" d="M179.186,403.883v-1.191c0-0.102,0.068-0.17,0.17-0.17h1.532c0.102,0,0.17,0.068,0.17,0.17v1.191
					c0,0.102-0.068,0.17-0.17,0.17h-1.532C179.254,404.053,179.186,403.985,179.186,403.883z"/>
			</g>
		</g>
		<g>
			<g>
				<path fill="#F3F4DD" d="M773.929,385.884l-1.022-1.021c-0.056-0.057-0.09-0.136-0.09-0.216v-1.191c0-0.102,0.068-0.17,0.17-0.17
					h0.861c0.102,0,0.17,0.068,0.17,0.17v0.216c0,0.669,0.477,1.146,1.146,1.146h2.167c0.805,0,1.259-0.42,1.259-1.157v-0.012
					c0-0.748-0.453-1.168-1.259-1.168h-3.188c-0.079,0-0.159-0.102-0.215-0.16l-1.022-1.021c-0.056-0.056-0.09-0.136-0.09-0.216
					v-1.724c0-0.08,0.034-0.16,0.09-0.216l1.022-1.021c0.056-0.057,0.135-0.091,0.215-0.091h4.322c0.079,0,0.16,0.034,0.216,0.091
					l1.021,1.021c0.057,0.056,0.091,0.135,0.091,0.216v1.191c0,0.102-0.068,0.17-0.17,0.17h-0.862c-0.102,0-0.17-0.069-0.17-0.17
					v-0.216c0-0.67-0.476-1.146-1.146-1.146h-2.281c-0.669,0-1.146,0.476-1.146,1.066v0.011c0,0.591,0.488,1.056,1.146,1.056h3.211
					c0.102,0,0.182,0.034,0.261,0.113l1.066,1.066c0.057,0.057,0.091,0.136,0.091,0.216v1.929c0,0.079-0.034,0.159-0.091,0.216
					l-1.021,1.021c-0.056,0.057-0.136,0.091-0.216,0.091h-4.322C774.064,385.975,773.985,385.941,773.929,385.884z"/>
			</g>
			<g>
				<path fill="#F3F4DD" d="M785.914,385.805v-5.684c0-0.625-0.306-0.93-0.907-0.93h-1.929c-0.102,0-0.17-0.069-0.17-0.17v-0.817
					c0-0.102,0.068-0.17,0.17-0.17h6.875c0.102,0,0.17,0.068,0.17,0.17v0.817c0,0.102-0.069,0.17-0.17,0.17h-1.929
					c-0.601,0-0.908,0.306-0.908,0.93v5.684c0,0.102-0.068,0.17-0.17,0.17h-0.862C785.982,385.975,785.914,385.906,785.914,385.805z
					"/>
			</g>
			<g>
				<path fill="#F3F4DD" d="M793.294,385.805v-7.601c0-0.102,0.069-0.17,0.17-0.17h5.082c0.079,0,0.159,0.034,0.216,0.091
					l1.021,1.021c0.057,0.056,0.091,0.135,0.091,0.216v1.939c0,0.079-0.022,0.148-0.091,0.216l-0.681,0.681
					c-0.261,0.261-0.317,0.613-0.147,0.987l1.168,2.587c0.057,0.125,0,0.204-0.125,0.204h-0.998c-0.091,0-0.159-0.045-0.193-0.125
					l-0.896-1.974c-0.352-0.783-0.918-1.169-1.724-1.169c-0.931,0-1.691,0.692-1.691,1.747v1.351c0,0.102-0.068,0.17-0.17,0.17
					h-0.862C793.363,385.975,793.294,385.906,793.294,385.805z M797.765,381.391c0.59,0,0.907-0.317,0.907-0.93v-0.364
					c0-0.59-0.317-0.907-0.907-0.907h-3.098c-0.102,0-0.17,0.068-0.17,0.17v1.86c0,0.102,0.069,0.17,0.17,0.17H797.765z"/>
			</g>
			<g>
				<path fill="#F3F4DD" d="M802.932,385.781l3.052-7.611c0.034-0.091,0.113-0.136,0.204-0.136h1.009
					c0.091,0,0.17,0.045,0.205,0.136l3.051,7.611c0.045,0.125-0.012,0.193-0.136,0.193h-0.952c-0.091,0-0.17-0.045-0.205-0.136
					l-0.396-1.021c-0.035-0.091-0.114-0.136-0.205-0.136h-3.732c-0.091,0-0.17,0.045-0.204,0.136l-0.397,1.021
					c-0.034,0.091-0.114,0.136-0.204,0.136h-0.953C802.944,385.975,802.887,385.906,802.932,385.781z M807.118,383.524
					c0.625,0,0.942-0.51,0.692-1.123l-0.364-0.907c-0.283-0.704-1.213-0.704-1.497,0l-0.364,0.907
					c-0.249,0.613,0.045,1.123,0.692,1.123H807.118z"/>
			</g>
			<g>
				<path fill="#F3F4DD" d="M816.018,385.805v-5.684c0-0.625-0.306-0.93-0.907-0.93h-1.929c-0.102,0-0.17-0.069-0.17-0.17v-0.817
					c0-0.102,0.068-0.17,0.17-0.17h6.875c0.102,0,0.17,0.068,0.17,0.17v0.817c0,0.102-0.068,0.17-0.17,0.17h-1.929
					c-0.601,0-0.908,0.306-0.908,0.93v5.684c0,0.102-0.068,0.17-0.17,0.17h-0.862C816.087,385.975,816.018,385.906,816.018,385.805z
					"/>
			</g>
			<g>
				<path fill="#F3F4DD" d="M823.399,385.805v-7.601c0-0.102,0.069-0.17,0.17-0.17h5.695c0.102,0,0.17,0.068,0.17,0.17v0.817
					c0,0.102-0.068,0.17-0.17,0.17h-3.755c-0.601,0-0.908,0.306-0.908,0.907v0.318c0,0.624,0.306,0.93,0.908,0.93h2.961
					c0.102,0.012,0.17,0.069,0.17,0.17v0.817c0,0.102-0.069,0.17-0.17,0.17h-2.961c-0.601,0-0.908,0.306-0.908,0.908v0.477
					c0,0.624,0.306,0.93,0.908,0.93h3.755c0.102,0,0.17,0.068,0.17,0.17v0.817c0,0.102-0.068,0.17-0.17,0.17h-5.695
					C823.467,385.975,823.399,385.906,823.399,385.805z"/>
			</g>
			<g>
				<path fill="#F3F4DD" d="M833.774,385.884l-1.021-1.021c-0.056-0.057-0.09-0.136-0.09-0.216v-5.286c0-0.08,0.034-0.16,0.09-0.216
					l1.021-1.021c0.057-0.057,0.136-0.091,0.217-0.091h4.549c0.079,0,0.159,0.034,0.216,0.091l1.021,1.021
					c0.057,0.056,0.091,0.135,0.091,0.216v1.191c0,0.102-0.068,0.17-0.17,0.17h-0.862c-0.102,0-0.17-0.069-0.17-0.17v-0.216
					c0-0.67-0.477-1.146-1.146-1.146h-2.507c-0.67,0-1.147,0.476-1.147,1.146v3.335c0,0.669,0.477,1.146,1.147,1.146h2.507
					c0.669,0,1.146-0.477,1.146-1.146v-0.591c0-0.102-0.068-0.17-0.17-0.17h-1.033c-0.102,0-0.17-0.068-0.17-0.17v-0.816
					c0-0.102,0.069-0.17,0.17-0.17h2.235c0.102,0,0.17,0.068,0.17,0.17v2.722c0,0.079-0.023,0.147-0.091,0.216l-1.021,1.021
					c-0.057,0.057-0.136,0.091-0.216,0.091h-4.549C833.91,385.975,833.843,385.952,833.774,385.884z"/>
			</g>
			<g>
				<path fill="#F3F4DD" d="M843.265,385.805v-0.817c0-0.102,0.068-0.17,0.17-0.17h1.894c0.102,0,0.17-0.069,0.17-0.17v-5.286
					c0-0.102-0.068-0.17-0.17-0.17h-1.894c-0.102,0-0.17-0.069-0.17-0.17v-0.817c0-0.102,0.068-0.17,0.17-0.17h5.332
					c0.102,0,0.17,0.068,0.17,0.17v0.817c0,0.102-0.068,0.17-0.17,0.17h-1.895c-0.102,0-0.17,0.068-0.17,0.17v5.286
					c0,0.102,0.069,0.17,0.17,0.17h1.895c0.102,0,0.17,0.068,0.17,0.17v0.817c0,0.102-0.068,0.17-0.17,0.17h-5.332
					C843.333,385.975,843.265,385.906,843.265,385.805z"/>
			</g>
			<g>
				<path fill="#F3F4DD" d="M853.504,385.884l-1.021-1.021c-0.056-0.057-0.091-0.136-0.091-0.216v-5.286
					c0-0.08,0.035-0.16,0.091-0.216l1.021-1.021c0.057-0.057,0.136-0.091,0.216-0.091h4.55c0.079,0,0.159,0.034,0.216,0.091
					l1.021,1.021c0.056,0.056,0.091,0.135,0.091,0.216v1.191c0,0.102-0.069,0.17-0.17,0.17h-0.862c-0.102,0-0.17-0.069-0.17-0.17
					v-0.216c0-0.67-0.477-1.146-1.146-1.146h-2.508c-0.669,0-1.146,0.476-1.146,1.146v3.335c0,0.669,0.477,1.146,1.146,1.146h2.508
					c0.669,0,1.146-0.477,1.146-1.146v-0.216c0-0.102,0.068-0.17,0.17-0.17h0.862c0.102,0,0.17,0.068,0.17,0.17v1.191
					c0,0.079-0.023,0.147-0.091,0.216l-1.021,1.021c-0.057,0.057-0.136,0.091-0.216,0.091h-4.55
					C853.64,385.975,853.573,385.952,853.504,385.884z"/>
			</g>
			<g>
				<path fill="#F3F4DD" d="M869.288,385.805v-7.601c0-0.102,0.068-0.17,0.17-0.17h5.309c0.079,0,0.16,0.034,0.216,0.091
					l1.021,1.021c0.057,0.056,0.091,0.135,0.091,0.216v1.724c0,0.079-0.034,0.16-0.091,0.216l-0.374,0.374
					c-0.17,0.17-0.17,0.421,0,0.591l0.374,0.374c0.057,0.057,0.091,0.136,0.091,0.216v1.792c0,0.079-0.034,0.159-0.091,0.216
					l-1.021,1.021c-0.056,0.057-0.136,0.091-0.216,0.091h-5.309C869.355,385.975,869.288,385.906,869.288,385.805z M873.984,381.391
					c0.59,0,0.907-0.317,0.907-0.93v-0.364c0-0.59-0.317-0.907-0.907-0.907h-3.324c-0.102,0-0.171,0.068-0.171,0.17v1.86
					c0,0.102,0.069,0.17,0.171,0.17H873.984z M873.984,384.818c0.59,0,0.907-0.318,0.907-0.93v-0.431
					c0-0.59-0.317-0.908-0.907-0.908h-3.324c-0.102,0-0.171,0.068-0.171,0.17v1.929c0,0.102,0.069,0.17,0.171,0.17H873.984z"/>
			</g>
			<g>
				<path fill="#F3F4DD" d="M879.719,385.805v-7.601c0-0.102,0.068-0.17,0.17-0.17h5.082c0.079,0,0.159,0.034,0.216,0.091
					l1.021,1.021c0.056,0.056,0.091,0.135,0.091,0.216v1.939c0,0.079-0.023,0.148-0.091,0.216l-0.681,0.681
					c-0.261,0.261-0.318,0.613-0.148,0.987l1.169,2.587c0.057,0.125,0,0.204-0.125,0.204h-0.999c-0.091,0-0.159-0.045-0.192-0.125
					l-0.896-1.974c-0.352-0.783-0.919-1.169-1.725-1.169c-0.93,0-1.69,0.692-1.69,1.747v1.351c0,0.102-0.069,0.17-0.17,0.17h-0.862
					C879.787,385.975,879.719,385.906,879.719,385.805z M884.189,381.391c0.59,0,0.908-0.317,0.908-0.93v-0.364
					c0-0.59-0.318-0.907-0.908-0.907h-3.097c-0.102,0-0.17,0.068-0.17,0.17v1.86c0,0.102,0.068,0.17,0.17,0.17H884.189z"/>
			</g>
			<g>
				<path fill="#F3F4DD" d="M889.357,385.781l3.051-7.611c0.034-0.091,0.114-0.136,0.204-0.136h1.01c0.091,0,0.17,0.045,0.204,0.136
					l3.052,7.611c0.045,0.125-0.012,0.193-0.136,0.193h-0.953c-0.091,0-0.17-0.045-0.204-0.136l-0.397-1.021
					c-0.034-0.091-0.113-0.136-0.204-0.136h-3.733c-0.091,0-0.17,0.045-0.204,0.136l-0.397,1.021
					c-0.034,0.091-0.113,0.136-0.204,0.136h-0.952C889.368,385.975,889.312,385.906,889.357,385.781z M893.543,383.524
					c0.624,0,0.942-0.51,0.691-1.123l-0.362-0.907c-0.283-0.704-1.214-0.704-1.498,0l-0.363,0.907
					c-0.25,0.613,0.045,1.123,0.691,1.123H893.543z"/>
			</g>
			<g>
				<path fill="#F3F4DD" d="M900.004,385.805v-7.601c0-0.102,0.069-0.17,0.17-0.17h0.568c0.079,0,0.147,0.034,0.204,0.102
					l2.235,2.36c1.066,1.134,2.564,0.374,2.564-0.862v-1.429c0-0.102,0.068-0.17,0.17-0.17h0.862c0.102,0,0.17,0.068,0.17,0.17
					v7.601c0,0.102-0.069,0.17-0.17,0.17h-0.568c-0.079,0-0.148-0.023-0.204-0.091l-2.348-2.473
					c-0.829-0.874-2.451-0.397-2.451,1.043v1.351c0,0.102-0.068,0.17-0.17,0.17h-0.862
					C900.073,385.975,900.004,385.906,900.004,385.805z"/>
			</g>
			<g>
				<path fill="#F3F4DD" d="M910.685,385.805v-7.601c0-0.102,0.069-0.17,0.17-0.17h5.457c0.079,0,0.159,0.034,0.216,0.091
					l1.021,1.021c0.056,0.056,0.091,0.135,0.091,0.216v5.286c0,0.079-0.035,0.159-0.091,0.216l-1.021,1.021
					c-0.057,0.057-0.136,0.091-0.216,0.091h-5.457C910.754,385.975,910.685,385.906,910.685,385.805z M915.53,384.818
					c0.59,0,0.908-0.318,0.908-0.93v-3.79c0-0.59-0.318-0.907-0.908-0.907h-3.472c-0.102,0-0.17,0.068-0.17,0.17v5.286
					c0,0.102,0.069,0.17,0.17,0.17H915.53z"/>
			</g>
			<g>
				<path fill="#F3F4DD" d="M768.497,403.883V398.2c0-0.625-0.306-0.93-0.907-0.93h-1.929c-0.102,0-0.17-0.069-0.17-0.17v-0.817
					c0-0.102,0.068-0.17,0.17-0.17h6.875c0.102,0,0.17,0.068,0.17,0.17v0.817c0,0.102-0.069,0.17-0.17,0.17h-1.929
					c-0.601,0-0.908,0.306-0.908,0.93v5.684c0,0.102-0.068,0.17-0.17,0.17h-0.862C768.566,404.053,768.497,403.985,768.497,403.883z
					"/>
			</g>
			<g>
				<path fill="#F3F4DD" d="M775.878,403.883v-7.601c0-0.102,0.069-0.17,0.17-0.17h0.862c0.102,0,0.17,0.068,0.17,0.17v2.224
					c0,0.601,0.306,0.907,0.908,0.907h2.734c0.624,0,0.93-0.305,0.93-0.907v-2.224c0-0.102,0.068-0.17,0.17-0.17h0.862
					c0.102,0,0.17,0.068,0.17,0.17v7.601c0,0.102-0.069,0.17-0.17,0.17h-0.862c-0.102,0-0.17-0.069-0.17-0.17v-2.405
					c0-0.601-0.306-0.908-0.93-0.908h-2.734c-0.601,0-0.908,0.306-0.908,0.908v2.405c0,0.102-0.068,0.17-0.17,0.17h-0.862
					C775.946,404.053,775.878,403.985,775.878,403.883z"/>
			</g>
			<g>
				<path fill="#F3F4DD" d="M785.981,403.86l3.051-7.611c0.035-0.091,0.114-0.136,0.205-0.136h1.009c0.091,0,0.17,0.045,0.204,0.136
					l3.052,7.611c0.045,0.125-0.012,0.193-0.136,0.193h-0.953c-0.09,0-0.17-0.045-0.204-0.136l-0.397-1.021
					c-0.034-0.091-0.113-0.136-0.204-0.136h-3.732c-0.091,0-0.17,0.045-0.205,0.136l-0.396,1.021
					c-0.035,0.091-0.114,0.136-0.205,0.136h-0.952C785.992,404.053,785.935,403.985,785.981,403.86z M790.167,401.603
					c0.624,0,0.942-0.51,0.692-1.123l-0.364-0.907c-0.283-0.704-1.213-0.704-1.498,0l-0.363,0.907
					c-0.249,0.613,0.045,1.123,0.692,1.123H790.167z"/>
			</g>
			<g>
				<path fill="#F3F4DD" d="M799.067,403.883V398.2c0-0.625-0.305-0.93-0.907-0.93h-1.929c-0.102,0-0.17-0.069-0.17-0.17v-0.817
					c0-0.102,0.068-0.17,0.17-0.17h6.875c0.102,0,0.17,0.068,0.17,0.17v0.817c0,0.102-0.069,0.17-0.17,0.17h-1.929
					c-0.601,0-0.908,0.306-0.908,0.93v5.684c0,0.102-0.068,0.17-0.17,0.17h-0.862C799.135,404.053,799.067,403.985,799.067,403.883z
					"/>
			</g>
			<g>
				<path fill="#F3F4DD" d="M813.739,403.963l-1.021-1.021c-0.057-0.057-0.091-0.136-0.091-0.216v-5.286
					c0-0.08,0.034-0.16,0.091-0.216l1.021-1.021c0.057-0.057,0.136-0.091,0.216-0.091h4.55c0.079,0,0.159,0.034,0.216,0.091
					l1.021,1.021c0.056,0.056,0.091,0.135,0.091,0.216v1.191c0,0.102-0.069,0.17-0.17,0.17h-0.862c-0.102,0-0.17-0.069-0.17-0.17
					v-0.216c0-0.67-0.477-1.146-1.147-1.146h-2.507c-0.669,0-1.146,0.476-1.146,1.146v3.335c0,0.669,0.477,1.146,1.146,1.146h2.507
					c0.67,0,1.147-0.477,1.147-1.146v-0.591c0-0.102-0.069-0.17-0.17-0.17h-1.033c-0.102,0-0.17-0.068-0.17-0.17v-0.816
					c0-0.102,0.068-0.17,0.17-0.17h2.235c0.102,0,0.17,0.068,0.17,0.17v2.722c0,0.079-0.023,0.147-0.091,0.216l-1.021,1.021
					c-0.057,0.057-0.136,0.091-0.216,0.091h-4.55C813.875,404.053,813.807,404.03,813.739,403.963z"/>
			</g>
			<g>
				<path fill="#F3F4DD" d="M823.229,403.883v-0.817c0-0.102,0.069-0.17,0.17-0.17h1.895c0.102,0,0.17-0.069,0.17-0.17v-5.286
					c0-0.102-0.068-0.17-0.17-0.17h-1.895c-0.102,0-0.17-0.069-0.17-0.17v-0.817c0-0.102,0.069-0.17,0.17-0.17h5.333
					c0.102,0,0.17,0.068,0.17,0.17v0.817c0,0.102-0.069,0.17-0.17,0.17h-1.895c-0.102,0-0.17,0.068-0.17,0.17v5.286
					c0,0.102,0.068,0.17,0.17,0.17h1.895c0.102,0,0.17,0.068,0.17,0.17v0.817c0,0.102-0.069,0.17-0.17,0.17h-5.333
					C823.297,404.053,823.229,403.985,823.229,403.883z"/>
			</g>
			<g>
				<path fill="#F3F4DD" d="M834.852,403.917l-3.051-7.612c-0.045-0.125,0.012-0.192,0.136-0.192h0.952
					c0.091,0,0.17,0.045,0.205,0.136l1.474,3.755c0.204,0.51,0.522,0.737,0.987,0.737c0.465,0,0.783-0.226,0.987-0.737l1.486-3.755
					c0.034-0.091,0.113-0.136,0.204-0.136h0.953c0.125,0,0.182,0.068,0.136,0.192l-3.052,7.612
					c-0.034,0.091-0.113,0.136-0.204,0.136h-1.009C834.966,404.053,834.887,404.008,834.852,403.917z"/>
			</g>
			<g>
				<path fill="#F3F4DD" d="M842.448,403.883v-7.601c0-0.102,0.069-0.17,0.17-0.17h5.695c0.102,0,0.17,0.068,0.17,0.17v0.817
					c0,0.102-0.068,0.17-0.17,0.17h-3.755c-0.601,0-0.908,0.306-0.908,0.907v0.318c0,0.624,0.306,0.93,0.908,0.93h2.961
					c0.102,0.012,0.17,0.069,0.17,0.17v0.817c0,0.102-0.069,0.17-0.17,0.17h-2.961c-0.601,0-0.908,0.306-0.908,0.908v0.477
					c0,0.624,0.306,0.93,0.908,0.93h3.755c0.102,0,0.17,0.068,0.17,0.17v0.817c0,0.102-0.068,0.17-0.17,0.17h-5.695
					C842.517,404.053,842.448,403.985,842.448,403.883z"/>
			</g>
			<g>
				<path fill="#F3F4DD" d="M852.767,403.963l-1.021-1.021c-0.057-0.057-0.091-0.136-0.091-0.216v-1.191
					c0-0.102,0.068-0.17,0.17-0.17h0.862c0.102,0,0.17,0.068,0.17,0.17v0.216c0,0.669,0.476,1.146,1.146,1.146h2.167
					c0.805,0,1.26-0.42,1.26-1.157v-0.012c0-0.748-0.454-1.168-1.26-1.168h-3.187c-0.079,0-0.159-0.102-0.216-0.16l-1.021-1.021
					c-0.057-0.056-0.091-0.136-0.091-0.216v-1.724c0-0.08,0.034-0.16,0.091-0.216l1.021-1.021c0.056-0.057,0.136-0.091,0.216-0.091
					h4.322c0.079,0,0.159,0.034,0.215,0.091l1.022,1.021c0.056,0.056,0.09,0.135,0.09,0.216v1.191c0,0.102-0.068,0.17-0.17,0.17
					H857.6c-0.102,0-0.17-0.069-0.17-0.17v-0.216c0-0.67-0.477-1.146-1.147-1.146h-2.28c-0.67,0-1.146,0.476-1.146,1.066v0.011
					c0,0.591,0.487,1.056,1.146,1.056h3.211c0.102,0,0.181,0.034,0.261,0.113l1.066,1.066c0.056,0.057,0.09,0.136,0.09,0.216v1.929
					c0,0.079-0.034,0.159-0.09,0.216l-1.022,1.021c-0.056,0.057-0.135,0.091-0.215,0.091h-4.322
					C852.904,404.053,852.823,404.02,852.767,403.963z"/>
			</g>
			<g>
				<path fill="#F3F4DD" d="M867.938,403.86l3.051-7.611c0.034-0.091,0.114-0.136,0.205-0.136h1.009c0.091,0,0.17,0.045,0.204,0.136
					l3.052,7.611c0.044,0.125-0.012,0.193-0.136,0.193h-0.953c-0.091,0-0.17-0.045-0.204-0.136l-0.397-1.021
					c-0.034-0.091-0.113-0.136-0.204-0.136h-3.733c-0.09,0-0.17,0.045-0.204,0.136l-0.397,1.021
					c-0.034,0.091-0.113,0.136-0.204,0.136h-0.953C867.949,404.053,867.893,403.985,867.938,403.86z M872.124,401.603
					c0.624,0,0.942-0.51,0.692-1.123l-0.364-0.907c-0.283-0.704-1.214-0.704-1.498,0l-0.363,0.907
					c-0.25,0.613,0.044,1.123,0.691,1.123H872.124z"/>
			</g>
			<g>
				<path fill="#F3F4DD" d="M884.822,403.883v-7.601c0-0.102,0.068-0.17,0.17-0.17h5.456c0.079,0,0.159,0.034,0.216,0.091
					l1.021,1.021c0.057,0.056,0.091,0.135,0.091,0.216v5.286c0,0.079-0.034,0.159-0.091,0.216l-1.021,1.021
					c-0.057,0.057-0.136,0.091-0.216,0.091h-5.456C884.889,404.053,884.822,403.985,884.822,403.883z M889.665,402.896
					c0.59,0,0.908-0.318,0.908-0.93v-3.79c0-0.59-0.318-0.907-0.908-0.907h-3.471c-0.102,0-0.17,0.068-0.17,0.17v5.286
					c0,0.102,0.068,0.17,0.17,0.17H889.665z"/>
			</g>
			<g>
				<path fill="#F3F4DD" d="M894.901,403.86l3.052-7.611c0.034-0.091,0.113-0.136,0.204-0.136h1.009c0.091,0,0.17,0.045,0.205,0.136
					l3.051,7.611c0.045,0.125-0.012,0.193-0.136,0.193h-0.952c-0.091,0-0.17-0.045-0.205-0.136l-0.396-1.021
					c-0.035-0.091-0.114-0.136-0.205-0.136h-3.732c-0.091,0-0.17,0.045-0.204,0.136l-0.397,1.021
					c-0.034,0.091-0.114,0.136-0.204,0.136h-0.953C894.913,404.053,894.856,403.985,894.901,403.86z M899.088,401.603
					c0.625,0,0.942-0.51,0.692-1.123l-0.364-0.907c-0.283-0.704-1.213-0.704-1.497,0l-0.363,0.907
					c-0.249,0.613,0.045,1.123,0.692,1.123H899.088z"/>
			</g>
			<g>
				<path fill="#F3F4DD" d="M905.549,403.883v-7.601c0-0.102,0.068-0.17,0.17-0.17h1.122c0.091,0,0.182,0.045,0.216,0.102
					l1.226,1.986c0.657,1.078,2.155,1.1,2.824,0l1.214-1.986c0.034-0.056,0.125-0.102,0.216-0.102h1.123
					c0.102,0,0.17,0.068,0.17,0.17v7.601c0,0.102-0.069,0.17-0.17,0.17h-0.862c-0.102,0-0.17-0.069-0.17-0.17v-1.634
					c0-1.169-1.407-1.565-2.042-0.714l-0.692,0.93c-0.114,0.159-0.295,0.159-0.409,0l-0.691-0.93
					c-0.658-0.886-2.043-0.454-2.043,0.714v1.634c0,0.102-0.068,0.17-0.17,0.17h-0.861
					C905.617,404.053,905.549,403.985,905.549,403.883z"/>
			</g>
			<g>
				<path fill="#F3F4DD" d="M917.568,403.883v-7.601c0-0.102,0.068-0.17,0.17-0.17h0.567c0.08,0,0.148,0.034,0.205,0.102l2.234,2.36
					c1.066,1.134,2.564,0.374,2.564-0.862v-1.429c0-0.102,0.069-0.17,0.17-0.17h0.862c0.102,0,0.17,0.068,0.17,0.17v7.601
					c0,0.102-0.068,0.17-0.17,0.17h-0.568c-0.079,0-0.147-0.023-0.204-0.091l-2.348-2.473c-0.828-0.874-2.45-0.397-2.45,1.043v1.351
					c0,0.102-0.069,0.17-0.17,0.17h-0.862C917.636,404.053,917.568,403.985,917.568,403.883z"/>
			</g>
		</g>
		<g>
			<g>
				<g>
					<g>
						<rect x="10.65" y="418.192" fill="#F39C95" width="181.844" height="0.497"/>
					</g>
				</g>
			</g>
			<g>
				<g>
					<g>
						<rect x="10.65" y="365.301" fill="#F39C95" width="181.844" height="0.497"/>
					</g>
				</g>
			</g>
			<g>
				<g>
					<g>
						<rect x="754.36" y="418.192" fill="#F39C95" width="181.845" height="0.497"/>
					</g>
				</g>
			</g>
			<g>
				<g>
					<g>
						<rect x="754.36" y="365.301" fill="#F39C95" width="181.845" height="0.497"/>
					</g>
				</g>
			</g>
		</g>
		<g>
			<g>
				<g>
					<path fill="#F3F4DD" d="M240.067,380.182c0.131-2.546,2.808-7.182,6.137-7.182v0.49c-1.959,0.065-2.872,1.208-2.97,2.284
						c-0.099,1.078,0.359,2.906,0.032,4.178c-0.131,0.523-0.653,1.861-1.926,1.861C240.427,381.814,240.035,381.161,240.067,380.182
						z M244.279,380.182c0.131-2.546,2.808-7.182,6.137-7.182v0.49c-1.959,0.065-2.872,1.208-2.971,2.284
						c-0.098,1.078,0.36,2.906,0.033,4.178c-0.131,0.523-0.653,1.861-1.926,1.861C244.638,381.814,244.246,381.161,244.279,380.182z
						"/>
				</g>
				<g>
					<path fill="#F3F4DD" d="M257.893,406.95c-1.633,0-4.244-1.404-4.244-5.746c0-7.835,11.883-17.301,11.883-21.741
						c0-2.155-0.621-3.983-3.362-3.983c-4.472,0-11.034,4.375-11.034,9.336c0,4.995,4.7,3.199,4.7,5.354
						c0,0.882-0.685,1.24-1.305,1.24c-2.449,0-4.211-2.808-4.211-5.419c0-5.485,4.799-12.992,10.903-12.992
						c3.852,0,5.158,3.787,5.158,7.638c0,8.259-10.251,13.515-10.251,20.892c0,3.101,1.992,3.199,2.677,3.199
						c2.775,0,7.182-3.721,8.879-8.552c1.534-4.375,2.873-9.14,5.093-14.331c0.881-2.056,2.122-4.832,3.46-4.832
						c0.751,0,0.882,0.555,0.882,0.947c0,2.938-9.206,17.53-9.206,20.108c0,2.253,0.195,6.497,4.178,6.497
						c12.731,0,18.77-32.808,9.368-32.808c-1.926,0-1.175,2.383-2.317,2.383c-0.392,0-0.588-0.294-0.588-0.718
						c0-0.979,1.469-2.546,3.623-2.546c4.472,0,6.333,3.361,6.333,8.389c0,10.675-9.239,27.683-17.954,27.683
						c-2.971,0-4.472-3.101-3.199-8.749C266.706,399.865,262.854,406.95,257.893,406.95z"/>
				</g>
				<g>
					<path fill="#F3F4DD" d="M290.052,395.525c3.721-6.3,8.847-12.731,12.307-12.731c2.056,0,2.872,1.6,2.872,3.982
						c0,6.692-7.247,20.175-13.286,20.175c-1.371,0-2.546-0.718-2.546-1.828c0-0.523,0.489-0.882,1.011-0.882
						c0.947,0,2.285,1.404,3.2,1.404c3.655,0,8.879-14.428,8.879-18.052c0-0.817,0.261-2.906-1.6-2.906
						c-3.982,0-11.686,13.189-13.123,17.008l-1.73,4.603h-2.808l7.835-20.925c2.122-5.68,8.846-15.31,16.877-15.31
						c2.252,0,5.81,1.045,5.81,4.636c0,4.244-3.95,6.398-6.855,6.398c-0.914,0-1.893-0.424-1.893-1.143
						c0-0.424,0.392-0.685,0.816-0.685c0.914,0,1.828,0.555,2.775,0.555c1.795,0,3.46-1.371,3.46-3.525
						c0-2.808-2.253-4.439-5.223-4.439c-6.268,0-9.336,3.786-12.013,10.935L290.052,395.525z"/>
				</g>
				<g>
					<path fill="#F3F4DD" d="M318.586,399.049h0.489c-1.86,4.147-4.668,7.9-9.467,7.9c-2.97,0-5.19-2.546-5.19-6.203
						c0-8.096,8.683-17.954,15.375-17.954c2.318,0,3.623,1.567,3.623,3.721c0,5.843-7.312,10.806-14.069,12.731
						c-0.816,0.261-2.187,0.228-2.187,1.698c0,1.632,1.012,3.721,3.885,3.721C314.048,404.664,316.855,402.379,318.586,399.049z
						 M320.74,387.004c0-2.089-1.208-2.938-2.807-2.938c-4.603,0-10.315,9.075-10.315,12.96c0,0.881,0.522,1.404,1.272,1.404
						C311.731,398.43,320.74,392.554,320.74,387.004z"/>
				</g>
				<g>
					<path fill="#F3F4DD" d="M329.296,385.568c-0.979,1.012-2.448,2.317-3.689,2.317c-0.653,0-1.077-0.522-1.077-1.24
						c0-0.555,0.261-1.077,0.621-1.371c0.294,0.261,0.75,0.392,1.273,0.392c2.089,0,5.68-2.22,6.398-2.872h0.326l-4.374,11.719
						c2.122-3.885,7.475-11.719,10.609-11.719c1.24,0,1.86,0.882,1.86,1.893c0,0.588-0.195,0.979-0.392,1.273
						c-0.261-0.131-0.685-0.359-1.437-0.359c-6.332,0-12.274,12.96-12.796,14.722l-2.253,5.974h-2.807L329.296,385.568z"/>
				</g>
				<g>
					<path fill="#F3F4DD" d="M348.362,399.049h0.49c-1.861,4.147-4.669,7.9-9.467,7.9c-2.971,0-5.191-2.546-5.191-6.203
						c0-8.096,8.684-17.954,15.376-17.954c2.317,0,3.623,1.567,3.623,3.721c0,5.843-7.313,10.806-14.069,12.731
						c-0.816,0.261-2.188,0.228-2.188,1.698c0,1.632,1.012,3.721,3.885,3.721C343.825,404.664,346.632,402.379,348.362,399.049z
						 M350.517,387.004c0-2.089-1.208-2.938-2.808-2.938c-4.603,0-10.315,9.075-10.315,12.96c0,0.881,0.522,1.404,1.273,1.404
						C341.507,398.43,350.517,392.554,350.517,387.004z"/>
				</g>
				<g>
					<path fill="#F3F4DD" d="M387.767,376.493l-8.978,24.026c-1.077,2.905-1.077,5.027,1.339,5.288l-0.196,0.489h-8.553l0.196-0.489
						c2.253-0.294,3.166-2.024,4.407-5.321l6.497-17.269c1.926-5.092,4.537-5.321,4.537-7.247c0-0.555-0.327-1.045-0.946-1.306
						c-2.808-1.175-5.746-2.546-8.553-2.546c-4.864,0-8.977,5.125-8.977,10.478c0,3.722,1.828,6.236,4.766,6.236
						c2.121,0,4.439-1.404,4.439-3.101c0-0.294-0.066-0.588-0.131-0.849l-0.131-0.489c-0.066-0.262-0.13-0.556-0.13-0.849
						c0-0.457,0.228-0.817,0.587-0.817c0.751,0,0.946,0.947,0.946,1.731c0,2.677-2.546,5.647-6.398,5.647
						c-3.46,0-6.006-2.644-6.006-6.659c0-6.79,5.745-12.567,13.743-12.567c6.398,0,16.093,5.843,19.292,5.843
						c1.828,0,2.579-1.11,2.579-2.122c0-0.979-0.915-1.339-0.946-2.285c-0.033-0.489,0.294-0.979,0.783-0.979
						c1.012,0,1.437,1.176,1.437,1.959c0,2.84-1.828,4.669-6.137,4.669c-3.199,0-5.517-1.11-8.259-2.285
						C388.29,375.383,387.931,376.068,387.767,376.493z"/>
				</g>
				<g>
					<path fill="#F3F4DD" d="M388.521,395.525c3.721-6.3,8.847-12.731,12.307-12.731c2.056,0,2.872,1.6,2.872,3.982
						c0,6.692-7.247,20.175-13.286,20.175c-1.371,0-2.546-0.718-2.546-1.828c0-0.523,0.489-0.882,1.011-0.882
						c0.947,0,2.285,1.404,3.2,1.404c3.655,0,8.879-14.428,8.879-18.052c0-0.817,0.261-2.906-1.6-2.906
						c-3.982,0-11.686,13.189-13.123,17.008l-1.73,4.603h-2.807l7.835-20.925c2.122-5.68,8.846-15.31,16.877-15.31
						c2.252,0,5.81,1.045,5.81,4.636c0,4.244-3.95,6.398-6.855,6.398c-0.914,0-1.893-0.424-1.893-1.143
						c0-0.424,0.392-0.685,0.816-0.685c0.914,0,1.828,0.555,2.775,0.555c1.795,0,3.46-1.371,3.46-3.525
						c0-2.808-2.253-4.439-5.223-4.439c-6.268,0-9.336,3.786-12.013,10.935L388.521,395.525z"/>
				</g>
				<g>
					<path fill="#F3F4DD" d="M410.2,385.568c-0.979,1.012-2.448,2.317-3.689,2.317c-0.653,0-1.077-0.522-1.077-1.24
						c0-0.555,0.261-1.077,0.621-1.371c0.294,0.261,0.75,0.392,1.273,0.392c2.089,0,5.68-2.22,6.398-2.872h0.326l-8.781,23.503
						h-2.807L410.2,385.568z M414.476,377.766c2.22,0,0.979,4.276-1.207,4.276C411.016,382.042,412.289,377.766,414.476,377.766z"/>
				</g>
				<g>
					<path fill="#F3F4DD" d="M417.677,396.21c2.97-5.876,7.54-13.417,11.98-13.417c2.056,0,2.872,1.6,2.872,3.982
						c0,6.692-7.247,20.175-13.286,20.175c-1.371,0-2.546-0.718-2.546-1.828c0-0.523,0.489-0.882,1.011-0.882
						c0.947,0,2.285,1.404,3.199,1.404c3.656,0,8.88-14.428,8.88-18.052c0-0.817,0.261-2.906-1.6-2.906
						c-3.982,0-11.001,13.189-12.405,17.008l-1.698,4.603h-2.807l7.834-20.99l0.099,0.065c-0.979,1.012-2.579,2.514-3.885,2.514
						c-0.653,0-1.077-0.522-1.077-1.24c0-0.555,0.261-1.077,0.621-1.371c0.294,0.261,0.75,0.392,1.273,0.392
						c2.089,0,5.68-2.22,6.398-2.872h0.326l-5.027,13.482L417.677,396.21z"/>
				</g>
				<g>
					<path fill="#F3F4DD" d="M431.847,406.296h-2.808l7.835-20.925c2.122-5.68,8.846-15.31,16.877-15.31
						c2.252,0,5.81,1.045,5.81,4.636c0,4.244-3.95,6.398-6.855,6.398c-0.914,0-1.893-0.424-1.893-1.143
						c0-0.424,0.392-0.685,0.816-0.685c0.914,0,1.828,0.555,2.775,0.555c1.795,0,3.46-1.371,3.46-3.525
						c0-2.808-2.253-4.439-5.223-4.439c-6.268,0-9.336,3.786-12.013,10.935L431.847,406.296z M436.025,393.533
						c2.122-4.961,8.715-10.74,13.286-10.74c2.023,0,2.839,1.567,2.839,2.872c0,4.114-5.516,6.823-11.262,7.574l3.036,8.096
						c1.012,2.742,1.763,4.243,3.166,4.472v0.489h-3.1c-1.143,0-1.306-0.62-1.992-2.481l-4.113-11.001
						c7.932-0.327,11.751-3.754,11.751-6.823c0-0.946-0.653-1.632-1.762-1.632c-3.33,0-9.434,4.831-11.817,10.641L436.025,393.533z"
						/>
				</g>
				<g>
					<path fill="#F3F4DD" d="M458.226,385.568c-0.979,1.012-2.448,2.317-3.689,2.317c-0.653,0-1.077-0.522-1.077-1.24
						c0-0.555,0.261-1.077,0.621-1.371c0.294,0.261,0.75,0.392,1.273,0.392c2.089,0,5.68-2.22,6.398-2.872h0.326l-8.781,23.503
						h-2.807L458.226,385.568z M462.502,377.766c2.22,0,0.979,4.276-1.208,4.276C459.042,382.042,460.315,377.766,462.502,377.766z"
						/>
				</g>
				<g>
					<path fill="#F3F4DD" d="M465.702,396.21c2.971-5.876,7.541-13.417,11.98-13.417c2.056,0,2.872,1.6,2.872,3.982
						c0,6.692-7.246,20.175-13.285,20.175c-1.371,0-2.546-0.718-2.546-1.828c0-0.523,0.49-0.882,1.012-0.882
						c0.946,0,2.285,1.404,3.199,1.404c3.656,0,8.879-14.428,8.879-18.052c0-0.817,0.261-2.906-1.599-2.906
						c-3.983,0-11.001,13.189-12.405,17.008l-1.698,4.603h-2.808l7.835-20.99l0.098,0.065c-0.979,1.012-2.578,2.514-3.884,2.514
						c-0.653,0-1.077-0.522-1.077-1.24c0-0.555,0.261-1.077,0.62-1.371c0.294,0.261,0.751,0.392,1.273,0.392
						c2.089,0,5.68-2.22,6.398-2.872h0.327l-5.027,13.482L465.702,396.21z"/>
				</g>
				<g>
					<path fill="#F3F4DD" d="M497.01,387.233c0.196-2.35,1.143-4.439,2.644-4.439c0.751,0,1.273,0.588,1.273,1.437
						c0,0.424-0.131,0.816-0.359,1.11c-1.567-0.229-3.298,1.795-3.362,4.015v0.033c-0.229,5.549-5.191,12.469-10.642,12.469
						c-0.261,0-0.522,0-0.75-0.033c-1.6-0.032-4.211-0.195-4.211,1.404c0,2.84,10.805,1.534,10.805,6.986
						c0,3.46-3.721,7.019-8.585,7.019c-3.33,0-9.009-1.926-9.009-5.321c0-2.514,4.341-5.288,5.451-5.843
						c-0.456-0.457-0.75-1.012-0.75-1.698c0-2.285,2.383-3.003,3.917-3.33c-1.828-1.11-2.644-3.265-2.644-5.386
						c0-5.615,5.059-12.862,10.641-12.862C494.693,382.793,496.455,384.817,497.01,387.233z M477.033,410.605
						c0,2.938,5.745,4.439,9.728,4.439c2.35,0,4.178-1.501,4.178-3.133c0-3.362-5.974-3.493-9.271-4.962
						C479.807,406.851,477.033,408.68,477.033,410.605z M483.17,397.385c0,2.449,1.371,3.656,2.514,3.656
						c3.885,0,9.14-7.638,9.14-14.102c0-2.22-1.077-3.33-2.514-3.33C488.425,383.609,483.17,391.313,483.17,397.385z"/>
				</g>
				<g>
					<path fill="#F3F4DD" d="M593.16,405.84c2.253-0.294,3.559-2.057,4.799-5.354l8.879-23.602l-0.033-0.032l-12.012,16.321
						c-2.808,10.74-10.479,21.285-20.207,21.285c-16.127,0-14.396-23.341-0.817-23.341c3.331,0,6.53,2.056,6.53,4.015
						c0,0.49-0.262,0.882-0.718,0.882c-1.763,0-0.621-3.982-5.027-3.982c-5.713,0-9.402,6.104-9.402,11.784
						c0,5.092,2.644,9.826,9.206,9.826c11.719,0,18.248-16.845,18.77-28.401c0.163-3.754-0.293-7.084-1.403-9.107
						c-1.698,4.374-2.449,6.823-4.178,11.229c-3.885,9.761-6.66,19.587-15.278,19.587c-2.611,0-3.917-1.567-3.917-2.807
						c0-0.523,0.36-0.849,0.751-0.849c1.371,0,0.816,2.839,2.578,2.839c7.377,0,16.192-23.112,19.521-30.75
						c-0.816-1.044-1.926-1.599-3.297-1.599c-5.876,0-9.728,8.52-9.728,12.6c0,2.644,0.718,4.375,2.253,4.375
						c0.685,0,0.914-0.784,0.914-1.24c0-0.294,0.098-0.718,0.588-0.718c0.522,0,0.588,0.555,0.588,0.718
						c0,0.946-0.784,1.991-2.089,1.991c-2.579,0-4.538-2.611-4.538-6.071c0-5.81,5.419-12.438,12.34-12.438
						c5.647,0,7.442,6.398,7.442,11.817c0,2.253-0.228,4.505-0.653,6.758l12.992-17.921h5.19l-0.163,0.456
						c-1.991,0.196-2.709,1.437-4.765,6.823l-7.508,19.587c-1.11,2.905-1.11,5.059,1.305,5.321l-0.163,0.456h-8.912L593.16,405.84z"
						/>
				</g>
				<g>
					<path fill="#F3F4DD" d="M620.001,387.592h2.481c-1.861,4.994-3.983,10.674-5.517,14.82c-0.489,1.306-0.685,2.742,0.817,2.742
						c1.142,0,2.448-1.958,3.166-3.264h0.489c-0.816,1.567-2.611,5.06-5.158,5.06c-1.632,0-2.775-1.992-1.599-5.158
						c0.783-2.089,1.404-3.787,1.959-5.288c-2.122,4.276-5.615,10.446-8.814,10.446c-2.187,0-3.199-2.579-3.199-4.865
						c0-7.932,8.161-19.292,14.821-19.292c2.644,0,4.537,0.783,5.713,1.762l-0.915,2.35c-2.514-1.305-4.897-1.958-7.638-1.958
						c-1.959,0-3.199,1.305-3.95,2.448c-2.546,3.885-5.255,10.87-5.255,14.396c0,1.795,0.718,2.937,1.861,2.937
						c2.448,0,8.096-10.119,9.858-14.82C619.413,389.158,619.674,388.375,620.001,387.592z"/>
				</g>
				<g>
					<path fill="#F3F4DD" d="M622.059,406.296h-2.807l7.834-20.925c2.122-5.68,8.847-15.31,16.877-15.31
						c2.253,0,5.81,1.045,5.81,4.636c0,4.244-3.949,6.398-6.854,6.398c-0.915,0-1.894-0.424-1.894-1.143
						c0-0.424,0.392-0.685,0.816-0.685c0.915,0,1.828,0.555,2.775,0.555c1.796,0,3.461-1.371,3.461-3.525
						c0-2.808-2.253-4.439-5.223-4.439c-6.268,0-9.336,3.786-12.013,10.935L622.059,406.296z M626.237,393.533
						c2.122-4.961,8.716-10.74,13.286-10.74c2.023,0,2.84,1.567,2.84,2.872c0,4.114-5.517,6.823-11.263,7.574l3.037,8.096
						c1.011,2.742,1.762,4.243,3.166,4.472v0.489h-3.101c-1.143,0-1.305-0.62-1.991-2.481l-4.114-11.001
						c7.932-0.327,11.752-3.754,11.752-6.823c0-0.946-0.654-1.632-1.763-1.632c-3.33,0-9.434,4.831-11.817,10.641L626.237,393.533z"
						/>
				</g>
				<g>
					<path fill="#F3F4DD" d="M648.439,385.568c-0.979,1.012-2.449,2.317-3.689,2.317c-0.653,0-1.077-0.522-1.077-1.24
						c0-0.555,0.261-1.077,0.62-1.371c0.294,0.261,0.751,0.392,1.273,0.392c2.089,0,5.68-2.22,6.398-2.872h0.327l-8.781,23.503
						h-2.808L648.439,385.568z M652.715,377.766c2.22,0,0.979,4.276-1.208,4.276C649.255,382.042,650.529,377.766,652.715,377.766z"
						/>
				</g>
				<g>
					<path fill="#F3F4DD" d="M655.915,396.21c2.97-5.876,7.54-13.417,11.98-13.417c2.056,0,2.872,1.6,2.872,3.982
						c0,6.692-7.247,20.175-13.286,20.175c-1.371,0-2.546-0.718-2.546-1.828c0-0.523,0.489-0.882,1.011-0.882
						c0.947,0,2.285,1.404,3.199,1.404c3.656,0,8.88-14.428,8.88-18.052c0-0.817,0.261-2.906-1.6-2.906
						c-3.982,0-11.001,13.189-12.405,17.008l-1.698,4.603h-2.807l7.834-20.99l0.099,0.065c-0.979,1.012-2.579,2.514-3.885,2.514
						c-0.653,0-1.077-0.522-1.077-1.24c0-0.555,0.261-1.077,0.621-1.371c0.294,0.261,0.75,0.392,1.273,0.392
						c2.089,0,5.68-2.22,6.398-2.872h0.326l-5.027,13.482L655.915,396.21z"/>
				</g>
				<g>
					<path fill="#F3F4DD" d="M687.223,387.233c0.195-2.35,1.142-4.439,2.644-4.439c0.75,0,1.273,0.588,1.273,1.437
						c0,0.424-0.131,0.816-0.36,1.11c-1.567-0.229-3.297,1.795-3.362,4.015v0.033c-0.228,5.549-5.19,12.469-10.641,12.469
						c-0.261,0-0.523,0-0.751-0.033c-1.599-0.032-4.211-0.195-4.211,1.404c0,2.84,10.806,1.534,10.806,6.986
						c0,3.46-3.722,7.019-8.586,7.019c-3.33,0-9.009-1.926-9.009-5.321c0-2.514,4.342-5.288,5.452-5.843
						c-0.457-0.457-0.751-1.012-0.751-1.698c0-2.285,2.383-3.003,3.917-3.33c-1.828-1.11-2.644-3.265-2.644-5.386
						c0-5.615,5.06-12.862,10.642-12.862C684.905,382.793,686.669,384.817,687.223,387.233z M667.245,410.605
						c0,2.938,5.746,4.439,9.728,4.439c2.35,0,4.178-1.501,4.178-3.133c0-3.362-5.974-3.493-9.27-4.962
						C670.02,406.851,667.245,408.68,667.245,410.605z M673.382,397.385c0,2.449,1.371,3.656,2.514,3.656
						c3.885,0,9.14-7.638,9.14-14.102c0-2.22-1.077-3.33-2.514-3.33C678.638,383.609,673.382,391.313,673.382,397.385z"/>
				</g>
				<g>
					<path fill="#F3F4DD" d="M699.534,374.633c-0.13,2.546-2.807,7.181-6.137,7.181v-0.489c1.959-0.066,2.872-1.208,2.97-2.285
						c0.099-1.077-0.359-2.905-0.032-4.178c0.13-0.522,0.653-1.861,1.926-1.861C699.175,373,699.566,373.653,699.534,374.633z
						 M703.745,374.633c-0.131,2.546-2.807,7.181-6.136,7.181v-0.489c1.958-0.066,2.872-1.208,2.97-2.285
						c0.098-1.077-0.359-2.905-0.033-4.178c0.131-0.522,0.654-1.861,1.927-1.861C703.386,373,703.778,373.653,703.745,374.633z"/>
				</g>
			</g>
			<g>
				<g>
					<path fill="#F3F4DD" d="M512.792,399.548v-10.607c0-0.142,0.095-0.237,0.238-0.237h0.934c0.127,0,0.221,0.063,0.269,0.174
						l1.393,2.992c0.285,0.601,1.013,0.601,1.298,0l1.409-2.992c0.047-0.111,0.143-0.174,0.27-0.174h0.934
						c0.142,0,0.237,0.095,0.237,0.237v10.607c0,0.142-0.095,0.237-0.237,0.237h-1.045c-0.142,0-0.238-0.095-0.238-0.237v-3.024
						c0-0.665-0.696-0.855-0.997-0.269l-0.729,1.361c-0.127,0.221-0.38,0.221-0.507,0l-0.728-1.361
						c-0.316-0.586-0.981-0.396-0.981,0.269v3.024c0,0.142-0.095,0.237-0.238,0.237h-1.044
						C512.887,399.785,512.792,399.69,512.792,399.548z"/>
				</g>
				<g>
					<path fill="#F3F4DD" d="M522.389,399.548v-10.607c0-0.142,0.095-0.237,0.237-0.237h4.354c0.142,0,0.237,0.095,0.237,0.237
						v1.045c0,0.142-0.095,0.238-0.237,0.238h-2.28c-0.507,0-0.792,0.284-0.792,0.791v1.568c0,0.507,0.285,0.791,0.792,0.791h1.171
						c0.143,0,0.238,0.096,0.238,0.238v1.029c0,0.143-0.095,0.238-0.238,0.238h-1.171c-0.507,0-0.792,0.285-0.792,0.792v1.804
						c0,0.507,0.285,0.792,0.792,0.792h2.28c0.142,0,0.237,0.095,0.237,0.238v1.045c0,0.142-0.095,0.237-0.237,0.237h-4.354
						C522.484,399.785,522.389,399.69,522.389,399.548z"/>
				</g>
				<g>
					<path fill="#F3F4DD" d="M529.832,399.548v-10.607c0-0.142,0.095-0.237,0.237-0.237h4.354c0.142,0,0.237,0.095,0.237,0.237
						v1.045c0,0.142-0.095,0.238-0.237,0.238h-2.28c-0.507,0-0.792,0.284-0.792,0.791v1.568c0,0.507,0.285,0.791,0.792,0.791h1.171
						c0.143,0,0.238,0.096,0.238,0.238v1.029c0,0.143-0.095,0.238-0.238,0.238h-1.171c-0.507,0-0.792,0.285-0.792,0.792v1.804
						c0,0.507,0.285,0.792,0.792,0.792h2.28c0.142,0,0.237,0.095,0.237,0.238v1.045c0,0.142-0.095,0.237-0.237,0.237h-4.354
						C529.927,399.785,529.832,399.69,529.832,399.548z"/>
				</g>
				<g>
					<path fill="#F3F4DD" d="M538.858,399.548v-8.534c0-0.507-0.284-0.791-0.791-0.791h-0.871c-0.142,0-0.238-0.096-0.238-0.238
						v-1.045c0-0.142,0.096-0.237,0.238-0.237h4.828c0.143,0,0.238,0.095,0.238,0.237v1.045c0,0.142-0.095,0.238-0.238,0.238h-0.855
						c-0.507,0-0.792,0.284-0.792,0.791v8.534c0,0.142-0.095,0.237-0.237,0.237h-1.045
						C538.954,399.785,538.858,399.69,538.858,399.548z"/>
				</g>
				<g>
					<path fill="#F3F4DD" d="M545.795,399.659l-1.108-1.108c-0.079-0.079-0.127-0.19-0.127-0.301v-0.871
						c0-0.142,0.095-0.237,0.238-0.237h1.061c0.142,0,0.237,0.078,0.237,0.237v0.032c0,0.538,0.412,0.855,1.013,0.855h0.016
						c0.713,0,1.092-0.427,1.092-1.282v-0.966c0-0.871-0.38-1.282-1.092-1.282h-1.187c-0.111,0-0.222-0.048-0.302-0.127
						l-0.949-0.935c-0.095-0.095-0.127-0.189-0.127-0.301v-3.134c0-0.111,0.032-0.206,0.127-0.301l1.108-1.108
						c0.079-0.079,0.19-0.127,0.301-0.127h2.106c0.111,0,0.206,0.031,0.301,0.127l1.109,1.108c0.078,0.079,0.127,0.189,0.127,0.301
						v0.871c0,0.142-0.096,0.237-0.238,0.237h-1.061c-0.143,0-0.238-0.079-0.238-0.237v-0.016c0-0.569-0.395-0.87-1.029-0.87h-0.016
						c-0.712,0-1.076,0.443-1.076,1.282v0.427c0,0.871,0.38,1.283,1.092,1.283h1.187c0.111,0,0.221,0.047,0.301,0.127l0.95,0.934
						c0.095,0.095,0.127,0.189,0.127,0.301v3.673c0,0.11-0.032,0.206-0.127,0.301l-1.109,1.108
						c-0.079,0.079-0.189,0.127-0.301,0.127h-2.106C545.985,399.785,545.889,399.753,545.795,399.659z"/>
				</g>
			</g>
		</g>
	</g>
	<g>
		<g>
			<g>
				<path fill="#FF9893" d="M473.427,82.081c-8.178,0-15.866-3.185-21.649-8.967c-5.783-5.783-8.967-13.471-8.967-21.649
					s3.185-15.866,8.967-21.649c5.783-5.783,13.471-8.967,21.649-8.967c8.178,0,15.866,3.185,21.649,8.967
					c5.783,5.783,8.967,13.471,8.967,21.649s-3.185,15.866-8.967,21.649C489.294,78.897,481.605,82.081,473.427,82.081z
					 M473.427,21.413c-8.027,0-15.574,3.126-21.25,8.802c-5.676,5.676-8.802,13.223-8.802,21.25s3.126,15.574,8.802,21.25
					c5.676,5.676,13.223,8.802,21.25,8.802c8.027,0,15.574-3.126,21.25-8.802c5.676-5.676,8.802-13.223,8.802-21.25
					s-3.126-15.574-8.802-21.25C489.001,24.539,481.454,21.413,473.427,21.413z"/>
			</g>
		</g>
		<g>
			<g>
				<path fill="#FF9893" d="M473.427,100.211c-6.58,0-12.964-1.289-18.974-3.831c-5.805-2.455-11.018-5.97-15.494-10.447
					c-4.477-4.477-7.991-9.69-10.447-15.494c-2.542-6.01-3.831-12.394-3.831-18.974s1.289-12.964,3.831-18.974
					c2.455-5.805,5.97-11.018,10.447-15.494c4.477-4.477,9.69-7.991,15.494-10.447c6.01-2.542,12.394-3.831,18.974-3.831
					c6.581,0,12.964,1.289,18.974,3.831c5.805,2.455,11.018,5.97,15.494,10.447c4.477,4.477,7.991,9.69,10.447,15.494
					c2.542,6.01,3.831,12.394,3.831,18.974s-1.289,12.964-3.831,18.974c-2.455,5.805-5.97,11.018-10.447,15.494
					c-4.477,4.477-9.69,7.991-15.494,10.447C486.392,98.922,480.008,100.211,473.427,100.211z M473.427,3.283
					c-6.505,0-12.814,1.274-18.754,3.786c-5.737,2.427-10.89,5.901-15.315,10.326c-4.425,4.425-7.899,9.578-10.326,15.315
					c-2.512,5.94-3.786,12.25-3.786,18.754s1.274,12.815,3.786,18.754c2.427,5.737,5.901,10.89,10.326,15.315
					c4.425,4.425,9.578,7.899,15.315,10.326c5.94,2.512,12.25,3.786,18.754,3.786c6.505,0,12.815-1.274,18.755-3.786
					c5.737-2.427,10.89-5.901,15.315-10.326c4.425-4.425,7.899-9.578,10.326-15.315c2.512-5.94,3.786-12.25,3.786-18.754
					s-1.274-12.815-3.786-18.754c-2.427-5.737-5.901-10.89-10.326-15.315c-4.425-4.425-9.578-7.899-15.315-10.326
					C486.242,4.557,479.932,3.283,473.427,3.283z"/>
			</g>
		</g>
		<g>
			<g>
				<g>
					<g>
						<path fill="#FF9893" d="M432.499,36.288l2.394-5.367l0.696,0.311l-2.051,4.603l2.964,1.321l1.821-4.083l0.696,0.31
							l-1.821,4.084l3.142,1.4l2.046-4.589l0.696,0.311l-2.387,5.354L432.499,36.288z"/>
					</g>
				</g>
				<g>
					<g>
						<path fill="#FF9893" d="M445.735,30.743l-9.368-2.555l0.54-0.698l4.844,1.364c1.183,0.329,2.639,0.793,3.592,1.151l0.21-0.272
							c-0.583-0.885-1.375-2.159-1.991-3.221l-2.548-4.334l0.531-0.686l4.831,8.424L445.735,30.743z"/>
					</g>
				</g>
				<g>
					<g>
						<path fill="#FF9893" d="M444.178,19.079l4.6-3.655l0.474,0.597l-3.944,3.134l2.018,2.54l3.499-2.78l0.474,0.597l-3.499,2.78
							l2.138,2.692l3.933-3.124l0.474,0.597l-4.589,3.645L444.178,19.079z"/>
					</g>
				</g>
				<g>
					<g>
						<path fill="#FF9893" d="M457.447,16.464l-2.082,0.947l1.61,3.539l-0.762,0.347l-3.715-8.166l3.062-1.393
							c1.987-0.904,3.198-0.371,3.837,1.031c0.569,1.252,0.197,2.456-1.178,3.296l4.241,2.21l0.067,0.15l-0.844,0.384
							L457.447,16.464z M453.562,13.45l1.498,3.294l2.233-1.016c1.306-0.594,1.836-1.525,1.34-2.614
							c-0.483-1.062-1.247-1.404-2.853-0.673L453.562,13.45z"/>
					</g>
				</g>
				<g>
					<g>
						<path fill="#FF9893" d="M465.13,17.073l4.341-0.864l0.149,0.748l-5.162,1.027l-1.751-8.799l0.821-0.163L465.13,17.073z"/>
					</g>
				</g>
				<g>
					<g>
						<path fill="#FF9893" d="M476.786,14.098l-4.364-0.136l-1.241,2.834l-0.882-0.027l3.986-8.854l1.046,0.032l3.429,9.084
							l-0.897-0.028L476.786,14.098z M472.712,13.283l3.827,0.119l-0.414-1.12c-0.428-1.15-0.891-2.616-1.176-3.582l-0.328-0.01
							c-0.375,0.991-0.926,2.365-1.426,3.502L472.712,13.283z"/>
					</g>
				</g>
				<g>
					<g>
						<path fill="#FF9893" d="M480.128,14.407l0.812,0.042c-0.177,1.628,0.448,2.72,2.218,3.217
							c1.656,0.465,2.519-0.007,2.797-1.001c0.279-0.993-0.236-1.65-1.943-2.487c-2.224-1.091-2.749-2.155-2.406-3.378
							c0.381-1.353,1.646-1.992,3.605-1.442c1.972,0.554,2.509,1.792,2.443,3.467l-0.84-0.05c0.059-1.428-0.29-2.287-1.831-2.72
							c-1.454-0.408-2.315,0.002-2.578,0.938c-0.243,0.864,0.119,1.571,2.035,2.544c2.246,1.128,2.664,2.131,2.336,3.297
							c-0.405,1.44-1.605,2.174-3.823,1.552C480.685,17.732,479.882,16.279,480.128,14.407z"/>
					</g>
				</g>
				<g>
					<g>
						<path fill="#FF9893" d="M491.063,11.476l6.204,3.364l-0.371,0.684l-2.734-1.483l-3.906,7.204l-0.736-0.399l3.906-7.204
							l-2.735-1.483L491.063,11.476z"/>
					</g>
				</g>
				<g>
					<g>
						<path fill="#FF9893" d="M494.339,23.918l5.518-7.076l0.66,0.515L495,24.433L494.339,23.918z"/>
					</g>
				</g>
				<g>
					<g>
						<path fill="#FF9893" d="M502.75,24.741c0.332-1.165,0.78-2.332,1.184-3.302l-0.248-0.26c-0.875,0.885-2.149,2.04-3.206,2.966
							l-2.836,2.482l-0.542-0.619l6.751-5.91l0.847,0.967l-1.495,5.125c-0.424,1.445-0.928,2.82-1.322,3.801l0.218,0.227
							c0.829-0.824,2.038-1.963,3.084-2.879l2.835-2.482l0.532,0.607l-6.75,5.91l-0.739-0.844L502.75,24.741z"/>
					</g>
				</g>
				<g>
					<g>
						<path fill="#FF9893" d="M506.835,30.952c2.528-1.195,4.891-0.741,6.104,1.827c0.972,2.054,0.379,3.773-1.3,4.98l-0.481-0.632
							c1.49-1.151,1.854-2.447,1.113-4.015c-1.054-2.23-2.916-2.425-5.078-1.403c-2.095,0.99-2.966,2.576-1.924,4.779
							c1.06,2.244,2.584,2.284,3.935,1.645l-0.027,0.013l0.217-0.102l-1.368-2.892l0.677-0.319l1.705,3.609l-3.987,1.884
							l-0.332-0.703l1.879-0.888l-0.045-0.094c-1.261,0.166-2.601-0.292-3.394-1.968C503.429,34.347,504.131,32.229,506.835,30.952z
							"/>
					</g>
				</g>
			</g>
			<g>
				<g>
					<g>
						<path fill="#FF9893" d="M429.362,52.468l8.836-4.012l0.03,0.882l-4.597,2.042c-1.119,0.502-2.536,1.074-3.496,1.406
							l0.012,0.344c1.012,0.309,2.435,0.784,3.586,1.208l4.725,1.708l0.03,0.867l-9.091-3.398L429.362,52.468z"/>
					</g>
				</g>
				<g>
					<g>
						<path fill="#FF9893" d="M430.206,60.149l8.78-1.841l0.171,0.819l-8.78,1.841L430.206,60.149z"/>
					</g>
				</g>
				<g>
					<g>
						<path fill="#FF9893" d="M436.123,66.444l-0.857-2.121l-3.604,1.456l-0.313-0.776l8.317-3.361l1.261,3.119
							c0.818,2.024,0.233,3.211-1.195,3.788c-1.275,0.515-2.462,0.092-3.242-1.318l-2.39,4.142l-0.152,0.062l-0.347-0.859
							L436.123,66.444z M439.3,62.693l-3.354,1.355l0.918,2.273c0.538,1.331,1.445,1.899,2.554,1.451
							c1.082-0.437,1.456-1.185,0.796-2.821L439.3,62.693z"/>
					</g>
				</g>
				<g>
					<g>
						<path fill="#FF9893" d="M442.755,68.916l4.091,5.748l-0.632,0.451l-1.804-2.533l-6.674,4.751l-0.485-0.682l6.674-4.751
							l-1.804-2.533L442.755,68.916z"/>
					</g>
				</g>
				<g>
					<g>
						<path fill="#FF9893" d="M448.676,83.901l3.691-4.222l0.63,0.551l-3.71,4.244c-1.505,1.722-3.194,1.836-4.883,0.36
							c-1.7-1.486-1.957-3.26-0.431-5.005l3.711-4.244l0.63,0.551l-3.632,4.154c-1.083,1.238-1.373,2.593,0.215,3.981
							C446.405,85.59,447.584,85.151,448.676,83.901z"/>
					</g>
				</g>
				<g>
					<g>
						<path fill="#FF9893" d="M452.408,85.291c1.174-2.454,3.416-3.503,5.95-2.29c2.549,1.219,3.139,3.623,1.965,6.077
							s-3.415,3.536-5.977,2.311C451.798,90.169,451.234,87.745,452.408,85.291z M459.569,88.716
							c0.987-2.063,0.618-3.996-1.539-5.028c-2.144-1.026-3.88-0.1-4.867,1.963c-0.987,2.063-0.659,4.01,1.513,5.048
							C456.86,91.745,458.581,90.779,459.569,88.716z"/>
					</g>
				</g>
				<g>
					<g>
						<path fill="#FF9893" d="M469.054,92.033l0.959-5.523l0.825,0.143l-0.964,5.552c-0.391,2.253-1.774,3.227-3.983,2.844
							c-2.224-0.386-3.364-1.768-2.969-4.05l0.964-5.552l0.825,0.143l-0.944,5.434c-0.281,1.62,0.175,2.928,2.252,3.289
							C467.992,94.655,468.77,93.668,469.054,92.033z"/>
					</g>
				</g>
				<g>
					<g>
						<path fill="#FF9893" d="M473.012,92.791l0.776-0.238c0.39,1.59,1.35,2.402,3.184,2.263c1.715-0.129,2.363-0.868,2.286-1.897
							s-0.785-1.47-2.675-1.672c-2.464-0.264-3.321-1.084-3.417-2.351c-0.106-1.401,0.866-2.434,2.894-2.587
							c2.042-0.154,2.971,0.825,3.481,2.421l-0.807,0.241c-0.433-1.362-1.054-2.05-2.649-1.929
							c-1.506,0.114-2.174,0.794-2.102,1.763c0.067,0.894,0.648,1.435,2.782,1.694c2.495,0.292,3.23,1.091,3.322,2.298
							c0.112,1.491-0.764,2.592-3.06,2.765C474.672,95.724,473.421,94.634,473.012,92.791z"/>
					</g>
				</g>
				<g>
					<g>
						<path fill="#FF9893" d="M484.714,84.906l2.968-1.351c2.708-1.234,4.72-0.424,5.916,2.202c1.178,2.586,0.348,4.805-2.129,5.933
							l-3.035,1.382L484.714,84.906z M485.781,85.226l3.112,6.833l2.205-1.004c2.367-1.079,2.687-2.868,1.738-4.95
							c-1.041-2.287-2.578-2.918-4.945-1.839L485.781,85.226z"/>
					</g>
				</g>
				<g>
					<g>
						<path fill="#FF9893" d="M493.149,80.639l4.591-3.67l0.476,0.596l-3.937,3.147l2.026,2.535l3.493-2.792l0.476,0.596
							l-3.493,2.792l2.148,2.687l3.925-3.138l0.476,0.596l-4.579,3.661L493.149,80.639z"/>
					</g>
				</g>
				<g>
					<g>
						<path fill="#FF9893" d="M503.564,79.744l0.35-0.734c1.435,0.788,2.684,0.63,3.823-0.815c1.064-1.351,0.96-2.329,0.149-2.968
							c-0.811-0.639-1.614-0.416-3.042,0.839c-1.862,1.637-3.045,1.713-4.044,0.926c-1.104-0.871-1.207-2.285,0.052-3.883
							c1.268-1.609,2.618-1.63,4.139-0.926l-0.368,0.757c-1.296-0.603-2.223-0.61-3.214,0.647c-0.935,1.186-0.887,2.139-0.123,2.741
							c0.704,0.556,1.495,0.494,3.131-0.903c1.903-1.642,2.99-1.642,3.94-0.892c1.175,0.926,1.393,2.317-0.033,4.125
							C506.85,80.505,505.2,80.69,503.564,79.744z"/>
					</g>
				</g>
				<g>
					<g>
						<path fill="#FF9893" d="M511.938,72.921l-7.874-4.295l0.402-0.735l7.873,4.295L511.938,72.921z"/>
					</g>
				</g>
				<g>
					<g>
						<path fill="#FF9893" d="M509.912,67.713c-2.661-0.855-4.077-2.801-3.208-5.505c0.695-2.163,2.302-3.013,4.351-2.747
							l-0.081,0.79c-1.874-0.178-3.025,0.52-3.555,2.171c-0.754,2.348,0.471,3.762,2.748,4.494c2.206,0.708,3.925,0.146,4.671-2.174
							c0.759-2.362-0.326-3.433-1.749-3.89l0.028,0.009l-0.228-0.073l-0.978,3.046l-0.712-0.229l1.22-3.8l4.198,1.348l-0.238,0.74
							l-1.978-0.635l-0.032,0.099c1.034,0.74,1.7,1.99,1.133,3.755C514.719,67.561,512.759,68.627,509.912,67.713z"/>
					</g>
				</g>
				<g>
					<g>
						<path fill="#FF9893" d="M512.353,53.876c-1.043,0.616-2.172,1.154-3.132,1.579v0.359c1.244-0.039,2.963,0.001,4.367,0.057
							l3.765,0.153l-0.033,0.822l-8.964-0.364l0.052-1.285l4.613-2.686c1.302-0.755,2.616-1.405,3.576-1.845l-0.002-0.314
							c-1.168,0.027-2.829,0.02-4.218-0.036l-3.765-0.153l0.033-0.807l8.964,0.364l-0.046,1.12L512.353,53.876z"/>
					</g>
				</g>
			</g>
		</g>
		<g>
			<g>
				<g>
					<g>
						<path fill="#FF9893" d="M432.499,36.288l2.394-5.367l0.696,0.311l-2.051,4.603l2.964,1.321l1.821-4.083l0.696,0.31
							l-1.821,4.084l3.142,1.4l2.046-4.589l0.696,0.311l-2.387,5.354L432.499,36.288z"/>
					</g>
				</g>
				<g>
					<g>
						<path fill="#FF9893" d="M445.735,30.743l-9.368-2.555l0.54-0.698l4.844,1.364c1.183,0.329,2.639,0.793,3.592,1.151l0.21-0.272
							c-0.583-0.885-1.375-2.159-1.991-3.221l-2.548-4.334l0.531-0.686l4.831,8.424L445.735,30.743z"/>
					</g>
				</g>
				<g>
					<g>
						<path fill="#FF9893" d="M444.178,19.079l4.6-3.655l0.474,0.597l-3.944,3.134l2.018,2.54l3.499-2.78l0.474,0.597l-3.499,2.78
							l2.138,2.692l3.933-3.124l0.474,0.597l-4.589,3.645L444.178,19.079z"/>
					</g>
				</g>
				<g>
					<g>
						<path fill="#FF9893" d="M457.447,16.464l-2.082,0.947l1.61,3.539l-0.762,0.347l-3.715-8.166l3.062-1.393
							c1.987-0.904,3.198-0.371,3.837,1.031c0.569,1.252,0.197,2.456-1.178,3.296l4.241,2.21l0.067,0.15l-0.844,0.384
							L457.447,16.464z M453.562,13.45l1.498,3.294l2.233-1.016c1.306-0.594,1.836-1.525,1.34-2.614
							c-0.483-1.062-1.247-1.404-2.853-0.673L453.562,13.45z"/>
					</g>
				</g>
				<g>
					<g>
						<path fill="#FF9893" d="M465.13,17.073l4.341-0.864l0.149,0.748l-5.162,1.027l-1.751-8.799l0.821-0.163L465.13,17.073z"/>
					</g>
				</g>
				<g>
					<g>
						<path fill="#FF9893" d="M476.786,14.098l-4.364-0.136l-1.241,2.834l-0.882-0.027l3.986-8.854l1.046,0.032l3.429,9.084
							l-0.897-0.028L476.786,14.098z M472.712,13.283l3.827,0.119l-0.414-1.12c-0.428-1.15-0.891-2.616-1.176-3.582l-0.328-0.01
							c-0.375,0.991-0.926,2.365-1.426,3.502L472.712,13.283z"/>
					</g>
				</g>
				<g>
					<g>
						<path fill="#FF9893" d="M480.128,14.407l0.812,0.042c-0.177,1.628,0.448,2.72,2.218,3.217
							c1.656,0.465,2.519-0.007,2.797-1.001c0.279-0.993-0.236-1.65-1.943-2.487c-2.224-1.091-2.749-2.155-2.406-3.378
							c0.381-1.353,1.646-1.992,3.605-1.442c1.972,0.554,2.509,1.792,2.443,3.467l-0.84-0.05c0.059-1.428-0.29-2.287-1.831-2.72
							c-1.454-0.408-2.315,0.002-2.578,0.938c-0.243,0.864,0.119,1.571,2.035,2.544c2.246,1.128,2.664,2.131,2.336,3.297
							c-0.405,1.44-1.605,2.174-3.823,1.552C480.685,17.732,479.882,16.279,480.128,14.407z"/>
					</g>
				</g>
				<g>
					<g>
						<path fill="#FF9893" d="M491.063,11.476l6.204,3.364l-0.371,0.684l-2.734-1.483l-3.906,7.204l-0.736-0.399l3.906-7.204
							l-2.735-1.483L491.063,11.476z"/>
					</g>
				</g>
				<g>
					<g>
						<path fill="#FF9893" d="M494.339,23.918l5.518-7.076l0.66,0.515L495,24.433L494.339,23.918z"/>
					</g>
				</g>
				<g>
					<g>
						<path fill="#FF9893" d="M502.75,24.741c0.332-1.165,0.78-2.332,1.184-3.302l-0.248-0.26c-0.875,0.885-2.149,2.04-3.206,2.966
							l-2.836,2.482l-0.542-0.619l6.751-5.91l0.847,0.967l-1.495,5.125c-0.424,1.445-0.928,2.82-1.322,3.801l0.218,0.227
							c0.829-0.824,2.038-1.963,3.084-2.879l2.835-2.482l0.532,0.607l-6.75,5.91l-0.739-0.844L502.75,24.741z"/>
					</g>
				</g>
				<g>
					<g>
						<path fill="#FF9893" d="M506.835,30.952c2.528-1.195,4.891-0.741,6.104,1.827c0.972,2.054,0.379,3.773-1.3,4.98l-0.481-0.632
							c1.49-1.151,1.854-2.447,1.113-4.015c-1.054-2.23-2.916-2.425-5.078-1.403c-2.095,0.99-2.966,2.576-1.924,4.779
							c1.06,2.244,2.584,2.284,3.935,1.645l-0.027,0.013l0.217-0.102l-1.368-2.892l0.677-0.319l1.705,3.609l-3.987,1.884
							l-0.332-0.703l1.879-0.888l-0.045-0.094c-1.261,0.166-2.601-0.292-3.394-1.968C503.429,34.347,504.131,32.229,506.835,30.952z
							"/>
					</g>
				</g>
			</g>
			<g>
				<g>
					<g>
						<path fill="#FF9893" d="M429.362,52.468l8.836-4.012l0.03,0.882l-4.597,2.042c-1.119,0.502-2.536,1.074-3.496,1.406
							l0.012,0.344c1.012,0.309,2.435,0.784,3.586,1.208l4.725,1.708l0.03,0.867l-9.091-3.398L429.362,52.468z"/>
					</g>
				</g>
				<g>
					<g>
						<path fill="#FF9893" d="M430.206,60.149l8.78-1.841l0.171,0.819l-8.78,1.841L430.206,60.149z"/>
					</g>
				</g>
				<g>
					<g>
						<path fill="#FF9893" d="M436.123,66.444l-0.857-2.121l-3.604,1.456l-0.313-0.776l8.317-3.361l1.261,3.119
							c0.818,2.024,0.233,3.211-1.195,3.788c-1.275,0.515-2.462,0.092-3.242-1.318l-2.39,4.142l-0.152,0.062l-0.347-0.859
							L436.123,66.444z M439.3,62.693l-3.354,1.355l0.918,2.273c0.538,1.331,1.445,1.899,2.554,1.451
							c1.082-0.437,1.456-1.185,0.796-2.821L439.3,62.693z"/>
					</g>
				</g>
				<g>
					<g>
						<path fill="#FF9893" d="M442.755,68.916l4.091,5.748l-0.632,0.451l-1.804-2.533l-6.674,4.751l-0.485-0.682l6.674-4.751
							l-1.804-2.533L442.755,68.916z"/>
					</g>
				</g>
				<g>
					<g>
						<path fill="#FF9893" d="M448.676,83.901l3.691-4.222l0.63,0.551l-3.71,4.244c-1.505,1.722-3.194,1.836-4.883,0.36
							c-1.7-1.486-1.957-3.26-0.431-5.005l3.711-4.244l0.63,0.551l-3.632,4.154c-1.083,1.238-1.373,2.593,0.215,3.981
							C446.405,85.59,447.584,85.151,448.676,83.901z"/>
					</g>
				</g>
				<g>
					<g>
						<path fill="#FF9893" d="M452.408,85.291c1.174-2.454,3.416-3.503,5.95-2.29c2.549,1.219,3.139,3.623,1.965,6.077
							s-3.415,3.536-5.977,2.311C451.798,90.169,451.234,87.745,452.408,85.291z M459.569,88.716
							c0.987-2.063,0.618-3.996-1.539-5.028c-2.144-1.026-3.88-0.1-4.867,1.963c-0.987,2.063-0.659,4.01,1.513,5.048
							C456.86,91.745,458.581,90.779,459.569,88.716z"/>
					</g>
				</g>
				<g>
					<g>
						<path fill="#FF9893" d="M469.054,92.033l0.959-5.523l0.825,0.143l-0.964,5.552c-0.391,2.253-1.774,3.227-3.983,2.844
							c-2.224-0.386-3.364-1.768-2.969-4.05l0.964-5.552l0.825,0.143l-0.944,5.434c-0.281,1.62,0.175,2.928,2.252,3.289
							C467.992,94.655,468.77,93.668,469.054,92.033z"/>
					</g>
				</g>
				<g>
					<g>
						<path fill="#FF9893" d="M473.012,92.791l0.776-0.238c0.39,1.59,1.35,2.402,3.184,2.263c1.715-0.129,2.363-0.868,2.286-1.897
							s-0.785-1.47-2.675-1.672c-2.464-0.264-3.321-1.084-3.417-2.351c-0.106-1.401,0.866-2.434,2.894-2.587
							c2.042-0.154,2.971,0.825,3.481,2.421l-0.807,0.241c-0.433-1.362-1.054-2.05-2.649-1.929
							c-1.506,0.114-2.174,0.794-2.102,1.763c0.067,0.894,0.648,1.435,2.782,1.694c2.495,0.292,3.23,1.091,3.322,2.298
							c0.112,1.491-0.764,2.592-3.06,2.765C474.672,95.724,473.421,94.634,473.012,92.791z"/>
					</g>
				</g>
				<g>
					<g>
						<path fill="#FF9893" d="M484.714,84.906l2.968-1.351c2.708-1.234,4.72-0.424,5.916,2.202c1.178,2.586,0.348,4.805-2.129,5.933
							l-3.035,1.382L484.714,84.906z M485.781,85.226l3.112,6.833l2.205-1.004c2.367-1.079,2.687-2.868,1.738-4.95
							c-1.041-2.287-2.578-2.918-4.945-1.839L485.781,85.226z"/>
					</g>
				</g>
				<g>
					<g>
						<path fill="#FF9893" d="M493.149,80.639l4.591-3.67l0.476,0.596l-3.937,3.147l2.026,2.535l3.493-2.792l0.476,0.596
							l-3.493,2.792l2.148,2.687l3.925-3.138l0.476,0.596l-4.579,3.661L493.149,80.639z"/>
					</g>
				</g>
				<g>
					<g>
						<path fill="#FF9893" d="M503.564,79.744l0.35-0.734c1.435,0.788,2.684,0.63,3.823-0.815c1.064-1.351,0.96-2.329,0.149-2.968
							c-0.811-0.639-1.614-0.416-3.042,0.839c-1.862,1.637-3.045,1.713-4.044,0.926c-1.104-0.871-1.207-2.285,0.052-3.883
							c1.268-1.609,2.618-1.63,4.139-0.926l-0.368,0.757c-1.296-0.603-2.223-0.61-3.214,0.647c-0.935,1.186-0.887,2.139-0.123,2.741
							c0.704,0.556,1.495,0.494,3.131-0.903c1.903-1.642,2.99-1.642,3.94-0.892c1.175,0.926,1.393,2.317-0.033,4.125
							C506.85,80.505,505.2,80.69,503.564,79.744z"/>
					</g>
				</g>
				<g>
					<g>
						<path fill="#FF9893" d="M511.938,72.921l-7.874-4.295l0.402-0.735l7.873,4.295L511.938,72.921z"/>
					</g>
				</g>
				<g>
					<g>
						<path fill="#FF9893" d="M509.912,67.713c-2.661-0.855-4.077-2.801-3.208-5.505c0.695-2.163,2.302-3.013,4.351-2.747
							l-0.081,0.79c-1.874-0.178-3.025,0.52-3.555,2.171c-0.754,2.348,0.471,3.762,2.748,4.494c2.206,0.708,3.925,0.146,4.671-2.174
							c0.759-2.362-0.326-3.433-1.749-3.89l0.028,0.009l-0.228-0.073l-0.978,3.046l-0.712-0.229l1.22-3.8l4.198,1.348l-0.238,0.74
							l-1.978-0.635l-0.032,0.099c1.034,0.74,1.7,1.99,1.133,3.755C514.719,67.561,512.759,68.627,509.912,67.713z"/>
					</g>
				</g>
				<g>
					<g>
						<path fill="#FF9893" d="M512.353,53.876c-1.043,0.616-2.172,1.154-3.132,1.579v0.359c1.244-0.039,2.963,0.001,4.367,0.057
							l3.765,0.153l-0.033,0.822l-8.964-0.364l0.052-1.285l4.613-2.686c1.302-0.755,2.616-1.405,3.576-1.845l-0.002-0.314
							c-1.168,0.027-2.829,0.02-4.218-0.036l-3.765-0.153l0.033-0.807l8.964,0.364l-0.046,1.12L512.353,53.876z"/>
					</g>
				</g>
			</g>
		</g>
		<g>
			<g>
				<g>
					<path fill="#FF9893" d="M473.427,65.959c-3.804,0-7.4-1.465-10.124-4.126l-6.768-6.774l2.981-2.983l6.727,6.733
						c1.934,1.891,4.485,2.933,7.185,2.933c2.699,0,5.25-1.04,7.181-2.93l3.742-3.746l-0.609-0.609l-3.733,3.736
						c-1.774,1.733-4.112,2.687-6.582,2.687c-2.469,0-4.804-0.951-6.574-2.678l-6.729-6.735l6.721-6.727
						c1.775-1.733,4.112-2.686,6.582-2.686c2.47,0,4.804,0.951,6.573,2.678l7.339,7.345l4.199-4.203l-7.374-7.381
						c-2.889-2.825-6.702-4.381-10.736-4.381c-4.034,0-7.845,1.555-10.732,4.378L451.253,51.94v1.219l12.042-12.053
						c2.73-2.667,6.328-4.135,10.133-4.135c3.804,0,7.4,1.465,10.124,4.126l6.768,6.774l-2.98,2.984l-6.727-6.733
						c-1.934-1.891-4.486-2.933-7.185-2.933c-2.7,0-5.25,1.04-7.182,2.93l-10.928,10.938l7.376,7.382l0.002,0.002
						c2.887,2.823,6.698,4.378,10.732,4.378c4.034,0,7.845-1.555,10.732-4.378l11.442-11.453v-1.219L483.56,61.824
						C480.83,64.49,477.232,65.959,473.427,65.959z"/>
				</g>
			</g>
			<g>
				<g>
					<path fill="#FF9893" d="M451.253,45.856l8.433-8.441c3.701-3.616,8.581-5.607,13.742-5.607c5.161,0,10.038,1.988,13.733,5.599
						l7.417,7.422l0.608-0.609l-7.414-7.421c-3.86-3.775-8.954-5.854-14.345-5.854c-5.39,0-10.483,2.078-14.341,5.85l-7.833,7.84
						V45.856z"/>
				</g>
			</g>
			<g>
				<g>
					<path fill="#FF9893" d="M495.602,57.074l-8.433,8.44c-3.701,3.616-8.581,5.607-13.741,5.607
						c-5.161,0-10.038-1.988-13.733-5.598l-7.417-7.424l-0.609,0.61l7.414,7.42c3.86,3.775,8.954,5.854,14.345,5.854
						c5.39,0,10.483-2.078,14.341-5.85l7.834-7.841V57.074z"/>
				</g>
			</g>
			<g>
				<g>
					<path fill="#FF9893" d="M473.427,46.517c-2.729,0-4.948,2.22-4.948,4.948c0,2.728,2.22,4.948,4.948,4.948
						s4.948-2.22,4.948-4.948C478.376,48.737,476.156,46.517,473.427,46.517z M473.427,55.29c-2.109,0-3.825-1.716-3.825-3.824
						c0-2.109,1.716-3.825,3.825-3.825c2.109,0,3.825,1.716,3.825,3.825C477.252,53.574,475.536,55.29,473.427,55.29z"/>
				</g>
			</g>
		</g>
	</g>
</g>
<g>
</g>
<g>
</g>
<g>
</g>
<g>
</g>
<g>
</g>
<g>
</g>
<g>
</g>
<g>
</g>
<g>
</g>
<g>
</g>
<g>
</g>
<g>
</g>
<g>
</g>
<g>
</g>
<g>
</g>
</svg>
