<?xml version="1.0" encoding="iso-8859-1"?>
<!-- Generator: Adobe Illustrator 29.5.0, SVG Export Plug-In . SVG Version: 9.03 Build 0)  -->
<svg version="1.1" id="Layer_1" xmlns="http://www.w3.org/2000/svg" xmlns:xlink="http://www.w3.org/1999/xlink" x="0px" y="0px"
	 width="1623.916px" height="457.446px" viewBox="0 0 1623.916 457.446" enable-background="new 0 0 1623.916 457.446"
	 xml:space="preserve">
<g>
	<g>
		<g>
			<path fill="#F3F4DD" d="M632.165,396.222c20.327-1.551,24.916-14.992,24.916-69.274V129.982c0-53.765-3.605-67.206-24.916-69.274
				v-11.89h73.111c15.736,0,33.768,3.102,47.21,12.407c35.407,25.332,57.048,79.097,57.048,164.914
				c0,83.749-21.969,137.514-48.523,163.363c-13.441,12.924-29.507,19.128-51.146,19.128h-77.7V396.222z M765.927,230.791
				c0-71.342-6.883-122.522-24.26-146.82c-10.164-13.958-21.966-19.128-44.26-19.128c-0.328,13.958-0.328,37.222-0.328,58.418
				v204.204c0,50.663,4.261,65.138,22.294,64.621C747.57,391.052,765.927,328.498,765.927,230.791z"/>
			<path fill="#F3F4DD" d="M825.925,396.222c20.327-1.551,24.916-14.992,24.916-69.274V129.982c0-53.765-3.605-67.206-24.916-69.274
				v-11.89c15.08,1.034,48.193,1.551,72.784,1.551c19.013,0,43.276-0.517,63.931-1.551c4.917,10.339,5.244,28.95,4.917,49.629
				c-0.328,5.17-0.983,42.909-0.983,42.909h-8.197c-5.244-57.384-14.752-74.961-67.209-74.961
				c-0.328,7.238-0.656,37.739-0.656,49.629v96.157h10.819c35.079,0,39.999-7.755,43.932-42.392h7.214v110.115h-7.869
				c-2.622-40.324-7.214-48.078-42.621-48.078h-11.475v98.741c0,47.044,4.261,55.316,28.521,55.316
				c30.491,0,44.262-24.815,52.787-81.681h8.194c-0.328,7.755-1.639,50.663-1.967,57.901c-0.983,26.882-3.278,39.29-8.197,46.527
				c-20.655-1.034-45.243-1.551-64.587-1.551c-25.899,0-56.718,0.517-79.339,1.551V396.222z"/>
			<path fill="#F3F4DD" d="M1001.981,392.086c-5.575-11.89-6.558-31.018-5.575-53.248l1.967-51.697h8.525
				c4.591,78.58,24.916,109.081,50.162,109.081c22.949,0,38.688-26.366,38.688-69.791c0-34.637-14.099-57.901-38.032-69.791
				c-30.163-14.475-59.342-35.671-59.342-109.598c0-64.104,26.885-105.462,68.523-105.462c17.702,0,33.441,5.687,45.243,16.026
				c6.886,14.992,6.23,43.426,6.23,52.731l-0.328,46.01h-8.853c-3.278-51.697-16.394-96.157-42.621-96.157
				c-23.277,0-35.082,33.086-34.754,66.689c0.33,38.256,15.083,57.384,36.393,68.24c39.343,19.645,59.998,48.078,59.998,108.564
				c0,68.24-27.868,112.183-72.456,112.183C1032.799,415.867,1011.489,405.01,1001.981,392.086z"/>
			<path fill="#F3F4DD" d="M1146.562,396.222c20.327-1.551,25.244-14.992,25.244-69.274V129.982
				c0-53.765-3.933-67.206-25.244-69.274v-11.89c13.113,1.034,31.474,1.551,44.26,1.551c13.769,0,33.113-0.517,45.898-1.551v11.89
				c-21.31,3.102-25.244,15.509-25.244,69.274v197.483c0,55.316,5.247,67.206,25.244,68.757v12.407
				c-12.786-1.034-32.13-1.551-45.898-1.551c-13.114,0-30.163,0.517-44.26,1.551V396.222z"/>
			<path fill="#F3F4DD" d="M1255.408,231.825c0-125.624,40.654-189.211,90.816-189.211c21.966,0,36.718,6.721,49.504,19.645
				c6.558,13.441,7.541,37.222,6.886,59.452l-1.311,46.01h-8.197c-5.244-53.765-17.377-107.53-45.898-107.53
				c-35.738,0-47.212,70.308-47.212,165.948c0,103.394,9.18,170.6,46.885,170.6c9.836,0,17.375-4.136,22.621-10.856v-79.097
				c0-38.773-2.95-52.214-24.26-55.316v-11.89c13.114,1.034,26.555,1.551,41.307,1.551c11.147,0,20.655-0.517,32.788-2.068v11.373
				c-12.788,3.102-14.427,31.535-14.427,54.282c0,31.018,0.328,65.138,0.328,84.783c-15.08,13.441-37.702,25.332-59.34,25.332
				C1294.752,414.833,1255.408,357.966,1255.408,231.825z"/>
			<path fill="#F3F4DD" d="M1588.836,411.214c-39.343-96.157-76.72-188.177-117.046-283.3c0,69.274,0,130.277,0.986,200.585
				c0.983,51.18,3.605,65.655,27.866,67.723v12.407c-12.786-1.034-23.277-1.551-35.079-1.551c-13.441,0-23.605,0.517-35.079,1.551
				v-12.407c20.983-3.619,24.26-18.611,24.916-66.689c0.983-71.342,1.639-115.802,1.311-197.483
				c-0.328-47.044-6.23-67.723-26.557-70.825V48.817c9.18,0.517,19.672,1.034,28.852,1.034c7.869,0,17.705,0,25.902-1.034
				c34.096,84.783,65.57,160.778,97.7,236.773c0-64.621,0.328-111.149,0-166.465c-0.328-43.426-5.244-56.867-27.869-58.418v-11.89
				c7.869,0.517,19.672,1.551,34.754,1.551c13.441,0,25.571-1.034,34.424-1.551v11.89c-20.655,1.551-23.605,18.094-24.26,54.282
				c-0.983,41.875-1.969,160.778-1.969,197.483c0,63.07,0.658,85.3,0.986,101.326L1588.836,411.214z"/>
		</g>
	</g>
	<g>
		<path fill="#FD9691" d="M414.804,414.414c-11.561,13.092-32.797,28.699-68.313,28.699c-33.33,0-73.56-18.275-119.572-54.316
			c-27.503-21.543-51.835-45.413-69.802-64.537H273.51v-14.333H133.155v140.354h14.333V334.943
			c18.271,19.384,42.829,43.391,70.59,65.138c48.595,38.065,91.799,57.366,128.411,57.366c71.728,0,103.991-56.81,103.991-97.15
			h-14.333C436.148,379.047,428.169,399.278,414.804,414.414z"/>
		<path fill="#FD9691" d="M133.188,157.115v116.394h14.333V133.155H7.167v14.333h115.337c-19.384,18.27-43.391,42.828-65.137,70.59
			C19.301,266.674,0,309.878,0,346.49c0,71.728,56.81,103.991,97.15,103.991v-14.333c-18.751,0-38.983-7.98-54.118-21.344
			c-13.092-11.561-28.699-32.797-28.699-68.313c0-33.33,18.275-73.56,54.316-119.572
			C90.194,199.413,114.064,175.082,133.188,157.115z"/>
		<path fill="#FD9691" d="M42.643,43.032C54.204,29.94,75.44,14.333,110.957,14.333c33.33,0,73.56,18.275,119.572,54.316
			c27.503,21.543,51.835,45.413,69.802,64.537H183.937v14.333h140.355V7.167h-14.333v115.336
			c-18.271-19.384-42.829-43.391-70.59-65.138C190.773,19.301,147.569,0,110.957,0C39.229,0,6.966,56.81,6.966,97.15h14.333
			C21.299,78.399,29.279,58.168,42.643,43.032z"/>
		<path fill="#FD9691" d="M324.259,300.331V183.937h-14.333v140.354H450.28v-14.333H334.944
			c19.385-18.271,43.392-42.83,65.137-70.59c38.065-48.596,57.366-91.799,57.366-128.411c0-71.728-56.81-103.992-97.15-103.992
			v14.333c18.751,0,38.983,7.98,54.118,21.345c13.092,11.56,28.699,32.797,28.699,68.313c0,33.33-18.275,73.56-54.316,119.572
			C367.254,258.03,343.384,282.363,324.259,300.331z"/>
		<path fill="#FD9691" d="M179.877,228.723c43.186,15.996,32.851,5.66,48.847,48.847c15.996-43.186,5.661-32.851,48.847-48.847
			c-43.186-15.997-32.851-5.661-48.847-48.847C212.727,223.062,223.062,212.727,179.877,228.723z"/>
	</g>
</g>
<g>
</g>
<g>
</g>
<g>
</g>
<g>
</g>
<g>
</g>
<g>
</g>
<g>
</g>
<g>
</g>
<g>
</g>
<g>
</g>
<g>
</g>
<g>
</g>
<g>
</g>
<g>
</g>
<g>
</g>
</svg>
