<?xml version="1.0" encoding="iso-8859-1"?>
<!-- Generator: Adobe Illustrator 29.5.0, SVG Export Plug-In . SVG Version: 9.03 Build 0)  -->
<svg version="1.1" id="Layer_1" xmlns="http://www.w3.org/2000/svg" xmlns:xlink="http://www.w3.org/1999/xlink" x="0px" y="0px"
	 width="2048px" height="2048px" viewBox="0 0 2048 2048" enable-background="new 0 0 2048 2048" xml:space="preserve">
<g>
	<path fill="#FF9893" d="M1906.642,141.359h-23.028l-421.585,421.585c-28.091-21.352-57.703-40.624-88.769-57.703l210.088-363.882
		h-63.735L1323.84,480.448c-31.554-14.364-63.838-26.324-96.732-35.932l81.23-303.157h-57.141l-77.633,289.73
		c-33.312-6.987-67.181-11.592-101.503-13.818V141.359h-55.197V415.75c-34.922,0.332-69.422,3.098-103.4,8.281l-75.742-282.672
		h-57.143l78.544,293.132c-34.703,8.08-68.791,18.706-102.125,31.952L569.311,141.359h-63.734l200.648,347.532
		c-33.812,16.503-66.056,35.46-96.617,56.781L205.294,141.359h-63.936v14.123l423.824,423.824
		c-29.366,24.076-56.94,50.542-82.573,79.336l-2.826,3.02L141.358,466.272v63.736l299.705,173.035l-94.455,100.942l-205.25-54.997
		v57.141l162.5,43.542l-161.243,172.317l156.206,168.781l-157.463,42.192v57.141l199.839-53.547l94.799,102.431l-294.637,170.108
		v63.736l333.082-192.305l8.116,8.769c24.228,27.224,50.205,52.344,77.774,75.355l-418.972,418.973v23.018H196.4l408.009-408.01
		c30.904,21.971,63.55,41.507,97.833,58.498l-201.79,349.511h63.733l188.67-326.786c33.939,13.729,68.655,24.779,104.026,33.135
		l-78.684,293.651h57.143l75.832-283.01c34.714,5.41,69.981,8.279,105.685,8.619v274.391h55.197V1630.73
		c35.102-2.275,69.734-7.023,103.777-14.28l77.757,290.191h57.142l-81.402-303.799c32.82-9.701,65.034-21.73,96.512-36.173
		c0.696-0.32,1.379-0.662,2.074-0.984l196.851,340.956h63.735l-211.324-366.023c31.505-17.575,61.502-37.415,89.913-59.411
		l425.433,425.434h14.12v-63.94l-397.08-397.08c19.51-17.659,38.165-36.42,55.874-56.318l22.376-24.177l318.83,184.076v-63.736
		l-280.385-161.88l88.68-95.819l191.705,51.368v-57.141l-149.33-40.013l148.074-159.994L1752.346,858.44l154.295-41.344v-57.141
		l-197.046,52.798l-88.303-94.367l285.349-164.747v-63.736l-324.07,187.102l-17.184-18.364
		c-19.111-21.469-39.331-41.604-60.535-60.463l401.789-401.789V141.359z M1829.985,1022.194l-305.241,329.816l-0.367,0.407
		c-127.016,142.82-309.396,224.733-500.376,224.733c-190.981,0-373.361-81.912-500.377-224.733l-305.61-330.223L523.152,696.1
		l0.47-0.517C650.639,552.763,833.019,470.851,1024,470.851c190.98,0,373.36,81.912,500.376,224.733L1829.985,1022.194z"/>
	<path fill="#FF9893" d="M1024.001,768.811c-140.713,0-255.192,114.476-255.192,255.188s114.479,255.19,255.192,255.19
		s255.19-114.479,255.19-255.19S1164.714,768.811,1024.001,768.811z M1024.001,1223.995c-110.278,0-199.995-89.718-199.995-199.996
		c0-110.276,89.716-199.994,199.995-199.994s199.995,89.718,199.995,199.994C1223.995,1134.277,1134.279,1223.995,1024.001,1223.995
		z"/>
</g>
<g>
	<path fill="#FF9893" d="M6895.621,1736.502c-44.519,50.414-126.291,110.511-263.057,110.511
		c-128.346,0-283.26-70.372-460.442-209.158c-105.908-82.958-199.602-174.875-268.789-248.516h448.202v-55.194h-540.469v540.466
		h55.194v-444.13c70.355,74.644,164.923,167.089,271.825,250.828c187.128,146.578,353.495,220.9,494.479,220.9
		c276.204,0,400.443-218.762,400.443-374.1h-55.194C6977.812,1600.314,6947.085,1678.219,6895.621,1736.502z"/>
	<path fill="#FF9893" d="M5811.191,745.712v448.202h55.194V653.446h-540.469v55.194h444.132
		c-74.643,70.352-167.086,164.919-250.827,271.825c-146.58,187.128-220.902,353.495-220.902,494.479
		c0,276.204,218.762,400.443,374.1,400.443v-55.194c-72.207,0-150.112-30.727-208.395-82.191
		c-50.414-44.518-110.511-126.291-110.511-263.057c0-128.346,70.372-283.26,209.159-460.443
		C5645.633,908.59,5737.55,814.898,5811.191,745.712z"/>
	<path fill="#FF9893" d="M5462.528,306.407c44.519-50.414,126.291-110.511,263.058-110.511c128.346,0,283.26,70.372,460.442,209.158
		c105.907,82.958,199.602,174.874,268.789,248.517h-448.202v55.194h540.469V168.299h-55.194v444.13
		c-70.355-74.644-164.924-167.089-271.825-250.828c-187.128-146.577-353.495-220.9-494.479-220.9
		c-276.205,0-400.443,218.762-400.443,374.1h55.194C5380.336,442.595,5411.064,364.69,5462.528,306.407z"/>
	<path fill="#FF9893" d="M6546.958,1297.197v-448.2h-55.194v540.466h540.466v-55.194h-444.128
		c74.646-70.358,167.092-164.927,250.825-271.823c146.578-187.131,220.9-353.495,220.9-494.479
		c0-276.207-218.762-400.445-374.1-400.445v55.194c72.206,0,150.111,30.727,208.394,82.194
		c50.414,44.516,110.511,126.291,110.511,263.057c0,128.346-70.372,283.26-209.159,460.44
		C6712.521,1134.309,6620.602,1228.006,6546.958,1297.197z"/>
	<path fill="#FF9893" d="M5990.977,1021.456c166.299,61.597,126.5,21.796,188.097,188.097
		c61.597-166.298,21.798-126.5,188.097-188.097c-166.298-61.599-126.5-21.798-188.097-188.097
		C6117.476,999.657,6157.274,959.859,5990.977,1021.456z"/>
</g>
<g>
</g>
<g>
</g>
<g>
</g>
<g>
</g>
<g>
</g>
<g>
</g>
<g>
</g>
<g>
</g>
<g>
</g>
<g>
</g>
<g>
</g>
<g>
</g>
<g>
</g>
<g>
</g>
<g>
</g>
</svg>
