<?xml version="1.0" encoding="iso-8859-1"?>
<!-- Generator: Adobe Illustrator 29.5.0, SVG Export Plug-In . SVG Version: 9.03 Build 0)  -->
<svg version="1.1" id="Layer_1" xmlns="http://www.w3.org/2000/svg" xmlns:xlink="http://www.w3.org/1999/xlink" x="0px" y="0px"
	 width="2048px" height="2048px" viewBox="0 0 2048 2048" enable-background="new 0 0 2048 2048" xml:space="preserve">
<path fill="#FF9893" d="M1840.087,1791.438l-270.312-288.875c109.63-125.165,172.094-282.145,178.302-449.056h119.608v110.005
	l137.603-137.603l-137.603-137.603v110.007h-119.608c-6.208-166.924-68.681-323.916-178.327-449.086l270.336-292.1v124.149h55.197
	V159.077h-222.199v55.194h131.456l-272.773,294.733c-129.75-127.517-299.118-200.438-480.169-207.172V186.675h110.005L1024,49.072
	L886.397,186.675h110.005v115.157c-181.054,6.734-350.423,79.656-480.174,207.176l-272.77-294.736h131.457v-55.194H152.716v222.198
	h55.197V257.126l270.336,292.1c-109.646,125.17-172.117,282.163-178.326,449.087H180.314V888.305L42.711,1025.908l137.603,137.603
	v-110.005h119.609c6.208,166.911,68.671,323.891,178.302,449.057l-270.312,288.875v-124.715h-55.197v222.198h222.199v-55.194
	H243.934l272.258-290.953c129.756,127.542,299.14,200.476,480.21,207.211v111.341H886.397L1024,1998.928l137.603-137.603h-110.005
	v-111.341c181.073-6.735,350.459-79.672,480.216-207.218l272.252,290.961h-130.983v55.194h222.199v-222.198h-55.197V1791.438z
	 M1531.597,1462.362c-46.517-45.757-98.492-84.669-155.323-116.264c23.764-90.261,37.246-189.565,39.292-292.591h277.264
	C1686.72,1205.192,1630.319,1347.907,1531.597,1462.362z M1051.599,1310.659c90.512,3.744,178.555,25.847,259.089,64.023
	c-14.798,47.295-32.729,91.378-53.588,131.292c-56.982,109.039-129.104,174.321-205.501,187.033V1310.659z M1325.843,1320.566
	c-86.66-39.761-178.789-61.628-274.244-65.158v-201.901h308.758c-1.935,94.003-13.743,184.505-34.467,267.081
	C1325.874,1320.581,1325.858,1320.573,1325.843,1320.566z M1051.599,998.312V796.409c95.455-3.53,187.584-25.397,274.244-65.158
	c0.016-0.007,0.031-0.015,0.047-0.022c20.724,82.577,32.532,173.08,34.467,267.083H1051.599z M1051.599,741.158V358.808
	c76.397,12.713,148.518,77.995,205.501,187.033c20.859,39.915,38.79,83.998,53.588,131.293
	C1230.154,715.311,1142.111,737.414,1051.599,741.158z M1306.018,520.277c-29.828-57.078-63.966-103.784-101.193-139.183
	c107.994,30.107,207.088,87.261,289.016,168.029c-40.341,39.721-85.28,73.885-133.577,101.935
	C1345.081,604.19,1326.939,560.31,1306.018,520.277z M790.9,545.842c56.982-109.039,129.105-174.321,205.502-187.033v382.349
	c-90.512-3.744-178.556-25.847-259.089-64.023C752.11,629.84,770.041,585.756,790.9,545.842z M687.736,651.058
	c-48.298-28.05-93.236-62.213-133.577-101.935c81.928-80.768,181.022-137.922,289.016-168.029
	c-37.227,35.399-71.365,82.105-101.193,139.183C721.061,560.31,702.918,604.19,687.736,651.058z M722.158,731.251
	c86.659,39.761,178.789,61.628,274.244,65.158v201.904H687.643c1.935-94.004,13.743-184.507,34.467-267.084
	C722.126,731.236,722.142,731.243,722.158,731.251z M996.402,1053.507v201.901c-95.455,3.53-187.585,25.397-274.244,65.158
	c-0.016,0.007-0.032,0.015-0.049,0.023c-20.724-82.577-32.532-173.078-34.467-267.082H996.402z M996.402,1310.659v382.349
	c-76.397-12.713-148.519-77.995-205.502-187.033c-20.859-39.914-38.79-83.998-53.588-131.292
	C817.846,1336.506,905.89,1314.403,996.402,1310.659z M741.982,1531.539c29.828,57.078,63.967,103.784,101.194,139.183
	c-107.994-30.107-207.088-87.261-289.017-168.029c40.341-39.721,85.279-73.885,133.577-101.935
	C702.918,1447.627,721.061,1491.506,741.982,1531.539z M1306.018,1531.539c20.921-40.033,39.064-83.912,54.246-130.781
	c48.297,28.05,93.236,62.213,133.577,101.935c-81.929,80.768-181.022,137.922-289.016,168.029
	C1242.052,1635.323,1276.19,1588.617,1306.018,1531.539z M1415.566,998.312c-2.045-103.027-15.528-202.332-39.292-292.594
	c56.831-31.595,108.806-70.506,155.322-116.264c98.723,114.456,155.124,257.171,161.234,408.858H1415.566z M516.403,589.455
	c46.517,45.758,98.49,84.669,155.322,116.264c-23.764,90.261-37.246,189.566-39.292,292.594H355.169
	C361.279,846.625,417.68,703.911,516.403,589.455z M632.434,1053.507c2.045,103.026,15.528,202.331,39.292,292.592
	c-56.831,31.595-108.806,70.507-155.322,116.264c-98.723-114.454-155.124-257.17-161.234-408.856H632.434z"/>
<g>
</g>
<g>
</g>
<g>
</g>
<g>
</g>
<g>
</g>
<g>
</g>
<g>
</g>
<g>
</g>
<g>
</g>
<g>
</g>
<g>
</g>
<g>
</g>
<g>
</g>
<g>
</g>
<g>
</g>
</svg>
