<?xml version="1.0" encoding="iso-8859-1"?>
<!-- Generator: Adobe Illustrator 29.5.0, SVG Export Plug-In . SVG Version: 9.03 Build 0)  -->
<svg version="1.1" id="Layer_1" xmlns="http://www.w3.org/2000/svg" xmlns:xlink="http://www.w3.org/1999/xlink" x="0px" y="0px"
	 width="2048px" height="2048px" viewBox="0 0 2048 2048" enable-background="new 0 0 2048 2048" xml:space="preserve">
<g>
	<path fill="#FF9893" d="M1740.548,1739.048c-44.518,50.414-126.291,110.511-263.057,110.511
		c-128.346,0-283.26-70.372-460.443-209.158c-105.907-82.958-199.602-174.875-268.789-248.516h448.202v-55.194H655.993v540.466
		h55.194v-444.13c70.355,74.644,164.924,167.089,271.825,250.828c187.128,146.578,353.495,220.9,494.479,220.9
		c276.204,0,400.443-218.762,400.443-374.1h-55.194C1822.739,1602.859,1792.012,1680.765,1740.548,1739.048z"/>
	<path fill="#FF9893" d="M656.117,748.258v448.202h55.194V655.991H170.843v55.194h444.131
		c-74.642,70.352-167.086,164.919-250.826,271.825c-146.58,187.128-220.902,353.495-220.902,494.479
		c0,276.204,218.762,400.443,374.1,400.443v-55.194c-72.206,0-150.112-30.727-208.394-82.191
		c-50.414-44.518-110.511-126.291-110.511-263.057c0-128.346,70.372-283.26,209.158-460.443
		C490.56,911.136,582.477,817.443,656.117,748.258z"/>
	<path fill="#FF9893" d="M307.455,308.952c44.518-50.414,126.291-110.511,263.057-110.511c128.346,0,283.26,70.372,460.442,209.158
		c105.907,82.958,199.602,174.874,268.789,248.517H851.541v55.194h540.469V170.844h-55.194v444.13
		c-70.355-74.644-164.923-167.089-271.825-250.828c-187.128-146.577-353.495-220.9-494.478-220.9
		c-276.204,0-400.443,218.762-400.443,374.1h55.194C225.263,445.14,255.99,367.235,307.455,308.952z"/>
	<path fill="#FF9893" d="M1391.885,1299.743v-448.2h-55.194v540.466h540.466v-55.194h-444.128
		c74.647-70.358,167.092-164.927,250.825-271.823c146.578-187.131,220.9-353.495,220.9-494.478
		c0-276.207-218.762-400.445-374.1-400.445v55.194c72.206,0,150.112,30.727,208.394,82.194
		c50.414,44.516,110.511,126.291,110.511,263.057c0,128.346-70.372,283.26-209.158,460.44
		C1557.447,1136.855,1465.529,1230.552,1391.885,1299.743z"/>
	<path fill="#FF9893" d="M835.904,1024.001c166.299,61.597,126.5,21.796,188.097,188.097
		c61.597-166.298,21.798-126.5,188.097-188.097c-166.298-61.599-126.5-21.798-188.097-188.097
		C962.402,1002.202,1002.201,962.405,835.904,1024.001z"/>
</g>
<g>
</g>
<g>
</g>
<g>
</g>
<g>
</g>
<g>
</g>
<g>
</g>
<g>
</g>
<g>
</g>
<g>
</g>
<g>
</g>
<g>
</g>
<g>
</g>
<g>
</g>
<g>
</g>
<g>
</g>
</svg>
