<?xml version="1.0" encoding="iso-8859-1"?>
<!-- Generator: Adobe Illustrator 29.5.0, SVG Export Plug-In . SVG Version: 9.03 Build 0)  -->
<svg version="1.1" id="Layer_1" xmlns="http://www.w3.org/2000/svg" xmlns:xlink="http://www.w3.org/1999/xlink" x="0px" y="0px"
	 width="1795.618px" height="445.292px" viewBox="0 0 1795.618 445.292" enable-background="new 0 0 1795.618 445.292"
	 xml:space="preserve">
<g>
	<g>
		<g>
			<path fill="#F3F4DD" d="M610.76,388.335c20.327-1.551,24.916-14.992,24.916-69.274V122.095c0-53.765-3.605-67.206-24.916-69.274
				v-11.89h73.111c15.736,0,33.768,3.102,47.21,12.407c35.407,25.332,57.048,79.097,57.048,164.914
				c0,83.749-21.969,137.514-48.523,163.363c-13.441,12.924-29.507,19.128-51.145,19.128h-77.7V388.335z M744.522,222.904
				c0-71.342-6.883-122.522-24.26-146.82c-10.164-13.958-21.966-19.128-44.26-19.128c-0.328,13.958-0.328,37.222-0.328,58.418
				v204.204c0,50.663,4.261,65.138,22.294,64.621C726.164,383.165,744.522,320.612,744.522,222.904z"/>
			<path fill="#F3F4DD" d="M804.52,388.335c20.327-1.551,24.916-14.992,24.916-69.274V122.095c0-53.765-3.605-67.206-24.916-69.274
				v-11.89c15.08,1.034,48.193,1.551,72.784,1.551c19.013,0,43.276-0.517,63.931-1.551c4.917,10.339,5.244,28.95,4.917,49.629
				c-0.328,5.17-0.983,42.909-0.983,42.909h-8.197c-5.244-57.384-14.752-74.961-67.209-74.961
				c-0.328,7.238-0.656,37.739-0.656,49.629v96.157h10.819c35.079,0,39.999-7.755,43.932-42.392h7.214v110.115h-7.869
				c-2.622-40.324-7.214-48.078-42.621-48.078h-11.475v98.741c0,47.044,4.261,55.316,28.521,55.316
				c30.491,0,44.262-24.815,52.787-81.681h8.194c-0.328,7.755-1.639,50.663-1.967,57.901c-0.983,26.882-3.278,39.29-8.197,46.527
				c-20.655-1.034-45.243-1.551-64.587-1.551c-25.899,0-56.718,0.517-79.339,1.551V388.335z"/>
			<path fill="#F3F4DD" d="M970.084,388.335C990.411,386.784,995,373.343,995,319.061V122.095c0-53.765-3.605-67.206-24.916-69.274
				v-11.89c12.458,1.034,28.521,1.551,44.587,1.551c16.391,0,32.457-0.517,47.21-1.551v11.89
				c-22.294,3.102-27.21,12.924-27.21,70.308v188.694c0,58.935,4.917,66.172,26.882,66.172c27.213,0,43.604-26.882,52.129-86.851
				h8.197l-1.639,59.969c-1.311,29.984-3.605,41.358-8.852,49.629c-28.196-1.034-36.718-1.551-63.604-1.551
				c-32.457,0-51.473,0-77.7,1.551V388.335z"/>
			<path fill="#F3F4DD" d="M1136.306,388.335c20.327-1.551,25.244-14.992,25.244-69.274V122.095
				c0-53.765-3.933-67.206-25.244-69.274v-11.89c13.114,1.034,31.474,1.551,44.26,1.551c13.769,0,33.113-0.517,45.899-1.551v11.89
				c-21.31,3.102-25.244,15.509-25.244,69.274v197.483c0,55.316,5.247,67.206,25.244,68.757v12.407
				c-12.786-1.034-32.13-1.551-45.899-1.551c-13.113,0-30.163,0.517-44.26,1.551V388.335z"/>
			<path fill="#F3F4DD" d="M1265.48,123.646c-11.475-53.765-14.755-66.689-31.146-70.825v-11.89
				c13.441,1.034,32.785,1.551,44.26,1.551c13.441,0,28.524-0.517,43.932-1.551v11.89c-18.358,2.585-25.244,17.577-18.03,56.35
				c12.13,64.104,26.555,134.412,37.374,182.491c10.164-47.561,21.638-105.979,33.113-169.05
				c8.853-49.112,5.575-67.206-16.391-69.791v-11.89c10.819,1.034,22.294,1.551,33.768,1.551c11.147,0,21.638-0.517,32.13-1.551
				v11.89c-14.097,4.653-19.016,13.958-29.507,63.07c-21.966,99.775-48.849,225.916-59.34,283.3l-13.116,5.17
				C1310.067,337.155,1288.101,230.659,1265.48,123.646z"/>
			<path fill="#F3F4DD" d="M1429.408,388.335c20.327-1.551,24.916-14.992,24.916-69.274V122.095
				c0-53.765-3.605-67.206-24.916-69.274v-11.89c15.08,1.034,48.193,1.551,72.784,1.551c19.013,0,43.276-0.517,63.931-1.551
				c4.917,10.339,5.244,28.95,4.917,49.629c-0.328,5.17-0.983,42.909-0.983,42.909h-8.197
				c-5.244-57.384-14.752-74.961-67.209-74.961c-0.328,7.238-0.656,37.739-0.656,49.629v96.157h10.819
				c35.079,0,39.999-7.755,43.932-42.392h7.214v110.115h-7.869c-2.622-40.324-7.214-48.078-42.621-48.078h-11.475v98.741
				c0,47.044,4.261,55.316,28.524,55.316c30.488,0,44.26-24.815,52.784-81.681h8.194c-0.328,7.755-1.639,50.663-1.967,57.901
				c-0.983,26.882-3.278,39.29-8.197,46.527c-20.655-1.034-45.243-1.551-64.587-1.551c-25.899,0-56.718,0.517-79.339,1.551V388.335z
				"/>
			<path fill="#F3F4DD" d="M1722.834,370.241c-7.869-14.992-15.411-36.705-23.277-62.553c-7.541-24.815-13.772-48.595-19.016-70.825
				c-6.886,0-14.755-0.517-20.983-2.068v81.681c0,55.316,2.95,70.308,27.21,71.859v12.407c-13.441-1.034-30.163-1.551-46.226-1.551
				c-15.08,0-30.163,0.517-45.571,1.551v-12.407c20.327-1.551,24.916-14.992,24.916-69.274V122.095
				c0-53.765-3.605-67.206-24.916-69.274v-11.89h80.322c43.932,0,82.947,22.23,80.325,99.258
				c-1.311,40.324-18.36,65.655-39.999,79.614c7.214,26.882,15.738,57.384,26.23,87.368c18.03,49.629,33.113,77.029,53.768,81.164
				l-0.656,12.407c-6.558,2.585-17.049,3.619-24.591,3.619C1747.094,404.361,1733.653,390.92,1722.834,370.241z M1713.981,139.672
				c0-52.731-16.722-83.232-54.095-82.715c-0.328,16.543-0.328,34.637-0.328,59.452V221.87
				C1693.654,221.87,1713.981,198.607,1713.981,139.672z"/>
		</g>
	</g>
	<g id="paPnVZ_00000036216270478478628920000007670055459354442382_">
		<g>
			<path fill="#FF9893" d="M213.218,25.617l-8.867,7.28l-8.016,8.918c-1.682,0.435-9.783-7.098-8.618-9.865L219.321,0l31.556,31.876
				c-0.662,2.391-5.506,10.017-8.029,9.397c-3.879-0.953-13.117-14.498-17.486-17.005V66.1c31.55,0.922,59.748,12.143,84.905,30.472
				c2.346,1.709,12.753,11.569,14.105,11.274l91.255-91.006l-23.02,0.09l-1.271-12.91c6.853,1.597,42.525-4.229,45.298-0.079
				l-0.597,46.503c-1.452,1.94-12.309,1.104-12.309-1.212V26.966l-90.33,89.913c16.476,20.452,29.808,41.916,35.729,67.92
				c2.52,11.069,2.576,22.537,4.851,33.612l38.954,0.164l-16.147-18.208l8.561-8.686l30.441,31.802l-30.453,34.147l-8.497-8.499
				l16.096-18.401h-39.134c-1.593,10.38-2.451,20.752-4.704,31.056c-5.897,26.964-19.283,50.041-36.909,70.838l87.494,89.726v-24.29
				l12.151-0.006l-1.356,47.237h-44.531l0.008-12.134c7.075-0.216,13.394-1.503,20.598-1.033c1.508,0.098,2.638,2.751,2.326-0.987
				l-85.681-89.708c-26.957,23.961-62.816,39.72-99.183,40.438v39.134l17.042-16.107l8.51,8.51l-31.8,31.799L186.25,413.58
				l8.75-8.75l16.868,16.172v-39.134c-1.079,0.255-1.866,0.933-3.076,0.861c-34.467-2.056-67.194-16.215-92.085-39.977l-1.977-0.012
				l-87.735,89.057h20.916c3.676,2.452,2.071,12.119-1.947,12.894L5.337,443.34c-2.918-1.897-0.018-6.759,0.074-9.52
				c0.401-11.982-0.273-23.844,1.336-35.766c2.846,0.27,11.356-1.253,12.018,2.137c0.196,1.005-1.239,4.369-1.287,6.58
				c-0.109,5.085-0.342,10.609,0.739,15.575l89.66-88.558c-11.785-15.98-22.212-31.316-29.271-50.088
				c-6.391-16.996-9.314-33.581-11.13-51.619H28.345c1.926,4.617,15.137,13.619,16.056,17.122c0.977,3.725-5.167,7.068-7.285,9.846
				c-4.007-4.459-32.28-30.8-31.552-34.148l29.027-31.868l8.434,8.442c-1.412,2.178-2.897,4.327-4.539,6.336
				c-1.496,1.831-11.823,10.332-10.131,12.124c5.445-2.369,12.488-0.079,18.15,0.065c6.977,0.178,14.011-0.265,20.979-0.059
				c-0.823-37.5,14.5-72.05,37.595-100.775L14.16,31.024l-1.784,6.166l-1.753,16.59L0,53.961L1.35,8.068l44.544-1.349l0.049,11.249
				c-0.268,0.849-3.149,2.251-3.429,2.251H22.947l91.261,88.976c6.901-4.612,13.292-10.923,20.311-15.862
				c23.417-16.48,50.024-25.454,78.698-27.232V25.617z M197.024,80.955c-23.293,4.597-48.98,15.008-66.764,31.059
				c-1.218,1.1-5.988,4.935-4.75,6.693l33.71,14.873C167.493,113.273,182.011,96.538,197.024,80.955z M314.426,117.36
				c-19.677-19.007-45.699-31.974-72.869-36.405c15.608,15.056,27.795,32.436,38.656,51.169L314.426,117.36z M213.218,141.668
				V84.992c-18.071,13.213-32.803,31.425-41.844,51.942C185.083,139.932,199.112,142.309,213.218,141.668z M225.363,141.668
				c5.104-0.118,10.251,0.263,15.362-0.156c3.551-0.291,26.309-3.6,26.441-5.908c-10.64-19.209-23.678-37.849-41.804-50.612V141.668
				z M140.354,218.592c0.548-24.543,4.204-49.352,13.326-72.237l-38.263-19.535c-22.211,25.861-36.944,58.417-35.8,93.122
				L140.354,218.592z M325.029,127.004c-1.021-0.711-2.759-0.049-3.917,0.405c-6.34,2.487-14.917,8.617-21.965,11.8
				c-4.596,2.076-9.525,3.908-14.415,5.17c9.228,23.7,13.9,48.758,14.843,74.214l60.736-0.001
				c0.896-19.29-4.305-39.701-12.34-57.167C342.003,148.451,333.296,138.395,325.029,127.004z M287.437,218.586
				c-1.533-23.729-4.284-47.83-14.782-69.572c-15.546,3.077-31.302,6.848-47.292,6.149v63.424H287.437z M213.218,155.163
				c-16.444,1.316-32.215-3.921-48.433-5.246c-7.69,21.919-12.208,45.349-12.292,68.67h60.725V155.163z M273.832,300.8
				c7.939-21.921,14.168-45.344,12.972-68.814l-60.12-0.66l0.021,64.185C242.698,294.313,258.192,298.429,273.832,300.8z
				 M301.817,230.847c-1.704,0.506-1.967,1.702-2.244,3.25c-1.067,5.95-0.579,14.976-1.495,21.444
				c-2.353,16.616-6.591,33.376-13.177,48.773l38.106,19.402c23.467-24.399,35.97-57.333,38.331-91.018
				c-0.814-2.079-2.565-1.867-4.341-2.035C339.505,229.014,319.523,232.066,301.817,230.847z M141.697,232.081h-60.05
				c-0.447,0-2.308,1.969-1.776,3.049c2.871,32.697,15.521,65.937,38.194,89.759l37.044-19.428
				C148.154,281.643,141.072,257.15,141.697,232.081z M214.567,232.081h-60.725c-0.671,24.009,5.636,47.704,13.548,70.155
				c7.728-2.365,15.72-4.027,23.731-5.212c6.225-0.921,14.466-0.532,20.084-1.507c1.127-0.196,3.361-1.112,3.361-2.037V232.081z
				 M213.206,364.325l0.727-55.393l-13.54,0.062c-4.235,0.383-23.732,3.244-26.35,4.69c-2.163,1.194,1.58,6.64,2.499,8.375
				C185.166,338.352,198.077,353.948,213.206,364.325z M267.197,313.057l-40.479-5.41l-1.349,55.323
				c2.422,0.668,2.704-1.102,4.024-2.037C245.742,349.355,260.179,331.961,267.197,313.057z M313.074,331.955l-33.782-14.29
				c-5.81,11.889-13.147,24.81-22.195,34.538c-4.951,5.323-11.408,8.736-15.541,14.809c21.862-3.043,44.406-11.692,61.965-25.062
				C305.396,340.522,314.512,333.898,313.074,331.955z M189.514,361.09c-12.335-12.906-20.826-27.158-29.735-42.488l-32.923,14.705
				c-0.28,1.757-0.416,1.723,0.863,2.778c16.088,13.267,32.852,23.283,53.115,28.912c5.069,1.408,11.27,3.278,16.184,2.708
				C194.568,365.423,191.808,363.489,189.514,361.09z"/>
		</g>
	</g>
</g>
<g>
</g>
<g>
</g>
<g>
</g>
<g>
</g>
<g>
</g>
<g>
</g>
<g>
</g>
<g>
</g>
<g>
</g>
<g>
</g>
<g>
</g>
<g>
</g>
<g>
</g>
<g>
</g>
<g>
</g>
</svg>
