<?xml version="1.0" encoding="iso-8859-1"?>
<!-- Generator: Adobe Illustrator 29.5.0, SVG Export Plug-In . SVG Version: 9.03 Build 0)  -->
<svg version="1.1" id="Layer_1" xmlns="http://www.w3.org/2000/svg" xmlns:xlink="http://www.w3.org/1999/xlink" x="0px" y="0px"
	 width="1981.604px" height="458.427px" viewBox="0 0 1981.604 458.427" enable-background="new 0 0 1981.604 458.427"
	 xml:space="preserve">
<g>
	<g>
		<g>
			<path fill="#F3F4DD" d="M629.221,396.712c20.327-1.551,24.916-14.992,24.916-69.274V130.472c0-53.765-3.605-67.206-24.916-69.274
				v-11.89h73.111c15.736,0,33.768,3.102,47.21,12.407c35.407,25.332,57.048,79.097,57.048,164.914
				c0,83.749-21.969,137.514-48.523,163.363c-13.441,12.924-29.507,19.128-51.145,19.128h-77.7V396.712z M762.983,231.281
				c0-71.342-6.883-122.522-24.26-146.82c-10.164-13.958-21.966-19.128-44.26-19.128c-0.328,13.958-0.328,37.222-0.328,58.418
				v204.204c0,50.663,4.261,65.138,22.294,64.621C744.625,391.542,762.983,328.989,762.983,231.281z"/>
			<path fill="#F3F4DD" d="M825.275,396.712c20.327-1.551,25.244-14.992,25.244-69.274V130.472c0-53.765-3.933-67.206-25.244-69.274
				v-11.89c13.113,1.034,31.474,1.551,44.26,1.551c13.769,0,33.113-0.517,45.898-1.551v11.89
				c-21.31,3.102-25.244,15.509-25.244,69.274v197.483c0,55.316,5.247,67.206,25.244,68.757v12.407
				c-12.786-1.034-32.129-1.551-45.898-1.551c-13.113,0-30.163,0.517-44.26,1.551V396.712z"/>
			<path fill="#F3F4DD" d="M941.335,392.576c-5.575-11.89-6.558-31.018-5.575-53.248l1.967-51.697h8.525
				c4.591,78.58,24.916,109.081,50.162,109.081c22.949,0,38.688-26.366,38.688-69.791c0-34.637-14.099-57.901-38.032-69.791
				c-30.163-14.475-59.342-35.671-59.342-109.598c0-64.104,26.885-105.462,68.523-105.462c17.705,0,33.441,5.687,45.243,16.026
				c6.886,14.992,6.23,43.426,6.23,52.731l-0.328,46.01h-8.852c-3.278-51.697-16.394-96.157-42.621-96.157
				c-23.277,0-35.082,33.086-34.754,66.689c0.328,38.256,15.083,57.384,36.393,68.24c39.343,19.645,59.998,48.078,59.998,108.564
				c0,68.24-27.869,112.183-72.456,112.183C972.154,416.357,950.843,405.5,941.335,392.576z"/>
			<path fill="#F3F4DD" d="M1088.533,229.73c0-123.039,40.654-186.627,88.847-186.627c15.738,0,30.818,3.102,46.885,19.645
				c6.558,13.441,7.541,37.222,6.886,59.452l-1.314,46.01h-8.194c-4.591-53.248-15.411-107.53-43.607-107.53
				c-34.752,0-44.915,71.342-44.915,164.914c0,104.945,7.869,171.634,44.26,171.634c26.557,0,39.343-38.773,45.573-94.606h8.197
				l-0.658,32.569c-0.328,32.052-2.622,47.561-8.194,60.486c-12.788,12.924-26.23,19.645-46.229,19.645
				C1124.596,415.323,1088.533,352.769,1088.533,229.73z"/>
			<path fill="#F3F4DD" d="M1251.803,228.696c0-117.352,38.36-185.593,84.586-185.593c46.226,0,84.914,68.757,84.914,185.593
				c0,117.352-38.688,186.627-84.914,186.627C1290.163,415.323,1251.803,346.049,1251.803,228.696z M1376.715,228.696
				c0-103.911-11.802-167.499-40.326-167.499s-39.999,63.587-39.999,167.499c0,103.394,11.475,168.016,39.999,168.016
				S1376.715,332.091,1376.715,228.696z"/>
			<path fill="#F3F4DD" d="M1451.466,132.023c-11.475-53.765-14.755-66.689-31.146-70.825v-11.89
				c13.441,1.034,32.785,1.551,44.26,1.551c13.441,0,28.524-0.517,43.932-1.551v11.89c-18.358,2.585-25.244,17.577-18.03,56.35
				c12.13,64.104,26.555,134.412,37.374,182.491c10.164-47.561,21.638-105.979,33.113-169.05
				c8.853-49.112,5.575-67.206-16.391-69.791v-11.89c10.819,1.034,22.294,1.551,33.768,1.551c11.147,0,21.638-0.517,32.13-1.551
				v11.89c-14.097,4.653-19.016,13.958-29.507,63.07c-21.966,99.775-48.849,225.916-59.34,283.3l-13.116,5.17
				C1496.053,345.532,1474.087,239.036,1451.466,132.023z"/>
			<path fill="#F3F4DD" d="M1615.394,396.712c20.327-1.551,24.916-14.992,24.916-69.274V130.472
				c0-53.765-3.605-67.206-24.916-69.274v-11.89c15.08,1.034,48.193,1.551,72.784,1.551c19.013,0,43.276-0.517,63.931-1.551
				c4.917,10.339,5.244,28.95,4.917,49.629c-0.328,5.17-0.983,42.909-0.983,42.909h-8.197
				c-5.244-57.384-14.752-74.961-67.209-74.961c-0.328,7.238-0.656,37.739-0.656,49.629v96.157h10.819
				c35.079,0,39.999-7.755,43.932-42.392h7.214v110.115h-7.869c-2.622-40.324-7.214-48.078-42.621-48.078h-11.475v98.741
				c0,47.044,4.261,55.316,28.524,55.316c30.488,0,44.26-24.815,52.784-81.681h8.194c-0.328,7.755-1.639,50.663-1.967,57.901
				c-0.983,26.883-3.278,39.29-8.197,46.527c-20.655-1.034-45.243-1.551-64.587-1.551c-25.899,0-56.718,0.517-79.339,1.551V396.712z
				"/>
			<path fill="#F3F4DD" d="M1908.82,378.618c-7.869-14.992-15.411-36.705-23.277-62.553c-7.541-24.815-13.772-48.595-19.016-70.825
				c-6.886,0-14.755-0.517-20.983-2.068v81.681c0,55.316,2.95,70.308,27.21,71.859v12.407c-13.441-1.034-30.163-1.551-46.226-1.551
				c-15.08,0-30.163,0.517-45.571,1.551v-12.407c20.327-1.551,24.916-14.992,24.916-69.274V130.472
				c0-53.765-3.605-67.206-24.916-69.274v-11.89h80.322c43.932,0,82.947,22.23,80.325,99.258
				c-1.311,40.324-18.36,65.655-39.999,79.614c7.214,26.882,15.738,57.384,26.23,87.368c18.03,49.629,33.113,77.029,53.768,81.164
				l-0.656,12.407c-6.558,2.585-17.049,3.619-24.591,3.619C1933.08,412.738,1919.639,399.297,1908.82,378.618z M1899.967,148.049
				c0-52.731-16.722-83.232-54.095-82.715c-0.328,16.543-0.328,34.637-0.328,59.452v105.462
				C1879.64,230.247,1899.967,206.984,1899.967,148.049z"/>
		</g>
	</g>
	<g>
		<path fill="#FD9691" d="M458.427,0h-5.98L342.965,109.482c-7.295-5.545-14.985-10.55-23.052-14.985L374.471,0h-16.551
			l-50.84,88.058c-8.194-3.73-16.578-6.836-25.12-9.331L303.053,0h-14.839l-20.161,75.24c-8.651-1.815-17.446-3.01-26.359-3.588V0
			H227.36v71.257c-9.069,0.086-18.028,0.804-26.852,2.15L180.839,0h-14.84l20.397,76.123c-9.012,2.098-17.864,4.858-26.521,8.298
			L111.135,0H94.584l52.106,90.251c-8.781,4.286-17.154,9.209-25.09,14.745L16.604,0H0v3.668l110.063,110.063
			c-7.626,6.252-14.787,13.125-21.443,20.603l-0.734,0.784L0,84.377v16.552l77.83,44.935l-24.529,26.214L0,157.795v14.839
			l42.2,11.307L0.326,228.691l40.565,43.831L0,283.479v14.839l51.896-13.906l24.618,26.6L0,355.188v16.552l86.498-49.94l2.108,2.277
			c6.292,7.07,13.038,13.593,20.197,19.569L0,452.449v5.978h14.294L120.25,352.471c8.025,5.706,16.503,10.779,25.406,15.191
			l-52.403,90.765h16.551l48.996-84.863c8.814,3.565,17.829,6.435,27.015,8.605l-20.433,76.258h14.839l19.693-73.495
			c9.015,1.405,18.173,2.15,27.445,2.238v71.257h14.334v-71.652c9.116-0.591,18.109-1.824,26.95-3.708l20.193,75.36h14.839
			l-21.139-78.894c8.523-2.519,16.889-5.643,25.063-9.394c0.181-0.083,0.358-0.172,0.539-0.256l51.12,88.543h16.551l-54.879-95.053
			c8.181-4.564,15.971-9.716,23.349-15.428L454.76,458.427h3.667v-16.605L355.309,338.705c5.067-4.586,9.911-9.458,14.51-14.625
			l5.811-6.279l82.797,47.803v-16.552l-72.813-42.039l23.029-24.883l49.784,13.34v-14.839l-38.78-10.391l38.453-41.549
			l-39.743-42.472l40.069-10.737v-14.839l-51.171,13.711l-22.932-24.506l74.102-42.783V90.514l-84.158,48.589l-4.463-4.769
			c-4.963-5.575-10.214-10.804-15.72-15.702L458.427,14.291V0z M438.52,228.744l-79.268,85.65l-0.095,0.106
			c-32.985,37.089-80.347,58.361-129.943,58.361c-49.596,0-96.958-21.272-129.943-58.361l-79.364-85.756l79.242-84.683l0.122-0.134
			c32.985-37.089,80.347-58.361,129.943-58.361c49.596,0,96.958,21.272,129.943,58.361L438.52,228.744z"/>
		<path fill="#FD9691" d="M229.214,162.943c-36.542,0-66.271,29.728-66.271,66.27s29.729,66.27,66.271,66.27
			s66.27-29.729,66.27-66.27S265.755,162.943,229.214,162.943z M229.214,281.15c-28.638,0-51.937-23.299-51.937-51.937
			c0-28.638,23.298-51.936,51.937-51.936s51.937,23.299,51.937,51.936C281.15,257.851,257.852,281.15,229.214,281.15z"/>
	</g>
</g>
<g>
</g>
<g>
</g>
<g>
</g>
<g>
</g>
<g>
</g>
<g>
</g>
<g>
</g>
<g>
</g>
<g>
</g>
<g>
</g>
<g>
</g>
<g>
</g>
<g>
</g>
<g>
</g>
<g>
</g>
</svg>
