<?xml version="1.0" encoding="iso-8859-1"?>
<!-- Generator: Adobe Illustrator 30.2.1, SVG Export Plug-In . SVG Version: 9.03 Build 0)  -->
<svg version="1.1" id="Layer_1" xmlns="http://www.w3.org/2000/svg" xmlns:xlink="http://www.w3.org/1999/xlink" x="0px" y="0px"
	 width="1069.401px" height="1030.171px" viewBox="0 0 1069.401 1030.171" enable-background="new 0 0 1069.401 1030.171"
	 xml:space="preserve">
<g>
	<g>
		<g>
			<path fill="#F8D6BF" d="M443.073,169.978l-7.625,9.008c0.896,3.444,1.614,6.946,2.247,10.396
				c3.554,0.306,6.965,0.908,10.566,1.448l8.424-8.265c-0.534-3.803-1.03-7.806-1.827-11.657
				C450.895,170.472,446.995,170.127,443.073,169.978z"/>
		</g>
		<g>
			<path fill="#F8D6BF" d="M339.781,117.154c-3.474,1.899-6.854,3.967-10.129,6.072l-0.961,11.76
				c2.73,2.338,5.361,4.683,7.877,7.171c3.066-1.785,6.201-3.345,9.439-4.952l2.042-11.615
				C345.404,122.762,342.664,119.85,339.781,117.154z"/>
		</g>
		<g>
			<path fill="#F8D6BF" d="M390.036,137.756l-4.502,10.908c1.904,3.014,3.673,6.101,5.322,9.215
				c3.473-0.779,6.915-1.279,10.497-1.843l5.492-10.446c-1.664-3.475-3.376-7.111-5.309-10.538
				C397.645,135.814,393.813,136.71,390.036,137.756z"/>
		</g>
		<g>
			<path fill="#F8D6BF" d="M231.694,152.951l-5.112-10.643c-3.856-0.879-7.747-1.587-11.64-2.065
				c-1.661,3.668-3.317,7.111-4.719,10.783l6.076,10.12c3.543,0.262,7.168,0.842,10.606,1.297
				C228.334,159.171,229.939,156.023,231.694,152.951z"/>
		</g>
		<g>
			<path fill="#F8D6BF" d="M280.131,143.671c2.393-2.499,4.865-5.16,7.471-7.558l-1.611-11.69c-3.4-2.006-6.864-3.713-10.458-5.541
				c-2.711,2.939-5.31,5.893-7.785,8.887l2.687,11.487C273.751,140.655,276.986,142.144,280.131,143.671z"/>
		</g>
		<g>
			<path fill="#F8D6BF" d="M140.241,247.79c2.971-1.882,6.181-3.549,9.334-5.129c-0.59-3.412-1.383-7.05-1.679-10.529l-10.358-5.681
				c-3.715,1.489-7.027,3.314-10.628,5.111c0.691,3.899,1.431,7.697,2.491,11.523L140.241,247.79z"/>
		</g>
		<g>
			<path fill="#F8D6BF" d="M171.474,198.52c3.376-0.913,7.069-1.402,10.478-2.023c0.407-3.508,0.889-7.076,1.639-10.516
				l-8.125-8.568c-3.959,0.313-7.8,0.909-11.701,1.598c-0.454,3.999-1.045,7.729-1.174,11.727L171.474,198.52z"/>
		</g>
		<g>
			<polygon fill="#F8D6BF" points="128.345,360.097 121.887,350.582 110.073,350.438 103.106,360.419 110.35,370.218 
				122.157,369.777 			"/>
		</g>
		<g>
			<path fill="#F8D6BF" d="M125.294,305.673l7.568-8.429l-4.802-10.263l-11.598-2.246c-3.047,2.525-5.65,5.605-8.52,8.473
				l5.643,10.886L125.294,305.673z"/>
		</g>
		<g>
			<path fill="#F8D6BF" d="M114.869,416.839l-5.489,11.062c2.882,2.932,5.582,5.831,8.733,8.625l11.596-2.25
				c1.256-3.571,2.988-7.141,4.545-10.645l-7.7-8.532L114.869,416.839z"/>
		</g>
		<g>
			<path fill="#F8D6BF" d="M129.511,482.463c-1.327,3.887-2.806,7.862-3.972,11.803l10.068,7.422l11.201-3.746l2.799-11.258
				c-3.056-2.453-5.82-4.999-8.766-7.554L129.511,482.463z"/>
		</g>
		<g>
			<polygon fill="#F8D6BF" points="163.351,541.759 152.484,546.388 150.199,558.543 160.913,564.928 171.633,559.98 
				173.263,548.313 			"/>
		</g>
		<g>
			<polygon fill="#F8D6BF" points="193.003,602.299 182.631,607.95 181.412,620.386 192.597,625.865 202.816,619.95 
				203.411,608.038 			"/>
		</g>
		<g>
			<polygon fill="#F8D6BF" points="228.093,660.608 218.214,667.073 217.924,679.667 229.714,684.188 239.448,677.514 
				238.874,665.618 			"/>
		</g>
		<g>
			<polygon fill="#F8D6BF" points="267.653,716.58 258.247,723.716 258.986,736.232 270.973,740.058 280.245,732.752 
				278.939,720.807 			"/>
		</g>
		<g>
			<polygon fill="#F8D6BF" points="311.088,770.089 302.13,777.776 303.535,790.329 315.811,793.399 324.638,785.561 
				322.529,773.742 			"/>
		</g>
		<g>
			<polygon fill="#F8D6BF" points="357.629,821.205 349.112,829.381 351.232,841.834 363.645,844.254 372.029,835.945 
				369.289,824.229 			"/>
		</g>
		<g>
			<polygon fill="#F8D6BF" points="524.727,852.699 518.006,862.683 522.9,873.425 535.361,875.568 541.76,864.674 536.698,854.01 
							"/>
		</g>
		<g>
			<polygon fill="#F8D6BF" points="645.903,788.068 640.442,798.77 646.515,808.895 659.077,809.578 664.213,798.136 
				657.952,788.128 			"/>
		</g>
		<g>
			<polygon fill="#F8D6BF" points="586.354,822.086 580.191,832.391 585.659,842.85 598.225,844.337 603.995,833.096 
				598.351,822.727 			"/>
		</g>
		<g>
			<polygon fill="#F8D6BF" points="756.585,709.494 752.905,720.846 760.357,730.001 772.753,728.86 776.036,716.797 
				768.353,707.83 			"/>
		</g>
		<g>
			<polygon fill="#F8D6BF" points="702.966,750.716 698.199,761.624 704.928,771.322 717.557,771.294 721.759,759.412 
				714.824,749.858 			"/>
		</g>
		<g>
			<path fill="#F8D6BF" d="M860.937,611.282c-3.667,1.34-7.139,2.746-10.888,3.938l-1.388,11.517l9.133,7.488l12.046-3.354
				c0.332-4.082,0.349-8.331,0.5-12.434L860.937,611.282z"/>
		</g>
		<g>
			<polygon fill="#F8D6BF" points="817.601,661.796 806.008,664.393 803.38,675.877 811.638,684.323 823.921,682.163 
				826.11,669.984 			"/>
		</g>
		<g>
			<polygon fill="#F8D6BF" points="924.405,497.924 914.987,504.522 917.329,515.763 928.203,520.382 938.459,513.798 
				935.494,501.993 			"/>
		</g>
		<g>
			<path fill="#F8D6BF" d="M897.083,556.545l-10.227,5.227c0.216,3.836,0.543,7.777,0.447,11.562l10.036,6.23
				c3.938-1.491,7.51-3.226,11.241-4.943l-1.197-12.29L897.083,556.545z"/>
		</g>
		<g>
			<path fill="#F8D6BF" d="M955.579,394.821c2.352-3.206,4.392-6.493,6.426-9.891c-2.729-2.959-5.182-5.837-8.123-8.549
				l-11.701,1.628c-1.513,3.147-3.544,6.26-5.308,9.245c2.384,2.598,4.797,5.298,6.906,8.106L955.579,394.821z"/>
		</g>
		<g>
			<path fill="#F8D6BF" d="M941.238,436.323l-8.127,7.882l4.076,10.562l11.507,2.68l9.143-8.164
				c-1.663-3.7-2.996-7.504-4.955-10.936L941.238,436.323z"/>
		</g>
		<g>
			<path fill="#F8D6BF" d="M1034.136,411.244c1.852-29.087-0.892-58.407-7.703-86.659c-13.502-11.505-27.075-21.393-41.523-29.235
				c4.378-16.004,6.9-32.898,7.965-50.715c-15.306-24.586-34.173-46.904-56.084-65.662c-17.454-1.6-34.45-1.288-50.628,0.718
				c-5.703-15.422-13.26-30.795-22.691-45.722c-26.611-11.047-54.77-17.808-83.431-20.114c-15.17,8.999-28.868,19.245-40.933,30.383
				c-13.499-9.157-28.49-17.18-44.758-23.739c-14.009,3.344-27.767,7.797-41.104,13.29c-14.313,6.031-23.719,10.906-34.825,16.063
				l-19.767,43.018l-29.372-19.714l-34.461,7.986l-3.193-47.234c-8.548-8.767-15.607-16.673-26.846-27.392
				c-10.514-9.881-21.793-18.933-33.7-27.032c-17.538,0.342-34.403,2.519-50.275,6.275c-7.322-14.694-16.483-29.145-27.468-42.943
				c-27.615-8.032-56.341-11.715-85.14-10.847c-14.123,10.606-26.651,22.289-37.459,34.672
				c-14.416-7.621-30.194-13.947-47.076-18.655c-27.15,9.751-52.717,23.913-75.761,41.454c-5.333,17.039-8.984,33.726-10.577,50.241
				c-16.289,2.196-32.492,6.626-49.204,12.581c-16.401,23.993-29.39,50.429-37.983,78.284c5.568,16.849,11.875,32.863,20.379,46.681
				c-11.594,10.873-23.953,22.606-34.424,35.365l-1.264,20.164c-0.292,6.716,0.013,13.413,0.009,20.127
				c0.132,6.696,0.022,13.427,0.397,20.093l1.617,19.946c10.751,12.383,23.104,23.622,34.764,34.258
				c-8.196,14.153-14.722,28.65-21.892,44.018c3.177,12.715,6.765,25.29,10.375,37.838c4.233,12.261,7.971,24.783,12.685,36.798
				c14.191,8.327,27.715,16.358,42.142,23.333c-4.237,15.443-8.182,31.328-11.311,47.265c11.165,22.998,23.775,45.007,36.779,66.68
				c15.027,5.491,30.395,10.229,45.265,14.882c-1.434,15.735-2.862,31.935-3.683,48.073c14.611,20.338,29.665,40.301,45.449,59.557
				c15.507,3.275,31.289,5.884,46.655,8.497c0.475,15.789,0.969,31.965,2.029,47.967c16.68,18.377,33.908,36.194,51.597,53.571
				c15.839,1.384,31.624,2.443,47.329,3.172l-0.834,32.45l43.488,47.045c0,0,30.299-11.63,53.176-20.677
				c0,0,14.945-38.536,14.945-38.536c14.942,4.888,30.076,9.497,45.373,13.814c22.697-9.97,45.121-20.515,67.231-31.779
				c6.663-14.583,12.865-29.523,18.911-44.127c15.29,3.025,30.966,6.177,46.625,8.621c21.584-12.398,42.746-25.695,63.622-39.527
				c4.967-15.364,9.377-31.028,13.632-46.233c15.552,0.936,31.592,1.961,47.592,2.183c19.854-15.631,39.46-31.722,58.07-49.238
				c2.74-16.008,4.714-32.243,6.24-48.19c15.96-1.386,31.466-4.059,47.681-6.801c8.691-9.534,16.628-19.924,24.944-29.874
				c7.86-10.416,15.659-20.918,23.172-31.65c-1.226-16.91-2.181-32.787-4.786-48.918c14.671-5.792,30.231-11.891,44.68-19.639
				l8.609-18.061c2.737-6.094,5.019-12.433,7.531-18.643c2.385-6.27,5.046-12.428,7.17-18.808l5.992-19.296
				c-5.247-15.659-12.631-31.019-19.599-45.308C1011.358,437.747,1022.942,425.019,1034.136,411.244z M1018.062,410.261
				c-7.393,8.569-14.955,16.42-23.01,23.508l-17.587-2.916l-3.971-7.901c0.521-2.851,0.672-5.745,0.953-8.621l5.714-6.394
				c-1.492-2.393-3.237-4.752-4.845-7.043l0.216-8.67l4.884-7.349l17.825-0.753C1005.393,392.139,1011.767,400.865,1018.062,410.261
				z M983.997,309.933c9.203,5.422,17.947,11.716,26.811,18.7c-4.548,10.45-9.302,20.238-14.879,29.486l-17.653,2.675l-6.144-6.287
				c-0.375-2.867-1.157-5.655-1.713-8.481l3.545-7.861l-6.778-5.186c-0.83-2.759-1.428-5.593-2.443-8.294l2.485-8.519
				L983.997,309.933z M948.032,243.803c10.362,2.342,20.71,5.54,31.161,9.511c-1.144,11.316-2.704,22.093-5.265,32.624
				l-16.027,8.001l-7.71-4.097l-4.224-7.515c0.337-2.792,0.81-5.738,0.97-8.544l-7.99-2.858c-1.554-2.41-3.088-4.842-4.857-7.106
				l-0.169-8.895L948.032,243.803z M893.785,192.069c10.61-1.028,21.406-1.114,32.577-0.606c2.385,11.044,4.071,21.868,4.801,32.669
				l-12.868,12.572l-8.577-1.514l-6.245-5.898l-1.693-8.378l-8.455-0.275c-2.181-1.858-4.532-3.483-6.79-5.244
				c-0.844-2.848-1.862-5.549-2.851-8.387L893.785,192.069z M826.425,159.699c9.755-4.101,20.124-7.817,30.872-10.624
				c5.635,9.689,10.473,19.534,14.477,29.48l-8.472,15.937c-2.911,0.342-5.811,0.792-8.689,1.313
				c-2.542-1.301-5.115-2.533-7.732-3.675c-1.313-2.502-2.678-5.02-4.139-7.45c-2.76,0.765-5.439,1.453-8.134,2.329
				c-2.69-0.945-5.334-2.024-8.06-2.87l-5.247-7.11L826.425,159.699z M778.69,130.125c8.295,7.398,15.86,15.459,22.668,23.523
				l-3.269,17.776l-7.91,3.958c-2.808-0.491-5.653-0.736-8.479-1.119c-2-2.035-4.074-3.843-6.191-5.783
				c-2.4,1.505-4.753,3.074-7.059,4.732c-2.849-0.128-5.696-0.28-8.55-0.249c-2.327-1.712-4.708-3.546-7.144-5.142l-0.322-18.059
				C760.508,142.79,769.279,136.149,778.69,130.125z M697.971,136.379l-0.001,0.006c10.148,4.452,19.781,9.792,28.732,15.34
				l2.222,17.914l-6.339,6.205l-8.423,1.56c-2.514-1.277-5.047-2.391-7.648-3.573l0.001-0.006c-1.838,2.164-3.599,4.422-5.306,6.697
				c-2.763,0.734-5.513,1.507-8.229,2.411c-2.745-0.93-5.554-1.898-8.361-2.673l-5.758-17.075
				C684.444,154.032,690.818,145.041,697.971,136.379z M625.191,164.624l29.741,8.385l7.495,16.356l-4.587,7.886l-8.18,3.884
				l-8.507-1.68l-4.206,7.708l-8.178,3.878l-8.888-1.497l-7.498-16.357L625.191,164.624z M489.266,142.576l30.782,2.733l1.82,31.251
				l-12.822,12.624l-8.84-1.76l-6.268-6.538l-1.193-8.694l-8.544-1.458l-6.27-6.532l-1.487-9.001L489.266,142.576z M429.739,97.166
				c10.34-1.998,21.242-3.572,32.31-4.127c3.61,10.633,6.371,21.301,8.338,31.849l-11.447,13.908
				c-2.901-0.273-5.872-0.368-8.768-0.474c-2.218-1.81-4.515-3.51-6.838-5.179c-0.784-2.726-1.628-5.463-2.577-8.139
				c-2.855,0.186-5.615,0.321-8.423,0.627l-7.317-4.458l-3.725-8.047L429.739,97.166z M388.816,58.504
				c6.658,8.975,12.497,18.294,17.569,27.682l-6.721,16.772c-2.844,0.626-5.721,1.494-8.504,2.268
				c-2.655-1.05-5.375-1.914-8.084-2.807c-1.566-2.369-3.208-4.672-4.915-6.938l-0.003-0.001c-2.666,1.067-5.248,2.019-7.84,3.211
				c-2.778-0.646-5.524-1.435-8.326-1.968l-5.983-6.51l3.256-17.779C368.496,67.317,378.43,62.47,388.816,58.504z M308.598,48.283
				c9.052,6.444,17.423,13.603,25.085,20.897l-1.37,18.02l-7.432,4.787c-2.845-0.183-5.705-0.109-8.554-0.181
				c-2.208-1.777-4.468-3.372-6.776-5.069c-2.228,1.746-4.399,3.621-6.519,5.486c-2.849,0.138-5.693,0.381-8.532,0.694
				c-2.505-1.516-5.059-2.955-7.656-4.31l-2.259-17.915C291.867,62.82,299.885,55.336,308.598,48.283z M228.97,63.366
				c10.626,3.49,20.686,7.414,30.241,12.14l4.133,17.555c-1.934,2.301-3.845,4.464-5.647,6.826c-2.734,0.838-5.512,1.532-8.21,2.488
				l-8.003-2.743l-4.557,7.23l-7.935,3.293l-8.559-1.628l-7.554-16.33C217.399,82.36,222.815,72.842,228.97,63.366z
				 M157.604,102.415c11.184,0.004,21.992,0.686,32.512,2.186l9.239,15.404l-3.32,8.254c-2.456,1.482-4.751,3.216-7.063,4.923
				l-8.486-0.169c-0.846,2.68-1.451,5.595-2.128,8.331l-6.62,5.523l-8.663,1.096l-12.139-13.182
				C152.282,124.034,154.654,113.4,157.604,102.415z M132.997,153.637l13.461,11.788l-0.707,8.839
				c-1.904,2.17-3.473,4.606-5.229,6.89l-8.179,2.439l0.523,8.608c-1.522,2.45-3.25,4.777-4.617,7.324l-7.977,3.692l-15.551-8.775
				c-1.926-10.62-2.894-21.459-3.433-32.85C112.059,158.216,122.468,155.434,132.997,153.637z M65.513,235.329
				c9.217-6.547,18.278-12.437,27.811-17.388l16.394,7.033l1.953,8.605l-2.875,8.175c-2.316,1.576-4.791,3.16-7.03,4.867
				l3.067,8.013c-0.762,2.788-1.643,5.542-2.17,8.392L96.143,269l-17.476-3.513C73.658,255.993,69.374,245.965,65.513,235.329z
				 M63.01,301.977l11.731-11.089l17.68,2.303l4.033,7.894c-0.505,2.916-0.757,5.865-0.886,8.819l-5.54,6.525l4.661,7.243
				l-0.57,8.858c-1.9,2.381-3.728,4.788-5.335,7.236l-17.834-0.237c-6.713-8.213-12.537-16.807-18.797-25.796L63.01,301.977z
				 M63.96,402.752l-11.067-11.404c6.106-9.101,11.759-17.816,18.34-26.244l17.82-0.797c1.671,2.395,3.495,4.756,5.456,7.081
				l0.732,8.863l-4.528,7.384l5.66,6.383c0.182,2.961,0.502,5.911,1.012,8.834l-3.973,8.011l-17.654,2.65L63.96,402.752z
				 M65.376,467.26c4.753-9.838,9.588-19.377,14.487-28.613l17.505-3.554l6.566,6.16l1.869,8.713l-3.52,8.02
				c2.092,1.879,4.382,3.684,6.662,5.468l2.379,8.597l-2.96,8.549l-17.134,5.099C82.7,479.825,73.796,473.773,65.376,467.26z
				 M115.467,555.084c-9.121-4.807-18.331-9.841-27.622-15.099c3.09-10.069,7.175-20.314,10.876-30.086l16.908-5.832l7.189,5.305
				l2.835,8.465l-2.291,8.338l7.317,4.612l3.26,8.32l-2.032,8.892L115.467,555.084z M146.965,621.14
				c-9.856-3.676-19.257-7.849-28.949-12.094c2.368-10.436,4.683-20.617,7.642-30.89l16.189-7.669l7.641,4.535l3.954,8.028
				l-1.474,8.575l7.669,3.886l3.989,8.016l-0.963,8.959L146.965,621.14z M183.994,683.968c-9.855-3.027-20.094-5.977-29.876-9.466
				l4.946-31.336l15.438-9.123l8.201,3.73l4.58,7.704l-0.802,8.723l7.948,3.233l4.833,7.553l-0.311,9.066L183.994,683.968z
				 M225.405,743.76l-30.355-7.294c0.622-10.492,1.76-21.204,2.756-31.602l14.709-10.289l8.389,3.147l5.065,7.404l-0.089,8.712
				l8.247,2.596l5.27,7.263l0.256,9.121L225.405,743.76z M270.642,800.492c-10.214-1.623-20.566-3.29-30.762-5.28
				c0.165-10.65,0.268-21.076,0.722-31.617l14.01-11.251l8.581,2.589l5.63,6.989l0.421,8.738l8.33,2.129l5.764,6.878l0.874,9.037
				L270.642,800.492z M318.951,854.49c-10.35-0.981-20.629-2.202-30.989-3.512c-0.526-10.523-0.843-21.083-1.029-31.593
				l13.339-12.06l8.714,2.095l5.981,6.695l0.941,8.673l8.473,1.618l6.087,6.597l1.388,8.959L318.951,854.49z M338.952,903.918
				c-1.052-10.521-1.976-20.995-2.718-31.484l12.676-12.774l8.815,1.613l6.351,6.337l1.389,8.625l8.531,1.166l6.473,6.205
				l1.83,8.904l-12.214,13.224C359.785,905.225,349.32,904.705,338.952,903.918z M524.833,937.967
				c-9.971-2.944-19.942-6.165-29.752-9.339l-6.731-16.698l4.867-7.674l8.251-3.506l8.391,1.931l4.357-7.569l8.184-3.673
				l8.814,1.619l7.322,16.436C534.122,919.042,529.544,928.504,524.833,937.967z M591.273,906.562
				c-10.15-2.451-20.192-4.963-30.215-7.713l-7.622-16.293l4.473-7.888l8.031-4.004l8.497,1.493l3.956-7.773l7.967-4.139
				l8.887,1.138l8.194,16.003C599.538,887.152,595.496,896.905,591.273,906.562z M656.005,871.489
				c-10.239-1.757-20.511-3.879-30.634-5.98l-8.5-15.843l4.026-8.137l7.829-4.381l8.544,0.97l3.492-8.019l7.745-4.538l8.942,0.623
				l9.103,15.497C663.227,851.69,659.628,861.481,656.005,871.489z M718.759,832.501l-30.958-3.964l-9.434-15.286l3.479-8.441
				l7.504-4.916l8.632,0.505l3.012-8.169l7.363-5.127l8.957,0.039l10.095,14.845C724.645,812.055,721.907,822.479,718.759,832.501z
				 M779.029,789.14c-10.388-0.228-20.999-1.103-31.288-1.776l-10.456-14.584l2.931-8.585l7.201-5.342l8.581-0.196l2.351-8.438
				l7.016-5.574l8.991-0.572l11.183,14.02L779.029,789.14z M804.678,741.81l-11.591-13.674l2.284-8.716l6.582-6.067l8.549-0.9
				l1.669-8.545l6.557-6.091l8.754-1.518l12.4,12.921c-0.886,10.66-2.353,20.984-3.843,31.582
				C825.474,741.331,815.194,741.876,804.678,741.81z M857.614,691.29l-12.843-12.471l1.263-9.034l6.005-6.618l8.477-1.704
				l0.835-8.606l5.66-6.904l8.601-2.398l13.726,11.472c-0.007,10.457,0.145,21.468-0.543,31.978
				C878.243,688.618,867.843,690.043,857.614,691.29z M904.956,635.084l-14.197-10.867l0.279-9.042l5.281-7.19
				c2.754-0.865,5.559-1.721,8.178-2.729l-0.436-8.753l4.846-7.474l8.325-3.418l15.094,9.549
				c1.289,10.379,2.414,21.019,3.354,31.903C925.476,630.138,915.02,632.634,904.956,635.084z M959.963,567.29l-14.854,5.858
				l-15.555-8.763l-0.863-8.905c1.518-2.557,2.884-5.184,4.1-7.888l7.559-3.955l-1.605-8.51l3.835-8.024
				c2.654-1.477,5.214-3.026,7.624-4.672l16.372,7.091c3.137,10.213,5.331,20.375,7.796,31.051L959.963,567.29z M996.716,473.448
				l5.965,14.852c-9.047,6.171-17.542,12.134-26.746,17.417l-16.752-6.117c-0.631-2.865-1.473-5.762-2.407-8.664l2.614-8.476
				l6.934-5.113l-2.857-8.061c0.931-2.813,1.745-5.653,2.31-8.563l6.575-5.945l17.341,4.137L996.716,473.448z"/>
		</g>
		<g>
			<path fill="#F8D6BF" d="M943.154,334.094c1.302-3.782,2.069-7.474,3.067-11.373c-3.398-2.03-6.781-3.947-10.372-5.653
				l-10.638,5.127c-0.52,3.476-1.335,6.982-2.205,10.412c2.967,1.786,6.249,3.557,9.08,5.61L943.154,334.094z"/>
		</g>
		<g>
			<path fill="#F8D6BF" d="M912.158,268.307c-3.809-0.937-7.698-1.657-11.613-2.2l-8.56,8.125c0.549,3.495,0.93,7.009,1.102,10.581
				c3.376,0.791,6.968,1.536,10.379,2.552l9.274-7.306C912.73,276.138,912.408,272.319,912.158,268.307z"/>
		</g>
		<g>
			<polygon fill="#F8D6BF" points="899.449,233.601 899.449,233.601 899.452,233.602 			"/>
		</g>
		<g>
			<path fill="#F8D6BF" d="M807.708,222.984l3.283-11.333c-2.312-3.132-4.741-6.267-7.313-9.276
				c-3.653,1.495-7.249,3.243-10.723,4.941l-2.217,11.589c2.455,2.653,4.829,5.218,7.06,7.983
				C801.034,225.456,804.326,224.193,807.708,222.984z"/>
		</g>
		<g>
			<path fill="#F8D6BF" d="M851.371,228.279l-5.657,10.349c1.582,3.174,2.946,6.534,4.297,9.726
				c3.482-0.315,7.031-0.552,10.628-0.682l6.597-9.787c-1.249-3.679-2.628-7.363-4.12-11.068
				C859.106,227.242,855.261,227.613,851.371,228.279z"/>
		</g>
		<g>
			<path fill="#F8D6BF" d="M749.39,203.777c-3.159-2.32-6.423-4.52-9.793-6.623c-3.025,2.522-5.912,5.308-8.705,7.97l1.422,11.71
				c3.148,1.801,6.189,3.491,9.156,5.46c2.649-2.33,5.399-4.581,8.249-6.728L749.39,203.777z"/>
		</g>
		<g>
			<path fill="#F8D6BF" d="M688.369,215.046c-3.723-1.256-7.49-2.325-11.349-3.32c-2.11,3.311-3.997,6.882-5.848,10.241
				l4.938,10.726c3.557,0.769,6.958,1.424,10.388,2.401c1.818-3,3.732-6.019,5.797-8.918L688.369,215.046z"/>
		</g>
		<g>
			<polygon fill="#F8D6BF" points="514.872,305.363 527.379,318.215 532.089,307.4 526.234,301.385 			"/>
		</g>
		<g>
			<polygon fill="#F8D6BF" points="556.329,311.853 556.885,323.636 573.144,316.068 563.941,308.312 			"/>
		</g>
	</g>
	<g>
		<path fill="#F05827" d="M782.846,191.22l-0.263-0.048c-44.604-8.194-90.653-2.3-131.756,16.864l-96.196,44.852l-73.974-76.113
			c-31.608-32.521-72.555-54.397-117.16-62.591l-0.263-0.048c-42.601-7.826-86.567-2.809-126.309,14.415l0,0
			c-66.818,28.957-114.808,89.312-127.966,160.936l0,0c-59.734,325.161,323.399,628.986,323.4,628.987
			c0.007-0.003,466.233-148.526,525.836-472.978l0,0c13.158-71.624-10.248-145.095-62.412-195.909l0,0
			C864.759,219.362,825.447,199.046,782.846,191.22z"/>
	</g>
	<g>
		<path fill="#F05827" d="M782.846,191.22l-0.263-0.048c-44.604-8.194-90.653-2.3-131.756,16.864l-96.196,44.852l-73.974-76.113
			c-31.608-32.521-72.555-54.397-117.16-62.591l-0.263-0.048c-42.601-7.826-86.567-2.809-126.309,14.415l0,0
			c-66.818,28.957-114.808,89.312-127.966,160.936l0,0c-59.734,325.161,323.399,628.986,323.4,628.987
			c0.007-0.003,466.233-148.526,525.836-472.978l0,0c13.158-71.624-10.248-145.095-62.412-195.909l0,0
			C864.759,219.362,825.447,199.046,782.846,191.22z"/>
	</g>
	<g>
		<g>
			<g>
				<path fill="#881D1A" d="M438.011,887.597l-1.956-1.68c-2.919-2.507-6.273-5.426-10.014-8.732l5.842-6.613
					c2.899,2.563,5.562,4.89,7.97,6.97c2.988-1.092,6.303-2.324,9.919-3.692l3.123,8.25c-4.67,1.768-8.84,3.309-12.463,4.62
					L438.011,887.597z"/>
			</g>
			<g>
				<path fill="#881D1A" d="M406.249,859.224c-6.449-5.992-12.967-12.186-19.373-18.411l6.148-6.329
					c6.361,6.18,12.832,12.329,19.231,18.277L406.249,859.224z M367.916,821.986c-6.238-6.33-12.478-12.799-18.548-19.23
					l6.415-6.056c6.027,6.385,12.224,12.808,18.419,19.093L367.916,821.986z M331.235,783.122
					c-5.954-6.594-11.905-13.333-17.687-20.03l6.678-5.766c5.741,6.648,11.647,13.339,17.558,19.884L331.235,783.122z
					 M296.322,742.649c-5.693-6.923-11.32-13.94-16.726-20.857l6.953-5.432c5.359,6.859,10.94,13.818,16.588,20.684L296.322,742.649
					z M263.406,700.516c-5.348-7.224-10.604-14.528-15.617-21.708l7.233-5.051c4.967,7.114,10.174,14.35,15.475,21.51
					L263.406,700.516z M232.793,656.662c-4.928-7.511-9.749-15.114-14.329-22.599l7.526-4.605
					c4.532,7.407,9.301,14.931,14.178,22.364L232.793,656.662z M204.87,611.002c-4.435-7.829-8.737-15.745-12.784-23.529
					l7.828-4.071c3.998,7.691,8.25,15.513,12.633,23.251L204.87,611.002z M180.184,563.471c-3.845-8.152-7.52-16.388-10.925-24.481
					l8.134-3.422c3.356,7.979,6.979,16.099,10.77,24.139L180.184,563.471z M159.422,514.041c-3.119-8.479-6.027-17.032-8.644-25.421
					l8.422-2.627c2.572,8.249,5.433,16.66,8.502,25.002L159.422,514.041z M143.462,462.767c-2.221-8.749-4.192-17.576-5.859-26.235
					l8.664-1.669c1.635,8.492,3.569,17.151,5.747,25.735L143.462,462.767z M133.33,409.975c-1.152-8.935-2.014-17.949-2.563-26.79
					l8.806-0.547c0.536,8.648,1.381,17.466,2.507,26.209L133.33,409.975z M138.861,356.343l-8.823-0.073
					c0.073-9.011,0.48-18.066,1.206-26.913l8.793,0.722C139.329,338.71,138.932,347.547,138.861,356.343z M143.176,303.985
					l-8.715-1.385c0.435-2.732,0.903-5.457,1.402-8.172c1.135-6.179,2.587-12.359,4.315-18.369l8.478,2.438
					c-1.648,5.732-3.033,11.629-4.116,17.525C144.053,298.67,143.598,301.324,143.176,303.985z M516.577,265.638l-18.555-19.09
					l6.329-6.15l18.555,19.09L516.577,265.638z M157.589,254.109l-8.048-3.617c3.711-8.259,8.054-16.326,12.909-23.975l7.449,4.728
					C165.27,238.541,161.128,246.233,157.589,254.109z M479.469,227.457l-18.555-19.09l6.329-6.15l18.555,19.09L479.469,227.457z
					 M185.343,210.37l-6.699-5.741c5.896-6.881,12.338-13.393,19.145-19.354l5.812,6.637
					C197.111,197.598,190.968,203.808,185.343,210.37z M442.086,190.154c-6.587-5.617-13.622-10.795-20.907-15.392l4.709-7.462
					c7.64,4.82,15.016,10.25,21.924,16.139L442.086,190.154z M224.299,176.243l-4.812-7.397c7.578-4.928,15.591-9.363,23.815-13.178
					l3.714,8.002C239.171,167.311,231.528,171.54,224.299,176.243z M398.281,162.525c-7.871-3.502-16.086-6.473-24.418-8.83
					l2.4-8.489c8.737,2.471,17.351,5.587,25.607,9.259L398.281,162.525z M271.29,154.425l-2.546-8.448
					c8.681-2.617,17.618-4.63,26.562-5.98l1.318,8.724C288.093,150.01,279.572,151.928,271.29,154.425z M348.424,148.389
					c-8.198-1.123-16.534-1.693-24.778-1.693l-1.144,0.003l-0.047-8.823l1.191-0.003c8.642,0,17.383,0.597,25.976,1.775
					L348.424,148.389z"/>
			</g>
			<g>
				<polygon fill="#881D1A" points="546.611,296.539 535.201,284.8 541.53,278.65 548.567,285.892 557.722,281.625 561.448,289.621 
									"/>
			</g>
			<g>
				<path fill="#881D1A" d="M477.893,872.275l-3.326-8.172c8.073-3.287,16.304-6.744,24.459-10.275l3.507,8.095
					C494.317,865.482,486.026,868.965,477.893,872.275z M526.936,851.042l-3.679-8.019c8.017-3.679,16.091-7.487,23.994-11.322
					l3.851,7.938C543.141,843.501,535.011,847.337,526.936,851.042z M575.014,827.715l-4.024-7.852
					c7.873-4.036,15.77-8.194,23.468-12.361l4.2,7.759C590.902,819.46,582.948,823.65,575.014,827.715z M622.013,802.261
					l-4.381-7.658c7.711-4.414,15.399-8.938,22.848-13.449l4.571,7.548C637.54,793.25,629.789,797.812,622.013,802.261z
					 M667.742,774.558l-4.765-7.425c7.494-4.809,14.932-9.726,22.105-14.611l4.967,7.291
					C682.809,764.746,675.304,769.706,667.742,774.558z M711.934,744.442l-5.178-7.145c7.195-5.213,14.327-10.551,21.2-15.867
					l5.398,6.979C726.407,733.781,719.202,739.175,711.934,744.442z M754.252,711.686l-5.626-6.794
					c6.833-5.662,13.588-11.462,20.074-17.239l5.868,6.587C768.004,700.089,761.169,705.958,754.252,711.686z M794.225,676.039
					l-6.122-6.354c6.404-6.169,12.679-12.47,18.65-18.728l6.385,6.092C807.08,663.395,800.717,669.785,794.225,676.039z
					 M831.21,637.233l-6.656-5.792c5.825-6.694,11.49-13.534,16.834-20.332l6.936,5.454
					C842.889,623.475,837.131,630.429,831.21,637.233z M864.35,595.018l-7.22-5.071c5.092-7.252,9.98-14.652,14.527-21.995
					l7.5,4.644C874.521,580.084,869.539,587.627,864.35,595.018z M892.6,549.308l-7.776-4.168
					c4.177-7.792,8.101-15.731,11.666-23.593l8.035,3.643C900.88,533.229,896.869,541.343,892.6,549.308z M914.782,500.299
					l-8.272-3.069c3.059-8.241,5.831-16.64,8.239-24.962l8.474,2.453C920.755,483.25,917.916,491.855,914.782,500.299z
					 M929.723,448.572l-8.638-1.801c0.543-2.6,1.053-5.203,1.532-7.811c1.088-5.931,1.893-11.969,2.389-17.948l8.793,0.73
					c-0.519,6.266-1.364,12.595-2.505,18.81C930.802,443.229,930.279,445.903,929.723,448.572z M925.311,395.047
					c-0.517-8.625-1.659-17.286-3.395-25.743l8.642-1.775c1.82,8.867,3.018,17.948,3.558,26.99L925.311,395.047z M914.89,344.309
					c-2.927-8.129-6.464-16.117-10.516-23.739l7.789-4.141c4.25,7.993,7.959,16.367,11.029,24.89L914.89,344.309z M890.579,298.571
					c-5.09-6.963-10.738-13.632-16.782-19.823l6.311-6.165c6.337,6.49,12.256,13.481,17.592,20.779L890.579,298.571z
					 M585.573,278.372l-3.727-7.996l24.127-11.248l3.727,7.996L585.573,278.372z M854.379,261.487
					c-6.858-5.273-14.146-10.091-21.659-14.318l4.325-7.69c7.879,4.434,15.522,9.485,22.71,15.014L854.379,261.487z
					 M633.826,255.875l-3.727-7.996l24.127-11.247l3.727,7.996L633.826,255.875z M809.234,236.092
					c-8.037-3.108-16.388-5.671-24.825-7.616l1.982-8.597c8.844,2.038,17.601,4.724,26.027,7.984L809.234,236.092z M682.021,234.285
					l-2.968-8.308c8.547-3.053,17.37-5.513,26.228-7.31l1.753,8.646C698.59,229.027,690.174,231.373,682.021,234.285z
					 M758.743,224.41c-8.608-0.754-17.346-0.893-25.963-0.409l-0.491-8.81c9.03-0.503,18.204-0.36,27.225,0.431L758.743,224.41z"/>
			</g>
		</g>
	</g>
	<g>
		<path fill="#F8D6BF" d="M204.661,329.679c2.93-3.546,24.476-30.615,36.477-46.103c7.449-9.618,15.399-18.839,23.193-28.188
			c8.282-9.932,16.662-19.763,24.946-29.693c2.423-2.917,4.64-6.023,7.031-8.98c0.952-1.18,1.992-2.305,3.143-3.294
			c3.11-2.682,5.262-2.326,9.14,0.345c8.015,5.542,15.285,12.209,24.089,16.547c1.223,0.607,2.404,1.422,3.5,2.279
			c11.972,9.389,23.501,19.32,33.551,30.704c7.604,8.62,14.234,17.902,18.977,28.194c2.469,5.344,3.449,10.798,4.114,16.302
			c1.355,11.199-0.065,21.784-3.989,31.606c-2.55,6.389-5.299,12.814-9.952,17.902c-4.289,4.702-8.67,9.372-13.857,13.161
			c-4.838,3.541-10.283,6.294-16.03,8.291c-6.951,2.417-14.021,4.803-21.788,5.064c-2.701,0.086-3.903,1.092-4.463,3.63
			c-2.908,13.084-6.206,26.034-8.974,39.152c-1.721,8.093-3.625,16.099-6.061,23.923c-1.01,3.246-1.467,6.69-1.736,10.18
			c-0.243,3.171-0.838,6.245-2.824,8.713c-2.458,3.05-5.273,3.401-8.95,0.737c-2.117-1.525-4.069-3.315-5.973-5.096
			c-1.921-1.803-3.854-3.459-6.204-4.724c-3.238-1.74-5.913-4.336-8.526-6.897c-2.91-2.858-6.085-5.206-9.794-6.802
			c-0.478-0.205-0.937-0.457-1.389-0.698c-7.444-4.101-10.018-9.135-7.959-16.382c1.984-7.007,4.429-13.825,6.484-20.802
			c2.094-7.113,5.109-13.842,6.413-21.299c0.638-3.668,2.18-7.085,3.328-10.607c2.611-8.004,1.878-10.087-5.596-16.009
			c-3.518-2.794-6.798-2.889-9.56,0.006c-2.098,2.199-3.905,4.661-5.865,6.992c-5.566,6.624-10.908,13.424-15.205,21.002
			c-0.896,1.579-2.238,2.871-3.403,4.28c-1.743,2.111-3.304,4.334-4.612,6.772c-3.031,5.622-8.017,6.583-14.417,2.925
			c-1.051-0.592-2.173-1.168-3.076-1.96c-6.553-5.803-13.988-10.413-20.797-15.862c-3.707-2.966-7.033-6.26-9.738-10.077
			c-2.546-3.604-3.429-7.029-1.167-10.757c3.1-5.096,7.115-9.458,10.566-14.268c2.135-2.964,4.616-5.652,6.945-8.47
			c0.086,0.073,7.164-8.224,10.094-11.772L204.661,329.679z M311.325,291.423c-4.388,6.955-9.973,12.952-15.057,19.352
			c-1.038,1.301-1.99,2.673-2.932,4.063c-1.232,1.848-1.017,2.331,0.612,4.179c4.814,5.413,10.908,8.478,17.431,10.755
			c4.42,1.54,8.424,1.204,12.084-1.114c3.218-2.029,5.114-5.109,7.121-8.08c2.936-4.317,4.616-9.314,4.287-14.908
			c-0.17-3.026-0.937-6.1-3.238-8.741c-3.19-3.683-6.729-7.011-10.635-9.962c-2.665-2.027-3.931-2.135-5.921-0.084
			c-1.37,1.413-2.529,3.018-3.787,4.541H311.325z"/>
		<path fill="#F8D6BF" d="M481.225,317.661c11.451,4.521,15.462,7.989,22.062,13.896c7.556,6.755,13.275,14.389,17.676,22.945
			c2.279,4.429,2.727,9.135,4.681,13.57c0.489,1.101-0.032,2.072-0.885,2.908c-1.241,1.223-2.617,2.337-4.418,2.736
			c-5.947,1.314-10.729,4.545-16.177,6.699c-1.672,0.663-3.287,1.402-5.155,1.616c-2.54,0.278-4.937,0.898-7.22,1.812
			c-3.537,1.409-7.694,0.881-11.371,1.941c-1.387,0.398-2.298-0.722-2.904-1.684c-1.139-1.814-2.171-3.692-3.145-5.57
			c-2.488-4.808-7.307-5.988-12.132-6.742c-2.94-0.454-6.225,2.609-6.624,5.646c-0.358,2.729-0.211,5.476,0.573,8.312
			c2.264,8.205,5.859,16,10.156,23.621c0.56,0.993,1.254,1.995,1.583,3.029c2.938,9.461,7.304,18.607,10.234,28.087
			c2.811,9.122,3.203,18.247,4.5,27.38c1.105,7.759-0.457,14.949-1.887,22.314c-1.353,6.923-5.939,11.832-9.637,17.353
			c-0.575,0.872-1.484,1.62-2.436,2.154c-3.556,1.964-6.395,4.599-9.017,7.425c-1.738,1.868-4.11,2.934-6.393,4.082
			c-7.117,3.548-14.826,6.133-23.063,7.022c-11.255,1.208-22.826,1.906-33.87-3.724c-8.334-4.252-17.204-7.436-24.659-13.441
			c-6.52-5.245-11.541-10.947-14.12-18.275c-0.922-2.621-2.667-4.89-4.254-7.216c-2.003-2.912-3.612-5.915-4.289-9.228
			c-0.314-1.542-0.819-3.065-1.732-4.495c-2.488-3.897-3.074-8.099-3.552-12.297c-0.476-4.17,0.924-5.812,5.394-6.731
			c7.515-1.551,15.042-3.057,22.549-4.664c5.071-1.086,10.273-1.65,15.559-1.835c5.536-0.196,6.923,0.566,9.402,5.239
			c2.059,3.886,3.662,7.966,6.986,11.311c3.847,3.884,8.401,5.934,13.917,5.631c4.763-0.256,7.158-2.402,8.444-6.893
			c0.532-1.859,0.642-3.927,0.142-5.971c-1.185-4.948-2.318-9.898-5.137-14.486c-3.233-5.275-5.176-10.867-6.923-16.532
			c-0.614-1.98-1.077-4.047-2.087-5.887c-3.27-5.971-4.849-12.291-6.841-18.529c-2.186-6.852-5.092-13.549-7.119-20.433
			c-1.659-5.613-2.167-11.106-1.29-16.603c0.836-5.269,1.764-10.529,2.682-15.781c0.454-2.587,1.521-4.946,2.886-7.162
			c4.627-7.464,10.736-13.777,18.047-19.102c5.017-3.645,10.798-5.934,17.344-7.263c6.462-1.327,12.982-1.958,19.649-1.6
			c8.088,0.431,12.437,0.892,23.893,5.415L481.225,317.661z"/>
		<path fill="#F8D6BF" d="M551.669,350.202c9.456-0.136,19.643,1.508,29.943,1.564c4.689,0.028,7.447,1.443,7.811,6.191
			c0.457,5.915,2.318,11.653,4.078,17.375c2.882,9.407,4.726,19.007,7.147,28.5c3.227,12.633,7.513,25.015,12.752,37.131
			c0.177,0.426,0.295,0.887,0.56,1.269c0.672,0.974,2.389,1.073,3.07,0.069c0.711-1.03,1.234-2.163,1.663-3.309
			c3.121-8.513,6.314-16.987,8.349-25.795c1.964-8.476,5.473-16.606,8.888-24.726c2.703-6.428,4.638-13.015,6.245-19.692
			c0.928-3.875,2.214-7.638,4.039-11.255c1.719-3.418,4.795-5.454,9.032-5.025c7.668,0.784,15.345-0.439,22.96,0.448
			c6.766,0.786,13.532,1.372,20.364,1.372c1.032,0,2.068,0.282,3.078,0.517c4.769,1.103,4.793,1.299,5.228,5.512
			c0.351,3.401-0.317,6.585-1.448,9.807c-4.381,12.461-8.435,25.019-12.972,37.439c-4.631,12.72-9.743,25.306-14.531,37.984
			c-3.798,10.072-7.526,20.177-11.692,30.157c-2.313,5.532-3.731,11.36-5.697,17.008c-1.467,4.209-3.007,8.401-4.799,12.519
			c-5.738,13.204-10.072,26.786-14.591,40.328c-0.726,2.184-1.215,4.427-1.779,6.637c-1.114,4.392-5.122,7.787-10.141,7.761
			c-11.184-0.047-22.365,0.523-33.536-0.172c-1.898-0.116-3.819-0.444-5.654-0.92c-2.988-0.788-5.299-2.294-6.109-5.133
			c-0.582-2.066-1.383-4.088-1.868-6.163c-2.335-9.999-6.615-19.531-9.342-29.446c-3.138-11.384-6.219-22.768-9.598-34.101
			c-3.686-12.366-6.54-24.89-9.51-37.392c-1.062-4.476-2.494-8.86-4.215-13.174c-4.198-10.514-6.561-21.452-9.48-32.233
			c-3.808-14.051-5.921-28.423-11.207-42.183c-0.271-0.715-0.541-1.456-0.638-2.201c-0.653-4.717,1.088-6.354,6.497-6.611
			c5.411-0.252,10.822-0.355,17.064-0.043L551.669,350.202z"/>
		<path fill="#F8D6BF" d="M768.693,521.979c-5.721-14.693-11.449-29.911-17.599-44.955c-3.274-8.035-6.402-16.073-9.103-24.328
			c-4.302-13.135-9.133-26.107-13.945-39.066c-3.229-8.694-5.292-17.749-8.34-26.495c-1.562-4.448-3.119-8.896-4.758-13.303
			c-1.9-5.131-4-10.184-5.777-15.363c-1.471-4.291-0.407-6.173,4.282-8.293c7.634-3.444,15.244-6.945,22.973-10.169
			c3.192-1.338,6.65-2.079,10.008-2.973c2.04-0.545,4.026-1.148,5.863-2.201c4.577-2.606,9.523-4.476,14.536-5.889
			c5.198-1.473,10.361-3.011,15.505-4.635c3.468-1.088,7.186-0.747,10.77-0.597c4.771,0.192,9.517,0.517,14.352,0.299
			c4.928-0.205,9.318,1.437,13.499,3.261c4.321,1.878,8.474,4.047,12.707,6.059c6.262,2.99,10.973,7.481,15.223,12.416
			c9.26,10.757,15.817,22.872,19.959,36.201c4.302,13.82,2.393,27.589-4.747,41.28c-1.652,3.184-3.192,6.402-4.931,9.551
			c-4.032,7.319-9.971,13.318-17.006,18.488c-3.612,2.654-7.207,5.366-11.046,7.69c-4.592,2.772-9.441,5.159-14.189,7.673
			c-0.765,0.409-1.639,0.597-2.438,0.952c-4.159,1.859-4.442,2.307-3.02,6.117c5.284,14.26,10.609,28.5,15.921,42.751
			c0.47,1.282,1.01,2.555,1.327,3.882c0.784,3.408-1.103,6.408-4.933,7.302c-7.194,1.682-13.549,5.331-20.366,7.882
			c-5.896,2.201-11.776,4.437-17.698,6.555c-1.277,0.463-2.725,0.543-4.099,0.618c-2.193,0.127-3.942-0.504-5.081-2.249
			c-1.338-2.053-2.66-4.088-3.47-6.398c-1.364-3.869-2.815-7.72-4.383-12.032L768.693,521.979z M781.238,399.903
			c0.898,2.466,1.454,4.207,2.158,5.885c0.771,1.835,0.879,3.834,1.385,5.728c0.588,2.193,1.396,4.332,2.309,6.419
			c1.618,3.729,5.243,4.907,9.422,3.014c5.605-2.542,10.531-5.965,14.91-10.074c7.334-6.897,9.068-14.406,5.745-22.738
			c-2.021-5.099-5.902-8.821-9.941-12.457c-3.462-3.121-7.832-3.959-13.034-3.126c-5.881,0.954-11.447,2.955-17.073,4.726
			c-3.481,1.099-4.237,2.869-3.102,5.855c0.207,0.573,0.558,1.081,0.782,1.648c1.984,5.404,5.211,10.286,6.426,15.141
			L781.238,399.903z"/>
	</g>
	<g>
		<path fill="#F8D6BF" d="M349.688,565.769c-0.034,7.457-2.07,14.383-3.182,21.478c-0.228,2.281-0.058,4.47-0.627,6.52
			c-0.743,3.018-0.722,6.008-1.465,9.021c-0.334,0.769-0.265,1.445-0.442,2.408c4.672,0.526,8.922,2.305,13.53,2.154
			c1.904,0.019,3.875,0.711,5.633,1.531c2.098,1.049,4.03,0.907,6.518,0.866c0.383-2.085,0.612-4.366,1.208-6.578
			c2.469-10.331,4.541-20.567,6.27-31.031c0.06-0.323,0.276-0.448,0.334-0.771c4.149,0.267,19.068,3.173,21.135,4.381
			c-0.745,3.016-1.704,6.156-2.294,9.366c-0.551,4.047-2.611,7.981-1.872,12.265l-0.03,0.162c-0.875,5.809-1.781,11.783-2.841,17.56
			c-0.142,1.799-0.31,3.759-0.849,5.65c-1.165,4.265-1.409,8.7-2.204,13.034c-1.6,7.668-2.83,15.408-4.431,23.076
			c-0.442,2.406-1.068,4.778-1.695,7.151c-0.325,1.766-0.678,3.692-1.002,5.458l-1.297,7.061c-0.59,3.21-1.366,6.385-1.984,9.756
			c-6.828-1.256-13.316-2.281-20.145-3.535c-0.097-0.517-0.134-1.351,0.045-2.316c1.443-7.862,2.917-15.886,4.362-23.75l1.829-9.95
			c-3.662-0.838-7.266-2.001-10.772-2.645c-1.262-0.394-2.796-0.347-4.119-0.422c-4.547-0.172-8.827-1.788-13.504-2.313
			c-1.221,4.584-1.708,9.305-2.01,14.062c-0.295,1.607-0.959,3.143-1.254,4.748l-2.742,14.925c-0.207,1.124-0.965,2.143-1.355,3.235
			c-7.414-1.198-14.036-3.574-21.351-4.256c0.022-1.157-0.015-1.992,0.134-2.794c0.825-4.493,1.805-8.795,2.63-13.286
			c0.235-1.284,0.87-2.66,1.107-3.944c0.241-0.291,0.332-0.769,0.39-1.088c-0.739-4.287,1.842-7.959,2.212-12.041
			c0.554-4.045,1.29-8.056,2.21-12.033c1.193-4.427,1.127-9.252,2.69-13.609c1.29-3.912,1.656-7.989,2.613-12.129
			c0.859-3.655,1.355-7.38,1.846-11.108c1.239-6.738,2.292-13.512,3.345-20.287c0.261-2.44,0.332-4.916,0.62-7.518
			c0.146-0.801,0.508-1.732,0.87-2.66c1.32,0.075,2.242,0.246,3.166,0.416c3.873,0.711,7.836,0.943,11.625,2.135
			c0.922,0.17,1.965-0.304,2.856,0.028C346.854,564.582,348.271,565.174,349.688,565.769z"/>
		<path fill="#F8D6BF" d="M392.802,688.323l2.589-10.973c1.715-8.31,3.619-16.586,4.599-25.034
			c0.694-5.844,1.385-11.688,2.968-17.204c1.312-5.068,2.072-10.238,3.169-15.177c0.267-1.445,0.134-2.796,0.401-4.241
			c0.323-1.764,1.045-3.623,1.4-5.549c0.235-1.284,0.103-2.634,0.338-3.918l1.975-10.753c0.834-3.498,1.665-6.996,2.313-10.527
			c0.325-1.764,0.31-3.757,0.48-5.717c0.118-0.642,0.42-1.249,0.782-2.18l36.356,6.68c7.014,1.288,14.055,2.415,20.883,3.668
			c3.72,0.519,7.257,1.002,10.947,1.68c0.924,0.17,1.631,0.467,2.527,0.797c-0.422,1.249-0.967,2.143-1.116,2.947
			c-1.187,5.424-2.374,10.846-3.375,16.302c-0.739,4.013-1.105,8.093-1.715,12.459c-1.109-0.203-1.876-0.177-2.8-0.347l-7.653-0.909
			c-0.371-0.069-0.586,0.058-0.924-0.17c-2.68-0.989-5.351-0.982-8.151-1.331c-4.271-0.62-8.42-0.883-12.694-1.506
			c-3.354-0.448-6.858-1.092-10.21-1.54c-1.478-0.271-3.197-0.256-4.888-0.403c-0.795,4.334-1.562,8.506-2.359,12.838l5.351,0.984
			c3.352,0.452,6.889,0.935,10.268,1.221c2.643,0.157,5.168,0.95,7.541,1.553c4.795,0.881,9.437,1.566,14.053,2.415l2.397,0.439
			c0.358,6.372-1.654,12.142-2.591,18.273c-4.547-0.172-8.644-1.753-12.948-2.214c-4.704-0.364-9.441-1.566-14.055-2.413
			c-4.616-0.849-9.23-1.697-13.842-2.544l-2.83,15.406c0.709,0.295,1.45,0.431,2.369,0.601c4.215,0.941,8.526,2.395,12.86,2.697
			c4.362,0.136,8.461,1.715,13.036,1.73c3.839-0.125,7.597,1.23,11.227,2.227c1.45,0.431,2.742,0.668,4.218,0.939
			c0.892,0.332,1.6,0.629,2.863,1.023c-2.1,10.398-5.28,20.433-6.089,31.07c-0.396,0.09-1.224,0.437-1.932,0.14
			c-3.972-1.226-7.996-1.137-12.142-1.4c-1.691-0.144-3.567-0.323-4.769-1.043c-2.406-1.437-4.894-1.396-7.354-1.519
			c-2.273-0.082-4.334-0.297-6.546-0.702c-3.845-0.872-7.722-1.585-11.783-2.331l-21.407-3.933
			C395.061,690.564,393.771,690.327,392.802,688.323z"/>
		<path fill="#F8D6BF" d="M524.888,713.916c-2.253-1.243-1.159-3.035-1.262-4.545c-0.786-6.115-1.017-12.134-1.43-18.182
			l-1.482-16.862c-0.325-2.38-0.681-4.601-1.006-6.983l-7.936-1.458c-0.149,0.801-0.478,1.57-0.627,2.372
			c-0.648,3.53-1.114,7.098-1.915,10.432c-1.762,6.477-3.156,13.023-4.181,19.638c-0.5,2.727-0.603,5.364-0.89,7.964
			c-0.177,0.963-0.541,1.893-0.775,3.177l-12.638-1.824c-3.905-0.551-8.024-0.976-12.114-1.562
			c-1.366-1.909-0.002-4.149,0.013-6.301c-0.006-0.997,0.569-2.053,0.775-3.177c1.568-7.509,3.326-14.981,4.711-22.525
			c0.679-3.692,0.956-7.289,1.422-10.854l0.707-3.851c1.504-8.185,2.852-16.565,4.541-24.716l1.562-8.504
			c0.803-3.339,1.579-6.514,2.197-9.883c0.569-2.053,0.982-4.299,1.178-6.419l2.453-16.472c3.287-0.226,7.162,0.487,9.87,1.316
			c1.079,0.364,2.4,0.439,3.537,0.482c2.029,0.373,4.058,0.745,6.12,0.959c2.768,0.51,5.381,0.823,8.179,1.172
			c2.828,0.185,5.566,0.855,8.519,1.398c4.584,1.008,8.474,3.714,13.206,3.92l0.737,0.136c3.951,2.385,8.418,4.032,11.55,7.761
			c4.091,4.732,6.219,9.769,6.874,15.531c0.823,6.951,0.168,13.633-3.44,19.774c-1.426,2.559-2.634,4.991-4.552,7.126
			c-2.68,3.158-5.855,5.893-9.831,7.819c-1.256,0.597-2.537,1.357-3.58,1.829c-1.047,3.625-0.284,6.749,0.078,9.967
			c0.422,2.897,1.055,5.667,0.954,8.304c-0.103,2.634,0.405,5.053,0.918,7.47c1.441,7.729,2.544,15.231,3.031,22.953
			c0.2,2.027,0.586,4.088,0.911,6.471c-2.031-0.373-3.75-0.358-5.411-0.661c-3.662-0.838-7.322-1.678-11.19-1.394
			c-0.982,0.153-2.216-0.407-3.509-0.644L524.888,713.916z M517.671,622.343l-4.215,22.947c3.875,0.711,7.352,1.516,11.162,1.553
			c2.701-0.166,4.937-0.918,6.893-2.219c4-3.078,5.351-7.311,5.437-11.942c-0.082-2.669-2.718-5.971-5.553-7.156
			C527.145,623.749,522.443,623.381,517.671,622.343z"/>
		<path fill="#F8D6BF" d="M565.724,720.091l2.589-10.973c1.715-8.31,3.617-16.588,4.599-25.034
			c0.691-5.846,1.383-11.69,2.968-17.206c1.312-5.066,2.072-10.236,3.169-15.177c0.267-1.443,0.134-2.796,0.401-4.241
			c0.323-1.764,1.045-3.621,1.4-5.547c0.235-1.284,0.103-2.637,0.338-3.92l1.975-10.753c0.834-3.496,1.665-6.996,2.313-10.525
			c0.325-1.766,0.31-3.759,0.478-5.719c0.118-0.642,0.422-1.249,0.784-2.178l36.356,6.678c7.014,1.288,14.055,2.417,20.883,3.67
			c3.718,0.517,7.255,1.002,10.947,1.68c0.922,0.168,1.631,0.465,2.525,0.795c-0.42,1.249-0.965,2.145-1.114,2.949
			c-1.187,5.422-2.374,10.844-3.375,16.3c-0.739,4.013-1.105,8.095-1.717,12.461c-1.107-0.205-1.874-0.179-2.798-0.349l-7.653-0.909
			c-0.373-0.069-0.586,0.06-0.924-0.17c-2.682-0.989-5.353-0.982-8.151-1.329c-4.271-0.62-8.424-0.883-12.696-1.508
			c-3.352-0.448-6.858-1.092-10.208-1.54c-1.478-0.271-3.197-0.256-4.89-0.401c-0.795,4.334-1.562,8.506-2.357,12.838l5.351,0.982
			c3.352,0.452,6.889,0.935,10.268,1.224c2.643,0.155,5.168,0.948,7.537,1.551c4.799,0.881,9.441,1.568,14.055,2.415l2.4,0.442
			c0.355,6.372-1.656,12.14-2.591,18.273c-4.549-0.172-8.646-1.756-12.95-2.214c-4.702-0.366-9.441-1.568-14.055-2.415
			c-4.614-0.849-9.228-1.695-13.84-2.544l-2.83,15.406c0.709,0.295,1.445,0.431,2.369,0.601c4.215,0.941,8.526,2.397,12.86,2.697
			c4.362,0.138,8.461,1.717,13.034,1.73c3.841-0.125,7.599,1.23,11.229,2.227c1.448,0.431,2.74,0.67,4.218,0.941
			c0.892,0.33,1.6,0.627,2.863,1.021c-2.102,10.398-5.28,20.435-6.089,31.07c-0.396,0.093-1.224,0.437-1.934,0.14
			c-3.97-1.226-7.994-1.135-12.142-1.4c-1.691-0.144-3.565-0.323-4.767-1.043c-2.408-1.437-4.896-1.396-7.354-1.516
			c-2.275-0.084-4.334-0.297-6.548-0.704c-3.845-0.872-7.722-1.583-11.78-2.329l-21.409-3.933
			C567.983,722.331,566.691,722.094,565.724,720.091z"/>
	</g>
</g>
<g>
</g>
<g>
</g>
<g>
</g>
<g>
</g>
<g>
</g>
<g>
</g>
<g>
</g>
<g>
</g>
<g>
</g>
<g>
</g>
<g>
</g>
<g>
</g>
<g>
</g>
<g>
</g>
<g>
</g>
</svg>
