<?xml version="1.0" encoding="iso-8859-1"?>
<!-- Generator: Adobe Illustrator 30.2.1, SVG Export Plug-In . SVG Version: 9.03 Build 0)  -->
<svg version="1.1" id="Layer_1" xmlns="http://www.w3.org/2000/svg" xmlns:xlink="http://www.w3.org/1999/xlink" x="0px" y="0px"
	 width="1571.066px" height="248.995px" viewBox="0 0 1571.066 248.995" enable-background="new 0 0 1571.066 248.995"
	 xml:space="preserve">
<g>
	<g>
		<g>
			<path fill="#881D1A" d="M-44.658,1978.25c5.548-40.799,23.88-78.054,47.766-111.018
				c-61.441-18.498-125.082-39.275-184.543-63.372c-26.521-10.928-56.283-22.791-81.396-36.532
				c-18.763-9.952-14.168-5.322-32.288-12.31c-26.855-11.636-51.943-17.972-80.946-19.053c-26.563-4.774-85.919,3.889-78.361,40.29
				c10.311,20.009,28.572,35.833,46.571,48.835c24.556,18.471,56.219,31.044,83.797,44.373
				c55.843,24.088,117.222,41.609,173.802,63.888C-114.789,1947.593-77.945,1957.485-44.658,1978.25z"/>
			<path fill="#881D1A" d="M2012.175,1961.22c44.895-17.801,91.958-35.744,137.711-51.281
				c67.223-24.459,140.018-46.667,198.258-89.056c18.059-15.393,62.114-47.676,30.943-70.126
				c-33.552-26.446-78.181-14.619-116.986-7.574c-19.2,6.794-40.552,14.33-59.537,21.32c-15.265,8.787-35.056,17.818-51.374,24.618
				c-70.525,31.042-146.018,55.638-219.615,78.265c15.433,21.728,31.169,48.526,39.378,74.208c2.286,6.079,3.667,12.474,5,18.983
				c2.799,13.669-1.183,10.451,4.343,17.581C1988.489,1971.426,2003.467,1964.743,2012.175,1961.22z"/>
			<path fill="#881D1A" d="M-242.255,2056.944c18.795,9.102,40.762,17.163,59.053,26.919c18.727,9.13,44.257,25.117,15.637-6.29
				c-16.047-16.344-34.563-34.705-50.881-50.856c-32.139-34.579-70.661-46.891-115.6-57.045
				c-35.683-9.673-78.365-14.656-115.374-7.252c-2.133,1.358-3.876,3.157-0.412,2.573
				c106.182,50.278,161.327,105.809,232.846,195.232c-7.199-16.334-19.489-49.515-28.913-64.179
				c-3.848-7.426-12.542-23.636-16.591-31.104C-265.983,2052.057-250.5,2052.366-242.255,2056.944z"/>
			<path fill="#881D1A" d="M2187.232,2083.07c-11.502,20.031-24.289,48.512-32.91,70.287c-0.428,1.01,0.044,4.372,0.592,3.907
				c17.89-21.761,36.054-46.038,55.375-66.517c30.222-33.647,66.582-62.799,104.292-87.555
				c19.61-12.565,52.986-29.432,72.475-39.573c-0.465-0.13-2.362-0.973-2.912-1.04c-42.471-8.721-85.313-1.176-126.498,9.917
				c-25.135,7.265-53.533,12.574-74.218,28.692c-17.864,12.847-34.838,29.499-50.262,45.099
				c-11.221,12.132-37.646,35.019-44.881,49.894c14.662-2.42,25.236-10.918,39.515-17.577c0,0,20.038-8.462,20.038-8.462
				C2171.037,2059.272,2217.175,2034.664,2187.232,2083.07z"/>
		</g>
		<path fill="#F8D6BF" d="M-575.616,1513.846c13.849-1.119,11.656,13.432,7.052,21.736c-12.542,22.696-26.56,47.901-43.95,67.188
			c-43.066,57.839-111.362,91.237-178.269,113.884c-8.947,2.705-61.149,20.294-44.228,32.766
			c37.889,13.94,73.111-18.637,56.486,24.171c-1.49,22.191,30.389,0.792,37.722-7.435c5.191-5.181,12.575-10.128,19.114-8.502
			c11.244,2.795,2.327,19.951,8.916,30.23c14.784,10.678,37.328-17.599,48.196-24.87c11.893-10.079,10.479-15.197,21.829-25.658
			c32.67-11.737,2.684,27.326,23.541,36.058c9.437,4.557,32.642-18.109,38.289-25.244c15.319-16.185,29.553-43.395,41.213-62.265
			c13.188-20.001,1.954-27.74,32.161-26.315c37.263-4.659,67.573-22.55,92.075-50.491c20.237-17.184,25.959-50.651,34.409-74.323
			c5.95-18.76,13-41.391,19.12-60.12c13.756-45.296,35.767-85.516,89.516-61.897c7.776,4.337-5.065-21.319-4.171-29.009
			c0,0-0.194-26.068-0.195-26.067c2.454-32.51-27.749-55.898-58.818-56.401c-26.446,0.262-49.088,20.191-69.982,34.07
			c-11.552,8.447-23.589,22.518-31.58,33.689c-6.121,7.801-20.366,36.481-30.578,24.835c-1.42-3.308-1.068-10.892,0.83-13.703
			c6.159-9.523,17.801-26.494,25.043-34.888c0.701-1.938-22.243-17.481-23.413-18.884c-40.261-30.554-69.257-77.476-90.727-122.347
			c-17.924-34.099-33.11-71.131-40.217-109.099c-3.155-16.792-7.733-40.645-7.853-57.505c-0.445-10.895,2.364-21.972-2.65-28.24
			c-14.964-1.025-18.879,28.366-21.413,39.815c-3.913,13.053,1.3,36.149-14.953,34.469c-5.086-2.19-7.286-8.705-11.52-7.775
			c-15.549,11.105-15.745,28.497-16.308,46.262c-2.01,13.086,9.289,57.123-16.916,36.523c-15.069-7.032-10.871,32.124-8.617,41.982
			c2.577,15.092,16.163,27.584,27.136,36.877c7.506,6.27,29.082,25.345,37.231,30.102c14.899,8.722,41.391,22.089,56.306,30.221
			c44.373,22.898,81.386,65.551,92.847,114.517c1.187,14.432,12.284,34.887,6.276,48.988c-1.539,2.401-8.72,5.194-11.101,3.659
			c-7.519-6.313-5.314-35.167-12.257-48.271c-7.99-36.173-33.427-70.197-64.335-90.173c-28.832-19.755-63.151-31.951-90.818-53.352
			c-67.907-50.066-109.687-119.385-131.06-199.51c-5.182-23.944-8.466-44.939-16.279-64.259
			c-8.684-25.885-16.275-43.572-23.67-1.948c-2.072,20.378-1.62,47.508,0.61,67.86c-4.893,20.182-19.889,0.843-29.818,4.554
			c-10.22,5.189-10.529,21.77-7.596,29.079c3.715,9.148,11.118,28.116,15.42,36.959c2.441,6.924,11.647,18.655,4.261,25.468
			c-7.421,9.138-22.674-4.226-26.904,9.614c-6.633,22.78,16.325,59.299,30.394,76.558c5.919,7.954,17.408,18.534,19.219,28.803
			c-3.276,21.145-29.043-1.988-32.747,28.094c-0.459,31.024,27.225,54.762,46.521,75.702c11.138,20.565-33.521,15.468,10.683,56.534
			c8.48,7.068,26.459,11.811,36.325,16.127c3.447,1.296,5.668,7.622,5.389,10.74c-4.866,16.109,8.249,26.71,21.379,34.546
			c46.022,26.883,99.66,19.769,149.162,9.879C-581.824,1517.515-577.92,1514.873-575.616,1513.846z"/>
		<g>
			<path fill="#F9B693" d="M2004.89,1826.212c42.181-15.363,87.579-30.772,128.678-48.902
				c34.912-18.626,74.214-33.326,111.609-46.164c27.068-13.736,66.295-9.869,93.042-14.395
				c-50.495-55.804-94.423-119.603-127.418-187.299c-6.437-13.179-12.066-28.94-17.213-42.749
				c-5.247-13.981-8.729-31.233-11.055-46.456c-0.245-1.605-2.036-5.243-3.281-4.625c-98.161,46.567-203.742,81.424-308.798,108.829
				c-284.761,75.088-580.732,106.218-874.559,112.326c-233.84,0.131-469.441-19.804-699.774-61.083
				c-147.11-26.382-294.361-62.736-434.545-114.956c-34.67-13.421-71.992-28.515-105.527-44.643
				c-1.23-0.579-2.515-1.268-2.691-0.581c-5.288,28.552-6.804,36.546-17.056,63.753c-14.123,39.497-36.446,77.052-59.364,112.04
				c-23.517,36.254-50.472,73.039-79.836,105.065c21.308,5.596,46.319,0.865,68.565,6.856c18.732,5.069,42.137,14.953,60.873,20.965
				c22.046,8.934,53.88,21.669,74.924,33.273c27.65,12.083,59.772,24.353,88.243,34.353
				c115.636,41.351,236.728,70.718,357.133,94.662c222.074,41.78,449.012,64.471,674.644,68.28c37.636,1.57,78.28,0.378,115.95-0.46
				c15.712-1.068,37.112,1.484,52.423-2.341c31.003,0.857,65.642-2.707,96.713-4.124c13.564,1.31,30.699-2.499,44.238-2.827
				c34.386-2.427,72.053-5.229,106.331-8.806C1562.962,1934.547,1788.381,1894.758,2004.89,1826.212z"/>
			<path fill="#F9B693" d="M-140.727,2012.939c22.436,4.472,75.293,16.028,92.668,0.918c8.748-22.837-30.248-32.259-45.114-39.775
				c-41.385-16.506-85.59-33.389-127.801-47.545c-54.591-19.948-113.394-39.774-165.047-66.982
				c-4.831-2.226-8.966,10.01-11.236,12.186c-7.09,9.461-15.583,18.855-20.822,29.734c-9.571,12.428-23.068,29.518-32.28,42.201
				c-0.152-0.082,1.983,1.058,2.733,1.459c47.43-10.321,85.962,0.64,131.933,11.398
				C-256.669,1972.024-200.231,1999.375-140.727,2012.939z"/>
			<path fill="#F9B693" d="M2120.361,2000.304c46.593-14.955,93.812-35.93,141.918-46.486c39.151-10.312,80.307-17.863,120.683-8.54
				c0.676-0.432,2.805-1.768,2.157-1.361c-17.973-23.584-35.769-47.718-52.934-71.769c-2.196-2.229-7.045-14.909-11.716-12.504
				c-56.192,29.308-120.398,50.584-179.75,72.189c-37.93,12.276-78.36,28.774-115.531,43.289
				c-57.532,20.512-62.963,51.772,6.375,45.304C2059.65,2018.167,2093.567,2008.446,2120.361,2000.304z"/>
		</g>
		<path fill="#F8D6BF" d="M2521.065,1517.855c49.503,9.89,103.141,17.005,149.163-9.879c13.13-7.836,26.245-18.437,21.379-34.546
			c-0.28-3.118,1.941-9.444,5.389-10.74c9.866-4.316,27.845-9.059,36.325-16.127c44.205-41.066-0.454-35.969,10.684-56.534
			c19.296-20.939,46.98-44.678,46.521-75.702c-3.704-30.082-29.472-6.949-32.748-28.094c1.811-10.269,13.3-20.849,19.219-28.803
			c14.069-17.259,37.027-53.778,30.394-76.558c-4.23-13.839-19.483-0.476-26.904-9.614c-7.386-6.813,1.821-18.544,4.262-25.468
			c4.302-8.843,11.705-27.811,15.42-36.959c2.933-7.309,2.624-23.891-7.596-29.079c-9.929-3.71-24.925,15.629-29.818-4.554
			c2.231-20.352,2.682-47.482,0.61-67.86c-7.395-41.624-14.986-23.937-23.67,1.948c-7.813,19.32-11.097,40.315-16.279,64.259
			c-21.373,80.124-63.153,149.444-131.06,199.51c-27.667,21.401-61.986,33.597-90.818,53.352
			c-30.908,19.976-56.344,53.999-64.335,90.173c-6.942,13.104-4.738,41.958-12.257,48.271c-2.381,1.535-9.562-1.257-11.101-3.659
			c-6.009-14.101,5.089-34.556,6.276-48.988c11.461-48.966,48.474-91.62,92.847-114.517c14.914-8.132,41.407-21.499,56.305-30.221
			c8.149-4.758,29.726-23.832,37.231-30.102c10.973-9.293,24.559-21.785,27.136-36.877c2.255-9.858,6.452-49.014-8.617-41.982
			c-26.205,20.6-14.906-23.437-16.916-36.523c-0.562-17.765-0.759-35.157-16.308-46.262c-4.235-0.93-6.434,5.586-11.52,7.775
			c-16.253,1.68-11.041-21.416-14.954-34.469c-2.534-11.448-6.449-40.84-21.413-39.815c-5.014,6.268-2.205,17.346-2.65,28.24
			c-0.12,16.86-4.697,40.714-7.853,57.505c-7.107,37.967-22.293,75-40.217,109.099c-21.47,44.871-50.466,91.793-90.727,122.347
			c-1.17,1.403-24.114,16.947-23.413,18.884c7.242,8.394,18.883,25.365,25.043,34.888c1.897,2.81,2.25,10.395,0.83,13.703
			c-10.212,11.646-24.458-17.034-30.578-24.835c-7.991-11.17-20.028-25.242-31.58-33.689c-20.895-13.879-43.536-33.808-69.982-34.07
			c-31.069,0.502-61.272,23.891-58.818,56.401c-0.001-0.001-0.195,26.067-0.195,26.067c0.894,7.69-11.947,33.346-4.171,29.009
			c53.749-23.619,75.76,16.6,89.516,61.897c6.12,18.728,13.17,41.36,19.12,60.12c8.45,23.672,14.171,57.139,34.408,74.323
			c24.502,27.941,54.812,45.832,92.075,50.491c30.207-1.425,18.973,6.313,32.161,26.315c11.66,18.87,25.894,46.079,41.213,62.265
			c5.647,7.135,28.852,29.801,38.289,25.244c20.857-8.732-9.128-47.795,23.542-36.058c11.35,10.46,9.936,15.579,21.829,25.658
			c10.868,7.271,33.412,35.547,48.196,24.87c6.589-10.278-2.328-27.435,8.916-30.23c6.539-1.625,13.923,3.322,19.114,8.502
			c7.334,8.227,39.213,29.625,37.722,7.435c-16.625-42.808,18.596-10.231,56.486-24.171c16.921-12.473-35.28-30.061-44.228-32.766
			c-66.907-22.647-135.203-56.045-178.269-113.884c-17.389-19.286-31.407-44.491-43.95-67.188
			c-4.604-8.304-6.796-22.855,7.052-21.736C2515.1,1514.873,2519.003,1517.515,2521.065,1517.855z"/>
		<g>
			<path fill="#F05827" d="M2790.729,1732.008c18.69,36.627-31.63,41.224-56.778,37.86c2.988,26.309-19.136,40.946-49.88,22.511
				c-2.582-1.334-12.117-8.724-14.413-8.199c-8.526,50.057-66.02,8.571-85.178-12.659c-0.001,0.001-1.943-1.94-1.943-1.94
				c-8.191,8.336-10.588,31.263-39.901,19.119c-40.653-17.431-63.148-61.382-83.899-98.129c-4.486-8.348-4.096-12.008-9.004-12.71
				c-21.28-3.044-43.652-8.041-61.744-18.496c-12.078-6.806-25.626-14.443-35.04-24.885c-6.621-6.286-13.612-9.152-21.324-22.857
				c-6.792-12.068-4.772-3.457-11.131-17.097c-15.673-33.958-24.161-77.345-37.464-112.215
				c-10.059-21.208-14.766-54.878-41.401-59.372c-0.002,0.003-16.715,2.532-16.715,2.532c-13.215,0.701-27.771,15.971-43.424,5.798
				c-2.839-4.518-1.227-13.068,2.324-17.649c21.82-28.145,8.185-41.135,14.205-74.038c10.024-41.073,54.843-66.458,94.902-52.095
				c24.171,8.469,50.177,25.759,69.474,42.368c5.903,5.705,18.277-9.044,22.76-11.379c35.615-26.138,61.489-62.089,81.896-100.913
				c8.559-16.93,17.756-36.459,26.373-53.287c7.23-17.651,15.386-45.266,21.413-63.126c2.929-18.326,5.921-41.064,7.41-59.584
				c2.042-21.5-5.049-46.787,21.676-51.273c31.387,3.053,37.593,40.216,41.446,65.813c0.824,5.12,6.446,0.161,12.156,2.547
				c28.921,14.514,30.758,50.755,28.861,79.116c20.559,0.728,29.206,21.899,28.524,40.757c0.399,0.502,1.594,2.178,1.483,2.024
				c25.522-35.799,42.451-78.587,52.68-121.179c4.353-22.74,4.516-34.74,13.192-54.925c29.74-86.863,67.479-14.756,60.785,39.009
				c0.003-0.001-0.383,15.89-0.383,15.89c0.922,6.293,3.803-0.861,13.939,2.36c39.772,20.441,17.754,62.328,4.616,92.173
				c54.104,28.202,8.04,92.865-19.272,124.666c55.587,30.908,11.359,85.12-20.375,118.746c25.012,20.441-6.438,57.801-28.865,70.656
				c-8.559,5.11-22.486,7.285-22.761,11.532c3.355,32.939-46.434,54.231-73.411,59.682c-34.504,12.764-72.614,2.018-107.062-0.084
				c4.959,15.286,25.099,38.645,33.422,52.578c29.326,36.035,73.994,69.811,116.937,87.814
				c17.533,8.169,46.212,18.571,64.594,25.252C2762.113,1711.708,2778.927,1714.831,2790.729,1732.008z M2521.065,1517.855
				c49.503,9.89,103.141,17.005,149.163-9.879c13.13-7.836,26.245-18.437,21.379-34.546c-0.28-3.118,1.941-9.444,5.389-10.74
				c9.866-4.316,27.845-9.059,36.325-16.127c44.205-41.066-0.454-35.969,10.684-56.534c19.296-20.939,46.98-44.678,46.521-75.702
				c-3.704-30.082-29.472-6.949-32.748-28.094c1.811-10.269,13.3-20.849,19.219-28.803c14.069-17.259,37.027-53.778,30.394-76.558
				c-4.23-13.839-19.483-0.476-26.904-9.614c-7.386-6.813,1.821-18.544,4.262-25.468c4.302-8.843,11.705-27.811,15.42-36.959
				c2.933-7.309,2.624-23.891-7.596-29.079c-9.929-3.71-24.925,15.629-29.818-4.554c2.231-20.352,2.682-47.482,0.61-67.86
				c-7.395-41.624-14.986-23.937-23.67,1.948c-7.813,19.32-11.097,40.315-16.279,64.259
				c-21.373,80.124-63.153,149.444-131.06,199.51c-27.667,21.401-61.986,33.597-90.818,53.352
				c-30.908,19.976-56.344,53.999-64.335,90.173c-6.942,13.104-4.738,41.958-12.257,48.271c-2.381,1.535-9.562-1.257-11.101-3.659
				c-6.009-14.101,5.089-34.556,6.276-48.988c11.461-48.966,48.474-91.62,92.847-114.517c14.914-8.132,41.407-21.499,56.305-30.221
				c8.149-4.758,29.726-23.832,37.231-30.102c10.973-9.293,24.559-21.785,27.136-36.877c2.255-9.858,6.452-49.014-8.617-41.982
				c-26.205,20.6-14.906-23.437-16.916-36.523c-0.562-17.765-0.759-35.157-16.308-46.262c-4.235-0.93-6.434,5.586-11.52,7.775
				c-16.253,1.68-11.041-21.416-14.954-34.469c-2.534-11.448-6.449-40.84-21.413-39.815c-5.014,6.268-2.205,17.346-2.65,28.24
				c-0.12,16.86-4.697,40.714-7.853,57.505c-7.107,37.967-22.293,75-40.217,109.099c-21.47,44.871-50.466,91.793-90.727,122.347
				c-1.17,1.403-24.114,16.947-23.413,18.884c7.242,8.394,18.883,25.365,25.043,34.888c1.897,2.81,2.25,10.395,0.83,13.703
				c-10.212,11.646-24.458-17.034-30.578-24.835c-7.991-11.17-20.028-25.242-31.58-33.689
				c-20.895-13.879-43.536-33.808-69.982-34.07c-31.069,0.502-61.272,23.891-58.818,56.401c-0.001-0.001-0.195,26.067-0.195,26.067
				c0.894,7.69-11.947,33.346-4.171,29.009c53.749-23.619,75.76,16.6,89.516,61.897c6.12,18.728,13.17,41.36,19.12,60.12
				c8.45,23.672,14.171,57.139,34.408,74.323c24.502,27.941,54.812,45.832,92.075,50.491c30.207-1.425,18.973,6.313,32.161,26.315
				c11.66,18.87,25.894,46.079,41.213,62.265c5.647,7.135,28.852,29.801,38.289,25.244c20.857-8.732-9.128-47.795,23.542-36.058
				c11.35,10.46,9.936,15.579,21.829,25.658c10.868,7.271,33.412,35.547,48.196,24.87c6.589-10.278-2.328-27.435,8.916-30.23
				c6.539-1.625,13.923,3.322,19.114,8.502c7.334,8.227,39.213,29.625,37.722,7.435c-16.625-42.808,18.596-10.231,56.486-24.171
				c16.921-12.473-35.28-30.061-44.228-32.766c-66.907-22.647-135.203-56.045-178.269-113.884
				c-17.389-19.286-31.407-44.491-43.95-67.188c-4.604-8.304-6.796-22.855,7.052-21.736
				C2515.1,1514.873,2519.003,1517.515,2521.065,1517.855z"/>
			<path fill="#F05827" d="M2263.23,1372.394c-8.871-6.04-24.014-17.297-25.31-26.905c1.716-14.489,15.858-6.972,20.05-5.53
				C2281.432,1307.895,2286.181,1356.429,2263.23,1372.394z"/>
		</g>
		<g>
			<path fill="#F05827" d="M-807.251,1704.718c18.382-6.681,47.061-17.083,64.595-25.252c42.943-18.003,87.61-51.78,116.936-87.814
				c8.323-13.933,28.463-37.292,33.422-52.578c-34.448,2.102-72.557,12.848-107.061,0.084
				c-26.977-5.451-76.766-26.743-73.411-59.682c-0.275-4.247-14.203-6.421-22.761-11.532
				c-22.426-12.855-53.876-50.216-28.865-70.656c-31.734-33.625-75.963-87.837-20.375-118.746
				c-27.311-31.801-73.376-96.464-19.272-124.666c-13.138-29.845-35.156-71.733,4.616-92.173c10.136-3.221,13.018,3.933,13.939-2.36
				c0,0-0.385-15.89-0.383-15.89c-6.695-53.765,31.045-125.872,60.785-39.009c8.677,20.186,8.84,32.186,13.192,54.925
				c10.229,42.593,27.159,85.381,52.68,121.179c-0.111,0.154,1.083-1.521,1.483-2.024c-0.682-18.858,7.965-40.029,28.524-40.757
				c-1.897-28.361-0.06-64.602,28.861-79.116c5.71-2.385,11.332,2.574,12.156-2.547c3.852-25.598,10.059-62.761,41.446-65.813
				c26.725,4.486,19.634,29.773,21.676,51.273c1.489,18.521,4.481,41.258,7.41,59.584c6.027,17.86,14.183,45.474,21.413,63.126
				c8.617,16.828,17.814,36.357,26.373,53.287c20.407,38.825,46.28,74.775,81.895,100.913c4.483,2.335,16.858,17.085,22.761,11.379
				c19.297-16.609,45.302-33.899,69.474-42.368c40.058-14.363,84.878,11.021,94.902,52.095c6.02,32.903-7.616,45.893,14.205,74.038
				c3.551,4.581,5.163,13.131,2.324,17.649c-15.652,10.173-30.209-5.097-43.423-5.798c0,0-16.713-2.529-16.715-2.532
				c-26.635,4.495-31.341,38.164-41.401,59.372c-13.303,34.87-21.791,78.258-37.464,112.215c-6.359,13.64-4.339,5.028-11.131,17.097
				c-7.713,13.704-14.703,16.571-21.324,22.857c-9.413,10.442-22.962,18.079-35.04,24.885
				c-18.092,10.455-40.463,15.452-61.743,18.496c-4.908,0.702-4.518,4.362-9.004,12.71c-20.751,36.748-43.245,80.698-83.899,98.129
				c-29.314,12.145-31.71-10.783-39.901-19.119c0,0-1.942,1.942-1.943,1.94c-19.159,21.231-76.652,62.717-85.179,12.659
				c-2.296-0.525-11.831,6.865-14.413,8.199c-30.745,18.435-52.869,3.798-49.88-22.511c-25.148,3.364-75.468-1.234-56.778-37.86
				C-841.748,1714.831-824.934,1711.708-807.251,1704.718z M-575.616,1513.846c13.849-1.119,11.656,13.432,7.052,21.736
				c-12.542,22.696-26.56,47.901-43.95,67.188c-43.066,57.839-111.362,91.237-178.269,113.884
				c-8.947,2.705-61.149,20.294-44.228,32.766c37.889,13.94,73.111-18.637,56.486,24.171c-1.49,22.191,30.389,0.792,37.722-7.435
				c5.191-5.181,12.575-10.128,19.114-8.502c11.244,2.795,2.327,19.951,8.916,30.23c14.784,10.678,37.328-17.599,48.196-24.87
				c11.893-10.079,10.479-15.197,21.829-25.658c32.67-11.737,2.684,27.326,23.541,36.058c9.437,4.557,32.642-18.109,38.289-25.244
				c15.319-16.185,29.553-43.395,41.213-62.265c13.188-20.001,1.954-27.74,32.161-26.315c37.263-4.659,67.573-22.55,92.075-50.491
				c20.237-17.184,25.959-50.651,34.409-74.323c5.95-18.76,13-41.391,19.12-60.12c13.756-45.296,35.767-85.516,89.516-61.897
				c7.776,4.337-5.065-21.319-4.171-29.009c0,0-0.194-26.068-0.195-26.067c2.454-32.51-27.749-55.898-58.818-56.401
				c-26.446,0.262-49.088,20.191-69.982,34.07c-11.552,8.447-23.589,22.518-31.58,33.689c-6.121,7.801-20.366,36.481-30.578,24.835
				c-1.42-3.308-1.068-10.892,0.83-13.703c6.159-9.523,17.801-26.494,25.043-34.888c0.701-1.938-22.243-17.481-23.413-18.884
				c-40.261-30.554-69.257-77.476-90.727-122.347c-17.924-34.099-33.11-71.131-40.217-109.099
				c-3.155-16.792-7.733-40.645-7.853-57.505c-0.445-10.895,2.364-21.972-2.65-28.24c-14.964-1.025-18.879,28.366-21.413,39.815
				c-3.913,13.053,1.3,36.149-14.953,34.469c-5.086-2.19-7.286-8.705-11.52-7.775c-15.549,11.105-15.745,28.497-16.308,46.262
				c-2.01,13.086,9.289,57.123-16.916,36.523c-15.069-7.032-10.871,32.124-8.617,41.982c2.577,15.092,16.163,27.584,27.136,36.877
				c7.506,6.27,29.082,25.345,37.231,30.102c14.899,8.722,41.391,22.089,56.306,30.221c44.373,22.898,81.386,65.551,92.847,114.517
				c1.187,14.432,12.284,34.887,6.276,48.988c-1.539,2.401-8.72,5.194-11.101,3.659c-7.519-6.313-5.314-35.167-12.257-48.271
				c-7.99-36.173-33.427-70.197-64.335-90.173c-28.832-19.755-63.151-31.951-90.818-53.352
				c-67.907-50.066-109.687-119.385-131.06-199.51c-5.182-23.944-8.466-44.939-16.279-64.259
				c-8.684-25.885-16.275-43.572-23.67-1.948c-2.072,20.378-1.62,47.508,0.61,67.86c-4.893,20.182-19.889,0.843-29.818,4.554
				c-10.22,5.189-10.529,21.77-7.596,29.079c3.715,9.148,11.118,28.116,15.42,36.959c2.441,6.924,11.647,18.655,4.261,25.468
				c-7.421,9.138-22.674-4.226-26.904,9.614c-6.633,22.78,16.325,59.299,30.394,76.558c5.919,7.954,17.408,18.534,19.219,28.803
				c-3.276,21.145-29.043-1.988-32.747,28.094c-0.459,31.024,27.225,54.762,46.521,75.702
				c11.138,20.565-33.521,15.468,10.683,56.534c8.48,7.068,26.459,11.811,36.325,16.127c3.447,1.296,5.668,7.622,5.389,10.74
				c-4.866,16.109,8.249,26.71,21.379,34.546c46.022,26.883,99.66,19.769,149.162,9.879
				C-581.824,1517.515-577.92,1514.873-575.616,1513.846z"/>
			<path fill="#F05827" d="M-326.051,1372.394c8.871-6.04,24.014-17.297,25.31-26.905c-1.715-14.489-15.858-6.972-20.05-5.53
				C-344.253,1307.895-349.002,1356.429-326.051,1372.394z"/>
		</g>
		<g>
			<path fill="#F05827" d="M1940.004,1915.375c-6.187-8.298-19.627-45.534-31.164-42.202c-29.7,8.063-63.865,16.734-93.741,24.329
				c-89.974,21.101-182.301,38.39-273.661,52.286c-176.828,26.017-356.764,40.026-535.312,43.251
				c-285.573,1.045-572.976-25.841-852.055-87.785c-24.119-5.165-55.867-12.91-79.717-19.225c0.001,0-19.909-5.294-19.909-5.294
				l-9.845-2.554c0,0-19.452-5.127-19.452-5.127c-2.469-0.651-6.783,1.306-8.16,3.471c-19.249,29.666-34.079,58.894-41.496,93.16
				c-8.128,18.843,7.341,48.933-16.347,61.795c-54.731,18.911-114.986-4.031-167.615-20.934l-0.12,2.025
				c37.139,32.889,70.18,72.923,101.057,111.421c4.661,13.615-14.987,16.631-23.437,7.255
				c-32.694-18.26-64.958-36.851-100.248-48.951c-1.904-0.532,7.601,19.847,8.998,22.489c6.167,9.071,62.557,141.341,18.12,109.005
				c-40.432-66.337-92.333-128.228-154.629-175.026c-161.904-117.901-161.505-14.951-46.244-186.379
				c0.303-0.424,0.395-3.575-0.046-3.852l-9.089-5.701c-26.494-20.099-67.926-47.096-58.117-84.893
				c1.875-10.603,11.964-17.479,19.687-23.499c13.188-9.858,27.805-22.109,38.635-34.195c24.436-23.862,50.15-58.956,68.917-87.506
				c20.266-29.368,41.05-64.184,56.637-96.521c44.65-94.428-1.808-124.87,86.549-80.406
				c119.816,52.197,246.888,87.886,374.071,116.981c253.705,54.842,513.821,81.95,772.829,86.019
				c41.917,1.246,85.809-1.562,127.775-1.286c3.996-3.168,23.731-1.025,28.479-1.418c15.609-1.62,37.662-2.599,53.474-3.042
				c6.402,0.169,24.815-2.392,30.939-1.061c137.736-10.905,276.382-23.946,412.255-47.545
				c196.062-33.807,392.881-80.487,573.833-164.9c0-0.001,10.533-4.995,10.533-4.995c4.605-2.184,15.153,6,15.894,16.935
				c2.383,29.461,15.279,63.591,27.23,90.423c8.121,17.485,22.673,40.817,32.136,57.546c23.865,36.048,50.207,78.305,80.309,109.668
				c18.886,21.546,34.772,34.505,58.15,52.097c37.561,37.778-17.707,81.621-48.91,102.42c-2.881,2.098-9.648,3.917-7.944,8.348
				c0.002,0,9.623,13.409,9.623,13.409c2.41,3.359,4.259,6.709,6.315,10.234c10.824,14.845,16.292,20.555,26.866,35.766
				c2.237,3.078,4.751,6.124,7.197,9.094c0,0,12.211,14.831,12.211,14.831c2.623,5.347,27.62,24.027,18.13,31.786
				c-42.78,21.426-88.742,42.554-126.749,72.033c-51.105,38.2-95.005,87.519-131.581,139.566
				c-3.979,8.738-17.779,25.318-21.704,33.694c-32.893,28.443-9.987-39.881-6.239-52.025c6.087-18.149,13.421-36.163,22.242-53.078
				c8.497-18.792,19.548-32.646-9.967-17.239c-8.406,5.632-22.494,8.384-30.294,13.565c-7.387,5.764-26.882,15.09-34.96,19.274
				c-10.087,3.081-26.146,21.098-35.711,11.369c-3.486-3.229-5.098-8.411-1.008-12.488c10.59-10.644,21.504-26.745,31.072-38.592
				c10.719-11.103,20.211-23.463,31.188-34.354c12.102-11.397,24.06-24.656,36.61-35.556c0.327-0.302,0.557-2.716,0.147-2.53
				c-35.638,11.978-68.093,22.531-106.441,26.706c-37.292,2.308-82.056,4.258-74.198-45.014c-2.303-17.402,0.881-10.052-2.07-20.21
				C1953.76,1953.341,1950.821,1932.995,1940.004,1915.375z M2004.89,1826.212c42.181-15.363,87.579-30.772,128.678-48.902
				c34.912-18.626,74.214-33.326,111.609-46.164c27.068-13.736,66.295-9.869,93.042-14.395
				c-50.495-55.804-94.423-119.603-127.418-187.299c-6.437-13.179-12.066-28.94-17.213-42.749
				c-5.247-13.981-8.729-31.233-11.055-46.456c-0.245-1.605-2.036-5.243-3.281-4.625c-98.161,46.567-203.742,81.424-308.798,108.829
				c-284.761,75.088-580.732,106.218-874.559,112.326c-233.84,0.131-469.441-19.804-699.774-61.083
				c-147.11-26.382-294.361-62.736-434.545-114.956c-34.67-13.421-71.992-28.515-105.527-44.643
				c-1.23-0.579-2.515-1.268-2.691-0.581c-5.288,28.552-6.804,36.546-17.056,63.753c-14.123,39.497-36.446,77.052-59.364,112.04
				c-23.517,36.254-50.472,73.039-79.836,105.065c21.308,5.596,46.319,0.865,68.565,6.856c18.732,5.069,42.137,14.953,60.873,20.965
				c22.046,8.934,53.88,21.669,74.924,33.273c27.65,12.083,59.772,24.353,88.243,34.353
				c115.636,41.351,236.728,70.718,357.133,94.662c222.074,41.78,449.012,64.471,674.644,68.28c37.636,1.57,78.28,0.378,115.95-0.46
				c15.712-1.068,37.112,1.484,52.423-2.341c31.003,0.857,65.642-2.707,96.713-4.124c13.564,1.31,30.699-2.499,44.238-2.827
				c34.386-2.427,72.053-5.229,106.331-8.806C1562.962,1934.547,1788.381,1894.758,2004.89,1826.212z M-44.658,1978.25
				c5.548-40.799,23.88-78.054,47.766-111.018c-61.441-18.498-125.082-39.275-184.543-63.372
				c-26.521-10.928-56.283-22.791-81.396-36.532c-18.763-9.952-14.168-5.322-32.288-12.31
				c-26.855-11.636-51.943-17.972-80.946-19.053c-26.563-4.774-85.919,3.889-78.361,40.29
				c10.311,20.009,28.572,35.833,46.571,48.835c24.556,18.471,56.219,31.044,83.797,44.373
				c55.843,24.088,117.222,41.609,173.802,63.888C-114.789,1947.593-77.945,1957.485-44.658,1978.25z M2012.175,1961.22
				c44.895-17.801,91.958-35.744,137.711-51.281c67.223-24.459,140.018-46.667,198.258-89.056
				c18.059-15.393,62.114-47.676,30.943-70.126c-33.552-26.446-78.181-14.619-116.986-7.574c-19.2,6.794-40.552,14.33-59.537,21.32
				c-15.265,8.787-35.056,17.818-51.374,24.618c-70.525,31.042-146.018,55.638-219.615,78.265
				c15.433,21.728,31.169,48.526,39.378,74.208c2.286,6.079,3.667,12.474,5,18.983c2.799,13.669-1.183,10.451,4.343,17.581
				C1988.489,1971.426,2003.467,1964.743,2012.175,1961.22z M-140.727,2012.939c22.436,4.472,75.293,16.028,92.668,0.918
				c8.748-22.837-30.248-32.259-45.114-39.775c-41.385-16.506-85.59-33.389-127.801-47.545
				c-54.591-19.948-113.394-39.774-165.047-66.982c-4.831-2.226-8.966,10.01-11.236,12.186c-7.09,9.461-15.583,18.855-20.822,29.734
				c-9.571,12.428-23.068,29.518-32.28,42.201c-0.152-0.082,1.983,1.058,2.733,1.459c47.43-10.321,85.962,0.64,131.933,11.398
				C-256.669,1972.024-200.231,1999.375-140.727,2012.939z M2120.361,2000.304c46.593-14.955,93.812-35.93,141.918-46.486
				c39.151-10.312,80.307-17.863,120.683-8.54c0.676-0.432,2.805-1.768,2.157-1.361c-17.973-23.584-35.769-47.718-52.934-71.769
				c-2.196-2.229-7.045-14.909-11.716-12.504c-56.192,29.308-120.398,50.584-179.75,72.189
				c-37.93,12.276-78.36,28.774-115.531,43.289c-57.532,20.512-62.963,51.772,6.375,45.304
				C2059.65,2018.167,2093.567,2008.446,2120.361,2000.304z M-242.255,2056.944c18.795,9.102,40.762,17.163,59.053,26.919
				c18.727,9.13,44.257,25.117,15.637-6.29c-16.047-16.344-34.563-34.705-50.881-50.856c-32.139-34.579-70.661-46.891-115.6-57.045
				c-35.683-9.673-78.365-14.656-115.374-7.252c-2.133,1.358-3.876,3.157-0.412,2.573
				c106.182,50.278,161.327,105.809,232.846,195.232c-7.199-16.334-19.489-49.515-28.913-64.179
				c-3.848-7.426-12.542-23.636-16.591-31.104C-265.983,2052.057-250.5,2052.366-242.255,2056.944z M2187.232,2083.07
				c-11.502,20.031-24.289,48.512-32.91,70.287c-0.428,1.01,0.044,4.372,0.592,3.907c17.89-21.761,36.054-46.038,55.375-66.517
				c30.222-33.647,66.582-62.799,104.292-87.555c19.61-12.565,52.986-29.432,72.475-39.573c-0.465-0.13-2.362-0.973-2.912-1.04
				c-42.471-8.721-85.313-1.176-126.498,9.917c-25.135,7.265-53.533,12.574-74.218,28.692
				c-17.864,12.847-34.838,29.499-50.262,45.099c-11.221,12.132-37.646,35.019-44.881,49.894
				c14.662-2.42,25.236-10.918,39.515-17.577c0,0,20.038-8.462,20.038-8.462C2171.037,2059.272,2217.175,2034.664,2187.232,2083.07z
				"/>
		</g>
	</g>
	<g>
		<path fill="#F05827" d="M-196.278,1722.251c-23.698-7.906-47.341-16.063-70.915-24.469
			c17.522-60.086,35.219-120.113,53.097-180.081c19.526,7.03,39.102,13.879,58.721,20.546c-3.355,12.651-6.696,25.305-10.03,37.962
			c-4.162,15.131-8.61,30.167-13.056,45.204c0.194,0.065,0.388,0.131,0.582,0.197c9.935-13.179,16.564-21.368,25.645-33.317
			c10.975-14.079,21.873-28.2,32.693-42.363c0.567,0.186,1.133,0.372,1.702,0.557c0.242,17.789,0.567,35.589,0.975,53.402
			c0.449,15.385,1.303,25.708,1.217,42.122c0.198,0.062,0.388,0.124,0.585,0.186c5.335-14.751,10.64-29.499,16.236-44.162
			c4.804-12.174,9.598-24.352,14.383-36.533c19.725,6.231,39.491,12.281,59.301,18.148c-21.079,58.918-42.34,117.778-63.78,176.577
			c-23.878-7.152-47.701-14.555-71.462-22.208c0.932-23.071,1.968-46.122,3.122-69.153c-0.194-0.064-0.391-0.128-0.585-0.192
			C-170.553,1683.916-183.362,1703.109-196.278,1722.251z"/>
		<path fill="#F05827" d="M-11.153,1583.762c38.886,11.343,77.922,21.988,117.093,31.934c-4.785,18.842-9.568,37.683-14.351,56.525
			c-18.939-4.809-37.847-9.779-56.728-14.91c-1.446,5.321-2.893,10.642-4.338,15.963c17.99,4.889,36.008,9.633,54.053,14.232
			c-2.938,11.528-5.875,23.056-8.813,34.584c-18.227-4.645-36.427-9.437-54.6-14.376c-1.573,5.786-3.146,11.573-4.718,17.359
			c19.554,5.314,39.141,10.459,58.76,15.436c-4.826,19.031-9.654,38.061-14.48,57.092c-41.602-10.552-83.065-21.852-124.361-33.898
			C-46.141,1703.722-28.645,1643.742-11.153,1583.762z"/>
		<path fill="#F05827" d="M121.777,1619.678c39.204,9.758,78.543,18.818,117.986,27.18c-4.032,19.017-8.062,38.034-12.094,57.051
			c-19.073-4.043-38.12-8.247-57.14-12.611c-1.232,5.374-2.466,10.748-3.698,16.123c18.122,4.159,36.27,8.172,54.447,12.041
			c-2.475,11.635-4.955,23.271-7.43,34.907c-18.357-3.908-36.692-7.962-54.998-12.163c-1.344,5.844-2.682,11.688-4.023,17.532
			c19.699,4.52,39.428,8.872,59.187,13.055c-4.067,19.208-8.135,38.415-12.2,57.623c-41.894-8.869-83.667-18.486-125.304-28.849
			C91.598,1740.937,106.689,1680.307,121.777,1619.678z"/>
		<path fill="#F05827" d="M299.975,1764.511c-5.154,27.471-10.31,54.943-15.464,82.414c-22.299-4.184-44.571-8.578-66.803-13.182
			c12.668-61.181,25.336-122.363,38.004-183.544c21.09,4.367,42.217,8.535,63.366,12.504c-5.26,28.042-10.524,56.083-15.785,84.125
			c12.62-26.661,25.06-53.379,37.333-80.153c21.172,3.833,42.366,7.467,63.59,10.902c-15.233,28.69-30.738,57.289-46.51,85.792
			c5.23,33.08,10.744,66.16,16.56,99.237c-22.37-3.621-44.72-7.452-67.038-11.493
			C304.633,1822.238,302.214,1793.37,299.975,1764.511z"/>
		<path fill="#F05827" d="M417.344,1679.676c39.732,6.274,79.552,11.849,119.434,16.727c-2.362,19.296-4.718,38.591-7.08,57.887
			c-19.285-2.358-38.552-4.877-57.807-7.557c-0.757,5.461-1.517,10.922-2.28,16.384c18.344,2.553,36.708,4.962,55.082,7.225
			c-1.454,11.807-2.908,23.614-4.362,35.421c-18.56-2.286-37.107-4.719-55.64-7.298c-0.828,5.939-1.655,11.878-2.481,17.816
			c19.943,2.775,39.9,5.382,59.875,7.819c-2.378,19.489-4.757,38.977-7.135,58.466c-42.355-5.169-84.65-11.085-126.844-17.748
			C397.852,1803.104,407.597,1741.39,417.344,1679.676z"/>
		<path fill="#F05827" d="M552.902,1698.336c19.557,2.299,39.13,4.43,58.719,6.393c3.614,13.29,7.283,26.574,11.003,39.854
			c3.786,13.675,7.633,27.344,11.54,41.008c0.302,0.027,0.596,0.055,0.9,0.082c3.009-39.643,4.045-57.32,5.035-77.917
			c19.794,1.818,39.602,3.466,59.42,4.942c-4.641,62.306-9.279,124.613-13.924,186.919c-19.653-1.464-39.296-3.087-58.924-4.87
			c-4.222-12.038-8.386-24.082-12.504-36.134c-4.854-14.063-9.641-28.135-14.355-42.215c-0.304-0.03-0.606-0.061-0.908-0.091
			c-1.802,24.994-3.585,49.99-5.357,74.987c-20.857-2.087-41.7-4.354-62.527-6.802
			C538.315,1822.439,545.607,1760.387,552.902,1698.336z"/>
		<path fill="#F05827" d="M779.053,1717.117c64.056,3.155,89.272,33.496,87.794,98.299c-1.473,64.566-29.538,92.809-97.435,89.472
			c-25.166-1.267-53.395-3.385-65.81-4.267c4.338-62.328,8.666-124.657,13-186.985
			C729.844,1714.572,755.769,1715.943,779.053,1717.117z M777.45,1843.703c15.287,0.755,20.525-7.172,21.561-30.644
			c1.092-24.644-3.329-33.527-18.316-34.267c-0.802-0.04-1.599-0.08-2.399-0.121c-1.096,21.636-2.192,43.272-3.29,64.908
			C775.819,1843.622,776.635,1843.663,777.45,1843.703z"/>
		<path fill="#F05827" d="M941.668,1815.931c0.708-61.877,25.623-97.42,80.23-98.375c56.368-1.165,82.931,33.061,85.679,93.725
			c2.973,65.708-22.363,99.987-81.967,101.222C967.561,1913.513,941.539,1881.133,941.668,1815.931z M1025.348,1850.405
			c12.247-0.243,14.517-7.571,13.844-35.992c-0.678-28.431-3.232-35.32-15.216-35.081c-11.986,0.224-14.282,7.207-13.857,35.642
			C1010.542,1843.399,1013.1,1850.634,1025.348,1850.405z"/>
		<path fill="#F05827" d="M1108.633,1718.59c21.904-0.967,43.803-2.143,65.694-3.527c4.951,31.569,9.984,63.13,15.101,94.681
			c2.541,15.535,4.848,31.669,6.286,44.075c0.919-0.061,1.84-0.123,2.761-0.185c-0.226-12.487-0.11-28.783,0.336-44.519
			c0.85-31.952,1.622-63.902,2.309-95.851c21.878-1.554,43.747-3.318,65.599-5.289c-2.429,62.854-5.296,125.72-8.597,188.592
			c-38.554,3.206-77.147,5.797-115.759,7.773C1130.687,1842.474,1119.443,1780.556,1108.633,1718.59z"/>
		<path fill="#F05827" d="M1274.354,1707.277c39.978-3.696,79.909-8.091,119.77-13.184c2.466,19.283,4.927,38.565,7.393,57.848
			c-19.276,2.463-38.565,4.765-57.869,6.906c0.608,5.48,1.215,10.96,1.825,16.441c18.396-2.041,36.779-4.226,55.148-6.557
			c1.495,11.802,2.997,23.603,4.492,35.405c-18.555,2.354-37.12,4.562-55.705,6.624c0.662,5.959,1.322,11.919,1.983,17.878
			c19.995-2.218,39.974-4.605,59.94-7.161c2.494,19.474,4.988,38.949,7.48,58.423c-42.336,5.42-84.739,10.093-127.196,14.018
			C1285.86,1831.704,1280.108,1769.491,1274.354,1707.277z"/>
		<path fill="#F05827" d="M1410.231,1691.997c22.464-2.977,44.903-6.177,67.316-9.597c53.364-8.212,84.926,8.575,92.536,50.905
			c3.898,21.994-1.09,37.338-13.326,49.146c12.396,23.589,24.963,47.12,37.7,70.592c-23.349,4.156-46.735,8.082-70.142,11.778
			c-7.533-17.709-15-35.438-22.385-53.186c-2.995,0.754-6.019,1.218-9.365,1.723c3.182,18.299,6.369,36.598,9.566,54.895
			c-22.4,3.395-44.825,6.58-67.269,9.555C1426.653,1815.871,1418.44,1753.934,1410.231,1691.997z M1495.397,1769.194
			c8.996-1.385,14.588-8.744,13.222-17.336c-1.419-8.885-8.987-14.434-17.902-13.062c-8.916,1.372-14.459,8.943-13.141,17.842
			C1478.857,1765.243,1486.38,1770.58,1495.397,1769.194z"/>
		<path fill="#F05827" d="M1565.391,1667.831c21.658-3.88,43.292-7.968,64.891-12.265c9.117,30.63,18.31,61.24,27.582,91.829
			c4.595,15.059,9.016,30.743,12.098,42.847c0.906-0.184,1.816-0.368,2.723-0.553c-1.881-12.347-3.916-28.516-5.568-44.172
			c-3.381-31.785-6.852-63.557-10.403-95.316c21.578-4.467,43.115-9.143,64.626-14.027c5.909,62.629,11.378,125.327,16.422,188.09
			c-37.967,8.342-76.042,16.069-114.195,23.181C1603.751,1787.681,1584.354,1727.809,1565.391,1667.831z"/>
		<path fill="#F05827" d="M1728.851,1634.458c21.017-4.823,42.002-9.844,62.949-15.066c15.11,60.624,30.22,121.248,45.331,181.873
			c-22.078,5.505-44.204,10.799-66.363,15.883C1756.796,1756.252,1742.823,1695.355,1728.851,1634.458z"/>
		<path fill="#F05827" d="M1806.779,1615.623c39.167-9.95,78.208-20.598,117.091-31.944c5.443,18.661,10.89,37.323,16.333,55.984
			c-18.804,5.486-37.639,10.812-56.508,15.977c1.458,5.318,2.912,10.637,4.367,15.955c17.98-4.922,35.935-9.989,53.856-15.201
			c3.324,11.423,6.645,22.846,9.967,34.269c-18.104,5.265-36.237,10.383-54.402,15.355c1.583,5.783,3.167,11.567,4.75,17.35
			c19.548-5.35,39.053-10.869,58.531-16.557c5.505,18.846,11.011,37.692,16.513,56.538c-41.298,12.061-82.754,23.375-124.354,33.942
			C1837.541,1736.735,1822.159,1676.18,1806.779,1615.623z"/>
		<path fill="#F05827" d="M2072.818,1734.018c-23.763,7.653-47.585,15.056-71.462,22.208c-21.44-58.8-42.698-117.659-63.78-176.577
			c19.807-5.868,39.573-11.917,59.301-18.148c4.783,12.181,9.581,24.359,14.383,36.533c5.596,14.665,10.916,29.411,16.236,44.162
			c0.198-0.062,0.388-0.124,0.585-0.185c0.203-16.506,0.666-27.014,0.93-42.029c0.505-17.843,0.93-35.675,1.262-53.495
			c0.568-0.186,1.135-0.371,1.702-0.557c10.728,14.194,21.528,28.347,32.406,42.459c9.471,12.129,16.271,19.943,25.933,33.22
			c0.194-0.066,0.388-0.131,0.582-0.197c-4.457-15.039-8.886-30.073-13.056-45.204c-3.335-12.657-6.679-25.311-10.031-37.962
			c19.621-6.667,39.197-13.516,58.721-20.546c17.88,59.968,35.577,119.995,53.097,180.081
			c-23.571,8.407-47.214,16.563-70.916,24.469c-12.914-19.142-25.724-38.334-38.431-57.577c-0.194,0.064-0.392,0.128-0.585,0.192
			C2070.847,1687.896,2071.887,1710.947,2072.818,1734.018z"/>
	</g>
</g>
<g>
	<g>
		<path fill="#F8D6BF" d="M557.152-867.552c0,0.888-0.296,2.07,0,2.957c1.774,4.73,0.295,9.46,0.295,14.19
			c0,1.183,0.591,2.365,0.591,3.252c0.887,4.73-1.183,6.504-5.617,6.504c-3.843,0-7.687,0.592-11.825,0.887h-4.435
			c-4.139,0-8.278,0.296-12.417,0c-3.843-0.295-7.687,1.479-11.53,0.296c-3.844,2.069-8.278,0.296-12.122,1.183
			c-3.843,0.592-7.982,0.296-11.825,0.887c-1.774,0.296-3.548,0-6.208-0.295c0,4.729,0.295,8.869,0,13.304
			c0,3.843-0.591,7.687-0.887,11.825v3.844c1.774,0,2.957,0,4.435,0h26.608c3.843,0,7.687-0.592,11.234-0.592
			c0.591-0.296,1.479,0.296,2.07,0.296c0.295-0.296,0.591-0.592,0.887-0.592c7.095-0.295,13.895-0.295,20.695-0.295
			c1.183,5.025,1.183,31.042-0.296,34.59c-20.399,1.478-41.094,1.478-62.675,1.182v7.392c0,21.877,0,44.05,0,65.928
			c0,3.547-0.295,6.8-0.591,10.347c-0.295,0.888-0.887,1.774-1.183,2.365h-37.546c-0.296-1.478-0.591-2.956-0.591-4.139
			c0-5.913,0.295-11.53,0.295-17.147c0.296-15.964,0.591-31.633,0.591-47.598c0.296-15.373-0.295-30.451,0.296-45.824
			c1.182-29.563,0.887-59.128,0.887-88.691c0-0.887,0.295-2.069,0.295-3.548h28.381c5.322-0.296,10.643-0.887,15.965-0.887
			c8.869,0.296,17.738-0.296,26.903-0.296c10.052,0.296,20.104,0,30.155,0c2.365,0,5.026-0.296,7.391-0.296
			c0.887,0,1.774,0.296,2.957,0.592c-0.296,1.479-0.296,2.661-0.591,3.843c-0.296,1.183-0.591,2.365-0.591,3.253
			C558.63-881.742,558.63-874.647,557.152-867.552z M525.518-808.719v0.591c0.295-0.296,0.295-0.296,0.591-0.296
			C525.814-808.719,525.814-808.719,525.518-808.719z"/>
		<path fill="#F8D6BF" d="M648.799-688.69c-3.843-1.479-2.661-5.026-3.252-7.687c-2.957-10.644-5.026-21.286-7.391-31.93
			l-7.095-29.563c-1.183-4.139-2.365-7.982-3.548-12.121H614.8c0,1.478-0.296,2.956-0.296,4.435c0,6.504,0.296,13.008,0,19.217
			c-0.887,12.121-1.183,24.242-0.887,36.363c0,5.025,0.591,9.756,0.887,14.486c0,1.773-0.295,3.548-0.295,5.913l-20.104,0.887
			c-6.208,0.295-12.712,0.887-19.216,1.183c-2.661-2.957-1.183-7.392-1.774-11.234c-0.296-1.774,0.295-3.844,0.295-5.913
			c0.296-13.895,0.887-27.79,0.887-41.685c0-6.8-0.591-13.305-0.887-19.809v-7.095c0-15.078-0.295-30.451,0-45.528v-15.669
			c0.296-6.209,0.591-12.121,0.591-18.33c0.296-3.843,0.296-7.982,0-11.825l-0.887-30.155c5.026-1.479,11.234-1.479,15.669-0.887
			c1.773,0.295,3.843,0,5.617-0.296c3.252,0,6.504,0,9.756-0.296c4.435,0,8.574-0.296,13.008-0.591
			c4.435-0.592,8.869-0.296,13.599-0.296c7.391,0.296,14.191,3.844,21.582,2.661h1.183c6.8,2.956,14.191,4.435,20.104,10.052
			c7.687,7.095,12.417,15.373,15.078,25.425c3.252,12.121,4.139,24.242,0.295,36.363c-1.478,5.026-2.661,9.756-5.026,14.19
			c-3.252,6.504-7.391,12.417-13.008,17.147c-1.774,1.479-3.548,3.252-5.026,4.435c-0.591,6.8,1.478,12.121,2.957,17.738
			c1.478,5.025,3.252,9.756,3.843,14.486s2.069,8.869,3.547,13.008c4.435,13.304,8.278,26.312,11.234,39.911
			c0.887,3.548,2.069,7.096,3.252,11.234c-3.252,0-5.913,0.592-8.573,0.592c-5.913-0.296-11.826-0.592-17.738,1.183
			c-1.479,0.591-3.548,0-5.617,0H648.799z M611.548-849.518v42.276c6.208,0,11.825,0.296,17.738-0.887
			c4.139-1.183,7.391-3.252,10.052-6.208c5.321-6.8,6.208-14.782,5.026-23.061c-0.887-4.729-5.913-9.756-10.643-10.938
			C626.626-850.109,619.235-849.222,611.548-849.518z"/>
		<path fill="#F8D6BF" d="M742.515-688.099c-11.826,0.296-23.355,0.887-34.885,1.183c-0.296-1.183-1.183-2.069-1.183-2.956
			c0-10.348,0.295-20.99,0.591-31.634c0.295-8.573,0.591-17.146,0.591-26.016c0-7.392-1.183-14.782-1.183-22.173
			c0-6.505,0.887-12.713,0.887-19.217c0.296-5.321-0.295-10.348-0.295-15.669c0-26.312,0-52.328,0-78.64v-13.6
			c0.295,0,1.478-0.887,2.661-0.887h34.294c0,2.956,0.296,5.321,0.296,7.981c0,15.669-0.296,31.338-0.591,47.007
			c-0.296,14.19-0.887,28.382-0.887,42.572c0,14.782-0.295,29.269,0.296,44.05c0.295,4.14-0.591,8.278-0.887,12.417
			c0,0.887-0.295,1.774,0,2.661c0,5.321,0.296,10.938,0.591,16.556c0.296,2.365,0.591,5.025,0.591,7.391v9.461
			c-0.295,4.729-0.295,9.46-0.591,14.19C742.81-691.942,742.81-690.464,742.515-688.099z"/>
		<path fill="#F8D6BF" d="M759.956-687.803c0-3.548,0-6.504,0-9.756l-0.887-10.938c0-0.592-0.296-1.479,0-2.07
			c2.069-9.756,0.591-19.216,0-28.973c0-2.956,0.591-6.208,0.591-9.46c0.295-0.887,0.295-2.069,0.295-2.956
			c0-10.939,0-21.878-0.295-32.816c0-5.617-0.887-11.234-0.591-16.852c0.295-8.869,1.478-17.738,1.478-26.607
			c0.296-8.573-0.295-17.442-0.295-26.017c0-0.887,0.295-1.478,0.295-2.364c-0.295-3.844,1.183-7.687-0.591-11.53
			c-0.295-0.887,0.591-2.365,0.591-3.548c0-3.843,0.296-7.982,0-11.825c0-2.957-0.591-5.617-0.295-8.278
			c0-1.478,1.182-2.956,1.773-4.139c9.165-0.592,17.443-1.773,26.017-1.773c5.321,0,10.643,0.887,15.964,1.478
			c1.478,0,3.252-0.296,5.026-0.296c2.069,0,4.435-0.295,6.504,0c7.391,0.888,14.782,2.661,21.877,6.209
			c4.73,2.365,8.574,5.913,12.417,9.165c3.843,3.547,7.095,7.391,10.347,11.529c5.617,7.982,10.347,16.556,11.53,26.607
			c1.183,7.096,1.183,14.486,2.365,21.582c1.774,12.121,0.887,23.946,0.887,35.772c0,8.277-0.591,16.26-0.887,24.538
			c-0.591,7.687-1.183,15.373-2.365,23.06c-0.295,3.548-1.183,6.8-2.956,10.052c-3.843,8.278-7.687,16.556-14.782,22.765
			c-5.026,4.435-10.643,8.869-16.556,12.121c-3.843,2.069-8.574,2.66-13.008,3.252c-6.504,0.887-13.008,0.887-19.512,1.183
			c-4.435,0.295-8.869,1.478-13.304,1.773c-2.661,0-5.026-0.591-7.391-0.591c-6.208,0-12.122,1.183-18.33-0.592
			C764.391-688.395,762.617-687.803,759.956-687.803z M800.458-828.527v74.501c4.139,2.365,7.982,0.592,12.122,0.592
			c6.208-0.296,10.643-4.73,13.895-9.165c2.956-3.843,5.026-8.869,6.799-13.6c1.774-5.617,2.661-11.529,2.07-16.851
			c-0.591-6.8-2.365-13.6-4.139-20.399c-1.774-5.617-5.913-8.869-10.347-11.53C814.649-828.232,807.258-827.345,800.458-828.527z"/>
		<path fill="#F8D6BF" d="M999.129-689.872c-10.938,3.843-21.286,0.296-31.929,1.183c-5.026-10.348-4.73-22.173-8.869-32.816
			h-39.616c-1.774,10.348-3.843,20.695-5.913,31.634h-8.87c-4.435,0.296-8.869,0.887-13.304,0.887
			c-3.843,0-7.687-0.296-11.825-0.591c-1.479-4.435,0.887-8.278,1.183-12.122c0.295-5.617,1.478-11.233,2.661-16.556l3.547-20.398
			c1.183-7.096,2.365-14.191,3.548-21.582l4.435-26.903c0.887-5.617,1.774-11.529,2.957-17.146c0.591-4.73,1.478-9.461,2.365-13.896
			c1.183-7.687,2.365-15.373,3.548-23.06l2.661-13.6c0.887-5.913,1.479-11.53,2.661-17.147c0.887-6.208,2.365-12.121,3.547-18.329
			l0.887-5.026c17.442-0.295,34.589-0.887,52.624-1.183c0.591,3.253,1.478,6.505,2.069,10.052l5.322,29.269
			c2.069,12.417,4.435,25.13,6.208,37.842c1.182,7.982,2.069,15.965,3.843,23.947c1.773,7.981,2.069,15.964,3.547,23.946
			c1.183,8.573,3.252,17.147,4.73,26.017c0.887,5.321,1.478,10.938,2.365,16.556c0.591,4.73,1.478,9.165,2.365,13.895l2.661,16.852
			c0.296,1.183,0.591,2.365,0.591,3.548C999.425-692.829,999.129-691.055,999.129-689.872z M926.994-772.06
			c3.843,0,7.687,0.295,11.53,0c3.548,0,7.096-0.296,10.643-0.592c-3.843-17.146-5.617-33.998-10.938-50.259
			C932.315-806.65,930.246-789.503,926.994-772.06z"/>
		<path fill="#F8D6BF" d="M1126.849-896.229c-2.661,7.687-4.73,14.19-7.391,20.695c-4.435,12.121-9.165,23.946-13.599,35.771
			c-3.548,9.165-7.391,18.33-10.939,27.495l-11.53,31.929c-1.774,4.435-3.252,8.869-4.435,13.304
			c-0.591,2.069-0.887,4.139-0.887,6.209c-0.591,11.233-1.183,22.764-1.479,33.998c-0.295,4.139-0.591,7.982-0.591,12.121
			c0.296,3.844-0.295,7.687,0,11.53c0,4.139-0.887,8.573-1.478,13.304c-1.183,1.478-3.252,2.365-5.617,2.069
			c-8.278-0.592-16.26-0.592-24.242,0c-3.252,0.296-6.208-0.592-9.46-1.183c0-1.773-0.296-2.956-0.296-4.435v-65.632
			c0-5.321-0.887-10.643-2.661-15.669c-3.843-10.938-7.982-21.877-12.121-33.111c-7.096-19.808-14.191-39.616-20.991-59.72
			c-2.661-7.095-5.026-14.19-7.687-20.99c-0.591-1.478-1.774-2.66-2.661-3.843c-0.591-0.887-0.887-2.069-1.478-3.844l41.094-0.887
			c1.183,0,2.365,0.887,3.843,1.479c8.574,22.764,18.33,44.642,25.129,69.18c11.53-23.356,18.921-46.712,28.381-69.771H1126.849z"/>
	</g>
</g>
<g>
	<g>
		<path fill="#F8D6BF" d="M404.452,150.968h30.155c2.365,4.139,2.957,8.869,6.8,12.121c3.548,2.957,7.392,4.73,11.826,4.139
			c2.364-0.295,4.729-0.591,7.095-1.182c7.392-2.07,9.756-12.417,4.139-17.443c-4.139-3.548-7.981-7.391-13.304-9.46
			c-3.843-1.774-7.391-4.435-10.643-7.392c-2.956-2.365-6.504-3.547-9.461-5.912c-6.208-4.435-12.121-9.461-16.26-15.965
			c-2.661-4.435-4.139-9.165-6.208-13.896v-0.887c-5.322-8.869-3.548-18.329-2.661-27.494c1.183-10.938,5.617-20.99,13.008-29.563
			c2.957-3.253,5.617-6.8,9.461-9.165c3.843-2.365,7.391-5.321,12.121-6.504c2.661-0.888,5.321-2.365,7.982-2.957
			c7.391-1.773,14.782-1.773,22.173,0.592c3.252,0.887,7.095,1.478,10.643,2.365c3.844,0.887,7.096,2.66,10.052,5.321l6.8,5.913
			c4.139,3.252,6.504,7.391,8.278,12.416c2.069,5.617,4.139,11.234,5.912,17.147c1.183,4.73,2.957,9.756,3.548,14.782
			c0.592,6.8,0,13.895,0,20.99c-7.391,2.956-15.373,0.887-23.06,1.478l-5.913-11.529c-2.66-5.321-7.391-7.687-13.6-8.278
			c-7.095-0.295-12.712,1.183-17.738,6.209c-4.139,4.435-5.617,15.669-1.183,20.99c3.548,3.843,8.278,6.8,13.6,7.982
			c6.8,1.773,13.896,3.252,19.513,7.391c4.729,3.252,9.164,7.096,13.6,10.938c5.616,4.73,8.869,11.234,11.825,17.738
			c0.887,1.774,1.183,3.844,1.479,5.913c0.887,7.687,1.773,15.373,0.591,23.06c-0.887,4.73-0.887,9.461-2.661,13.896
			c-1.478,4.73-2.364,10.052-5.321,13.6c-5.025,5.912-10.052,11.825-17.146,15.373c-8.278,4.139-17.147,5.617-25.721,7.095
			c-3.252,0.296-6.504-0.591-9.757-0.887c-5.025-0.887-10.347-1.773-15.373-3.252c-2.66-0.887-5.321-2.661-7.687-4.435
			c-2.956-2.069-5.912-4.435-8.869-6.8c-4.73-4.139-7.982-9.165-10.348-14.782c-2.956-6.799-4.729-13.895-5.617-21.285
			l-0.887-16.261C405.339,159.247,405.043,155.403,404.452,150.968z"/>
		<path fill="#F8D6BF" d="M532.167,22.366c4.73-1.183,9.165-1.183,13.6-0.592c2.069,0.296,4.73-0.296,6.8-0.296
			c4.139,0,7.982,0,12.121,0.296c0.592,0,1.183,0.592,2.069,1.183c-0.591,6.504-1.478,13.008-1.773,19.513
			c-0.296,2.069,0.887,4.139,0.591,6.504c0,7.982-0.591,16.26-0.591,24.242c0,7.687,0.591,15.077,0.887,22.469l0.887,30.746
			c0.296,5.026,0.296,10.644,1.183,15.669c1.774,7.391,5.617,13.304,13.6,15.373c2.661,0.887,4.73,2.365,7.687,2.365
			c4.73,0.296,8.278-2.069,12.713-3.252c0.295,0,0.591-0.296,1.183-0.591c8.277-2.365,11.233-8.869,11.825-16.557
			c0.591-5.025,1.183-10.052,0.887-15.077c-0.296-9.165-0.887-18.034-0.591-26.903c0-8.277,0.591-16.852,0.887-25.129
			c0-1.774-0.592-3.548-0.592-5.322c0-2.069,0.592-4.139,0.296-6.208c-0.591-7.096,0.592-14.19,0.296-21.286
			c0-3.843-0.887-7.982,0-11.825c0.296-1.479-0.592-3.252-1.183-5.026c8.573-3.547,16.852-1.478,25.721-1.183
			c0.591-0.295,1.478-1.183,2.66-2.069c1.774,0.592,3.548,1.183,5.322,2.069c1.183,4.73,0.591,9.461,0.591,14.486
			c-0.296,4.435,0,9.165-0.296,13.896c0,2.661-0.295,5.321-0.295,8.277c-0.296,1.479,0,2.957,0,4.435
			c0,1.479,0.591,2.957,0.295,4.435c-1.478,8.278-0.295,16.852-0.887,25.13c-0.296,5.913,0,11.825,0,17.738
			c-0.296,4.435-1.479,9.165-0.591,13.304c1.478,10.643-0.592,20.694-0.888,31.042c0,4.139-0.295,8.278-0.591,12.417
			c-0.591,5.913-1.479,11.53-2.365,17.442c-0.591,3.252-2.069,6.504-2.66,9.757c-1.479,7.095-6.209,12.416-10.052,18.329
			c-2.07,2.956-5.913,5.321-8.869,7.687c-1.479,1.183-2.957,2.661-4.73,3.548c-3.252,2.365-8.574,3.548-13.304,4.435
			c-3.548,0.591-6.8,1.183-10.348-0.296c-0.591-0.295-2.069,0-2.956,0.592c-3.844,2.66-8.278,0.591-12.417,0.591
			c-2.956,0-5.617-0.887-8.573-2.365c-2.957-1.478-6.209-2.069-9.461-2.66c-6.504-0.887-10.643-5.322-14.486-9.461
			c-6.208-7.095-8.277-16.26-10.643-24.833c-0.888-3.844-0.592-7.982-1.183-12.122c-2.069-16.26-0.592-32.52-0.888-48.484
			c-0.591-16.852-1.182-33.407-1.478-49.963c-0.296-8.573-0.887-17.147-0.592-25.721C530.985,43.06,531.872,33.008,532.167,22.366z"
			/>
		<path fill="#F8D6BF" d="M665.206,19.705c3.844,0.591,7.096,0.591,10.348,1.183c2.661,0.296,5.617,0,8.278-0.296
			c3.547-0.296,6.799,1.183,10.643,0.592c3.252-0.592,6.8-0.592,10.348,0.591c1.773,0.592,3.843,0,5.912-0.296
			c6.505,15.965,35.772,72.728,40.503,78.345c0-13.6,0-26.607-0.296-39.615c0-13.009-0.887-25.721-1.183-38.729
			c5.322-0.591,11.234-1.183,16.852-1.478c5.617,0,11.234,0.295,17.443,0.591c0,23.06,0,45.824,0,68.884v69.771
			c-0.296,23.06,0,45.823-0.296,68.588c-6.209,0-12.417,0.591-18.33-0.296c-6.208-0.887-12.417,2.661-20.694-2.365
			c-14.19-23.946-30.451-49.963-45.824-77.161c-0.591,1.183-1.183,1.478-1.183,1.478c0,10.939,0.296,21.582,0.296,32.521
			c0,3.252,0,6.504,0,10.052v12.417c0.296,6.208,0.591,12.713,0.591,18.921c0,2.365-0.887,4.139-2.069,5.617
			c-10.643-0.296-20.99-1.183-31.042,0c-1.479-4.435-1.773-7.982-1.183-12.121c0.592-3.252,0.592-7.096,0.592-10.644
			c-0.296-8.573-0.296-17.146,0-25.721c0-4.729,0.591-9.46,0.591-14.19c0-3.548-0.591-7.095-0.591-10.938
			c-0.296-11.825,0-23.355,0-35.181V25.026C664.912,23.548,664.912,22.366,665.206,19.705z"/>
		<path fill="#F8D6BF" d="M799.723,229.017c0-3.548,0-6.504,0-9.756l-0.888-10.938c0-0.592-0.295-1.479,0-2.07
			c2.07-9.756,0.592-19.216,0-28.973c0-2.956,0.592-6.208,0.592-9.46c0.296-0.887,0.296-2.069,0.296-2.956
			c0-10.939,0-21.878-0.296-32.816c0-5.617-0.887-11.234-0.592-16.852c0.296-8.869,1.479-17.738,1.479-26.607
			c0.296-8.573-0.296-17.442-0.296-26.017c0-0.887,0.296-1.478,0.296-2.364c-0.296-3.844,1.183-7.687-0.591-11.53
			c-0.296-0.887,0.591-2.365,0.591-3.548c0-3.843,0.296-7.982,0-11.825c0-2.957-0.591-5.617-0.296-8.278
			c0-1.478,1.183-2.956,1.774-4.139c9.164-0.592,17.442-1.773,26.016-1.773c5.322,0,10.644,0.887,15.965,1.478
			c1.479,0,3.252-0.296,5.025-0.296c2.07,0,4.435-0.295,6.505,0c7.391,0.888,14.781,2.661,21.877,6.209
			c4.73,2.365,8.573,5.913,12.417,9.165c3.843,3.547,7.095,7.391,10.348,11.529c5.616,7.982,10.347,16.556,11.529,26.607
			c1.183,7.096,1.183,14.486,2.365,21.582c1.773,12.121,0.887,23.946,0.887,35.772c0,8.277-0.591,16.26-0.887,24.538
			c-0.591,7.687-1.183,15.373-2.365,23.06c-0.296,3.548-1.183,6.8-2.956,10.052c-3.844,8.278-7.687,16.556-14.782,22.765
			c-5.025,4.435-10.643,8.869-16.556,12.121c-3.844,2.069-8.573,2.66-13.008,3.252c-6.505,0.887-13.009,0.887-19.513,1.183
			c-4.435,0.295-8.869,1.478-13.304,1.773c-2.66,0-5.025-0.591-7.391-0.591c-6.209,0-12.121,1.183-18.33-0.592
			C804.158,228.425,802.383,229.017,799.723,229.017z M840.225,88.292v74.501c4.139,2.365,7.982,0.592,12.121,0.592
			c6.209-0.296,10.644-4.73,13.896-9.165c2.956-3.843,5.025-8.869,6.8-13.6c1.773-5.617,2.66-11.529,2.069-16.851
			c-0.592-6.8-2.365-13.6-4.139-20.399c-1.774-5.617-5.913-8.869-10.348-11.53C854.415,88.588,847.025,89.475,840.225,88.292z"/>
		<path fill="#F8D6BF" d="M1038.896,226.948c-10.938,3.843-21.286,0.296-31.93,1.183c-5.025-10.348-4.729-22.173-8.869-32.816
			h-39.615c-1.773,10.348-3.844,20.695-5.913,31.634H943.7c-4.435,0.296-8.869,0.887-13.304,0.887
			c-3.843,0-7.687-0.296-11.825-0.591c-1.479-4.435,0.887-8.278,1.183-12.122c0.295-5.617,1.478-11.233,2.66-16.556l3.548-20.398
			c1.183-7.096,2.365-14.191,3.548-21.582l4.435-26.903c0.887-5.617,1.773-11.529,2.956-17.146c0.592-4.73,1.479-9.461,2.365-13.896
			c1.183-7.687,2.365-15.373,3.548-23.06l2.661-13.6c0.887-5.913,1.478-11.53,2.66-17.147c0.887-6.208,2.365-12.121,3.548-18.329
			l0.887-5.026c17.443-0.295,34.59-0.887,52.624-1.183c0.591,3.253,1.479,6.505,2.069,10.052l5.321,29.269
			c2.07,12.417,4.435,25.13,6.209,37.842c1.183,7.982,2.069,15.965,3.843,23.947c1.774,7.981,2.069,15.964,3.548,23.946
			c1.183,8.573,3.252,17.147,4.73,26.017c0.887,5.321,1.479,10.938,2.365,16.556c0.591,4.73,1.478,9.165,2.365,13.895l2.66,16.852
			c0.296,1.183,0.592,2.365,0.592,3.548C1039.191,223.991,1038.896,225.765,1038.896,226.948z M966.76,144.76
			c3.843,0,7.687,0.295,11.529,0c3.548,0,7.096-0.296,10.644-0.592c-3.844-17.146-5.617-33.998-10.939-50.259
			C972.081,110.17,970.012,127.317,966.76,144.76z"/>
		<path fill="#F8D6BF" d="M1166.615,20.591c-2.661,7.687-4.73,14.19-7.391,20.695c-4.435,12.121-9.165,23.946-13.6,35.771
			c-3.548,9.165-7.392,18.33-10.938,27.495l-11.53,31.929c-1.773,4.435-3.252,8.869-4.435,13.304
			c-0.591,2.069-0.887,4.139-0.887,6.209c-0.592,11.233-1.183,22.764-1.479,33.998c-0.296,4.139-0.591,7.982-0.591,12.121
			c0.295,3.844-0.296,7.687,0,11.53c0,4.139-0.888,8.573-1.479,13.304c-1.183,1.478-3.252,2.365-5.617,2.069
			c-8.278-0.592-16.26-0.592-24.242,0c-3.252,0.296-6.209-0.592-9.461-1.183c0-1.773-0.295-2.956-0.295-4.435v-65.632
			c0-5.321-0.888-10.643-2.661-15.669c-3.844-10.938-7.982-21.877-12.121-33.111c-7.096-19.808-14.19-39.616-20.99-59.72
			c-2.661-7.095-5.026-14.19-7.687-20.99c-0.592-1.478-1.774-2.66-2.661-3.843c-0.591-0.887-0.887-2.069-1.479-3.844l41.094-0.887
			c1.183,0,2.365,0.887,3.844,1.479c8.573,22.764,18.33,44.642,25.129,69.18c11.53-23.356,18.921-46.712,28.382-69.771H1166.615z"/>
	</g>
</g>
<g>
	<g>
		<g>
			<path fill="#F8D6BF" d="M298.944-420.353H329.1c2.365,4.139,2.957,8.869,6.8,12.121c3.548,2.957,7.392,4.73,11.826,4.139
				c2.364-0.295,4.729-0.591,7.095-1.182c7.392-2.07,9.756-12.417,4.139-17.443c-4.139-3.548-7.981-7.391-13.304-9.46
				c-3.843-1.774-7.391-4.435-10.643-7.392c-2.956-2.365-6.504-3.547-9.461-5.912c-6.208-4.435-12.121-9.461-16.26-15.965
				c-2.661-4.435-4.139-9.165-6.208-13.896v-0.887c-5.322-8.869-3.548-18.329-2.661-27.494c1.183-10.938,5.617-20.99,13.008-29.563
				c2.957-3.253,5.617-6.8,9.461-9.165c3.843-2.365,7.391-5.321,12.121-6.504c2.661-0.888,5.321-2.365,7.982-2.957
				c7.391-1.773,14.781-1.773,22.173,0.592c3.252,0.887,7.095,1.478,10.643,2.365c3.844,0.887,7.096,2.66,10.052,5.321l6.8,5.913
				c4.139,3.252,6.504,7.391,8.278,12.416c2.069,5.617,4.139,11.234,5.912,17.147c1.183,4.73,2.957,9.756,3.548,14.782
				c0.592,6.8,0,13.895,0,20.99c-7.391,2.956-15.373,0.887-23.06,1.478l-5.913-11.529c-2.66-5.321-7.391-7.687-13.6-8.278
				c-7.095-0.295-12.712,1.183-17.738,6.209c-4.139,4.435-5.617,15.669-1.183,20.99c3.548,3.843,8.278,6.8,13.6,7.982
				c6.8,1.773,13.896,3.252,19.513,7.391c4.729,3.252,9.164,7.096,13.599,10.938c5.617,4.73,8.87,11.234,11.826,17.738
				c0.887,1.774,1.183,3.844,1.479,5.913c0.887,7.687,1.773,15.373,0.591,23.06c-0.887,4.73-0.887,9.461-2.661,13.896
				c-1.478,4.73-2.364,10.052-5.321,13.6c-5.025,5.912-10.052,11.825-17.146,15.373c-8.278,4.139-17.147,5.617-25.721,7.095
				c-3.252,0.296-6.504-0.591-9.757-0.887c-5.025-0.887-10.347-1.773-15.373-3.252c-2.66-0.887-5.321-2.661-7.687-4.435
				c-2.956-2.069-5.913-4.435-8.869-6.8c-4.73-4.139-7.982-9.165-10.348-14.782c-2.956-6.799-4.729-13.895-5.616-21.285
				l-0.888-16.261C299.832-412.075,299.536-415.919,298.944-420.353z"/>
			<path fill="#F8D6BF" d="M540.485-344.374c-10.938,3.843-21.286,0.296-31.93,1.183c-5.025-10.348-4.729-22.173-8.869-32.816
				h-39.615c-1.773,10.348-3.844,20.695-5.913,31.634h-8.869c-4.435,0.296-8.869,0.887-13.304,0.887
				c-3.843,0-7.687-0.296-11.825-0.591c-1.479-4.435,0.887-8.278,1.183-12.122c0.295-5.617,1.478-11.233,2.66-16.556l3.548-20.398
				c1.183-7.096,2.365-14.191,3.548-21.582l4.435-26.903c0.887-5.617,1.773-11.529,2.956-17.146
				c0.592-4.73,1.479-9.461,2.365-13.896c1.183-7.687,2.365-15.373,3.548-23.06l2.661-13.6c0.887-5.913,1.478-11.53,2.66-17.147
				c0.887-6.208,2.365-12.121,3.548-18.329l0.887-5.026c17.443-0.295,34.59-0.887,52.624-1.183
				c0.591,3.253,1.479,6.505,2.069,10.052l5.321,29.269c2.07,12.417,4.435,25.13,6.209,37.842
				c1.183,7.982,2.069,15.965,3.843,23.947c1.774,7.981,2.069,15.964,3.548,23.946c1.183,8.573,3.252,17.147,4.73,26.017
				c0.887,5.321,1.479,10.938,2.365,16.556c0.591,4.73,1.478,9.165,2.365,13.895l2.66,16.852c0.296,1.183,0.592,2.365,0.592,3.548
				C540.78-347.331,540.485-345.557,540.485-344.374z M468.35-426.561c3.843,0,7.687,0.295,11.529,0
				c3.548,0,7.096-0.296,10.644-0.592c-3.844-17.146-5.617-33.998-10.939-50.259C473.671-461.151,471.601-444.005,468.35-426.561z"
				/>
			<path fill="#F8D6BF" d="M539.009-485.689c-2.365-21.286-1.479-41.39-0.887-61.789c0.296,0,0.887-0.887,1.479-0.591
				c2.956,0.591,5.912-0.592,8.869-0.296c3.547,0.592,7.095-0.591,10.643-0.296c3.844,0,7.391-0.887,10.938-0.887
				c5.617,0,10.938,0.592,16.261,0.887c5.321,0.296,10.347-0.295,15.668,0l18.626,0.888c1.773,0,3.548-0.296,5.321-0.296
				c1.183,0,2.661-0.592,3.548-0.296c2.069,1.183,4.139,0.296,6.208,0c4.14-0.296,7.982-0.296,12.121,0
				c0.887,0,1.774,0.887,2.661,1.183v54.693c-1.183,2.66-2.661,3.548-5.026,3.548c-7.095,0-14.486,0-21.581,0.295
				c-3.548,0-7.392,0.592-11.234,0.888c0,0.887-0.296,2.069-0.296,2.956v13.304c0,4.139-0.591,8.278-0.296,12.417
				c0,10.348,0.296,20.694,0.296,31.042c0,4.73,0.296,9.756,0,14.486c0,2.956-0.591,5.913-0.887,8.869v13.304
				c0.296,2.365,0.887,5.026,0.887,7.391c0.296,10.939,0,21.582,0,32.225v5.617c-5.617,0.296-10.938,0.592-16.26,0.888
				l-15.373,0.887c-2.07,0.296-2.661,0-4.435-1.183c-0.296-2.956-0.296-5.913-0.888-8.573c-1.183-7.096,0.592-14.191,0.296-21.286
				c-0.591-5.617-0.296-11.234,0-16.852c0-4.435,0.887-9.165,0.887-13.6c0-5.025-0.887-10.052-0.887-15.373
				c-0.296-13.304-0.296-26.607-0.296-40.207c0-1.479-0.295-2.956-0.591-4.435c0-1.479-0.592-3.548-0.296-5.026
				c0.887-2.364,0.592-4.729,0-7.095c-0.296-1.774,0.296-3.844,0.592-6.504c-0.592-0.296-1.774-1.183-2.07-0.887
				c-3.252,1.773-6.208-0.888-9.164-0.592c-5.913,0.592-11.53,0.296-17.443,0.296H539.009z"/>
			<path fill="#F8D6BF" d="M666.429-548.956c4.73-1.183,9.165-1.183,13.6-0.592c2.069,0.296,4.73-0.296,6.8-0.296
				c4.139,0,7.982,0,12.121,0.296c0.592,0,1.183,0.592,2.069,1.183c-0.591,6.504-1.478,13.008-1.773,19.513
				c-0.296,2.069,0.887,4.139,0.591,6.504c0,7.982-0.591,16.26-0.591,24.242c0,7.687,0.591,15.077,0.887,22.469l0.887,30.746
				c0.296,5.026,0.296,10.644,1.183,15.669c1.774,7.391,5.617,13.304,13.6,15.373c2.661,0.887,4.73,2.365,7.687,2.365
				c4.73,0.296,8.278-2.069,12.713-3.252c0.295,0,0.591-0.296,1.183-0.591c8.277-2.365,11.233-8.869,11.825-16.557
				c0.591-5.025,1.183-10.052,0.887-15.077c-0.296-9.165-0.887-18.034-0.591-26.903c0-8.277,0.591-16.852,0.887-25.129
				c0-1.774-0.592-3.548-0.592-5.322c0-2.069,0.592-4.139,0.296-6.208c-0.591-7.096,0.592-14.19,0.296-21.286
				c0-3.843-0.887-7.982,0-11.825c0.296-1.479-0.592-3.252-1.183-5.026c8.573-3.547,16.852-1.478,25.721-1.183
				c0.591-0.295,1.478-1.183,2.66-2.069c1.774,0.592,3.548,1.183,5.322,2.069c1.183,4.73,0.591,9.461,0.591,14.486
				c-0.296,4.435,0,9.165-0.296,13.896c0,2.661-0.295,5.321-0.295,8.277c-0.296,1.479,0,2.957,0,4.435
				c0,1.479,0.591,2.957,0.295,4.435c-1.478,8.278-0.295,16.852-0.887,25.13c-0.296,5.913,0,11.825,0,17.738
				c-0.296,4.435-1.479,9.165-0.591,13.304c1.478,10.643-0.592,20.694-0.888,31.042c0,4.139-0.295,8.278-0.591,12.417
				c-0.591,5.913-1.479,11.53-2.365,17.442c-0.591,3.252-2.069,6.504-2.66,9.757c-1.479,7.095-6.209,12.416-10.052,18.329
				c-2.07,2.956-5.913,5.321-8.869,7.687c-1.479,1.183-2.957,2.661-4.73,3.548c-3.252,2.365-8.574,3.548-13.304,4.435
				c-3.548,0.591-6.8,1.183-10.348-0.296c-0.591-0.295-2.069,0-2.956,0.592c-3.844,2.66-8.278,0.591-12.417,0.591
				c-2.956,0-5.617-0.887-8.573-2.365c-2.957-1.478-6.209-2.069-9.461-2.66c-6.504-0.887-10.643-5.322-14.486-9.461
				c-6.208-7.095-8.277-16.26-10.643-24.833c-0.888-3.844-0.592-7.982-1.183-12.122c-2.069-16.26-0.592-32.52-0.888-48.484
				c-0.591-16.852-1.182-33.407-1.478-49.963c-0.296-8.573-0.887-17.147-0.592-25.721
				C665.246-528.262,666.134-538.313,666.429-548.956z"/>
			<path fill="#F8D6BF" d="M873.968-343.191c-3.843-1.479-2.66-5.026-3.252-7.687c-2.956-10.644-5.025-21.286-7.391-31.93
				l-7.096-29.563c-1.183-4.139-2.365-7.982-3.548-12.121H839.97c0,1.478-0.296,2.956-0.296,4.435c0,6.504,0.296,13.008,0,19.217
				c-0.887,12.121-1.183,24.242-0.887,36.363c0,5.025,0.591,9.756,0.887,14.486c0,1.773-0.296,3.548-0.296,5.913l-20.104,0.887
				c-6.208,0.295-12.712,0.887-19.216,1.183c-2.661-2.957-1.183-7.392-1.774-11.234c-0.295-1.774,0.296-3.844,0.296-5.913
				c0.296-13.895,0.887-27.79,0.887-41.685c0-6.8-0.591-13.305-0.887-19.809v-7.095c0-15.078-0.296-30.451,0-45.528v-15.669
				c0.296-6.209,0.592-12.121,0.592-18.33c0.295-3.843,0.295-7.982,0-11.825l-0.888-30.155c5.026-1.479,11.234-1.479,15.669-0.887
				c1.774,0.295,3.844,0,5.617-0.296c3.252,0,6.504,0,9.756-0.296c4.435,0,8.574-0.296,13.009-0.591
				c4.435-0.592,8.869-0.296,13.6-0.296c7.391,0.296,14.19,3.844,21.581,2.661h1.183c6.8,2.956,14.19,4.435,20.104,10.052
				c7.687,7.095,12.417,15.373,15.078,25.425c3.252,12.121,4.139,24.242,0.295,36.363c-1.478,5.026-2.66,9.756-5.025,14.19
				c-3.252,6.504-7.392,12.417-13.009,17.147c-1.773,1.479-3.547,3.252-5.025,4.435c-0.592,6.8,1.479,12.121,2.956,17.738
				c1.479,5.025,3.252,9.756,3.844,14.486c0.591,4.73,2.069,8.869,3.548,13.008c4.435,13.304,8.277,26.312,11.234,39.911
				c0.887,3.548,2.069,7.096,3.252,11.234c-3.252,0-5.913,0.592-8.574,0.592c-5.912-0.296-11.825-0.592-17.738,1.183
				c-1.478,0.591-3.548,0-5.617,0H873.968z M836.718-504.019v42.276c6.208,0,11.825,0.296,17.738-0.887
				c4.139-1.183,7.391-3.252,10.052-6.208c5.321-6.8,6.208-14.782,5.025-23.061c-0.887-4.729-5.912-9.756-10.643-10.938
				C851.795-504.61,844.404-503.724,836.718-504.019z"/>
			<path fill="#F8D6BF" d="M932.504-342.305c0-3.548,0-6.504,0-9.756l-0.888-10.938c0-0.592-0.295-1.479,0-2.07
				c2.07-9.756,0.592-19.216,0-28.973c0-2.956,0.592-6.208,0.592-9.46c0.296-0.887,0.296-2.069,0.296-2.956
				c0-10.939,0-21.878-0.296-32.816c0-5.617-0.887-11.234-0.592-16.852c0.296-8.869,1.479-17.738,1.479-26.607
				c0.296-8.573-0.296-17.442-0.296-26.017c0-0.887,0.296-1.478,0.296-2.364c-0.296-3.844,1.183-7.687-0.591-11.53
				c-0.296-0.887,0.591-2.365,0.591-3.548c0-3.843,0.296-7.982,0-11.825c0-2.957-0.591-5.617-0.296-8.278
				c0-1.478,1.183-2.956,1.774-4.139c9.164-0.592,17.442-1.773,26.016-1.773c5.322,0,10.644,0.887,15.965,1.478
				c1.479,0,3.252-0.296,5.025-0.296c2.07,0,4.435-0.295,6.505,0c7.391,0.888,14.781,2.661,21.877,6.209
				c4.73,2.365,8.573,5.913,12.417,9.165c3.843,3.547,7.095,7.391,10.348,11.529c5.616,7.982,10.347,16.556,11.529,26.607
				c1.183,7.096,1.183,14.486,2.365,21.582c1.773,12.121,0.887,23.946,0.887,35.772c0,8.277-0.591,16.26-0.887,24.538
				c-0.591,7.687-1.183,15.373-2.365,23.06c-0.296,3.548-1.183,6.8-2.956,10.052c-3.844,8.278-7.687,16.556-14.782,22.765
				c-5.025,4.435-10.643,8.869-16.556,12.121c-3.844,2.069-8.573,2.66-13.008,3.252c-6.505,0.887-13.009,0.887-19.513,1.183
				c-4.435,0.295-8.87,1.478-13.304,1.773c-2.66,0-5.025-0.591-7.391-0.591c-6.209,0-12.121,1.183-18.33-0.592
				C936.938-342.896,935.164-342.305,932.504-342.305z M973.006-483.029v74.501c4.139,2.365,7.982,0.592,12.121,0.592
				c6.209-0.296,10.644-4.73,13.896-9.165c2.956-3.843,5.025-8.869,6.8-13.6c1.773-5.617,2.66-11.529,2.069-16.851
				c-0.592-6.8-2.365-13.6-4.139-20.399c-1.774-5.617-5.913-8.869-10.348-11.53C987.197-482.733,979.806-481.847,973.006-483.029z"
				/>
			<path fill="#F8D6BF" d="M1171.678-344.374c-10.938,3.843-21.286,0.296-31.93,1.183c-5.025-10.348-4.729-22.173-8.869-32.816
				h-39.615c-1.773,10.348-3.844,20.695-5.913,31.634h-8.869c-4.435,0.296-8.869,0.887-13.304,0.887
				c-3.843,0-7.687-0.296-11.825-0.591c-1.479-4.435,0.887-8.278,1.183-12.122c0.296-5.617,1.478-11.233,2.66-16.556l3.548-20.398
				c1.183-7.096,2.365-14.191,3.548-21.582l4.435-26.903c0.887-5.617,1.773-11.529,2.956-17.146
				c0.592-4.73,1.479-9.461,2.365-13.896c1.183-7.687,2.365-15.373,3.548-23.06l2.661-13.6c0.887-5.913,1.478-11.53,2.66-17.147
				c0.887-6.208,2.365-12.121,3.548-18.329l0.887-5.026c17.443-0.295,34.59-0.887,52.624-1.183
				c0.591,3.253,1.479,6.505,2.069,10.052l5.321,29.269c2.069,12.417,4.435,25.13,6.209,37.842
				c1.183,7.982,2.069,15.965,3.843,23.947c1.774,7.981,2.069,15.964,3.548,23.946c1.183,8.573,3.252,17.147,4.73,26.017
				c0.887,5.321,1.479,10.938,2.365,16.556c0.591,4.73,1.478,9.165,2.365,13.895l2.66,16.852c0.296,1.183,0.592,2.365,0.592,3.548
				C1171.973-347.331,1171.678-345.557,1171.678-344.374z M1099.542-426.561c3.843,0,7.687,0.295,11.529,0
				c3.548,0,7.096-0.296,10.644-0.592c-3.844-17.146-5.617-33.998-10.939-50.259
				C1104.864-461.151,1102.794-444.005,1099.542-426.561z"/>
			<path fill="#F8D6BF" d="M1299.396-550.73c-2.661,7.687-4.73,14.19-7.391,20.695c-4.435,12.121-9.165,23.946-13.6,35.771
				c-3.548,9.165-7.392,18.33-10.938,27.495l-11.53,31.929c-1.773,4.435-3.252,8.869-4.435,13.304
				c-0.591,2.069-0.887,4.139-0.887,6.209c-0.592,11.233-1.183,22.764-1.479,33.998c-0.296,4.139-0.591,7.982-0.591,12.121
				c0.295,3.844-0.296,7.687,0,11.53c0,4.139-0.888,8.573-1.479,13.304c-1.183,1.478-3.252,2.365-5.617,2.069
				c-8.278-0.592-16.26-0.592-24.242,0c-3.252,0.296-6.209-0.592-9.461-1.183c0-1.773-0.295-2.956-0.295-4.435v-65.632
				c0-5.321-0.888-10.643-2.661-15.669c-3.844-10.938-7.982-21.877-12.121-33.111c-7.096-19.808-14.19-39.616-20.99-59.72
				c-2.661-7.095-5.026-14.19-7.687-20.99c-0.592-1.478-1.774-2.66-2.661-3.843c-0.591-0.887-0.887-2.069-1.479-3.844l41.094-0.887
				c1.183,0,2.365,0.887,3.844,1.479c8.573,22.764,18.33,44.642,25.129,69.18c11.53-23.356,18.921-46.712,28.382-69.771H1299.396z"
				/>
		</g>
	</g>
	<g>
		<path fill="#F05827" d="M248.037-457.373l-0.003-0.005c-3.198-8.234-11.718-8.97-14.451-9.206l-0.4-0.037
			c-10.559-0.996-21.154-1.229-31.442-1.457c-7.828-0.174-15.922-0.353-23.655-0.881c-1.876-0.129-4.698-0.319-7.314-0.568
			c-0.312-1.058-0.704-2.196-1.248-3.363c-0.074-0.155-0.147-0.311-0.222-0.463c1.171-1.489,2.354-2.975,3.549-4.391
			c5.944-7.05,12.148-14.164,18.217-21.126l5.829-6.691l1.676-2.461c3.085-5.92,1.795-12.957-3.119-17.094
			c-4.916-4.169-12.092-4.231-17.436-0.155c-2.217,1.682-4.672,3.757-6.654,5.433c-3.288,2.779-7.073,6.421-11.092,10.29
			c-5.381,5.178-13.036,12.544-18.283,16.191c-0.171-1.711-0.387-4.356-0.625-8.394l-0.071-1.17
			c-0.572-9.211-0.949-18.636-1.316-27.823c-0.387-9.722-0.787-19.774-1.43-29.745c-0.361-5.717-1.063-8.365-2.913-10.935
			c-3.212-4.418-8.726-6.485-14.028-5.264c-5.585,1.277-9.867,5.81-10.906,11.543c-0.562,3.085-0.411,6.177-0.277,8.903
			c0.051,1.044,0.122,2.474,0.08,3.119c-0.387,5.995-0.718,12.025-1.048,18.068c-0.746,13.637-1.517,27.74-2.983,41.294
			c-0.004,0.038-0.008,0.075-0.012,0.112c-4.628-3.39-11.307-9.87-15.654-14.087c-3.204-3.109-6.229-6.043-8.863-8.327
			c-0.53-0.458-1.123-0.991-1.759-1.561l-0.262-0.233c-3.153-2.825-6.727-6.027-10.156-8.068
			c-5.825-3.451-12.765-2.924-17.273,1.307c-4.342,4.075-5.362,10.526-2.544,16.044c0.956,1.874,2.328,3.492,3.806,5.235
			c0.241,0.281,0.461,0.538,0.598,0.707c3.546,4.421,7.286,8.558,10.902,12.555c4.498,4.975,9.149,10.121,12.973,15.369l1.059,1.269
			c0.024,0.024,0.051,0.051,0.078,0.08c-0.029,0.062-0.059,0.12-0.088,0.185c-0.584,1.242-0.987,2.466-1.296,3.615
			c-2.576,0.19-5.35,0.295-7.936,0.391c-1.525,0.054-3.004,0.11-4.395,0.179c-14.618,0.718-28.23,1.457-41.599,2.257
			c-1.162,0.07-2.312,0.086-3.459,0.104c-2.18,0.037-4.623,0.078-7.286,0.383c-3.256-0.115-6.318,0.991-8.748,3.077
			c-2.98,2.552-4.599,6.249-4.557,10.416c0.067,6.766,4.766,13.835,15.098,14.376l0.343,0.016
			c11.637,1.178,23.448,1.524,34.928,1.858c10.595,0.308,21.518,0.627,32.001,1.625c-0.118,0.134-0.221,0.249-0.304,0.34
			c-1.122,1.253-2.17,2.445-2.995,3.513l-0.617,0.876c-3.613,5.61-8.377,10.7-13.436,16.106c-4.888,5.224-9.942,10.625-14.38,16.952
			l-5.314,7.575l5.606,7.358c4.3,5.647,11.401,7.288,17.681,4.065c2.449-1.256,4.267-3.023,5.73-4.447
			c0.218-0.212,0.497-0.49,0.771-0.75l1.557-0.597l2.008-2.169c3.075-3.326,6.808-6.362,10.801-9.607
			c2.07-1.682,4.133-3.36,6.136-5.093c1.249-1.082,2.811-2.581,4.544-4.26c2.742-2.651,4.94-4.675,6.58-6.065
			c0.032,0.029,0.066,0.056,0.098,0.083c0.107,0.905,0.246,2.233,0.415,4.153l0.06,0.677c1.028,11.404,1.609,23.523,2.173,35.28
			l0.019,0.394c0.311,6.445,0.619,12.868,1,19.19c0.035,0.573-0.029,1.909-0.08,2.94c-0.131,2.662-0.28,5.674,0.262,8.67
			c1.218,6.753,7.102,11.653,13.989,11.653l0.486-0.008c6.727-0.225,12.136-5.098,12.862-11.589
			c0.175-1.566,0.396-3.604,0.499-5.144c0.598-8.89,0.992-18.154,1.343-26.406c0.289-6.766,0.577-13.514,0.967-20.197
			c0.126-2.172,0.22-4.426,0.315-6.75c0.181-4.415,0.367-8.97,0.838-12.968c2.074,1.684,5.382,4.565,10.629,9.495
			c1.892,1.778,3.514,3.296,4.65,4.279c2.347,2.03,4.678,4.067,7.007,6.105l6.492,5.666c1.166,1.012,2.449,2,3.743,2.98
			c1.158,0.881,2.252,1.711,2.961,2.386l3.04,2.9l4.182,0.506c6.982,0.854,11.736-2.991,13.84-6.873
			c4.615-8.552-1.892-16.258-4.028-18.789c-2.741-3.251-5.766-6.341-8.475-9.106c-2.339-2.394-4.757-4.865-6.784-7.227
			c-2.714-3.162-5.39-6.689-7.977-10.1c-1.411-1.861-2.848-3.751-4.335-5.65c0.024-0.003,0.048-0.005,0.072-0.008
			c11.714-1.2,23.796-1.813,35.722-2.421c6.998-0.356,14.234-0.723,21.406-1.218c3.085-0.214,6.465-0.292,9.467-0.361l7.691-0.195
			l3.629-3.944C248.801-446.898,249.968-452.39,248.037-457.373z M165.334-450.904c-0.896,0.091-1.799,0.099-2.696,0.11
			c-1.418,0.019-3.024,0.04-4.682,0.327l-3.734,0.648l-1.935,3.259c-0.274,0.461-0.558,0.921-0.857,1.4
			c-1.88,3.034-4.01,6.474-3.611,10.989l0.233,2.632l1.723,2.005c2.927,3.403,5.701,7.061,8.384,10.598
			c0.059,0.075,0.116,0.153,0.175,0.23c-8.705-7.84-12.081-9.781-14.981-10.402l-0.744-0.126c-2.455-0.295-4.699,0.22-6.567,1.467
			c-2.554,1.647-9.366,7.205-10.182,13.067c-0.711,5.095-0.936,10.584-1.154,15.929c-0.036,0.905-0.074,1.802-0.112,2.694
			c-0.26-3.888-0.554-7.752-0.897-11.554l-0.059-0.661c-0.588-6.667-0.968-8.209-1.337-9.31l-0.189-0.506
			c-0.984-2.399-2.134-3.567-3.923-4.892c-0.347-0.257-0.727-0.527-1.137-0.916c-0.482-0.458-0.905-0.913-1.303-1.339
			c-1.556-1.665-3.775-4.038-7.845-4.038c-0.806,0-1.686,0.094-2.645,0.303c-4.018,0.886-8.275,4.268-14.865,10.544
			c0.612-0.862,1.21-1.743,1.794-2.643l0.011-0.016c0.592-0.752,1.335-1.577,2.139-2.474c3.838-4.292,6.78-7.918,6.835-12.25
			c0.042-3.692-1.985-6.841-4.438-10.282l-2.055-3.668l-3.956-0.648c-1.186-0.193-2.589-0.388-3.312-0.466
			c-7.442-0.825-15.005-1.277-22.532-1.588c0.523-0.024,1.051-0.051,1.577-0.078c1.325-0.064,2.73-0.118,4.232-0.171
			c4.952-0.185,10.563-0.396,15.233-1.197l3.944-0.68l1.901-3.521c0.838-1.553,1.262-3.358,1.699-5.406
			c0.22-1.036,0.449-2.105,0.7-2.643c0.194-0.41,0.718-1.042,1.23-1.663c0.375-0.45,0.861-1.044,1.214-1.529l3.799-5.224
			l-4.176-4.932c-1.032-1.218-2.603-2.817-4.032-4.247c-0.324-0.327-0.609-0.611-0.827-0.835l-0.013-0.013
			c-0.067-0.091-0.134-0.182-0.199-0.273c4.36,3.786,8.244,6.654,11.7,8.188c7.12,3.157,13.65,0.961,17.92-6.03
			c1.683-2.755,1.985-4.608,1.975-7.262c-0.001-0.578-0.011-1.216,0.074-2c0.644-5.955,1.155-11.971,1.59-17.985
			c0.138,2.694,0.288,5.387,0.454,8.068l0.07,1.143c0.606,10.282,1.147,13.251,1.596,14.799l0.329,1.138l0.637,0.999
			c0.562,0.878,2.113,3.16,2.803,4.126l0.789,1.1l3.002,2.147l0.839,0.348c4.564,1.896,8.406,0.618,10.895-0.509
			c3.261-1.475,6.883-4.022,10.896-7.355c-0.566,0.718-1.137,1.446-1.714,2.185l-1.092,1.395l-5.774,4.437l3.996,6.341
			c0.332,0.525,0.807,1.189,1.183,1.703c0.538,0.739,1.004,1.376,1.283,1.976c0.291,0.624,0.549,1.652,0.809,2.696
			c0.576,2.281,1.103,4.158,2.198,5.789l1.931,2.87l3.402,0.629c3.615,0.667,8.907,1.063,14.017,1.411
			c1.589,0.107,3.186,0.203,4.786,0.284C176.281-451.897,170.79-451.463,165.334-450.904z"/>
		<path fill="#F19AA1" d="M240.367-454.401c-1.341-3.454-5.233-3.794-7.559-3.995l-0.396-0.037
			c-10.258-0.967-20.706-1.197-30.81-1.419c-7.935-0.177-16.14-0.359-24.074-0.9c-3.617-0.246-9.631-0.656-13.083-1.293
			c-0.387-0.576-0.801-2.228-1.056-3.243c-0.344-1.376-0.702-2.798-1.32-4.126c-0.624-1.339-1.416-2.421-2.114-3.376
			c-0.262-0.359-0.61-0.835-0.85-1.216c0.359-0.276,0.755-0.632,1.129-1.109l1.258-1.607c1.668-2.131,3.359-4.295,5.071-6.324
			c6.01-7.128,12.259-14.296,18.303-21.228l5.829-6.691l0.584-0.859c1.291-2.477,0.822-5.363-1.139-7.015
			c-1.651-1.398-4.504-1.896-7.146,0.118c-2.048,1.556-4.405,3.548-6.318,5.165c-3.085,2.608-6.777,6.161-10.686,9.923
			c-7.744,7.452-17.38,16.727-23.547,19.517c-2.068,0.937-3.208,0.881-4.348,0.407c-0.308-0.217-0.789-0.565-1.094-0.785
			c-0.632-0.884-2.048-2.964-2.561-3.767c-0.312-1.076-0.77-4.257-1.285-12.994l-0.07-1.154c-0.58-9.329-0.959-18.826-1.325-28.008
			c-0.386-9.677-0.785-19.683-1.42-29.552c-0.328-5.186-0.894-5.974-1.349-6.606l-0.009-0.013c-1.284-1.767-3.413-2.57-5.541-2.081
			c-2.332,0.533-4.2,2.541-4.646,4.999c-0.391,2.145-0.27,4.627-0.153,7.026c0.071,1.451,0.143,2.948,0.072,4.049
			c-0.384,5.971-0.714,11.974-1.043,17.991c-0.752,13.755-1.532,27.978-3.018,41.725c-0.123,1.143-0.125,2.07-0.122,2.911
			c0.005,1.387,0.007,1.676-0.77,2.948c-2.597,4.255-5.166,3.861-7.56,2.798c-5.472-2.429-14.148-10.844-21.121-17.608
			c-3.125-3.031-6.077-5.893-8.515-8.009c-0.632-0.546-1.35-1.191-2.118-1.88c-2.878-2.579-6.141-5.502-8.872-7.128
			c-2.686-1.591-5.61-1.502-7.452,0.228c-1.329,1.248-2.251,3.558-0.845,6.311c0.489,0.959,1.356,2.006,2.726,3.62
			c0.303,0.353,0.576,0.675,0.766,0.91c3.379,4.212,7.043,8.266,10.589,12.186c4.644,5.138,9.447,10.453,13.518,16.039l0.371,0.444
			c0.262,0.276,0.663,0.677,1.139,1.154c0.783,0.785,2.608,2.611,3.572,3.749c-0.257,0.353-0.616,0.785-0.888,1.111
			c-0.799,0.964-1.706,2.054-2.347,3.417c-0.659,1.403-0.987,2.945-1.305,4.439c-0.209,0.983-0.544,2.562-0.89,3.205
			c-4.142,0.712-9.472,0.91-14.187,1.087c-1.487,0.054-2.929,0.107-4.288,0.174c-14.727,0.723-28.309,1.462-41.52,2.255
			c-1.279,0.075-2.544,0.096-3.806,0.118c-2.291,0.037-4.656,0.078-7.149,0.412c-1.777-0.193-2.959,0.461-3.671,1.071
			c-1.133,0.969-1.698,2.346-1.68,4.086c0.021,2.19,1.001,5.912,7.321,6.244c0.245,0.013,0.49,0.024,0.723,0.046
			c11.349,1.149,23.017,1.489,34.301,1.818c11.87,0.345,24.142,0.702,35.937,2.005c0.636,0.07,1.857,0.241,2.889,0.41
			c0.106,0.193,0.225,0.386,0.36,0.578l0.278,0.391c1.023,1.435,2.927,4.11,2.912,5.417c-0.02,1.588-3.102,5.029-4.757,6.879
			c-0.975,1.087-1.889,2.115-2.605,3.044l-0.217,0.308c-4.007,6.22-9.021,11.581-14.329,17.252
			c-4.699,5.023-9.558,10.215-13.668,16.074l-1.86,2.651l1.963,2.576c1.916,2.517,4.607,3.152,7.382,1.73
			c1.347-0.691,2.513-1.823,3.746-3.023c0.712-0.693,1.904-1.853,2.368-2.078l0.964-0.37l0.702-0.758
			c3.485-3.77,7.454-6.994,11.657-10.41c2.001-1.625,3.999-3.248,5.938-4.927c1.157-1.001,2.6-2.394,4.201-3.944
			c3.398-3.285,9.724-9.404,12.599-10.038c1.224-0.268,1.225-0.268,2.71,1.32c0.503,0.538,1.039,1.109,1.648,1.687
			c0.698,0.661,1.328,1.135,1.916,1.569c0.846,0.627,0.897,0.664,1.197,1.395c0.26,0.774,0.577,3.269,0.943,7.417l0.059,0.664
			c1.046,11.589,1.631,23.806,2.197,35.623c0.315,6.544,0.627,13.067,1.013,19.482c0.063,1.036-0.008,2.463-0.075,3.845
			c-0.115,2.329-0.233,4.737,0.141,6.801c0.517,2.862,2.977,4.889,5.895,4.889c0.07,0,0.141,0,0.212-0.003
			c2.648-0.088,4.69-1.853,4.962-4.284c0.163-1.457,0.371-3.35,0.467-4.779c0.585-8.691,0.964-17.552,1.328-26.123
			c0.292-6.839,0.582-13.656,0.976-20.409c0.125-2.134,0.216-4.348,0.308-6.592c0.209-5.117,0.424-10.408,1.08-15.107
			c0.226-1.625,3.621-5.441,6.492-7.291c0.237-0.158,0.503-0.289,1.126-0.214c2.965,0.637,12.887,9.961,16.621,13.468
			c1.789,1.682,3.322,3.119,4.397,4.048c2.496,2.158,4.974,4.327,7.45,6.493c2.022,1.767,4.04,3.534,6.063,5.291
			c1.032,0.897,2.172,1.767,3.323,2.64c1.347,1.023,2.619,1.989,3.663,2.983l1.064,1.015l1.458,0.177
			c3.672,0.439,5.233-1.89,5.626-2.613c1.955-3.623-1.169-7.318-3.079-9.58c-2.514-2.983-5.315-5.848-8.023-8.614
			c-2.445-2.501-4.972-5.085-7.187-7.663c-2.873-3.347-5.626-6.975-8.288-10.485c-2.765-3.644-5.618-7.404-8.699-10.989
			c-0.15-1.695,0.821-3.366,2.41-5.931c0.317-0.509,0.632-1.02,0.937-1.534c1.004-0.174,2.135-0.19,3.383-0.206
			c1.146-0.016,2.289-0.038,3.422-0.153c11.903-1.218,24.102-1.839,35.901-2.439c7.039-0.359,14.318-0.728,21.497-1.224
			c3.212-0.222,6.573-0.303,9.825-0.378l4.208-0.107l1.269-1.379C241.246-450.834,240.828-453.212,240.367-454.401z"/>
		<path fill="#F05827" d="M150.962-454.28c-2.643,8.962-14.187,20.885-23.27,28.372c-0.518,0.428-1.971,1.553-3.198,2.469
			c-1.652-1.202-3.915-2.994-4.734-3.708c-18.075-15.731-25.39-28.235-21.743-37.168c1.501-3.674,3.635-5.912,6.528-6.841
			c1.134-0.367,2.352-0.522,3.603-0.522c5.462,0,11.523,2.969,13.769,4.381l2.637,1.649l2.458-1.898
			c1.258-0.975,12.583-9.232,22.26,0.667C152.337-463.748,152.098-458.133,150.962-454.28z"/>
	</g>
	<g>
		<path fill="#F05827" d="M1570.152-457.373l-0.003-0.005c-3.198-8.234-11.718-8.97-14.451-9.206l-0.4-0.037
			c-10.559-0.996-21.154-1.229-31.442-1.457c-7.828-0.174-15.922-0.353-23.655-0.881c-1.876-0.129-4.698-0.319-7.314-0.568
			c-0.312-1.058-0.704-2.196-1.248-3.363c-0.074-0.155-0.147-0.311-0.222-0.463c1.171-1.489,2.354-2.975,3.549-4.391
			c5.944-7.05,12.148-14.164,18.217-21.126l5.829-6.691l1.676-2.461c3.085-5.92,1.795-12.957-3.119-17.094
			c-4.916-4.169-12.092-4.231-17.436-0.155c-2.217,1.682-4.672,3.757-6.654,5.433c-3.288,2.779-7.073,6.421-11.092,10.29
			c-5.381,5.178-13.036,12.544-18.283,16.191c-0.171-1.711-0.387-4.356-0.625-8.394l-0.071-1.17
			c-0.572-9.211-0.949-18.636-1.316-27.823c-0.387-9.722-0.787-19.774-1.43-29.745c-0.361-5.717-1.063-8.365-2.913-10.935
			c-3.212-4.418-8.726-6.485-14.028-5.264c-5.585,1.277-9.867,5.81-10.906,11.543c-0.562,3.085-0.411,6.177-0.277,8.903
			c0.051,1.044,0.122,2.474,0.08,3.119c-0.387,5.995-0.718,12.025-1.048,18.068c-0.746,13.637-1.517,27.74-2.983,41.294
			c-0.004,0.038-0.008,0.075-0.012,0.112c-4.628-3.39-11.307-9.87-15.655-14.087c-3.204-3.109-6.229-6.043-8.863-8.327
			c-0.53-0.458-1.123-0.991-1.759-1.561l-0.262-0.233c-3.153-2.825-6.727-6.027-10.156-8.068
			c-5.825-3.451-12.765-2.924-17.273,1.307c-4.342,4.075-5.362,10.526-2.544,16.044c0.956,1.874,2.328,3.492,3.806,5.235
			c0.241,0.281,0.46,0.538,0.598,0.707c3.547,4.421,7.286,8.558,10.902,12.555c4.498,4.975,9.149,10.121,12.973,15.369l1.059,1.269
			c0.024,0.024,0.051,0.051,0.078,0.08c-0.03,0.062-0.059,0.12-0.088,0.185c-0.584,1.242-0.987,2.466-1.296,3.615
			c-2.576,0.19-5.35,0.295-7.936,0.391c-1.525,0.054-3.004,0.11-4.395,0.179c-14.618,0.718-28.23,1.457-41.599,2.257
			c-1.162,0.07-2.312,0.086-3.459,0.104c-2.18,0.037-4.623,0.078-7.286,0.383c-3.256-0.115-6.318,0.991-8.748,3.077
			c-2.98,2.552-4.599,6.249-4.557,10.416c0.067,6.766,4.766,13.835,15.098,14.376l0.343,0.016
			c11.637,1.178,23.448,1.524,34.928,1.858c10.595,0.308,21.518,0.627,32.001,1.625c-0.118,0.134-0.221,0.249-0.304,0.34
			c-1.122,1.253-2.17,2.445-2.995,3.513l-0.617,0.876c-3.613,5.61-8.377,10.7-13.436,16.106c-4.888,5.224-9.942,10.625-14.38,16.952
			l-5.314,7.575l5.605,7.358c4.3,5.647,11.401,7.288,17.682,4.065c2.449-1.256,4.267-3.023,5.73-4.447
			c0.218-0.212,0.497-0.49,0.771-0.75l1.557-0.597l2.008-2.169c3.075-3.326,6.808-6.362,10.801-9.607
			c2.07-1.682,4.133-3.36,6.136-5.093c1.249-1.082,2.811-2.581,4.544-4.26c2.742-2.651,4.94-4.675,6.58-6.065
			c0.032,0.029,0.066,0.056,0.098,0.083c0.107,0.905,0.246,2.233,0.415,4.153l0.06,0.677c1.028,11.404,1.609,23.523,2.173,35.28
			l0.019,0.394c0.311,6.445,0.619,12.868,1,19.19c0.035,0.573-0.029,1.909-0.08,2.94c-0.131,2.662-0.28,5.674,0.262,8.67
			c1.218,6.753,7.102,11.653,13.989,11.653l0.486-0.008c6.727-0.225,12.136-5.098,12.862-11.589
			c0.175-1.566,0.396-3.604,0.499-5.144c0.599-8.89,0.992-18.154,1.343-26.406c0.289-6.766,0.577-13.514,0.967-20.197
			c0.126-2.172,0.22-4.426,0.315-6.75c0.181-4.415,0.367-8.97,0.838-12.968c2.074,1.684,5.382,4.565,10.629,9.495
			c1.892,1.778,3.514,3.296,4.65,4.279c2.347,2.03,4.678,4.067,7.007,6.105l6.492,5.666c1.166,1.012,2.449,2,3.743,2.98
			c1.158,0.881,2.252,1.711,2.961,2.386l3.04,2.9l4.182,0.506c6.982,0.854,11.736-2.991,13.84-6.873
			c4.615-8.552-1.892-16.258-4.028-18.789c-2.741-3.251-5.766-6.341-8.475-9.106c-2.339-2.394-4.757-4.865-6.784-7.227
			c-2.714-3.162-5.39-6.689-7.976-10.1c-1.411-1.861-2.848-3.751-4.335-5.65c0.024-0.003,0.048-0.005,0.072-0.008
			c11.714-1.2,23.796-1.813,35.722-2.421c6.998-0.356,14.234-0.723,21.406-1.218c3.085-0.214,6.465-0.292,9.467-0.361l7.691-0.195
			l3.629-3.944C1570.915-446.898,1572.083-452.39,1570.152-457.373z M1487.448-450.904c-0.896,0.091-1.799,0.099-2.696,0.11
			c-1.418,0.019-3.024,0.04-4.682,0.327l-3.734,0.648l-1.935,3.259c-0.274,0.461-0.558,0.921-0.857,1.4
			c-1.88,3.034-4.01,6.474-3.611,10.989l0.233,2.632l1.723,2.005c2.927,3.403,5.701,7.061,8.384,10.598
			c0.059,0.075,0.116,0.153,0.175,0.23c-8.705-7.84-12.081-9.781-14.981-10.402l-0.744-0.126c-2.455-0.295-4.699,0.22-6.567,1.467
			c-2.554,1.647-9.366,7.205-10.182,13.067c-0.711,5.095-0.936,10.584-1.154,15.929c-0.036,0.905-0.074,1.802-0.112,2.694
			c-0.26-3.888-0.554-7.752-0.897-11.554l-0.059-0.661c-0.588-6.667-0.968-8.209-1.337-9.31l-0.189-0.506
			c-0.984-2.399-2.134-3.567-3.923-4.892c-0.347-0.257-0.727-0.527-1.137-0.916c-0.482-0.458-0.905-0.913-1.303-1.339
			c-1.556-1.665-3.775-4.038-7.845-4.038c-0.806,0-1.686,0.094-2.645,0.303c-4.018,0.886-8.275,4.268-14.865,10.544
			c0.612-0.862,1.21-1.743,1.794-2.643l0.011-0.016c0.592-0.752,1.335-1.577,2.139-2.474c3.838-4.292,6.78-7.918,6.834-12.25
			c0.042-3.692-1.985-6.841-4.438-10.282l-2.055-3.668l-3.956-0.648c-1.186-0.193-2.589-0.388-3.312-0.466
			c-7.442-0.825-15.005-1.277-22.532-1.588c0.523-0.024,1.051-0.051,1.577-0.078c1.325-0.064,2.73-0.118,4.232-0.171
			c4.952-0.185,10.563-0.396,15.233-1.197l3.944-0.68l1.901-3.521c0.838-1.553,1.262-3.358,1.699-5.406
			c0.22-1.036,0.448-2.105,0.7-2.643c0.194-0.41,0.718-1.042,1.23-1.663c0.375-0.45,0.861-1.044,1.214-1.529l3.799-5.224
			l-4.176-4.932c-1.032-1.218-2.603-2.817-4.032-4.247c-0.324-0.327-0.609-0.611-0.827-0.835l-0.013-0.013
			c-0.067-0.091-0.134-0.182-0.199-0.273c4.36,3.786,8.244,6.654,11.7,8.188c7.12,3.157,13.65,0.961,17.92-6.03
			c1.683-2.755,1.985-4.608,1.975-7.262c-0.001-0.578-0.011-1.216,0.074-2c0.644-5.955,1.155-11.971,1.59-17.985
			c0.138,2.694,0.288,5.387,0.454,8.068l0.07,1.143c0.606,10.282,1.147,13.251,1.596,14.799l0.329,1.138l0.637,0.999
			c0.562,0.878,2.113,3.16,2.803,4.126l0.788,1.1l3.002,2.147l0.839,0.348c4.564,1.896,8.406,0.618,10.895-0.509
			c3.261-1.475,6.883-4.022,10.896-7.355c-0.566,0.718-1.137,1.446-1.714,2.185l-1.093,1.395l-5.774,4.437l3.996,6.341
			c0.332,0.525,0.807,1.189,1.184,1.703c0.538,0.739,1.004,1.376,1.282,1.976c0.291,0.624,0.549,1.652,0.809,2.696
			c0.576,2.281,1.103,4.158,2.198,5.789l1.931,2.87l3.402,0.629c3.615,0.667,8.907,1.063,14.017,1.411
			c1.589,0.107,3.186,0.203,4.786,0.284C1498.396-451.897,1492.905-451.463,1487.448-450.904z"/>
		<path fill="#F19AA1" d="M1562.482-454.401c-1.341-3.454-5.233-3.794-7.559-3.995l-0.396-0.037
			c-10.258-0.967-20.706-1.197-30.81-1.419c-7.935-0.177-16.141-0.359-24.074-0.9c-3.617-0.246-9.631-0.656-13.083-1.293
			c-0.387-0.576-0.801-2.228-1.056-3.243c-0.344-1.376-0.702-2.798-1.32-4.126c-0.624-1.339-1.417-2.421-2.114-3.376
			c-0.262-0.359-0.61-0.835-0.85-1.216c0.359-0.276,0.755-0.632,1.129-1.109l1.259-1.607c1.668-2.131,3.359-4.295,5.071-6.324
			c6.01-7.128,12.259-14.296,18.303-21.228l5.829-6.691l0.584-0.859c1.291-2.477,0.822-5.363-1.139-7.015
			c-1.651-1.398-4.504-1.896-7.146,0.118c-2.048,1.556-4.405,3.548-6.318,5.165c-3.085,2.608-6.777,6.161-10.686,9.923
			c-7.744,7.452-17.38,16.727-23.547,19.517c-2.068,0.937-3.208,0.881-4.348,0.407c-0.308-0.217-0.789-0.565-1.094-0.785
			c-0.632-0.884-2.048-2.964-2.561-3.767c-0.312-1.076-0.77-4.257-1.285-12.994l-0.07-1.154c-0.58-9.329-0.959-18.826-1.325-28.008
			c-0.385-9.677-0.785-19.683-1.42-29.552c-0.328-5.186-0.894-5.974-1.349-6.606l-0.009-0.013c-1.284-1.767-3.413-2.57-5.541-2.081
			c-2.332,0.533-4.2,2.541-4.646,4.999c-0.391,2.145-0.27,4.627-0.153,7.026c0.071,1.451,0.143,2.948,0.072,4.049
			c-0.384,5.971-0.714,11.974-1.043,17.991c-0.752,13.755-1.531,27.978-3.018,41.725c-0.123,1.143-0.125,2.07-0.122,2.911
			c0.005,1.387,0.007,1.676-0.77,2.948c-2.597,4.255-5.166,3.861-7.56,2.798c-5.472-2.429-14.148-10.844-21.121-17.608
			c-3.125-3.031-6.077-5.893-8.515-8.009c-0.632-0.546-1.349-1.191-2.118-1.88c-2.878-2.579-6.141-5.502-8.872-7.128
			c-2.686-1.591-5.61-1.502-7.452,0.228c-1.329,1.248-2.25,3.558-0.845,6.311c0.489,0.959,1.356,2.006,2.726,3.62
			c0.303,0.353,0.576,0.675,0.766,0.91c3.379,4.212,7.043,8.266,10.589,12.186c4.644,5.138,9.447,10.453,13.518,16.039l0.371,0.444
			c0.262,0.276,0.663,0.677,1.139,1.154c0.783,0.785,2.608,2.611,3.572,3.749c-0.257,0.353-0.616,0.785-0.888,1.111
			c-0.799,0.964-1.706,2.054-2.347,3.417c-0.659,1.403-0.987,2.945-1.305,4.439c-0.209,0.983-0.544,2.562-0.89,3.205
			c-4.142,0.712-9.472,0.91-14.187,1.087c-1.487,0.054-2.929,0.107-4.288,0.174c-14.727,0.723-28.309,1.462-41.52,2.255
			c-1.279,0.075-2.544,0.096-3.806,0.118c-2.291,0.037-4.656,0.078-7.149,0.412c-1.776-0.193-2.959,0.461-3.671,1.071
			c-1.133,0.969-1.698,2.346-1.68,4.086c0.021,2.19,1.001,5.912,7.32,6.244c0.245,0.013,0.49,0.024,0.723,0.046
			c11.349,1.149,23.016,1.489,34.301,1.818c11.87,0.345,24.142,0.702,35.937,2.005c0.636,0.07,1.857,0.241,2.889,0.41
			c0.106,0.193,0.225,0.386,0.36,0.578l0.279,0.391c1.023,1.435,2.927,4.11,2.912,5.417c-0.02,1.588-3.102,5.029-4.757,6.879
			c-0.975,1.087-1.889,2.115-2.605,3.044l-0.217,0.308c-4.007,6.22-9.021,11.581-14.329,17.252
			c-4.699,5.023-9.558,10.215-13.668,16.074l-1.859,2.651l1.963,2.576c1.916,2.517,4.607,3.152,7.382,1.73
			c1.347-0.691,2.513-1.823,3.746-3.023c0.712-0.693,1.904-1.853,2.368-2.078l0.964-0.37l0.702-0.758
			c3.485-3.77,7.454-6.994,11.657-10.41c2.001-1.625,3.999-3.248,5.938-4.927c1.157-1.001,2.6-2.394,4.201-3.944
			c3.398-3.285,9.724-9.404,12.599-10.038c1.224-0.268,1.225-0.268,2.71,1.32c0.503,0.538,1.039,1.109,1.648,1.687
			c0.698,0.661,1.328,1.135,1.916,1.569c0.846,0.627,0.897,0.664,1.197,1.395c0.26,0.774,0.577,3.269,0.943,7.417l0.059,0.664
			c1.046,11.589,1.631,23.806,2.197,35.623c0.315,6.544,0.626,13.067,1.013,19.482c0.063,1.036-0.008,2.463-0.075,3.845
			c-0.115,2.329-0.233,4.737,0.141,6.801c0.517,2.862,2.978,4.889,5.895,4.889c0.07,0,0.141,0,0.212-0.003
			c2.648-0.088,4.69-1.853,4.962-4.284c0.163-1.457,0.371-3.35,0.467-4.779c0.585-8.691,0.964-17.552,1.328-26.123
			c0.292-6.839,0.582-13.656,0.976-20.409c0.125-2.134,0.216-4.348,0.308-6.592c0.209-5.117,0.424-10.408,1.08-15.107
			c0.226-1.625,3.621-5.441,6.492-7.291c0.237-0.158,0.503-0.289,1.126-0.214c2.965,0.637,12.887,9.961,16.621,13.468
			c1.789,1.682,3.322,3.119,4.397,4.048c2.495,2.158,4.974,4.327,7.45,6.493c2.022,1.767,4.041,3.534,6.063,5.291
			c1.032,0.897,2.172,1.767,3.323,2.64c1.347,1.023,2.619,1.989,3.663,2.983l1.064,1.015l1.458,0.177
			c3.672,0.439,5.233-1.89,5.626-2.613c1.955-3.623-1.169-7.318-3.079-9.58c-2.514-2.983-5.315-5.848-8.023-8.614
			c-2.445-2.501-4.972-5.085-7.187-7.663c-2.873-3.347-5.626-6.975-8.288-10.485c-2.765-3.644-5.618-7.404-8.699-10.989
			c-0.15-1.695,0.821-3.366,2.41-5.931c0.317-0.509,0.632-1.02,0.937-1.534c1.004-0.174,2.135-0.19,3.383-0.206
			c1.146-0.016,2.289-0.038,3.422-0.153c11.903-1.218,24.102-1.839,35.901-2.439c7.039-0.359,14.318-0.728,21.497-1.224
			c3.212-0.222,6.573-0.303,9.825-0.378l4.208-0.107l1.269-1.379C1563.36-450.834,1562.943-453.212,1562.482-454.401z"/>
		<path fill="#F05827" d="M1473.076-454.28c-2.643,8.962-14.187,20.885-23.27,28.372c-0.518,0.428-1.971,1.553-3.198,2.469
			c-1.652-1.202-3.915-2.994-4.734-3.708c-18.075-15.731-25.39-28.235-21.743-37.168c1.501-3.674,3.635-5.912,6.528-6.841
			c1.134-0.367,2.352-0.522,3.603-0.522c5.462,0,11.523,2.969,13.77,4.381l2.637,1.649l2.458-1.898
			c1.258-0.975,12.583-9.232,22.26,0.667C1474.451-463.748,1474.213-458.133,1473.076-454.28z"/>
	</g>
</g>
<g>
</g>
<g>
</g>
<g>
</g>
<g>
</g>
<g>
</g>
<g>
</g>
<g>
</g>
<g>
</g>
<g>
</g>
<g>
</g>
<g>
</g>
<g>
</g>
<g>
</g>
<g>
</g>
<g>
</g>
</svg>
